0
SECTION
2
HEADER
9
$INSUNITS
70
4
9
$ACADVER
1
AC1014
9
$HANDSEED
5
FFFF
0
ENDSEC
0
SECTION
2
TABLES
0
TABLE
2
VPORT
5
8
100
AcDbSymbolTable
0
ENDTAB
0
TABLE
2
LTYPE
5
5
100
AcDbSymbolTable
0
LTYPE
5
14
100
AcDbSymbolTableRecord
100
AcDbLinetypeTableRecord
2
BYBLOCK
70
0
0
LTYPE
5
15
100
AcDbSymbolTableRecord
100
AcDbLinetypeTableRecord
2
BYLAYER
70
0
0
ENDTAB
0
TABLE
2
LAYER
5
2
100
AcDbSymbolTable
70
2
0
LAYER
5
50
100
AcDbSymbolTableRecord
100
AcDbLayerTableRecord
2
0
70
0
6
CONTINUOUS
0
ENDTAB
0
TABLE
2
STYLE
5
3
100
AcDbSymbolTable
70
1
0
STYLE
5
11
100
AcDbSymbolTableRecord
100
AcDbTextStyleTableRecord
2
STANDARD
70
0
0
ENDTAB
0
TABLE
2
VIEW
5
6
100
AcDbSymbolTable
70
0
0
ENDTAB
0
TABLE
2
UCS
5
7
100
AcDbSymbolTable
70
0
0
ENDTAB
0
TABLE
2
APPID
5
9
100
AcDbSymbolTable
70
2
0
APPID
5
12
100
AcDbSymbolTableRecord
100
AcDbRegAppTableRecord
2
ACAD
70
0
0
ENDTAB
0
TABLE
2
DIMSTYLE
5
A
100
AcDbSymbolTable
70
1
0
ENDTAB
0
TABLE
2
BLOCK_RECORD
5
1
100
AcDbSymbolTable
70
1
0
BLOCK_RECORD
5
1F
100
AcDbSymbolTableRecord
100
AcDbBlockTableRecord
2
*MODEL_SPACE
0
BLOCK_RECORD
5
1B
100
AcDbSymbolTableRecord
100
AcDbBlockTableRecord
2
*PAPER_SPACE
0
ENDTAB
0
ENDSEC
0
SECTION
2
BLOCKS
0
BLOCK
5
20
100
AcDbEntity
100
AcDbBlockBegin
2
*MODEL_SPACE
0
ENDBLK
5
21
100
AcDbEntity
100
AcDbBlockEnd
0
BLOCK
5
1C
100
AcDbEntity
100
AcDbBlockBegin
2
*PAPER_SPACE
0
ENDBLK
5
1D
100
AcDbEntity
100
AcDbBlockEnd
0
ENDSEC
0
SECTION
2
ENTITIES
0
LWPOLYLINE
5
100
100
AcDbEntity
8
0
100
AcDbPolyline
90
8
70
1
43
0.0
10
338.48333200779763
20
-207.6986130037925
10
352.3833320100328
20
-207.6986130037925
42
-0.41421356237309509
10
352.43333200891522
20
-207.74861300267492
10
352.43333200891522
20
-221.64861300491009
42
-0.41421356237309509
10
352.3833320100328
20
-221.6986130037925
10
338.48333200779763
20
-221.6986130037925
42
-0.41421356237309509
10
338.43333200891522
20
-221.64861300491009
10
338.43333200891522
20
-207.74861300267492
42
-0.41421356237309509
0
LWPOLYLINE
5
101
100
AcDbEntity
8
0
100
AcDbPolyline
90
8
70
1
43
0.0
10
357.53333200779764
20
-207.6986130037925
10
371.43333201003281
20
-207.6986130037925
42
-0.41421356237309509
10
371.48333200891523
20
-207.74861300267492
10
371.48333200891523
20
-221.64861300491009
42
-0.41421356237309509
10
371.43333201003281
20
-221.6986130037925
10
357.53333200779764
20
-221.6986130037925
42
-0.41421356237309509
10
357.48333200891523
20
-221.64861300491009
10
357.48333200891523
20
-207.74861300267492
42
-0.41421356237309509
0
LWPOLYLINE
5
102
100
AcDbEntity
8
0
100
AcDbPolyline
90
8
70
1
43
0.0
10
376.58333200779765
20
-207.6986130037925
10
390.48333201003283
20
-207.6986130037925
42
-0.41421356237309509
10
390.53333200891524
20
-207.74861300267492
10
390.53333200891524
20
-221.64861300491009
42
-0.41421356237309509
10
390.48333201003283
20
-221.6986130037925
10
376.58333200779765
20
-221.6986130037925
42
-0.41421356237309509
10
376.53333200891524
20
-221.64861300491009
10
376.53333200891524
20
-207.74861300267492
42
-0.41421356237309509
0
LWPOLYLINE
5
103
100
AcDbEntity
8
0
100
AcDbPolyline
90
8
70
1
43
0.0
10
395.63333200779766
20
-207.6986130037925
10
409.53333201003284
20
-207.6986130037925
42
-0.41421356237309509
10
409.58333200891525
20
-207.74861300267492
10
409.58333200891525
20
-221.64861300491009
42
-0.41421356237309509
10
409.53333201003284
20
-221.6986130037925
10
395.63333200779766
20
-221.6986130037925
42
-0.41421356237309509
10
395.58333200891525
20
-221.64861300491009
10
395.58333200891525
20
-207.74861300267492
42
-0.41421356237309509
0
LWPOLYLINE
5
104
100
AcDbEntity
8
0
100
AcDbPolyline
90
8
70
1
43
0.0
10
414.68333200779767
20
-207.6986130037925
10
428.58333201003285
20
-207.6986130037925
42
-0.41421356237309509
10
428.63333200891526
20
-207.74861300267492
10
428.63333200891526
20
-221.64861300491009
42
-0.41421356237309509
10
428.58333201003285
20
-221.6986130037925
10
414.68333200779767
20
-221.6986130037925
42
-0.41421356237309509
10
414.63333200891526
20
-221.64861300491009
10
414.63333200891526
20
-207.74861300267492
42
-0.41421356237309509
0
LWPOLYLINE
5
105
100
AcDbEntity
8
0
100
AcDbPolyline
90
8
70
1
43
0.0
10
433.73333200779763
20
-207.6986130037925
10
447.63333201003275
20
-207.6986130037925
42
-0.41421356237309509
10
447.68333200891516
20
-207.74861300267492
10
447.68333200891516
20
-221.64861300491009
42
-0.41421356237309509
10
447.63333201003275
20
-221.6986130037925
10
433.73333200779763
20
-221.6986130037925
42
-0.41421356237309509
10
433.68333200891522
20
-221.64861300491009
10
433.68333200891522
20
-207.74861300267492
42
-0.41421356237309509
0
LWPOLYLINE
5
106
100
AcDbEntity
8
0
100
AcDbPolyline
90
8
70
1
43
0.0
10
452.78333200779764
20
-207.6986130037925
10
466.68333201003281
20
-207.6986130037925
42
-0.41421356237309509
10
466.73333200891523
20
-207.74861300267492
10
466.73333200891523
20
-221.64861300491009
42
-0.41421356237309509
10
466.68333201003281
20
-221.6986130037925
10
452.78333200779764
20
-221.6986130037925
42
-0.41421356237309509
10
452.73333200891523
20
-221.64861300491009
10
452.73333200891523
20
-207.74861300267492
42
-0.41421356237309509
0
LWPOLYLINE
5
107
100
AcDbEntity
8
0
100
AcDbPolyline
90
8
70
1
43
0.0
10
471.83333200779765
20
-207.6986130037925
10
485.73333201003277
20
-207.6986130037925
42
-0.41421356237309509
10
485.78333200891518
20
-207.74861300267492
10
485.78333200891518
20
-221.64861300491009
42
-0.41421356237309509
10
485.73333201003277
20
-221.6986130037925
10
471.83333200779765
20
-221.6986130037925
42
-0.41421356237309509
10
471.78333200891524
20
-221.64861300491009
10
471.78333200891524
20
-207.74861300267492
42
-0.41421356237309509
0
LWPOLYLINE
5
108
100
AcDbEntity
8
0
100
AcDbPolyline
90
8
70
1
43
0.0
10
490.88333200779766
20
-207.6986130037925
10
504.78333201003284
20
-207.6986130037925
42
-0.41421356237309509
10
504.83333200891525
20
-207.74861300267492
10
504.83333200891525
20
-221.64861300491009
42
-0.41421356237309509
10
504.78333201003284
20
-221.6986130037925
10
490.88333200779766
20
-221.6986130037925
42
-0.41421356237309509
10
490.83333200891525
20
-221.64861300491009
10
490.83333200891525
20
-207.74861300267492
42
-0.41421356237309509
0
LWPOLYLINE
5
109
100
AcDbEntity
8
0
100
AcDbPolyline
90
8
70
1
43
0.0
10
319.43333200779767
20
-226.74861300379249
10
333.33333201003285
20
-226.74861300379249
42
-0.41421356237309509
10
333.38333200891526
20
-226.7986130026749
10
333.38333200891526
20
-240.6986130049101
42
-0.41421356237309509
10
333.33333201003285
20
-240.74861300379251
10
319.43333200779767
20
-240.74861300379251
42
-0.41421356237309509
10
319.38333200891526
20
-240.6986130049101
10
319.38333200891526
20
-226.7986130026749
42
-0.41421356237309509
0
LWPOLYLINE
5
110
100
AcDbEntity
8
0
100
AcDbPolyline
90
8
70
1
43
0.0
10
338.48333200779763
20
-226.74861300379249
10
352.3833320100328
20
-226.74861300379249
42
-0.41421356237309509
10
352.43333200891522
20
-226.7986130026749
10
352.43333200891522
20
-240.6986130049101
42
-0.41421356237309509
10
352.3833320100328
20
-240.74861300379251
10
338.48333200779763
20
-240.74861300379251
42
-0.41421356237309509
10
338.43333200891522
20
-240.6986130049101
10
338.43333200891522
20
-226.7986130026749
42
-0.41421356237309509
0
LWPOLYLINE
5
111
100
AcDbEntity
8
0
100
AcDbPolyline
90
8
70
1
43
0.0
10
357.53333200779764
20
-226.74861300379249
10
371.43333201003281
20
-226.74861300379249
42
-0.41421356237309509
10
371.48333200891523
20
-226.7986130026749
10
371.48333200891523
20
-240.6986130049101
42
-0.41421356237309509
10
371.43333201003281
20
-240.74861300379251
10
357.53333200779764
20
-240.74861300379251
42
-0.41421356237309509
10
357.48333200891523
20
-240.6986130049101
10
357.48333200891523
20
-226.7986130026749
42
-0.41421356237309509
0
LWPOLYLINE
5
112
100
AcDbEntity
8
0
100
AcDbPolyline
90
8
70
1
43
0.0
10
376.58333200779765
20
-226.74861300379249
10
390.48333201003283
20
-226.74861300379249
42
-0.41421356237309509
10
390.53333200891524
20
-226.7986130026749
10
390.53333200891524
20
-240.6986130049101
42
-0.41421356237309509
10
390.48333201003283
20
-240.74861300379251
10
376.58333200779765
20
-240.74861300379251
42
-0.41421356237309509
10
376.53333200891524
20
-240.6986130049101
10
376.53333200891524
20
-226.7986130026749
42
-0.41421356237309509
0
LWPOLYLINE
5
113
100
AcDbEntity
8
0
100
AcDbPolyline
90
8
70
1
43
0.0
10
395.63333200779766
20
-226.74861300379249
10
409.53333201003284
20
-226.74861300379249
42
-0.41421356237309509
10
409.58333200891525
20
-226.7986130026749
10
409.58333200891525
20
-240.6986130049101
42
-0.41421356237309509
10
409.53333201003284
20
-240.74861300379251
10
395.63333200779766
20
-240.74861300379251
42
-0.41421356237309509
10
395.58333200891525
20
-240.6986130049101
10
395.58333200891525
20
-226.7986130026749
42
-0.41421356237309509
0
LWPOLYLINE
5
114
100
AcDbEntity
8
0
100
AcDbPolyline
90
8
70
1
43
0.0
10
414.68333200779767
20
-226.74861300379249
10
428.58333201003285
20
-226.74861300379249
42
-0.41421356237309509
10
428.63333200891526
20
-226.7986130026749
10
428.63333200891526
20
-240.6986130049101
42
-0.41421356237309509
10
428.58333201003285
20
-240.74861300379251
10
414.68333200779767
20
-240.74861300379251
42
-0.41421356237309509
10
414.63333200891526
20
-240.6986130049101
10
414.63333200891526
20
-226.7986130026749
42
-0.41421356237309509
0
LWPOLYLINE
5
115
100
AcDbEntity
8
0
100
AcDbPolyline
90
8
70
1
43
0.0
10
433.73333200779763
20
-226.74861300379249
10
447.63333201003275
20
-226.74861300379249
42
-0.41421356237309509
10
447.68333200891516
20
-226.7986130026749
10
447.68333200891516
20
-240.6986130049101
42
-0.41421356237309509
10
447.63333201003275
20
-240.74861300379251
10
433.73333200779763
20
-240.74861300379251
42
-0.41421356237309509
10
433.68333200891522
20
-240.6986130049101
10
433.68333200891522
20
-226.7986130026749
42
-0.41421356237309509
0
LWPOLYLINE
5
116
100
AcDbEntity
8
0
100
AcDbPolyline
90
8
70
1
43
0.0
10
452.78333200779764
20
-226.74861300379249
10
466.68333201003281
20
-226.74861300379249
42
-0.41421356237309509
10
466.73333200891523
20
-226.7986130026749
10
466.73333200891523
20
-240.6986130049101
42
-0.41421356237309509
10
466.68333201003281
20
-240.74861300379251
10
452.78333200779764
20
-240.74861300379251
42
-0.41421356237309509
10
452.73333200891523
20
-240.6986130049101
10
452.73333200891523
20
-226.7986130026749
42
-0.41421356237309509
0
LWPOLYLINE
5
117
100
AcDbEntity
8
0
100
AcDbPolyline
90
8
70
1
43
0.0
10
471.83333200779765
20
-226.74861300379249
10
485.73333201003277
20
-226.74861300379249
42
-0.41421356237309509
10
485.78333200891518
20
-226.7986130026749
10
485.78333200891518
20
-240.6986130049101
42
-0.41421356237309509
10
485.73333201003277
20
-240.74861300379251
10
471.83333200779765
20
-240.74861300379251
42
-0.41421356237309509
10
471.78333200891524
20
-240.6986130049101
10
471.78333200891524
20
-226.7986130026749
42
-0.41421356237309509
0
LWPOLYLINE
5
118
100
AcDbEntity
8
0
100
AcDbPolyline
90
8
70
1
43
0.0
10
490.88333200779766
20
-226.74861300379249
10
504.78333201003284
20
-226.74861300379249
42
-0.41421356237309509
10
504.83333200891525
20
-226.7986130026749
10
504.83333200891525
20
-240.6986130049101
42
-0.41421356237309509
10
504.78333201003284
20
-240.74861300379251
10
490.88333200779766
20
-240.74861300379251
42
-0.41421356237309509
10
490.83333200891525
20
-240.6986130049101
10
490.83333200891525
20
-226.7986130026749
42
-0.41421356237309509
0
LWPOLYLINE
5
119
100
AcDbEntity
8
0
100
AcDbPolyline
90
8
70
1
43
0.0
10
319.43333200779767
20
-245.7986130037925
10
333.33333201003285
20
-245.7986130037925
42
-0.41421356237309509
10
333.38333200891526
20
-245.84861300267491
10
333.38333200891526
20
-259.74861300491006
42
-0.41421356237309509
10
333.33333201003285
20
-259.79861300379247
10
319.43333200779767
20
-259.79861300379247
42
-0.41421356237309509
10
319.38333200891526
20
-259.74861300491006
10
319.38333200891526
20
-245.84861300267491
42
-0.41421356237309509
0
LWPOLYLINE
5
120
100
AcDbEntity
8
0
100
AcDbPolyline
90
8
70
1
43
0.0
10
338.48333200779763
20
-245.7986130037925
10
352.3833320100328
20
-245.7986130037925
42
-0.41421356237309509
10
352.43333200891522
20
-245.84861300267491
10
352.43333200891522
20
-259.74861300491006
42
-0.41421356237309509
10
352.3833320100328
20
-259.79861300379247
10
338.48333200779763
20
-259.79861300379247
42
-0.41421356237309509
10
338.43333200891522
20
-259.74861300491006
10
338.43333200891522
20
-245.84861300267491
42
-0.41421356237309509
0
LWPOLYLINE
5
121
100
AcDbEntity
8
0
100
AcDbPolyline
90
8
70
1
43
0.0
10
357.53333200779764
20
-245.7986130037925
10
371.43333201003281
20
-245.7986130037925
42
-0.41421356237309509
10
371.48333200891523
20
-245.84861300267491
10
371.48333200891523
20
-259.74861300491006
42
-0.41421356237309509
10
371.43333201003281
20
-259.79861300379247
10
357.53333200779764
20
-259.79861300379247
42
-0.41421356237309509
10
357.48333200891523
20
-259.74861300491006
10
357.48333200891523
20
-245.84861300267491
42
-0.41421356237309509
0
LWPOLYLINE
5
122
100
AcDbEntity
8
0
100
AcDbPolyline
90
8
70
1
43
0.0
10
376.58333200779765
20
-245.7986130037925
10
390.48333201003283
20
-245.7986130037925
42
-0.41421356237309509
10
390.53333200891524
20
-245.84861300267491
10
390.53333200891524
20
-259.74861300491006
42
-0.41421356237309509
10
390.48333201003283
20
-259.79861300379247
10
376.58333200779765
20
-259.79861300379247
42
-0.41421356237309509
10
376.53333200891524
20
-259.74861300491006
10
376.53333200891524
20
-245.84861300267491
42
-0.41421356237309509
0
LWPOLYLINE
5
123
100
AcDbEntity
8
0
100
AcDbPolyline
90
8
70
1
43
0.0
10
395.63333200779766
20
-245.7986130037925
10
409.53333201003284
20
-245.7986130037925
42
-0.41421356237309509
10
409.58333200891525
20
-245.84861300267491
10
409.58333200891525
20
-259.74861300491006
42
-0.41421356237309509
10
409.53333201003284
20
-259.79861300379247
10
395.63333200779766
20
-259.79861300379247
42
-0.41421356237309509
10
395.58333200891525
20
-259.74861300491006
10
395.58333200891525
20
-245.84861300267491
42
-0.41421356237309509
0
LWPOLYLINE
5
124
100
AcDbEntity
8
0
100
AcDbPolyline
90
8
70
1
43
0.0
10
414.68333200779767
20
-245.7986130037925
10
428.58333201003285
20
-245.7986130037925
42
-0.41421356237309509
10
428.63333200891526
20
-245.84861300267491
10
428.63333200891526
20
-259.74861300491006
42
-0.41421356237309509
10
428.58333201003285
20
-259.79861300379247
10
414.68333200779767
20
-259.79861300379247
42
-0.41421356237309509
10
414.63333200891526
20
-259.74861300491006
10
414.63333200891526
20
-245.84861300267491
42
-0.41421356237309509
0
LWPOLYLINE
5
125
100
AcDbEntity
8
0
100
AcDbPolyline
90
8
70
1
43
0.0
10
433.73333200779763
20
-245.7986130037925
10
447.63333201003275
20
-245.7986130037925
42
-0.41421356237309509
10
447.68333200891516
20
-245.84861300267491
10
447.68333200891516
20
-259.74861300491006
42
-0.41421356237309509
10
447.63333201003275
20
-259.79861300379247
10
433.73333200779763
20
-259.79861300379247
42
-0.41421356237309509
10
433.68333200891522
20
-259.74861300491006
10
433.68333200891522
20
-245.84861300267491
42
-0.41421356237309509
0
LWPOLYLINE
5
126
100
AcDbEntity
8
0
100
AcDbPolyline
90
8
70
1
43
0.0
10
452.78333200779764
20
-245.7986130037925
10
466.68333201003281
20
-245.7986130037925
42
-0.41421356237309509
10
466.73333200891523
20
-245.84861300267491
10
466.73333200891523
20
-259.74861300491006
42
-0.41421356237309509
10
466.68333201003281
20
-259.79861300379247
10
452.78333200779764
20
-259.79861300379247
42
-0.41421356237309509
10
452.73333200891523
20
-259.74861300491006
10
452.73333200891523
20
-245.84861300267491
42
-0.41421356237309509
0
LWPOLYLINE
5
127
100
AcDbEntity
8
0
100
AcDbPolyline
90
8
70
1
43
0.0
10
471.83333200779765
20
-245.7986130037925
10
485.73333201003277
20
-245.7986130037925
42
-0.41421356237309509
10
485.78333200891518
20
-245.84861300267491
10
485.78333200891518
20
-259.74861300491006
42
-0.41421356237309509
10
485.73333201003277
20
-259.79861300379247
10
471.83333200779765
20
-259.79861300379247
42
-0.41421356237309509
10
471.78333200891524
20
-259.74861300491006
10
471.78333200891524
20
-245.84861300267491
42
-0.41421356237309509
0
LWPOLYLINE
5
128
100
AcDbEntity
8
0
100
AcDbPolyline
90
8
70
1
43
0.0
10
490.88333200779766
20
-245.7986130037925
10
504.78333201003284
20
-245.7986130037925
42
-0.41421356237309509
10
504.83333200891525
20
-245.84861300267491
10
504.83333200891525
20
-259.74861300491006
42
-0.41421356237309509
10
504.78333201003284
20
-259.79861300379247
10
490.88333200779766
20
-259.79861300379247
42
-0.41421356237309509
10
490.83333200891525
20
-259.74861300491006
10
490.83333200891525
20
-245.84861300267491
42
-0.41421356237309509
0
SPLINE
5
129
100
AcDbEntity
8
0
100
AcDbSpline
70
4
71
5
72
21
73
15
74
0
42
0.000000001
43
0.0000000001
44
0.0000000001
40
0
40
0
40
0
40
0
40
0
40
0
40
0.10000000000000001
40
0.20000000000000001
40
0.30000000000000004
40
0.40000000000000002
40
0.5
40
0.59999999999999998
40
0.69999999999999996
40
0.79999999999999993
40
0.89999999999999991
40
1
40
1
40
1
40
1
40
1
40
1
41
1
41
1
41
1
41
1
41
1
41
1
41
1
41
1
41
1
41
1
41
1
41
1
41
1
41
1
41
1
10
339.77106079590658
20
-284.979943856521
30
0
10
339.76770593448322
20
-284.88023276713614
30
0
10
339.76704750821898
20
-284.68325998930754
30
0
10
339.78421406495147
20
-284.39514914940497
30
0
10
339.84400587941332
20
-284.02593872685003
30
0
10
339.9842786066244
20
-283.59095166531461
30
0
10
340.19536676519641
20
-283.184628772042
30
0
10
340.48215559474585
20
-282.80894745963985
30
0
10
340.84565280607512
20
-282.46431562210478
30
0
10
341.28118729074544
20
-282.148842521262
30
0
10
341.78258980518228
20
-281.86003101442833
30
0
10
342.23173477417117
20
-281.648420201129
30
0
10
342.59383426102761
20
-281.49992886704143
30
0
10
342.84626753356224
20
-281.40540075260282
30
0
10
342.97524274565944
20
-281.35925329214581
30
0
0
ARC
5
130
100
AcDbEntity
8
0
100
AcDbCircle
10
334.52540952481655
20
-288.3290081440847
30
0
40
0.2500000000000584
210
0
220
0
230
1
100
AcDbArc
50
-109.47122063197814
51
0
0
ARC
5
131
100
AcDbEntity
8
0
100
AcDbCircle
10
335.77540952466109
20
-284.79347423809708
30
0
40
1.0000000000000853
210
0
220
0
230
1
100
AcDbArc
50
0
51
180.00101016324402
0
SPLINE
5
132
100
AcDbEntity
8
0
100
AcDbSpline
70
4
71
5
72
21
73
15
74
0
42
0.000000001
43
0.0000000001
44
0.0000000001
40
0
40
0
40
0
40
0
40
0
40
0
40
0.10000000000000001
40
0.20000000000000001
40
0.30000000000000004
40
0.40000000000000002
40
0.5
40
0.59999999999999998
40
0.69999999999999996
40
0.79999999999999993
40
0.89999999999999991
40
1
40
1
40
1
40
1
40
1
40
1
41
1
41
1
41
1
41
1
41
1
41
1
41
1
41
1
41
1
41
1
41
1
41
1
41
1
41
1
41
1
10
331.83253292215579
20
-285.46706469038685
30
0
10
331.82230205463554
20
-285.34582920601019
30
0
10
331.79693348602052
20
-285.1067883836397
30
0
10
331.74416045537146
20
-284.75851736344032
30
0
10
331.64386891930599
20
-284.31507696734792
30
0
10
331.46526182945513
20
-283.79799602501987
30
0
10
331.22873889022452
20
-283.32140144493832
30
0
10
330.92970615915425
20
-282.88850464543549
30
0
10
330.56589978290498
20
-282.50088818445511
30
0
10
330.14016873748346
20
-282.15656047115334
30
0
10
329.65730516966943
20
-281.85217153148591
30
0
10
329.22911812599887
20
-281.63794811909486
30
0
10
328.88591796335737
20
-281.49270162841185
30
0
10
328.64747374176864
20
-281.40261239983039
30
0
10
328.52584050936105
20
-281.35925329207953
30
0
0
SPLINE
5
133
100
AcDbEntity
8
0
100
AcDbSpline
70
4
71
5
72
21
73
15
74
0
42
0.000000001
43
0.0000000001
44
0.0000000001
40
0
40
0
40
0
40
0
40
0
40
0
40
0.10000000000000001
40
0.20000000000000001
40
0.30000000000000004
40
0.40000000000000002
40
0.5
40
0.59999999999999998
40
0.69999999999999996
40
0.79999999999999993
40
0.89999999999999991
40
1
40
1
40
1
40
1
40
1
40
1
41
1
41
1
41
1
41
1
41
1
41
1
41
1
41
1
41
1
41
1
41
1
41
1
41
1
41
1
41
1
10
484.8325144459659
20
-285.46695653066286
30
0
10
484.8213022321118
20
-285.34717473517708
30
0
10
484.79405423311232
20
-285.11091587584224
30
0
10
484.73871182285171
20
-284.76644157476585
30
0
10
484.63550237823148
20
-284.32729847802352
30
0
10
484.4541540727335
20
-283.814226460052
30
0
10
484.21588564009568
20
-283.34015163601907
30
0
10
483.91619764053331
20
-282.90815666815701
30
0
10
483.55290252835778
20
-282.51974029069521
30
0
10
483.12883052861906
20
-282.17296345601522
30
0
10
482.64869885186607
20
-281.86459430244815
30
0
10
482.22349096613675
20
-281.64605920985679
30
0
10
481.88294409897185
20
-281.49698456903002
30
0
10
481.64645192346848
20
-281.40408336067594
30
0
10
481.52584050934735
20
-281.35925329206907
30
0
0
LWPOLYLINE
5
134
100
AcDbEntity
8
0
100
AcDbPolyline
90
8
70
1
43
0.0
10
333.36004028061848
20
-221.64167864669503
42
-0.41421356237309509
10
333.31004028173606
20
-221.69167864557744
10
319.41004027950095
20
-221.69167864557744
42
-0.41421356237309509
10
319.36004028061853
20
-221.64167864669503
10
319.36004028061853
20
-207.74167864445985
42
-0.41421356237309509
10
319.41004027950095
20
-207.69167864557744
10
333.31004028173606
20
-207.69167864557744
42
-0.41421356237309509
10
333.36004028061848
20
-207.74167864445985
0
ARC
5
135
100
AcDbEntity
8
0
100
AcDbCircle
10
317.10709315532472
20
-281.10925329208038
30
0
40
0.25000000000002132
210
0
220
0
230
1
100
AcDbArc
50
180
51
270
0
LINE
5
136
100
AcDbEntity
8
0
100
AcDbLine
10
334.77540952481661
20
-284.79349186877585
30
0
11
334.7754095248165
21
-288.3290081440847
31
0
0
ARC
5
137
100
AcDbEntity
8
0
100
AcDbCircle
10
335.77540952466109
20
-284.79347423809708
30
0
40
3.9999999999999929
210
0
220
0
230
1
100
AcDbArc
50
289.47122063449115
51
357.32805109560513
0
ARC
5
138
100
AcDbEntity
8
0
100
AcDbCircle
10
335.77540952466109
20
-284.79347423809708
30
0
40
3.9999999999999236
210
0
220
0
230
1
100
AcDbArc
50
189.69466595070185
51
250.52877936802793
0
LINE
5
139
100
AcDbEntity
8
0
100
AcDbLine
10
507.35709315532449
20
-205.40925329208045
30
0
11
507.35709315532461
21
-281.10925329208089
31
0
0
LINE
5
140
100
AcDbEntity
8
0
100
AcDbLine
10
481.52584050934735
20
-281.35925329206907
30
0
11
342.97524274565944
21
-281.35925329214581
31
0
0
ARC
5
141
100
AcDbEntity
8
0
100
AcDbCircle
10
337.02540952466109
20
-288.32900814402979
30
0
40
0.24999999999991473
210
0
220
0
230
1
100
AcDbArc
50
180
51
289.47122063449581
0
LINE
5
142
100
AcDbEntity
8
0
100
AcDbLine
10
334.93045735989017
20
-205.15925329208048
30
0
11
480.93016164672122
21
-205.15925329208045
31
0
0
LINE
5
143
100
AcDbEntity
8
0
100
AcDbLine
10
336.7754095246612
20
-284.79347423809708
30
0
11
336.7754095246612
21
-288.32900814402979
31
0
0
LINE
5
144
100
AcDbEntity
8
0
100
AcDbLine
10
328.52584050936105
20
-281.35925329207953
30
0
11
317.10709315532472
21
-281.35925329208038
31
0
0
SPLINE
5
145
100
AcDbEntity
8
0
100
AcDbSpline
70
4
71
5
72
21
73
15
74
0
42
0.000000001
43
0.0000000001
44
0.0000000001
40
0
40
0
40
0
40
0
40
0
40
0
40
0.10000000000000001
40
0.20000000000000001
40
0.30000000000000004
40
0.40000000000000002
40
0.5
40
0.59999999999999998
40
0.69999999999999996
40
0.79999999999999993
40
0.89999999999999991
40
1
40
1
40
1
40
1
40
1
40
1
41
1
41
1
41
1
41
1
41
1
41
1
41
1
41
1
41
1
41
1
41
1
41
1
41
1
41
1
41
1
10
323.6643703108216
20
-201.92315811171255
30
0
10
323.65618001593339
20
-201.99261130319169
30
0
10
323.63463516533864
20
-202.13108518611477
30
0
10
323.5868245128043
20
-202.33749846063239
30
0
10
323.49158557870726
20
-202.6100787969722
30
0
10
323.31671087599329
20
-202.94612886053903
30
0
10
323.08185178987452
20
-203.27715531104337
30
0
10
322.78345759527383
20
-203.60286077992663
30
0
10
322.42195867375062
20
-203.92328131106473
30
0
10
322.00193004665101
20
-204.23880005645501
30
0
10
321.52878716636741
20
-204.54987055308695
30
0
10
321.11171563391559
20
-204.79549783329264
30
0
10
320.77867796631483
20
-204.97802372105187
30
0
10
320.54780799403181
20
-205.09896690079574
30
0
10
320.43016164672122
20
-205.15925329208045
30
0
0
ARC
5
146
100
AcDbEntity
8
0
100
AcDbCircle
10
335.77540952481655
20
-284.79349186877585
30
0
40
1.0000000000000389
210
0
220
-0
230
1
100
AcDbArc
50
0.0010101632440297191
51
180
0
ARC
5
147
100
AcDbEntity
8
0
100
AcDbCircle
10
327.66001893473913
20
-202.1096104773203
30
0
40
4.000004390639833
210
0
220
0
230
1
100
AcDbArc
50
109.47114413941343
51
177.330142166229
0
ARC
5
148
100
AcDbEntity
8
0
100
AcDbCircle
10
507.10709315532472
20
-281.10925329208095
30
0
40
0.24999999999991473
210
-0
220
0
230
1
100
AcDbArc
50
-89.999999999908809
51
0
0
LINE
5
149
100
AcDbEntity
8
0
100
AcDbLine
10
316.85709315532472
20
-281.10925329208038
30
0
11
316.85709315532472
21
-205.40925329208051
31
0
0
ARC
5
150
100
AcDbEntity
8
0
100
AcDbCircle
10
488.77540952994821
20
-284.793577069317
30
0
40
1.0000000000002087
210
0
220
-0
230
1
100
AcDbArc
50
0.0058917948782933388
51
180
0
SPLINE
5
151
100
AcDbEntity
8
0
100
AcDbSpline
70
4
71
5
72
21
73
15
74
0
42
0.000000001
43
0.0000000001
44
0.0000000001
40
0
40
0
40
0
40
0
40
0
40
0
40
0.10000000000000001
40
0.20000000000000001
40
0.30000000000000004
40
0.40000000000000002
40
0.5
40
0.59999999999999998
40
0.69999999999999996
40
0.79999999999999993
40
0.89999999999999991
40
1
40
1
40
1
40
1
40
1
40
1
41
1
41
1
41
1
41
1
41
1
41
1
41
1
41
1
41
1
41
1
41
1
41
1
41
1
41
1
41
1
10
484.16437031082154
20
-201.92315811171255
30
0
10
484.15618001593316
20
-201.99261130319169
30
0
10
484.13463516533801
20
-202.13108518611477
30
0
10
484.08682451280276
20
-202.33749846063239
30
0
10
483.99158557870345
20
-202.6100787969722
30
0
10
483.81671087598727
20
-202.94612886053903
30
0
10
483.58185178986963
20
-203.27715531104337
30
0
10
483.2834575952769
20
-203.60286077992663
30
0
10
482.92195867376756
20
-203.92328131106473
30
0
10
482.50193004668324
20
-204.23880005645501
30
0
10
482.02878716640794
20
-204.54987055308695
30
0
10
481.61171563395078
20
-204.79549783329264
30
0
10
481.27867796633637
20
-204.97802372105187
30
0
10
481.04780799403977
20
-205.09896690079574
30
0
10
480.93016164672122
20
-205.15925329208045
30
0
0
LINE
5
152
100
AcDbEntity
8
0
100
AcDbLine
10
495.43045735989011
20
-205.15925329208048
30
0
11
507.10709315532455
21
-205.15925329208042
31
0
0
SPLINE
5
153
100
AcDbEntity
8
0
100
AcDbSpline
70
4
71
5
72
21
73
15
74
0
42
0.000000001
43
0.0000000001
44
0.0000000001
40
0
40
0
40
0
40
0
40
0
40
0
40
0.10000000000000001
40
0.20000000000000001
40
0.30000000000000004
40
0.40000000000000002
40
0.5
40
0.59999999999999998
40
0.69999999999999996
40
0.79999999999999993
40
0.89999999999999991
40
1
40
1
40
1
40
1
40
1
40
1
41
1
41
1
41
1
41
1
41
1
41
1
41
1
41
1
41
1
41
1
41
1
41
1
41
1
41
1
41
1
10
331.60292323845238
20
-201.43616218561417
30
0
10
331.61722619520475
20
-201.49935260189352
30
0
10
331.65064644910382
20
-201.62677203247813
30
0
10
331.71522044263361
20
-201.82101710003798
30
0
10
331.83067645814867
20
-202.08634378845181
30
0
10
332.0269960605446
20
-202.42922002301361
30
0
10
332.27905351984771
20
-202.7841205897094
30
0
10
332.58988771696289
20
-203.15170106652161
30
0
10
332.95859734297318
20
-203.53176701398681
30
0
10
333.3807336883591
20
-203.92335871164534
30
0
10
333.8511965513668
20
-204.32537589257208
30
0
10
334.26258823666643
20
-204.65454480544648
30
0
10
334.58949792469946
20
-204.9053835722645
30
0
10
334.81546607089319
20
-205.07434137425167
30
0
10
334.93045735989017
20
-205.15925329208048
30
0
0
ARC
5
154
100
AcDbEntity
8
0
100
AcDbCircle
10
487.52540952994832
20
-288.32900814590363
30
0
40
0.24999999999783101
210
0
220
0
230
1
100
AcDbArc
50
-109.47122054879767
51
0
0
ARC
5
155
100
AcDbEntity
8
0
100
AcDbCircle
10
327.66001893473913
20
-202.1096104773203
30
0
40
0.99999655504889384
210
0
220
0
230
1
100
AcDbArc
50
180.00000919542356
51
359.99999080457644
0
LINE
5
156
100
AcDbEntity
8
0
100
AcDbLine
10
317.10709315532472
20
-205.15925329208051
30
0
11
320.43016164672122
21
-205.15925329208045
31
0
0
ARC
5
157
100
AcDbEntity
8
0
100
AcDbCircle
10
488.7754095246612
20
-284.79347423809702
30
0
40
4.000005690409961
210
0
220
0
230
1
100
AcDbArc
50
289.47118989552649
51
357.32964384092423
0
ARC
5
158
100
AcDbEntity
8
0
100
AcDbCircle
10
327.66001893473913
20
-202.1096104773203
30
0
40
4.0000033687289083
210
0
220
-0
230
1
100
AcDbArc
50
9.6925919135972283
51
70.528732075319766
0
ARC
5
159
100
AcDbEntity
8
0
100
AcDbCircle
10
489.41002237969019
20
-198.57407673203102
30
0
40
0.25000000000003286
210
0
220
-0
230
1
100
AcDbArc
50
70.52877936550199
51
180
0
ARC
5
160
100
AcDbEntity
8
0
100
AcDbCircle
10
488.7754095246612
20
-284.79347423809702
30
0
40
1.0000000000000853
210
0
220
0
230
1
100
AcDbArc
50
0
51
180.00589179487829
0
ARC
5
161
100
AcDbEntity
8
0
100
AcDbCircle
10
488.16002237969019
20
-202.10961063796378
30
0
40
3.9999999999999907
210
0
220
-0
230
1
100
AcDbArc
50
9.6926024896668235
51
70.528779365508981
0
ARC
5
162
100
AcDbEntity
8
0
100
AcDbCircle
10
488.16002237969019
20
-202.10961063796378
30
0
40
0.99999999999994316
210
0
220
0
230
1
100
AcDbArc
50
-180
51
0
0
ARC
5
163
100
AcDbEntity
8
0
100
AcDbCircle
10
486.91002237969019
20
-198.57407673203102
30
0
40
0.25000000000005684
210
0
220
0
230
1
100
AcDbArc
50
0
51
109.47122063447345
0
ARC
5
164
100
AcDbEntity
8
0
100
AcDbCircle
10
490.0254095246612
20
-288.32901417962046
30
0
40
0.24999999999991473
210
0
220
0
230
1
100
AcDbArc
50
180
51
289.47118989552945
0
LINE
5
165
100
AcDbEntity
8
0
100
AcDbLine
10
487.16002237969019
20
-202.10961063796378
30
0
11
487.16002237969019
21
-198.57407673203107
31
0
0
LINE
5
166
100
AcDbEntity
8
0
100
AcDbLine
10
326.66002237969025
20
-202.10961063796367
30
0
11
326.66002237968928
21
-198.57407069644066
31
0
0
LINE
5
167
100
AcDbEntity
8
0
100
AcDbLine
10
489.16002237969025
20
-202.10961063796378
30
0
11
489.16002237969025
21
-198.57407673203107
31
0
0
ARC
5
168
100
AcDbEntity
8
0
100
AcDbCircle
10
488.16002237969019
20
-202.10961063796378
30
0
40
0.99999999999994316
210
0
220
0
230
1
100
AcDbArc
50
-180
51
0
0
SPLINE
5
169
100
AcDbEntity
8
0
100
AcDbSpline
70
4
71
5
72
21
73
15
74
0
42
0.000000001
43
0.0000000001
44
0.0000000001
40
0
40
0
40
0
40
0
40
0
40
0
40
0.10000000000000001
40
0.20000000000000001
40
0.30000000000000004
40
0.40000000000000002
40
0.5
40
0.59999999999999998
40
0.69999999999999996
40
0.79999999999999993
40
0.89999999999999991
40
1
40
1
40
1
40
1
40
1
40
1
41
1
41
1
41
1
41
1
41
1
41
1
41
1
41
1
41
1
41
1
41
1
41
1
41
1
41
1
41
1
10
492.10292323845238
20
-201.43616218561417
30
0
10
492.11722619521606
20
-201.49935260189352
30
0
10
492.15064644913411
20
-201.62677203247813
30
0
10
492.21522044268141
20
-201.82101710003798
30
0
10
492.33067645820006
20
-202.08634378845181
30
0
10
492.52699606057877
20
-202.42922002301361
30
0
10
492.77905351985572
20
-202.7841205897094
30
0
10
493.08988771694993
20
-203.15170106652161
30
0
10
493.45859734295027
20
-203.53176701398681
30
0
10
493.88073368833665
20
-203.92335871164534
30
0
10
494.35119655135213
20
-204.32537589257208
30
0
10
494.7625882366591
20
-204.65454480544648
30
0
10
495.08949792469599
20
-204.9053835722645
30
0
10
495.31546607089211
20
-205.07434137425167
30
0
10
495.43045735989011
20
-205.15925329208048
30
0
0
SPLINE
5
170
100
AcDbEntity
8
0
100
AcDbSpline
70
4
71
5
72
21
73
15
74
0
42
0.000000001
43
0.0000000001
44
0.0000000001
40
0
40
0
40
0
40
0
40
0
40
0
40
0.10000000000000001
40
0.20000000000000001
40
0.30000000000000004
40
0.40000000000000002
40
0.5
40
0.59999999999999998
40
0.69999999999999996
40
0.79999999999999993
40
0.89999999999999991
40
1
40
1
40
1
40
1
40
1
40
1
41
1
41
1
41
1
41
1
41
1
41
1
41
1
41
1
41
1
41
1
41
1
41
1
41
1
41
1
41
1
10
492.77107166219719
20
-284.97983304785197
30
0
10
492.80280506058841
20
-284.8877214326273
30
0
10
492.86912085519884
20
-284.70523314108806
30
0
10
492.97714140399091
20
-284.43670543732003
30
0
10
493.13854491899019
20
-284.08924993940639
30
0
10
493.37120408036083
20
-283.67375047748635
30
0
10
493.63744764852015
20
-283.27870273157993
30
0
10
493.93988866600034
20
-282.90569795223297
30
0
10
494.27971694261595
20
-282.55546069158424
30
0
10
494.65518331136116
20
-282.22692576880218
30
0
10
495.06348483162287
20
-281.91838629217978
30
0
10
495.41418232086784
20
-281.68620413048666
30
0
10
495.68986856001175
20
-281.51977890285139
30
0
10
495.87919532113966
20
-281.41219993976802
30
0
10
495.97524274574454
20
-281.35925329210488
30
0
0
ARC
5
171
100
AcDbEntity
8
0
100
AcDbCircle
10
317.10709315532461
20
-205.40925329208045
30
0
40
0.24999999999991473
210
0
220
-0
230
1
100
AcDbArc
50
89.999999999973952
51
180
0
LINE
5
172
100
AcDbEntity
8
0
100
AcDbLine
10
489.77540952466131
20
-284.79347423809702
30
0
11
489.77540952466131
21
-288.32901417962046
31
0
0
ARC
5
173
100
AcDbEntity
8
0
100
AcDbCircle
10
327.66002237969019
20
-202.10961063796378
30
0
40
0.99999999999994316
210
0
220
0
230
1
100
AcDbArc
50
180
51
360
0
LINE
5
174
100
AcDbEntity
8
0
100
AcDbLine
10
328.66002237969013
20
-202.10961063796387
30
0
11
328.66002237969013
21
-198.57407673203102
31
0
0
ARC
5
175
100
AcDbEntity
8
0
100
AcDbCircle
10
326.41002237968917
20
-198.57407069644071
30
0
40
0.25000000000005684
210
0
220
-0
230
1
100
AcDbArc
50
0
51
109.47118989552511
0
ARC
5
176
100
AcDbEntity
8
0
100
AcDbCircle
10
488.16002237969019
20
-202.10961063796378
30
0
40
4.0000000000000124
210
0
220
0
230
1
100
AcDbArc
50
109.47122063448948
51
177.33014216622871
0
ARC
5
177
100
AcDbEntity
8
0
100
AcDbCircle
10
507.10709315532455
20
-205.40925329208039
30
0
40
0.24999999999991473
210
0
220
0
230
1
100
AcDbArc
50
0
51
90
0
LINE
5
178
100
AcDbEntity
8
0
100
AcDbLine
10
507.10709315532512
20
-281.35925329208084
30
0
11
495.97524274574454
21
-281.35925329210488
31
0
0
LINE
5
179
100
AcDbEntity
8
0
100
AcDbLine
10
487.77540952994826
20
-284.793577069317
30
0
11
487.77540952994826
21
-288.32900814590363
31
0
0
ARC
5
180
100
AcDbEntity
8
0
100
AcDbCircle
10
328.91002237969019
20
-198.57407673203102
30
0
40
0.24999999999999933
210
0
220
-0
230
1
100
AcDbArc
50
70.52877936549983
51
180
0
ARC
5
181
100
AcDbEntity
8
0
100
AcDbCircle
10
488.7754095246612
20
-284.79347423809702
30
0
40
3.9999999999999214
210
0
220
0
230
1
100
AcDbArc
50
189.69309423497268
51
250.52877945121341
0
LWPOLYLINE
5
182
100
AcDbEntity
8
0
100
AcDbPolyline
90
186
70
1
43
0.0
10
475.80531530375015
20
-278.85596159065818
10
472.30531530375015
20
-278.85596159065818
42
-0.012433933404989163
10
472.28031530375011
20
-278.85596159065818
10
471.01831530375011
20
-278.85596159065818
10
466.28031530375017
20
-278.85596159065818
10
466.25531530375014
20
-278.85596159065818
10
465.16831530375015
20
-278.85596159065818
10
462.75531530375019
20
-278.85596159065818
10
459.16831530375021
20
-278.85596159065818
10
458.01831530375017
20
-278.85596159065818
10
456.75531530375019
20
-278.85596159065818
10
456.73031530375022
20
-278.85596159065818
10
453.25531530375019
20
-278.85596159065818
10
447.20531530375013
20
-278.85596159065818
10
446.11831530375014
20
-278.85596159065818
10
443.73031530375016
20
-278.85596159065818
10
441.29231530375017
20
-278.85596159065818
10
440.11831530375019
20
-278.85596159065818
10
437.68031530375021
20
-278.85596159065818
10
435.29231530375012
20
-278.85596159065818
10
434.20531530375013
20
-278.85596159065818
10
434.18031530375015
20
-278.85596159065818
10
428.18031530375026
20
-278.85596159065818
10
428.15531530375017
20
-278.85596159065818
10
427.06831530375018
20
-278.85596159065818
10
424.68031530375021
20
-278.85596159065818
10
424.65531530375017
20
-278.85596159065818
10
422.24231530375022
20
-278.85596159065824
10
421.06831530375018
20
-278.85596159065824
10
418.65531530375023
20
-278.85596159065824
10
418.63031530375019
20
-278.85596159065824
10
416.24231530375022
20
-278.85596159065824
10
415.15531530375023
20
-278.85596159065824
10
409.10531530375022
20
-278.85596159065824
10
408.01831530375017
20
-278.85596159065824
10
405.63031530375019
20
-278.85596159065824
10
405.60531530375022
20
-278.85596159065824
10
403.19231530375021
20
-278.85596159065824
10
402.01831530375017
20
-278.85596159065824
10
399.60531530375022
20
-278.85596159065824
10
399.58031530375024
20
-278.85596159065824
10
397.19231530375021
20
-278.85596159065824
10
396.10531530375022
20
-278.85596159065824
10
396.08031530375024
20
-278.85596159065824
10
390.08031530375024
20
-278.85596159065824
10
390.05531530375026
20
-278.85596159065824
10
388.96831530375027
20
-278.85596159065824
10
386.58031530375024
20
-278.85596159065824
10
384.14231530375019
20
-278.85596159065824
10
382.96831530375022
20
-278.85596159065824
10
380.53031530375023
20
-278.85596159065824
10
378.14231530375025
20
-278.85596159065824
10
377.05531530375026
20
-278.85596159065824
10
371.00531530375019
20
-278.85596159065824
10
367.53031530375029
20
-278.85596159065824
10
367.50531530375031
20
-278.85596159065824
10
366.24281530375026
20
-278.85596159065824
10
365.09231530375024
20
-278.85596159065824
10
361.50531530375025
20
-278.85596159065824
10
359.09231530375024
20
-278.85596159065824
10
358.00531530375025
20
-278.85596159065824
10
357.98031530375027
20
-278.85596159065824
10
353.24281530375026
20
-278.85596159065824
10
351.96781492218736
20
-278.85580532577848
42
-0.0062505417831830229
10
351.9553153037503
20
-278.85596159065824
10
348.45531530375024
20
-278.85596159065824
10
342.45531530375035
20
-278.85596159065824
10
338.9553153037503
20
-278.85596159065824
10
337.66781530375027
20
-278.85596159065824
10
332.90531530375029
20
-278.85596159065824
10
324.66781530375033
20
-278.85596159065824
10
319.90531530375029
20
-278.8559615906583
42
-0.41421356237309509
10
319.40531530375029
20
-278.3559615906583
10
319.40531530375029
20
-265.35596159065835
42
-0.41421356237309509
10
319.90531530375029
20
-264.8559615906583
10
324.66781530375033
20
-264.8559615906583
10
332.90531530375029
20
-264.8559615906583
10
337.66781530375027
20
-264.8559615906583
10
338.95531530375024
20
-264.8559615906583
10
341.9553153037503
20
-264.8559615906583
10
341.95531530375024
20
-264.3559615906583
42
-0.41421356237309509
10
342.45531530375024
20
-263.85596159065824
10
348.45531530375024
20
-263.85596159065835
42
-0.41421356237309509
10
348.95531530375024
20
-264.3559615906583
10
348.95531530375024
20
-264.8559615906583
10
351.48031530375027
20
-264.8559615906583
10
351.48031530375022
20
-264.3559615906583
42
-0.41421356237309509
10
351.98031530375027
20
-263.85596159065824
10
357.98031530375027
20
-263.85596159065835
42
-0.41421356237309509
10
358.48031530375022
20
-264.3559615906583
10
358.48031530375022
20
-264.8559615906583
10
358.5923153037503
20
-264.8559615906583
10
358.59231530375018
20
-264.3559615906583
42
-0.41421356237309509
10
359.09231530375024
20
-263.85596159065824
10
361.50531530375025
20
-263.85596159065824
10
365.09231530375024
20
-263.85596159065824
10
367.50531530375031
20
-263.8559615906583
42
-0.41421356237309509
10
368.00531530375025
20
-264.3559615906583
10
368.00531530375025
20
-264.8559615906583
10
371.00531530375019
20
-264.8559615906583
10
377.05531530375026
20
-264.8559615906583
10
377.64231530375025
20
-264.8559615906583
10
377.64231530375025
20
-264.3559615906583
42
-0.41421356237309509
10
378.14231530375025
20
-263.85596159065824
10
382.96831530375022
20
-263.85596159065824
10
384.14231530375019
20
-263.85596159065824
10
388.96831530375027
20
-263.8559615906583
42
-0.41421356237309509
10
389.46831530375022
20
-264.3559615906583
10
389.46831530375022
20
-264.8559615906583
10
389.58031530375024
20
-264.8559615906583
10
389.58031530375024
20
-264.3559615906583
42
-0.41421356237309509
10
390.08031530375024
20
-263.85596159065824
10
396.08031530375024
20
-263.85596159065818
42
-0.41421356237309509
10
396.58031530375024
20
-264.35596159065824
10
396.58031530375024
20
-264.85596159065824
10
396.69231530375021
20
-264.85596159065824
10
396.69231530375021
20
-264.35596159065824
42
-0.41421356237309509
10
397.19231530375021
20
-263.85596159065824
10
399.60531530375022
20
-263.85596159065824
10
402.01831530375017
20
-263.85596159065824
10
403.19231530375021
20
-263.85596159065824
10
405.60531530375022
20
-263.85596159065824
10
408.01831530375017
20
-263.85596159065818
42
-0.41421356237309509
10
408.51831530375023
20
-264.35596159065824
10
408.51831530375023
20
-264.85596159065824
10
409.10531530375022
20
-264.85596159065824
10
415.15531530375023
20
-264.85596159065824
10
415.74231530375022
20
-264.85596159065824
10
415.74231530375022
20
-264.35596159065824
42
-0.41421356237309509
10
416.24231530375022
20
-263.85596159065824
10
418.65531530375023
20
-263.85596159065824
10
421.06831530375018
20
-263.85596159065824
10
422.24231530375022
20
-263.85596159065824
10
424.65531530375017
20
-263.85596159065824
10
427.06831530375018
20
-263.85596159065818
42
-0.41421356237309509
10
427.56831530375024
20
-264.35596159065824
10
427.56831530375024
20
-264.85596159065824
10
427.68031530375021
20
-264.85596159065824
10
427.68031530375026
20
-264.35596159065824
42
-0.41421356237309509
10
428.18031530375026
20
-263.85596159065824
10
434.18031530375015
20
-263.85596159065824
42
-0.41421356237309509
10
434.68031530375015
20
-264.35596159065824
10
434.68031530375015
20
-264.85596159065824
10
434.79231530375017
20
-264.85596159065824
10
434.79231530375017
20
-264.35596159065824
42
-0.41421356237309509
10
435.29231530375012
20
-263.85596159065824
10
440.11831530375019
20
-263.85596159065824
10
441.29231530375017
20
-263.85596159065824
10
446.11831530375014
20
-263.85596159065824
42
-0.41421356237309509
10
446.61831530375014
20
-264.35596159065824
10
446.61831530375014
20
-264.85596159065824
10
447.20531530375013
20
-264.85596159065824
10
453.25531530375019
20
-264.85596159065824
10
456.25531530375014
20
-264.85596159065824
10
456.25531530375008
20
-264.35596159065824
42
-0.41421356237309509
10
456.75531530375008
20
-263.85596159065818
10
459.16831530375015
20
-263.85596159065818
10
462.75531530375014
20
-263.85596159065818
10
465.16831530375015
20
-263.85596159065824
42
-0.41421356237309509
10
465.66831530375009
20
-264.35596159065824
10
465.66831530375009
20
-264.85596159065824
10
465.78031530375017
20
-264.85596159065824
10
465.78031530375006
20
-264.35596159065824
42
-0.41421356237309509
10
466.28031530375011
20
-263.85596159065818
10
472.28031530375006
20
-263.85596159065818
42
-0.41421356237309509
10
472.78031530375011
20
-264.35596159065824
10
472.78031530375011
20
-264.85596159065824
10
475.30531530375015
20
-264.85596159065824
10
475.30531530375009
20
-264.35596159065824
42
-0.41421356237309509
10
475.80531530375015
20
-263.85596159065818
10
481.80531530375004
20
-263.85596159065818
42
-0.41421356237307422
10
482.30531530375009
20
-264.35596159065818
10
482.30531530375009
20
-264.85596159065824
10
485.30531530375015
20
-264.85596159065824
10
486.59231530375007
20
-264.85596159065824
10
491.3553153037501
20
-264.85596159065824
10
499.59231530375007
20
-264.85596159065824
10
504.3553153037501
20
-264.85596159065813
42
-0.41421356237309509
10
504.8553153037501
20
-265.35596159065818
10
504.8553153037501
20
-278.35596159065818
42
-0.41421356237309509
10
504.35531530375016
20
-278.85596159065818
10
499.59231530375013
20
-278.85596159065818
10
491.35531530375022
20
-278.85596159065818
10
486.59231530375018
20
-278.85596159065818
10
485.30531530375015
20
-278.85596159065818
10
481.80531530375015
20
-278.85596159065818
0
ENDSEC
0
SECTION
2
OBJECTS
0
DICTIONARY
5
C
100
AcDbDictionary
3
ACAD_GROUP
350
D
3
ACAD_MLINESTYLE
350
17
0
DICTIONARY
5
D
100
AcDbDictionary
0
DICTIONARY
5
1A
330
C
100
AcDbDictionary
0
DICTIONARY
5
17
100
AcDbDictionary
0
ENDSEC
0
EOF
