G04 #@! TF.GenerationSoftware,KiCad,Pcbnew,(5.1.5-0-10_14)*
G04 #@! TF.CreationDate,2021-05-22T22:52:06+03:00*
G04 #@! TF.ProjectId,Umo FR4 Plates,556d6f20-4652-4342-9050-6c617465732e,rev?*
G04 #@! TF.SameCoordinates,Original*
G04 #@! TF.FileFunction,Soldermask,Top*
G04 #@! TF.FilePolarity,Negative*
%FSLAX46Y46*%
G04 Gerber Fmt 4.6, Leading zero omitted, Abs format (unit mm)*
G04 Created by KiCad (PCBNEW (5.1.5-0-10_14)) date 2021-05-22 22:52:06*
%MOMM*%
%LPD*%
G04 APERTURE LIST*
%ADD10C,0.500000*%
%ADD11C,0.120000*%
%ADD12C,0.100000*%
G04 APERTURE END LIST*
D10*
X59620000Y-41370000D02*
X59620000Y-44905534D01*
X61620000Y-44905498D02*
G75*
G02X59620000Y-44905534I-1000000J-18D01*
G01*
X61620000Y-44905516D02*
X61620000Y-41370000D01*
X220070000Y-41300000D02*
X220070000Y-44835534D01*
X222070000Y-44835498D02*
G75*
G02X220070000Y-44835534I-1000000J-18D01*
G01*
X222070000Y-44835516D02*
X222070000Y-41300000D01*
X222700000Y-131190000D02*
X222700000Y-127654466D01*
X220700000Y-127654502D02*
G75*
G02X222700000Y-127654466I1000000J18D01*
G01*
X220700000Y-127654484D02*
X220700000Y-131190000D01*
X69690000Y-131160000D02*
X69690000Y-127624466D01*
X67690000Y-127624502D02*
G75*
G02X69690000Y-127624466I1000000J18D01*
G01*
X67690000Y-127624484D02*
X67690000Y-131160000D01*
D11*
X232420000Y-104120000D02*
X232430000Y-104550000D01*
X233280000Y-104650000D02*
X231580000Y-104850000D01*
X231580000Y-104750000D02*
X233250000Y-104580000D01*
X231440000Y-105390000D02*
X232420000Y-105300000D01*
X232300000Y-105360000D02*
X231470000Y-105460000D01*
X233470000Y-105240000D02*
X232390000Y-105350000D01*
X233480000Y-105160000D02*
X233470000Y-105240000D01*
X232420000Y-105230000D02*
X233480000Y-105160000D01*
X233230000Y-106030000D02*
X232560000Y-106020000D01*
X233500000Y-105910000D02*
X233230000Y-106030000D01*
X233590000Y-105530000D02*
X233500000Y-105910000D01*
X233530000Y-105510000D02*
X233590000Y-105530000D01*
X233460000Y-105840000D02*
X233530000Y-105510000D01*
X233270000Y-105930000D02*
X233460000Y-105840000D01*
X232870000Y-105960000D02*
X233270000Y-105930000D01*
X232520000Y-105960000D02*
X232870000Y-105960000D01*
X232370000Y-105810000D02*
X232520000Y-105960000D01*
X232360000Y-104200000D02*
X232370000Y-105810000D01*
X232140000Y-104230000D02*
X232360000Y-104200000D01*
X232840000Y-104070000D02*
X232140000Y-104230000D01*
X231520000Y-104230000D02*
X232840000Y-104070000D01*
X233250000Y-103950000D02*
X231520000Y-104230000D01*
X233250000Y-103880000D02*
X233250000Y-103950000D01*
X231450000Y-104170000D02*
X233250000Y-103880000D01*
X230160000Y-105100000D02*
X229570000Y-105420000D01*
X230170000Y-105220000D02*
X230160000Y-105100000D01*
X229580000Y-105520000D02*
X230170000Y-105220000D01*
X229480000Y-105450000D02*
X229580000Y-105520000D01*
X229950000Y-104840000D02*
X229640000Y-104360000D01*
X230070000Y-104820000D02*
X229950000Y-104840000D01*
X229680000Y-104300000D02*
X230070000Y-104820000D01*
X230410000Y-104080000D02*
X229580000Y-104070000D01*
X230380000Y-105920000D02*
X230410000Y-104080000D01*
X230280000Y-105980000D02*
X230380000Y-105920000D01*
X230100000Y-106030000D02*
X230280000Y-105980000D01*
X230110000Y-106080000D02*
X230100000Y-106030000D01*
X230330000Y-106060000D02*
X230110000Y-106080000D01*
X230450000Y-106000000D02*
X230330000Y-106060000D01*
X230500000Y-105870000D02*
X230450000Y-106000000D01*
X230500000Y-104000000D02*
X230500000Y-105870000D01*
X229570000Y-104000000D02*
X230500000Y-104000000D01*
X228850000Y-105220000D02*
X228250000Y-105550000D01*
X228890000Y-105110000D02*
X228850000Y-105220000D01*
X228180000Y-105490000D02*
X228890000Y-105110000D01*
X228720000Y-104870000D02*
X228320000Y-104400000D01*
X228800000Y-104830000D02*
X228720000Y-104870000D01*
X228370000Y-104330000D02*
X228800000Y-104830000D01*
X229160000Y-104050000D02*
X228300000Y-104060000D01*
X229150000Y-105390000D02*
X229160000Y-104050000D01*
X229170000Y-105760000D02*
X229150000Y-105390000D01*
X229120000Y-105930000D02*
X229170000Y-105760000D01*
X228970000Y-106010000D02*
X229120000Y-105930000D01*
X228790000Y-106010000D02*
X228970000Y-106010000D01*
X228850000Y-106090000D02*
X228790000Y-106010000D01*
X229010000Y-106080000D02*
X228850000Y-106090000D01*
X229190000Y-105990000D02*
X229010000Y-106080000D01*
X229250000Y-105860000D02*
X229190000Y-105990000D01*
X229250000Y-103990000D02*
X229250000Y-105860000D01*
X228250000Y-103980000D02*
X229250000Y-103990000D01*
D12*
X228231643Y-104132698D02*
X228231643Y-103937013D01*
X229084833Y-104132698D02*
X228231643Y-104132698D01*
X229084833Y-105861254D02*
X229084833Y-104132698D01*
X228937416Y-105968229D02*
X229084833Y-105861254D01*
X228720857Y-105960401D02*
X228937416Y-105968229D01*
X228889147Y-104854126D02*
X228713031Y-104953273D01*
X229708386Y-104237500D02*
X230154549Y-104851952D01*
X229540097Y-104339257D02*
X229708386Y-104237500D01*
X229969301Y-104936749D02*
X229540097Y-104339257D01*
X230154549Y-104851952D02*
X229969301Y-104936749D01*
X230549834Y-103934840D02*
X230549834Y-105886477D01*
X229528356Y-103934840D02*
X230549834Y-103934840D01*
X229528356Y-104130526D02*
X229528356Y-103934840D01*
X230346322Y-104130526D02*
X229528356Y-104130526D01*
X230346322Y-105889087D02*
X230346322Y-104130526D01*
X230183250Y-105966055D02*
X230346322Y-105889087D01*
X229978433Y-105958229D02*
X230183250Y-105966055D01*
X230044966Y-106157828D02*
X229978433Y-105958229D01*
X230241956Y-106157828D02*
X230044966Y-106157828D01*
X230478084Y-106069117D02*
X230241956Y-106157828D01*
X230549834Y-105886477D02*
X230478084Y-106069117D01*
X229287042Y-103937013D02*
X229287042Y-105901695D01*
X228231643Y-103937013D02*
X229287042Y-103937013D01*
X228988294Y-106157391D02*
X228790000Y-106160000D01*
X232269637Y-104632348D02*
X232269637Y-104257936D01*
X231515596Y-104719755D02*
X232269637Y-104632348D01*
X231532555Y-104920658D02*
X231515596Y-104719755D01*
X232269637Y-104834557D02*
X231532555Y-104920658D01*
X232269637Y-105231147D02*
X232269637Y-104834557D01*
X231390360Y-105334208D02*
X232269637Y-105231147D01*
X231415146Y-105537721D02*
X231390360Y-105334208D01*
X232269637Y-105435963D02*
X231415146Y-105537721D01*
X232269637Y-105828639D02*
X232269637Y-105435963D01*
X232544904Y-106096076D02*
X232269637Y-105828639D01*
X233263722Y-106096076D02*
X232544904Y-106096076D01*
X233549422Y-105947355D02*
X233263722Y-106096076D01*
X233679878Y-105509020D02*
X233549422Y-105947355D01*
X228949172Y-105006318D02*
X228949172Y-105228095D01*
X228092071Y-105486400D02*
X228949172Y-105006318D01*
X228253837Y-105649471D02*
X228092071Y-105486400D01*
X228949172Y-105228095D02*
X228253837Y-105649471D01*
X230215880Y-105016318D02*
X230215880Y-105240705D01*
X229923656Y-105180694D02*
X230215880Y-105016318D01*
X229401829Y-105462481D02*
X229923656Y-105180694D01*
X232473152Y-105206360D02*
X233541594Y-105091558D01*
X232473152Y-104813684D02*
X232473152Y-105206360D01*
X233304162Y-104719755D02*
X232473152Y-104813684D01*
X233304162Y-104520155D02*
X233304162Y-104719755D01*
X232473152Y-104612780D02*
X233304162Y-104520155D01*
X232473152Y-104231845D02*
X232473152Y-104612780D01*
X233396787Y-103990499D02*
X232473152Y-104231845D01*
X233248066Y-103839170D02*
X233396787Y-103990499D01*
X231369483Y-104119653D02*
X233248066Y-103839170D01*
X231494723Y-104321860D02*
X231369483Y-104119653D01*
X232269637Y-104257936D02*
X231494723Y-104321860D01*
X233482890Y-105425527D02*
X233679878Y-105509020D01*
X233420272Y-105801244D02*
X233482890Y-105425527D01*
X233279375Y-105901695D02*
X233420272Y-105801244D01*
X232585344Y-105901695D02*
X233279375Y-105901695D01*
X232473152Y-105797330D02*
X232585344Y-105901695D01*
X232473152Y-105430745D02*
X232473152Y-105797330D01*
X233559858Y-105295071D02*
X232473152Y-105430745D01*
X233541594Y-105091558D02*
X233559858Y-105295071D01*
X229564899Y-105605983D02*
X229401829Y-105462481D01*
X229770695Y-105492486D02*
X229564899Y-105605983D01*
X230215880Y-105240705D02*
X229770695Y-105492486D01*
X228406457Y-104263154D02*
X228889147Y-104854126D01*
X228234253Y-104377958D02*
X228406457Y-104263154D01*
X228713031Y-104953273D02*
X228234253Y-104377958D01*
X229220508Y-106068681D02*
X228988294Y-106157391D01*
X229287042Y-105901695D02*
X229220508Y-106068681D01*
X228790000Y-106160000D02*
X228720857Y-105960401D01*
M02*
