G04 #@! TF.GenerationSoftware,KiCad,Pcbnew,(5.1.5-0-10_14)*
G04 #@! TF.CreationDate,2021-05-22T22:33:54+03:00*
G04 #@! TF.ProjectId,__ - Um_ FR4 Plates,bddb202d-2055-46d4-9d20-46523420506c,rev?*
G04 #@! TF.SameCoordinates,Original*
G04 #@! TF.FileFunction,Soldermask,Bot*
G04 #@! TF.FilePolarity,Negative*
%FSLAX46Y46*%
G04 Gerber Fmt 4.6, Leading zero omitted, Abs format (unit mm)*
G04 Created by KiCad (PCBNEW (5.1.5-0-10_14)) date 2021-05-22 22:33:54*
%MOMM*%
%LPD*%
G04 APERTURE LIST*
%ADD10C,0.010000*%
%ADD11C,0.500000*%
G04 APERTURE END LIST*
D10*
G36*
X62077235Y-103988487D02*
G01*
X62022381Y-104037896D01*
X61989127Y-104105485D01*
X61984000Y-104144598D01*
X62001362Y-104218894D01*
X62046414Y-104273191D01*
X62108610Y-104303043D01*
X62177401Y-104304006D01*
X62242239Y-104271633D01*
X62255478Y-104259011D01*
X62291938Y-104194332D01*
X62296784Y-104122068D01*
X62274348Y-104053352D01*
X62228962Y-103999318D01*
X62164959Y-103971100D01*
X62142750Y-103969333D01*
X62077235Y-103988487D01*
G37*
X62077235Y-103988487D02*
X62022381Y-104037896D01*
X61989127Y-104105485D01*
X61984000Y-104144598D01*
X62001362Y-104218894D01*
X62046414Y-104273191D01*
X62108610Y-104303043D01*
X62177401Y-104304006D01*
X62242239Y-104271633D01*
X62255478Y-104259011D01*
X62291938Y-104194332D01*
X62296784Y-104122068D01*
X62274348Y-104053352D01*
X62228962Y-103999318D01*
X62164959Y-103971100D01*
X62142750Y-103969333D01*
X62077235Y-103988487D01*
G36*
X54115232Y-103951826D02*
G01*
X54074673Y-103963201D01*
X54067797Y-103974625D01*
X54070410Y-104002352D01*
X54077674Y-104065876D01*
X54088840Y-104159005D01*
X54103158Y-104275550D01*
X54119881Y-104409320D01*
X54131167Y-104498500D01*
X54148921Y-104638234D01*
X54164760Y-104763074D01*
X54177947Y-104867195D01*
X54187744Y-104944768D01*
X54193414Y-104989967D01*
X54194537Y-104999227D01*
X54177562Y-104997494D01*
X54155674Y-104992340D01*
X54127706Y-104974329D01*
X54076453Y-104931444D01*
X54008086Y-104869215D01*
X53928778Y-104793172D01*
X53886160Y-104750905D01*
X53655639Y-104519667D01*
X53380361Y-104519667D01*
X53650709Y-104790615D01*
X53921056Y-105061564D01*
X53790255Y-105282740D01*
X53730979Y-105382826D01*
X53671753Y-105482580D01*
X53620236Y-105569117D01*
X53589620Y-105620333D01*
X53519786Y-105736750D01*
X53637898Y-105743185D01*
X53708130Y-105745012D01*
X53762745Y-105742847D01*
X53782854Y-105739319D01*
X53802618Y-105718358D01*
X53839263Y-105667437D01*
X53888347Y-105593166D01*
X53945431Y-105502157D01*
X53975593Y-105452426D01*
X54047195Y-105336871D01*
X54105722Y-105250373D01*
X54149124Y-105195761D01*
X54175348Y-105175867D01*
X54176047Y-105175833D01*
X54193372Y-105183617D01*
X54207222Y-105211519D01*
X54219571Y-105266358D01*
X54232395Y-105354959D01*
X54235787Y-105382208D01*
X54248113Y-105481370D01*
X54259996Y-105573780D01*
X54269593Y-105645221D01*
X54272856Y-105667958D01*
X54284744Y-105747333D01*
X54537055Y-105747333D01*
X54524423Y-105667958D01*
X54518973Y-105628603D01*
X54509489Y-105554616D01*
X54496638Y-105451558D01*
X54481083Y-105324993D01*
X54463490Y-105180481D01*
X54444525Y-105023585D01*
X54424852Y-104859866D01*
X54405136Y-104694885D01*
X54386042Y-104534205D01*
X54368235Y-104383387D01*
X54352381Y-104247994D01*
X54339145Y-104133586D01*
X54329191Y-104045725D01*
X54323184Y-103989974D01*
X54321667Y-103972342D01*
X54301358Y-103957459D01*
X54242974Y-103949414D01*
X54194667Y-103948167D01*
X54115232Y-103951826D01*
G37*
X54115232Y-103951826D02*
X54074673Y-103963201D01*
X54067797Y-103974625D01*
X54070410Y-104002352D01*
X54077674Y-104065876D01*
X54088840Y-104159005D01*
X54103158Y-104275550D01*
X54119881Y-104409320D01*
X54131167Y-104498500D01*
X54148921Y-104638234D01*
X54164760Y-104763074D01*
X54177947Y-104867195D01*
X54187744Y-104944768D01*
X54193414Y-104989967D01*
X54194537Y-104999227D01*
X54177562Y-104997494D01*
X54155674Y-104992340D01*
X54127706Y-104974329D01*
X54076453Y-104931444D01*
X54008086Y-104869215D01*
X53928778Y-104793172D01*
X53886160Y-104750905D01*
X53655639Y-104519667D01*
X53380361Y-104519667D01*
X53650709Y-104790615D01*
X53921056Y-105061564D01*
X53790255Y-105282740D01*
X53730979Y-105382826D01*
X53671753Y-105482580D01*
X53620236Y-105569117D01*
X53589620Y-105620333D01*
X53519786Y-105736750D01*
X53637898Y-105743185D01*
X53708130Y-105745012D01*
X53762745Y-105742847D01*
X53782854Y-105739319D01*
X53802618Y-105718358D01*
X53839263Y-105667437D01*
X53888347Y-105593166D01*
X53945431Y-105502157D01*
X53975593Y-105452426D01*
X54047195Y-105336871D01*
X54105722Y-105250373D01*
X54149124Y-105195761D01*
X54175348Y-105175867D01*
X54176047Y-105175833D01*
X54193372Y-105183617D01*
X54207222Y-105211519D01*
X54219571Y-105266358D01*
X54232395Y-105354959D01*
X54235787Y-105382208D01*
X54248113Y-105481370D01*
X54259996Y-105573780D01*
X54269593Y-105645221D01*
X54272856Y-105667958D01*
X54284744Y-105747333D01*
X54537055Y-105747333D01*
X54524423Y-105667958D01*
X54518973Y-105628603D01*
X54509489Y-105554616D01*
X54496638Y-105451558D01*
X54481083Y-105324993D01*
X54463490Y-105180481D01*
X54444525Y-105023585D01*
X54424852Y-104859866D01*
X54405136Y-104694885D01*
X54386042Y-104534205D01*
X54368235Y-104383387D01*
X54352381Y-104247994D01*
X54339145Y-104133586D01*
X54329191Y-104045725D01*
X54323184Y-103989974D01*
X54321667Y-103972342D01*
X54301358Y-103957459D01*
X54242974Y-103949414D01*
X54194667Y-103948167D01*
X54115232Y-103951826D01*
G36*
X54593078Y-104507192D02*
G01*
X54566690Y-104536029D01*
X54560175Y-104592648D01*
X54565227Y-104651069D01*
X54579720Y-104767063D01*
X54680146Y-104757413D01*
X54741005Y-104754312D01*
X54783986Y-104763992D01*
X54826328Y-104793155D01*
X54865605Y-104829507D01*
X54924532Y-104897824D01*
X54972255Y-104981491D01*
X55010885Y-105086711D01*
X55042533Y-105219683D01*
X55069309Y-105386611D01*
X55077755Y-105452831D01*
X55113399Y-105747333D01*
X55236116Y-105747333D01*
X55314768Y-105743333D01*
X55353954Y-105731026D01*
X55359453Y-105720875D01*
X55357252Y-105693655D01*
X55350729Y-105630036D01*
X55340505Y-105535660D01*
X55327203Y-105416172D01*
X55311445Y-105277214D01*
X55293851Y-105124431D01*
X55291721Y-105106082D01*
X55223369Y-104517748D01*
X55116476Y-104523999D01*
X55009584Y-104530250D01*
X55013514Y-104792000D01*
X54956209Y-104714042D01*
X54861006Y-104604536D01*
X54764992Y-104532736D01*
X54670870Y-104500500D01*
X54643081Y-104498824D01*
X54593078Y-104507192D01*
G37*
X54593078Y-104507192D02*
X54566690Y-104536029D01*
X54560175Y-104592648D01*
X54565227Y-104651069D01*
X54579720Y-104767063D01*
X54680146Y-104757413D01*
X54741005Y-104754312D01*
X54783986Y-104763992D01*
X54826328Y-104793155D01*
X54865605Y-104829507D01*
X54924532Y-104897824D01*
X54972255Y-104981491D01*
X55010885Y-105086711D01*
X55042533Y-105219683D01*
X55069309Y-105386611D01*
X55077755Y-105452831D01*
X55113399Y-105747333D01*
X55236116Y-105747333D01*
X55314768Y-105743333D01*
X55353954Y-105731026D01*
X55359453Y-105720875D01*
X55357252Y-105693655D01*
X55350729Y-105630036D01*
X55340505Y-105535660D01*
X55327203Y-105416172D01*
X55311445Y-105277214D01*
X55293851Y-105124431D01*
X55291721Y-105106082D01*
X55223369Y-104517748D01*
X55116476Y-104523999D01*
X55009584Y-104530250D01*
X55013514Y-104792000D01*
X54956209Y-104714042D01*
X54861006Y-104604536D01*
X54764992Y-104532736D01*
X54670870Y-104500500D01*
X54643081Y-104498824D01*
X54593078Y-104507192D01*
G36*
X58140030Y-104524155D02*
G01*
X58096506Y-104536566D01*
X58082569Y-104549098D01*
X58076304Y-104578345D01*
X58065447Y-104642668D01*
X58051062Y-104735186D01*
X58034214Y-104849021D01*
X58015968Y-104977293D01*
X58013056Y-104998225D01*
X57995122Y-105124160D01*
X57978732Y-105232964D01*
X57964848Y-105318762D01*
X57954430Y-105375675D01*
X57948439Y-105397825D01*
X57947800Y-105397419D01*
X57937841Y-105372624D01*
X57913937Y-105314790D01*
X57878579Y-105229891D01*
X57834256Y-105123899D01*
X57783459Y-105002788D01*
X57762782Y-104953583D01*
X57584801Y-104530250D01*
X57359084Y-104530250D01*
X57291995Y-104921833D01*
X57270446Y-105050827D01*
X57251522Y-105170219D01*
X57236437Y-105271846D01*
X57226408Y-105347543D01*
X57222683Y-105387500D01*
X57220297Y-105421235D01*
X57214025Y-105427594D01*
X57201044Y-105402748D01*
X57178531Y-105342871D01*
X57168050Y-105313417D01*
X57141500Y-105240179D01*
X57103890Y-105138862D01*
X57059488Y-105020847D01*
X57012561Y-104897517D01*
X56993463Y-104847750D01*
X56871287Y-104530250D01*
X56750060Y-104523902D01*
X56684867Y-104521800D01*
X56640860Y-104522893D01*
X56628834Y-104525859D01*
X56636710Y-104546700D01*
X56659016Y-104601770D01*
X56693771Y-104686277D01*
X56738992Y-104795429D01*
X56792698Y-104924434D01*
X56852905Y-105068498D01*
X56880960Y-105135457D01*
X57133085Y-105736750D01*
X57249475Y-105743041D01*
X57289194Y-105746430D01*
X57319223Y-105748345D01*
X57341786Y-105743757D01*
X57359104Y-105727637D01*
X57373401Y-105694956D01*
X57386899Y-105640684D01*
X57401822Y-105559792D01*
X57420392Y-105447250D01*
X57444034Y-105302833D01*
X57463758Y-105187307D01*
X57482341Y-105084509D01*
X57498222Y-105002646D01*
X57509837Y-104949923D01*
X57513804Y-104936415D01*
X57524449Y-104934754D01*
X57544712Y-104962543D01*
X57575792Y-105022143D01*
X57618886Y-105115920D01*
X57675194Y-105246237D01*
X57696286Y-105296248D01*
X57747976Y-105418339D01*
X57795192Y-105527920D01*
X57835144Y-105618667D01*
X57865037Y-105684254D01*
X57882080Y-105718353D01*
X57883729Y-105720875D01*
X57915980Y-105736695D01*
X57974824Y-105746087D01*
X58007923Y-105747333D01*
X58077863Y-105742023D01*
X58116247Y-105727301D01*
X58120612Y-105720875D01*
X58126720Y-105692631D01*
X58138591Y-105629490D01*
X58155078Y-105538153D01*
X58175031Y-105425321D01*
X58197300Y-105297695D01*
X58220736Y-105161974D01*
X58244191Y-105024861D01*
X58266513Y-104893056D01*
X58286555Y-104773260D01*
X58303167Y-104672173D01*
X58315200Y-104596496D01*
X58321504Y-104552930D01*
X58322167Y-104545746D01*
X58303712Y-104529268D01*
X58257776Y-104520309D01*
X58198501Y-104518671D01*
X58140030Y-104524155D01*
G37*
X58140030Y-104524155D02*
X58096506Y-104536566D01*
X58082569Y-104549098D01*
X58076304Y-104578345D01*
X58065447Y-104642668D01*
X58051062Y-104735186D01*
X58034214Y-104849021D01*
X58015968Y-104977293D01*
X58013056Y-104998225D01*
X57995122Y-105124160D01*
X57978732Y-105232964D01*
X57964848Y-105318762D01*
X57954430Y-105375675D01*
X57948439Y-105397825D01*
X57947800Y-105397419D01*
X57937841Y-105372624D01*
X57913937Y-105314790D01*
X57878579Y-105229891D01*
X57834256Y-105123899D01*
X57783459Y-105002788D01*
X57762782Y-104953583D01*
X57584801Y-104530250D01*
X57359084Y-104530250D01*
X57291995Y-104921833D01*
X57270446Y-105050827D01*
X57251522Y-105170219D01*
X57236437Y-105271846D01*
X57226408Y-105347543D01*
X57222683Y-105387500D01*
X57220297Y-105421235D01*
X57214025Y-105427594D01*
X57201044Y-105402748D01*
X57178531Y-105342871D01*
X57168050Y-105313417D01*
X57141500Y-105240179D01*
X57103890Y-105138862D01*
X57059488Y-105020847D01*
X57012561Y-104897517D01*
X56993463Y-104847750D01*
X56871287Y-104530250D01*
X56750060Y-104523902D01*
X56684867Y-104521800D01*
X56640860Y-104522893D01*
X56628834Y-104525859D01*
X56636710Y-104546700D01*
X56659016Y-104601770D01*
X56693771Y-104686277D01*
X56738992Y-104795429D01*
X56792698Y-104924434D01*
X56852905Y-105068498D01*
X56880960Y-105135457D01*
X57133085Y-105736750D01*
X57249475Y-105743041D01*
X57289194Y-105746430D01*
X57319223Y-105748345D01*
X57341786Y-105743757D01*
X57359104Y-105727637D01*
X57373401Y-105694956D01*
X57386899Y-105640684D01*
X57401822Y-105559792D01*
X57420392Y-105447250D01*
X57444034Y-105302833D01*
X57463758Y-105187307D01*
X57482341Y-105084509D01*
X57498222Y-105002646D01*
X57509837Y-104949923D01*
X57513804Y-104936415D01*
X57524449Y-104934754D01*
X57544712Y-104962543D01*
X57575792Y-105022143D01*
X57618886Y-105115920D01*
X57675194Y-105246237D01*
X57696286Y-105296248D01*
X57747976Y-105418339D01*
X57795192Y-105527920D01*
X57835144Y-105618667D01*
X57865037Y-105684254D01*
X57882080Y-105718353D01*
X57883729Y-105720875D01*
X57915980Y-105736695D01*
X57974824Y-105746087D01*
X58007923Y-105747333D01*
X58077863Y-105742023D01*
X58116247Y-105727301D01*
X58120612Y-105720875D01*
X58126720Y-105692631D01*
X58138591Y-105629490D01*
X58155078Y-105538153D01*
X58175031Y-105425321D01*
X58197300Y-105297695D01*
X58220736Y-105161974D01*
X58244191Y-105024861D01*
X58266513Y-104893056D01*
X58286555Y-104773260D01*
X58303167Y-104672173D01*
X58315200Y-104596496D01*
X58321504Y-104552930D01*
X58322167Y-104545746D01*
X58303712Y-104529268D01*
X58257776Y-104520309D01*
X58198501Y-104518671D01*
X58140030Y-104524155D01*
G36*
X60216908Y-103949182D02*
G01*
X60179758Y-103954659D01*
X60166994Y-103968240D01*
X60169647Y-103993567D01*
X60170160Y-103995791D01*
X60175026Y-104026710D01*
X60184254Y-104094914D01*
X60197247Y-104195649D01*
X60213409Y-104324156D01*
X60232144Y-104475681D01*
X60252855Y-104645468D01*
X60274947Y-104828759D01*
X60282914Y-104895375D01*
X60384586Y-105747333D01*
X60506960Y-105747333D01*
X60576558Y-105745552D01*
X60613595Y-105738079D01*
X60627768Y-105721720D01*
X60629334Y-105707019D01*
X60626860Y-105677764D01*
X60619887Y-105612125D01*
X60609088Y-105515738D01*
X60595138Y-105394235D01*
X60578708Y-105253249D01*
X60560472Y-105098414D01*
X60541104Y-104935364D01*
X60521277Y-104769732D01*
X60501664Y-104607152D01*
X60482939Y-104453256D01*
X60465775Y-104313679D01*
X60450845Y-104194053D01*
X60438822Y-104100013D01*
X60430380Y-104037191D01*
X60427336Y-104016958D01*
X60419287Y-103979028D01*
X60404226Y-103958469D01*
X60371331Y-103949961D01*
X60309779Y-103948183D01*
X60287413Y-103948167D01*
X60216908Y-103949182D01*
G37*
X60216908Y-103949182D02*
X60179758Y-103954659D01*
X60166994Y-103968240D01*
X60169647Y-103993567D01*
X60170160Y-103995791D01*
X60175026Y-104026710D01*
X60184254Y-104094914D01*
X60197247Y-104195649D01*
X60213409Y-104324156D01*
X60232144Y-104475681D01*
X60252855Y-104645468D01*
X60274947Y-104828759D01*
X60282914Y-104895375D01*
X60384586Y-105747333D01*
X60506960Y-105747333D01*
X60576558Y-105745552D01*
X60613595Y-105738079D01*
X60627768Y-105721720D01*
X60629334Y-105707019D01*
X60626860Y-105677764D01*
X60619887Y-105612125D01*
X60609088Y-105515738D01*
X60595138Y-105394235D01*
X60578708Y-105253249D01*
X60560472Y-105098414D01*
X60541104Y-104935364D01*
X60521277Y-104769732D01*
X60501664Y-104607152D01*
X60482939Y-104453256D01*
X60465775Y-104313679D01*
X60450845Y-104194053D01*
X60438822Y-104100013D01*
X60430380Y-104037191D01*
X60427336Y-104016958D01*
X60419287Y-103979028D01*
X60404226Y-103958469D01*
X60371331Y-103949961D01*
X60309779Y-103948183D01*
X60287413Y-103948167D01*
X60216908Y-103949182D01*
G36*
X63334357Y-103950592D02*
G01*
X63288952Y-103956892D01*
X63275586Y-103964042D01*
X63278127Y-103989393D01*
X63284893Y-104049447D01*
X63295036Y-104136879D01*
X63307709Y-104244362D01*
X63317818Y-104329167D01*
X63331768Y-104446673D01*
X63343756Y-104549545D01*
X63352940Y-104630401D01*
X63358477Y-104681854D01*
X63359733Y-104696484D01*
X63345881Y-104694741D01*
X63310480Y-104670148D01*
X63285162Y-104648989D01*
X63161181Y-104559585D01*
X63037054Y-104510323D01*
X62934854Y-104498500D01*
X62865914Y-104501950D01*
X62817630Y-104517835D01*
X62770404Y-104554456D01*
X62745475Y-104578711D01*
X62708190Y-104620009D01*
X62680219Y-104663429D01*
X62661085Y-104714570D01*
X62650310Y-104779027D01*
X62647415Y-104862399D01*
X62651922Y-104970281D01*
X62663354Y-105108272D01*
X62681232Y-105281967D01*
X62683572Y-105303498D01*
X62731983Y-105747333D01*
X62998942Y-105747333D01*
X62988529Y-105689125D01*
X62980176Y-105634488D01*
X62968959Y-105550079D01*
X62955876Y-105444689D01*
X62941930Y-105327108D01*
X62928119Y-105206124D01*
X62915444Y-105090528D01*
X62904906Y-104989109D01*
X62897504Y-104910658D01*
X62894239Y-104863963D01*
X62894167Y-104859913D01*
X62912568Y-104787540D01*
X62960974Y-104734235D01*
X63029191Y-104710526D01*
X63039158Y-104710167D01*
X63116966Y-104729877D01*
X63196306Y-104784259D01*
X63271994Y-104866184D01*
X63338847Y-104968526D01*
X63391682Y-105084159D01*
X63425315Y-105205955D01*
X63431722Y-105249917D01*
X63441192Y-105333449D01*
X63453675Y-105438526D01*
X63466738Y-105544711D01*
X63468932Y-105562125D01*
X63492372Y-105747333D01*
X63616603Y-105747333D01*
X63682753Y-105744299D01*
X63727816Y-105736428D01*
X63740834Y-105727709D01*
X63738397Y-105703084D01*
X63731524Y-105641942D01*
X63720875Y-105549793D01*
X63707105Y-105432146D01*
X63690875Y-105294510D01*
X63672841Y-105142394D01*
X63653662Y-104981308D01*
X63633996Y-104816760D01*
X63614500Y-104654260D01*
X63595834Y-104499316D01*
X63578654Y-104357439D01*
X63563619Y-104234137D01*
X63551387Y-104134920D01*
X63542616Y-104065297D01*
X63539027Y-104038125D01*
X63526573Y-103948167D01*
X63400870Y-103948167D01*
X63334357Y-103950592D01*
G37*
X63334357Y-103950592D02*
X63288952Y-103956892D01*
X63275586Y-103964042D01*
X63278127Y-103989393D01*
X63284893Y-104049447D01*
X63295036Y-104136879D01*
X63307709Y-104244362D01*
X63317818Y-104329167D01*
X63331768Y-104446673D01*
X63343756Y-104549545D01*
X63352940Y-104630401D01*
X63358477Y-104681854D01*
X63359733Y-104696484D01*
X63345881Y-104694741D01*
X63310480Y-104670148D01*
X63285162Y-104648989D01*
X63161181Y-104559585D01*
X63037054Y-104510323D01*
X62934854Y-104498500D01*
X62865914Y-104501950D01*
X62817630Y-104517835D01*
X62770404Y-104554456D01*
X62745475Y-104578711D01*
X62708190Y-104620009D01*
X62680219Y-104663429D01*
X62661085Y-104714570D01*
X62650310Y-104779027D01*
X62647415Y-104862399D01*
X62651922Y-104970281D01*
X62663354Y-105108272D01*
X62681232Y-105281967D01*
X62683572Y-105303498D01*
X62731983Y-105747333D01*
X62998942Y-105747333D01*
X62988529Y-105689125D01*
X62980176Y-105634488D01*
X62968959Y-105550079D01*
X62955876Y-105444689D01*
X62941930Y-105327108D01*
X62928119Y-105206124D01*
X62915444Y-105090528D01*
X62904906Y-104989109D01*
X62897504Y-104910658D01*
X62894239Y-104863963D01*
X62894167Y-104859913D01*
X62912568Y-104787540D01*
X62960974Y-104734235D01*
X63029191Y-104710526D01*
X63039158Y-104710167D01*
X63116966Y-104729877D01*
X63196306Y-104784259D01*
X63271994Y-104866184D01*
X63338847Y-104968526D01*
X63391682Y-105084159D01*
X63425315Y-105205955D01*
X63431722Y-105249917D01*
X63441192Y-105333449D01*
X63453675Y-105438526D01*
X63466738Y-105544711D01*
X63468932Y-105562125D01*
X63492372Y-105747333D01*
X63616603Y-105747333D01*
X63682753Y-105744299D01*
X63727816Y-105736428D01*
X63740834Y-105727709D01*
X63738397Y-105703084D01*
X63731524Y-105641942D01*
X63720875Y-105549793D01*
X63707105Y-105432146D01*
X63690875Y-105294510D01*
X63672841Y-105142394D01*
X63653662Y-104981308D01*
X63633996Y-104816760D01*
X63614500Y-104654260D01*
X63595834Y-104499316D01*
X63578654Y-104357439D01*
X63563619Y-104234137D01*
X63551387Y-104134920D01*
X63542616Y-104065297D01*
X63539027Y-104038125D01*
X63526573Y-103948167D01*
X63400870Y-103948167D01*
X63334357Y-103950592D01*
G36*
X52770407Y-104506114D02*
G01*
X52655652Y-104532344D01*
X52563078Y-104578326D01*
X52542266Y-104595018D01*
X52510667Y-104628168D01*
X52506216Y-104655900D01*
X52530218Y-104692102D01*
X52553835Y-104718301D01*
X52606336Y-104774951D01*
X52690575Y-104731975D01*
X52792494Y-104696082D01*
X52891169Y-104689939D01*
X52977971Y-104711782D01*
X53044270Y-104759851D01*
X53074732Y-104810410D01*
X53082095Y-104867382D01*
X53055954Y-104918597D01*
X52993445Y-104967251D01*
X52891708Y-105016539D01*
X52889112Y-105017612D01*
X52755405Y-105084288D01*
X52662092Y-105158065D01*
X52607608Y-105240417D01*
X52592567Y-105296988D01*
X52597195Y-105413256D01*
X52638163Y-105526392D01*
X52709928Y-105627108D01*
X52806946Y-105706115D01*
X52850402Y-105729024D01*
X52940196Y-105755048D01*
X53050697Y-105766294D01*
X53163698Y-105762520D01*
X53260992Y-105743484D01*
X53284349Y-105734782D01*
X53348124Y-105700571D01*
X53402581Y-105661044D01*
X53405347Y-105658505D01*
X53452413Y-105614289D01*
X53409349Y-105553811D01*
X53362888Y-105507402D01*
X53309898Y-105496620D01*
X53242227Y-105520696D01*
X53216220Y-105535587D01*
X53130548Y-105567915D01*
X53030234Y-105577140D01*
X52936585Y-105561947D01*
X52916510Y-105554087D01*
X52861385Y-105507990D01*
X52829288Y-105439481D01*
X52827122Y-105365290D01*
X52831761Y-105348670D01*
X52852946Y-105313825D01*
X52895405Y-105280636D01*
X52967083Y-105243571D01*
X53009775Y-105224672D01*
X53131999Y-105166734D01*
X53217805Y-105110636D01*
X53272282Y-105049898D01*
X53300523Y-104978042D01*
X53307615Y-104888587D01*
X53305771Y-104847853D01*
X53279688Y-104751272D01*
X53220613Y-104659157D01*
X53137512Y-104581594D01*
X53039352Y-104528672D01*
X53015204Y-104520939D01*
X52894528Y-104501644D01*
X52770407Y-104506114D01*
G37*
X52770407Y-104506114D02*
X52655652Y-104532344D01*
X52563078Y-104578326D01*
X52542266Y-104595018D01*
X52510667Y-104628168D01*
X52506216Y-104655900D01*
X52530218Y-104692102D01*
X52553835Y-104718301D01*
X52606336Y-104774951D01*
X52690575Y-104731975D01*
X52792494Y-104696082D01*
X52891169Y-104689939D01*
X52977971Y-104711782D01*
X53044270Y-104759851D01*
X53074732Y-104810410D01*
X53082095Y-104867382D01*
X53055954Y-104918597D01*
X52993445Y-104967251D01*
X52891708Y-105016539D01*
X52889112Y-105017612D01*
X52755405Y-105084288D01*
X52662092Y-105158065D01*
X52607608Y-105240417D01*
X52592567Y-105296988D01*
X52597195Y-105413256D01*
X52638163Y-105526392D01*
X52709928Y-105627108D01*
X52806946Y-105706115D01*
X52850402Y-105729024D01*
X52940196Y-105755048D01*
X53050697Y-105766294D01*
X53163698Y-105762520D01*
X53260992Y-105743484D01*
X53284349Y-105734782D01*
X53348124Y-105700571D01*
X53402581Y-105661044D01*
X53405347Y-105658505D01*
X53452413Y-105614289D01*
X53409349Y-105553811D01*
X53362888Y-105507402D01*
X53309898Y-105496620D01*
X53242227Y-105520696D01*
X53216220Y-105535587D01*
X53130548Y-105567915D01*
X53030234Y-105577140D01*
X52936585Y-105561947D01*
X52916510Y-105554087D01*
X52861385Y-105507990D01*
X52829288Y-105439481D01*
X52827122Y-105365290D01*
X52831761Y-105348670D01*
X52852946Y-105313825D01*
X52895405Y-105280636D01*
X52967083Y-105243571D01*
X53009775Y-105224672D01*
X53131999Y-105166734D01*
X53217805Y-105110636D01*
X53272282Y-105049898D01*
X53300523Y-104978042D01*
X53307615Y-104888587D01*
X53305771Y-104847853D01*
X53279688Y-104751272D01*
X53220613Y-104659157D01*
X53137512Y-104581594D01*
X53039352Y-104528672D01*
X53015204Y-104520939D01*
X52894528Y-104501644D01*
X52770407Y-104506114D01*
G36*
X55868555Y-104506909D02*
G01*
X55758197Y-104545712D01*
X55662084Y-104613790D01*
X55585632Y-104711433D01*
X55539558Y-104819884D01*
X55510775Y-104979664D01*
X55516337Y-105138162D01*
X55552779Y-105290027D01*
X55616640Y-105429905D01*
X55704455Y-105552441D01*
X55812762Y-105652284D01*
X55938097Y-105724078D01*
X56076996Y-105762472D01*
X56152584Y-105767465D01*
X56233793Y-105762430D01*
X56307546Y-105750142D01*
X56343084Y-105739128D01*
X56413091Y-105693438D01*
X56485372Y-105622354D01*
X56547403Y-105540148D01*
X56586415Y-105461842D01*
X56600160Y-105389393D01*
X56605573Y-105286664D01*
X56604502Y-105234243D01*
X56355157Y-105234243D01*
X56350887Y-105344590D01*
X56330233Y-105432984D01*
X56322963Y-105448977D01*
X56264774Y-105522651D01*
X56186104Y-105559664D01*
X56088252Y-105559652D01*
X56007431Y-105536812D01*
X55949404Y-105497573D01*
X55890294Y-105429169D01*
X55839299Y-105343500D01*
X55817040Y-105290517D01*
X55776770Y-105139301D01*
X55765529Y-105000677D01*
X55783069Y-104880664D01*
X55829142Y-104785280D01*
X55838247Y-104773767D01*
X55880915Y-104732216D01*
X55928019Y-104713862D01*
X55987925Y-104710167D01*
X56094032Y-104726471D01*
X56182190Y-104777397D01*
X56256915Y-104865960D01*
X56280197Y-104905427D01*
X56318758Y-105001268D01*
X56344096Y-105115338D01*
X56355157Y-105234243D01*
X56604502Y-105234243D01*
X56603742Y-105197099D01*
X56596164Y-105093312D01*
X56582238Y-105013862D01*
X56557688Y-104940804D01*
X56526412Y-104872638D01*
X56444369Y-104741875D01*
X56344062Y-104638650D01*
X56230909Y-104563251D01*
X56110329Y-104515968D01*
X55987738Y-104497091D01*
X55868555Y-104506909D01*
G37*
X55868555Y-104506909D02*
X55758197Y-104545712D01*
X55662084Y-104613790D01*
X55585632Y-104711433D01*
X55539558Y-104819884D01*
X55510775Y-104979664D01*
X55516337Y-105138162D01*
X55552779Y-105290027D01*
X55616640Y-105429905D01*
X55704455Y-105552441D01*
X55812762Y-105652284D01*
X55938097Y-105724078D01*
X56076996Y-105762472D01*
X56152584Y-105767465D01*
X56233793Y-105762430D01*
X56307546Y-105750142D01*
X56343084Y-105739128D01*
X56413091Y-105693438D01*
X56485372Y-105622354D01*
X56547403Y-105540148D01*
X56586415Y-105461842D01*
X56600160Y-105389393D01*
X56605573Y-105286664D01*
X56604502Y-105234243D01*
X56355157Y-105234243D01*
X56350887Y-105344590D01*
X56330233Y-105432984D01*
X56322963Y-105448977D01*
X56264774Y-105522651D01*
X56186104Y-105559664D01*
X56088252Y-105559652D01*
X56007431Y-105536812D01*
X55949404Y-105497573D01*
X55890294Y-105429169D01*
X55839299Y-105343500D01*
X55817040Y-105290517D01*
X55776770Y-105139301D01*
X55765529Y-105000677D01*
X55783069Y-104880664D01*
X55829142Y-104785280D01*
X55838247Y-104773767D01*
X55880915Y-104732216D01*
X55928019Y-104713862D01*
X55987925Y-104710167D01*
X56094032Y-104726471D01*
X56182190Y-104777397D01*
X56256915Y-104865960D01*
X56280197Y-104905427D01*
X56318758Y-105001268D01*
X56344096Y-105115338D01*
X56355157Y-105234243D01*
X56604502Y-105234243D01*
X56603742Y-105197099D01*
X56596164Y-105093312D01*
X56582238Y-105013862D01*
X56557688Y-104940804D01*
X56526412Y-104872638D01*
X56444369Y-104741875D01*
X56344062Y-104638650D01*
X56230909Y-104563251D01*
X56110329Y-104515968D01*
X55987738Y-104497091D01*
X55868555Y-104506909D01*
G36*
X58626360Y-105457523D02*
G01*
X58569699Y-105494256D01*
X58554554Y-105515335D01*
X58533708Y-105589063D01*
X58545402Y-105657860D01*
X58582027Y-105715424D01*
X58635973Y-105755447D01*
X58699632Y-105771626D01*
X58765395Y-105757655D01*
X58809000Y-105726167D01*
X58847281Y-105661239D01*
X58852300Y-105586842D01*
X58826271Y-105516609D01*
X58771406Y-105464172D01*
X58766002Y-105461239D01*
X58697425Y-105445077D01*
X58626360Y-105457523D01*
G37*
X58626360Y-105457523D02*
X58569699Y-105494256D01*
X58554554Y-105515335D01*
X58533708Y-105589063D01*
X58545402Y-105657860D01*
X58582027Y-105715424D01*
X58635973Y-105755447D01*
X58699632Y-105771626D01*
X58765395Y-105757655D01*
X58809000Y-105726167D01*
X58847281Y-105661239D01*
X58852300Y-105586842D01*
X58826271Y-105516609D01*
X58771406Y-105464172D01*
X58766002Y-105461239D01*
X58697425Y-105445077D01*
X58626360Y-105457523D01*
G36*
X59174481Y-104510139D02*
G01*
X59091714Y-104525434D01*
X59032044Y-104546014D01*
X59008710Y-104564222D01*
X59008256Y-104589062D01*
X59012416Y-104650363D01*
X59020658Y-104742569D01*
X59032446Y-104860120D01*
X59047249Y-104997461D01*
X59064532Y-105149032D01*
X59066354Y-105164569D01*
X59134864Y-105747333D01*
X59234251Y-105747333D01*
X59299027Y-105743112D01*
X59336692Y-105724595D01*
X59354390Y-105683004D01*
X59359266Y-105609558D01*
X59359334Y-105593625D01*
X59359334Y-105506880D01*
X59435691Y-105596087D01*
X59496182Y-105656458D01*
X59563385Y-105708815D01*
X59593598Y-105726897D01*
X59674276Y-105754174D01*
X59768656Y-105766489D01*
X59855974Y-105761966D01*
X59888500Y-105753551D01*
X59970446Y-105701716D01*
X60034259Y-105615359D01*
X60077048Y-105499454D01*
X60093100Y-105401732D01*
X60091249Y-105288743D01*
X59834946Y-105288743D01*
X59834202Y-105373450D01*
X59829057Y-105427553D01*
X59816339Y-105462760D01*
X59792878Y-105490783D01*
X59776195Y-105505701D01*
X59707750Y-105548110D01*
X59639946Y-105551354D01*
X59571633Y-105522090D01*
X59505477Y-105463524D01*
X59441234Y-105371357D01*
X59382839Y-105254273D01*
X59334222Y-105120957D01*
X59299317Y-104980091D01*
X59286169Y-104891686D01*
X59276799Y-104813976D01*
X59267300Y-104751224D01*
X59259739Y-104717061D01*
X59268330Y-104697124D01*
X59307225Y-104688816D01*
X59366217Y-104691485D01*
X59435098Y-104704480D01*
X59503660Y-104727149D01*
X59518066Y-104733547D01*
X59640876Y-104813622D01*
X59735448Y-104923365D01*
X59799730Y-105059183D01*
X59831671Y-105217483D01*
X59834946Y-105288743D01*
X60091249Y-105288743D01*
X60090064Y-105216508D01*
X60047870Y-105040238D01*
X59969511Y-104878487D01*
X59857980Y-104736819D01*
X59716273Y-104620799D01*
X59652859Y-104583377D01*
X59559141Y-104539423D01*
X59471686Y-104514845D01*
X59366455Y-104502899D01*
X59365879Y-104502862D01*
X59269489Y-104501993D01*
X59174481Y-104510139D01*
G37*
X59174481Y-104510139D02*
X59091714Y-104525434D01*
X59032044Y-104546014D01*
X59008710Y-104564222D01*
X59008256Y-104589062D01*
X59012416Y-104650363D01*
X59020658Y-104742569D01*
X59032446Y-104860120D01*
X59047249Y-104997461D01*
X59064532Y-105149032D01*
X59066354Y-105164569D01*
X59134864Y-105747333D01*
X59234251Y-105747333D01*
X59299027Y-105743112D01*
X59336692Y-105724595D01*
X59354390Y-105683004D01*
X59359266Y-105609558D01*
X59359334Y-105593625D01*
X59359334Y-105506880D01*
X59435691Y-105596087D01*
X59496182Y-105656458D01*
X59563385Y-105708815D01*
X59593598Y-105726897D01*
X59674276Y-105754174D01*
X59768656Y-105766489D01*
X59855974Y-105761966D01*
X59888500Y-105753551D01*
X59970446Y-105701716D01*
X60034259Y-105615359D01*
X60077048Y-105499454D01*
X60093100Y-105401732D01*
X60091249Y-105288743D01*
X59834946Y-105288743D01*
X59834202Y-105373450D01*
X59829057Y-105427553D01*
X59816339Y-105462760D01*
X59792878Y-105490783D01*
X59776195Y-105505701D01*
X59707750Y-105548110D01*
X59639946Y-105551354D01*
X59571633Y-105522090D01*
X59505477Y-105463524D01*
X59441234Y-105371357D01*
X59382839Y-105254273D01*
X59334222Y-105120957D01*
X59299317Y-104980091D01*
X59286169Y-104891686D01*
X59276799Y-104813976D01*
X59267300Y-104751224D01*
X59259739Y-104717061D01*
X59268330Y-104697124D01*
X59307225Y-104688816D01*
X59366217Y-104691485D01*
X59435098Y-104704480D01*
X59503660Y-104727149D01*
X59518066Y-104733547D01*
X59640876Y-104813622D01*
X59735448Y-104923365D01*
X59799730Y-105059183D01*
X59831671Y-105217483D01*
X59834946Y-105288743D01*
X60091249Y-105288743D01*
X60090064Y-105216508D01*
X60047870Y-105040238D01*
X59969511Y-104878487D01*
X59857980Y-104736819D01*
X59716273Y-104620799D01*
X59652859Y-104583377D01*
X59559141Y-104539423D01*
X59471686Y-104514845D01*
X59366455Y-104502899D01*
X59365879Y-104502862D01*
X59269489Y-104501993D01*
X59174481Y-104510139D01*
G36*
X61179631Y-104506570D02*
G01*
X61059061Y-104541539D01*
X60953263Y-104606999D01*
X60869043Y-104702484D01*
X60848878Y-104737152D01*
X60803670Y-104866522D01*
X60789855Y-105012664D01*
X60805368Y-105166411D01*
X60848146Y-105318596D01*
X60916126Y-105460053D01*
X61007244Y-105581615D01*
X61047836Y-105620975D01*
X61166552Y-105701263D01*
X61300235Y-105750991D01*
X61438811Y-105768320D01*
X61572202Y-105751407D01*
X61636178Y-105728467D01*
X61726775Y-105666352D01*
X61804564Y-105572885D01*
X61861749Y-105458747D01*
X61881227Y-105392678D01*
X61890181Y-105295526D01*
X61640797Y-105295526D01*
X61620869Y-105402429D01*
X61578642Y-105485531D01*
X61516648Y-105541261D01*
X61437421Y-105566045D01*
X61343492Y-105556312D01*
X61253750Y-105518101D01*
X61200116Y-105470321D01*
X61145220Y-105390121D01*
X61126750Y-105355530D01*
X61092531Y-105279653D01*
X61071979Y-105209581D01*
X61061110Y-105127813D01*
X61056935Y-105048833D01*
X61059622Y-104919982D01*
X61079472Y-104825928D01*
X61118607Y-104761898D01*
X61179146Y-104723119D01*
X61205319Y-104714750D01*
X61310863Y-104706622D01*
X61406744Y-104738308D01*
X61490521Y-104807910D01*
X61559754Y-104913530D01*
X61603628Y-105024604D01*
X61635894Y-105168394D01*
X61640797Y-105295526D01*
X61890181Y-105295526D01*
X61894855Y-105244827D01*
X61875983Y-105086430D01*
X61828061Y-104929299D01*
X61754535Y-104785250D01*
X61673497Y-104680881D01*
X61561904Y-104589246D01*
X61437858Y-104529959D01*
X61308165Y-104502555D01*
X61179631Y-104506570D01*
G37*
X61179631Y-104506570D02*
X61059061Y-104541539D01*
X60953263Y-104606999D01*
X60869043Y-104702484D01*
X60848878Y-104737152D01*
X60803670Y-104866522D01*
X60789855Y-105012664D01*
X60805368Y-105166411D01*
X60848146Y-105318596D01*
X60916126Y-105460053D01*
X61007244Y-105581615D01*
X61047836Y-105620975D01*
X61166552Y-105701263D01*
X61300235Y-105750991D01*
X61438811Y-105768320D01*
X61572202Y-105751407D01*
X61636178Y-105728467D01*
X61726775Y-105666352D01*
X61804564Y-105572885D01*
X61861749Y-105458747D01*
X61881227Y-105392678D01*
X61890181Y-105295526D01*
X61640797Y-105295526D01*
X61620869Y-105402429D01*
X61578642Y-105485531D01*
X61516648Y-105541261D01*
X61437421Y-105566045D01*
X61343492Y-105556312D01*
X61253750Y-105518101D01*
X61200116Y-105470321D01*
X61145220Y-105390121D01*
X61126750Y-105355530D01*
X61092531Y-105279653D01*
X61071979Y-105209581D01*
X61061110Y-105127813D01*
X61056935Y-105048833D01*
X61059622Y-104919982D01*
X61079472Y-104825928D01*
X61118607Y-104761898D01*
X61179146Y-104723119D01*
X61205319Y-104714750D01*
X61310863Y-104706622D01*
X61406744Y-104738308D01*
X61490521Y-104807910D01*
X61559754Y-104913530D01*
X61603628Y-105024604D01*
X61635894Y-105168394D01*
X61640797Y-105295526D01*
X61890181Y-105295526D01*
X61894855Y-105244827D01*
X61875983Y-105086430D01*
X61828061Y-104929299D01*
X61754535Y-104785250D01*
X61673497Y-104680881D01*
X61561904Y-104589246D01*
X61437858Y-104529959D01*
X61308165Y-104502555D01*
X61179631Y-104506570D01*
G36*
X64201866Y-104520598D02*
G01*
X64092994Y-104571279D01*
X64006068Y-104653101D01*
X63942467Y-104760204D01*
X63903570Y-104886729D01*
X63890757Y-105026816D01*
X63905405Y-105174605D01*
X63948893Y-105324235D01*
X63991206Y-105415850D01*
X64050758Y-105504644D01*
X64130203Y-105592483D01*
X64218433Y-105669206D01*
X64304340Y-105724649D01*
X64348915Y-105743109D01*
X64444111Y-105761492D01*
X64550675Y-105766627D01*
X64651090Y-105758699D01*
X64725084Y-105739128D01*
X64799514Y-105690282D01*
X64873291Y-105615106D01*
X64934334Y-105528033D01*
X64969673Y-105446908D01*
X64980686Y-105379530D01*
X64986372Y-105288091D01*
X64985687Y-105194236D01*
X64731144Y-105194236D01*
X64730415Y-105329940D01*
X64709491Y-105431493D01*
X64667014Y-105502658D01*
X64604168Y-105546110D01*
X64551608Y-105568082D01*
X64517164Y-105575013D01*
X64479771Y-105567892D01*
X64437201Y-105553953D01*
X64338106Y-105499205D01*
X64256220Y-105409691D01*
X64194659Y-105290563D01*
X64156538Y-105146973D01*
X64147828Y-105075347D01*
X64148723Y-104969058D01*
X64166386Y-104870159D01*
X64197660Y-104789367D01*
X64239385Y-104737397D01*
X64249285Y-104731092D01*
X64319404Y-104712154D01*
X64406928Y-104713301D01*
X64492837Y-104733041D01*
X64536356Y-104753595D01*
X64609716Y-104821757D01*
X64668944Y-104923020D01*
X64710563Y-105049511D01*
X64731093Y-105193360D01*
X64731144Y-105194236D01*
X64985687Y-105194236D01*
X64985660Y-105190651D01*
X64985295Y-105183146D01*
X64959364Y-105012230D01*
X64903005Y-104859932D01*
X64820379Y-104729772D01*
X64715647Y-104625268D01*
X64592970Y-104549940D01*
X64456510Y-104507307D01*
X64310427Y-104500888D01*
X64201866Y-104520598D01*
G37*
X64201866Y-104520598D02*
X64092994Y-104571279D01*
X64006068Y-104653101D01*
X63942467Y-104760204D01*
X63903570Y-104886729D01*
X63890757Y-105026816D01*
X63905405Y-105174605D01*
X63948893Y-105324235D01*
X63991206Y-105415850D01*
X64050758Y-105504644D01*
X64130203Y-105592483D01*
X64218433Y-105669206D01*
X64304340Y-105724649D01*
X64348915Y-105743109D01*
X64444111Y-105761492D01*
X64550675Y-105766627D01*
X64651090Y-105758699D01*
X64725084Y-105739128D01*
X64799514Y-105690282D01*
X64873291Y-105615106D01*
X64934334Y-105528033D01*
X64969673Y-105446908D01*
X64980686Y-105379530D01*
X64986372Y-105288091D01*
X64985687Y-105194236D01*
X64731144Y-105194236D01*
X64730415Y-105329940D01*
X64709491Y-105431493D01*
X64667014Y-105502658D01*
X64604168Y-105546110D01*
X64551608Y-105568082D01*
X64517164Y-105575013D01*
X64479771Y-105567892D01*
X64437201Y-105553953D01*
X64338106Y-105499205D01*
X64256220Y-105409691D01*
X64194659Y-105290563D01*
X64156538Y-105146973D01*
X64147828Y-105075347D01*
X64148723Y-104969058D01*
X64166386Y-104870159D01*
X64197660Y-104789367D01*
X64239385Y-104737397D01*
X64249285Y-104731092D01*
X64319404Y-104712154D01*
X64406928Y-104713301D01*
X64492837Y-104733041D01*
X64536356Y-104753595D01*
X64609716Y-104821757D01*
X64668944Y-104923020D01*
X64710563Y-105049511D01*
X64731093Y-105193360D01*
X64731144Y-105194236D01*
X64985687Y-105194236D01*
X64985660Y-105190651D01*
X64985295Y-105183146D01*
X64959364Y-105012230D01*
X64903005Y-104859932D01*
X64820379Y-104729772D01*
X64715647Y-104625268D01*
X64592970Y-104549940D01*
X64456510Y-104507307D01*
X64310427Y-104500888D01*
X64201866Y-104520598D01*
G36*
X65404458Y-104506579D02*
G01*
X65308589Y-104546686D01*
X65229150Y-104620499D01*
X65194937Y-104674803D01*
X65155033Y-104792787D01*
X65141321Y-104934163D01*
X65153012Y-105089705D01*
X65189315Y-105250186D01*
X65249439Y-105406381D01*
X65259346Y-105426652D01*
X65319278Y-105520568D01*
X65399178Y-105611244D01*
X65487745Y-105687881D01*
X65573676Y-105739678D01*
X65596021Y-105748358D01*
X65686516Y-105764785D01*
X65788347Y-105762989D01*
X65884613Y-105744766D01*
X65958413Y-105711910D01*
X65961735Y-105709529D01*
X66022325Y-105664733D01*
X66047443Y-105880658D01*
X66060865Y-105996030D01*
X66072055Y-106075953D01*
X66084606Y-106126910D01*
X66102111Y-106155383D01*
X66128162Y-106167853D01*
X66166353Y-106170804D01*
X66208177Y-106170667D01*
X66274535Y-106169050D01*
X66308908Y-106161354D01*
X66321608Y-106143306D01*
X66323124Y-106123042D01*
X66320635Y-106092170D01*
X66313663Y-106025264D01*
X66302919Y-105928299D01*
X66289117Y-105807254D01*
X66272968Y-105668106D01*
X66255184Y-105516834D01*
X66240547Y-105393649D01*
X65988476Y-105393649D01*
X65988128Y-105455948D01*
X65971439Y-105496912D01*
X65934933Y-105526517D01*
X65889259Y-105548665D01*
X65805279Y-105573759D01*
X65727821Y-105567459D01*
X65643815Y-105530375D01*
X65593146Y-105495026D01*
X65550026Y-105446411D01*
X65505950Y-105373819D01*
X65480871Y-105325134D01*
X65440774Y-105240419D01*
X65417234Y-105174262D01*
X65405929Y-105108394D01*
X65402538Y-105024546D01*
X65402417Y-104993521D01*
X65403764Y-104904462D01*
X65409546Y-104846052D01*
X65422376Y-104806645D01*
X65444868Y-104774597D01*
X65453732Y-104764845D01*
X65521462Y-104719489D01*
X65599259Y-104712527D01*
X65681729Y-104742943D01*
X65763481Y-104809721D01*
X65778054Y-104825932D01*
X65834402Y-104908649D01*
X65889105Y-105018843D01*
X65936059Y-105141891D01*
X65969161Y-105263173D01*
X65975962Y-105300044D01*
X65988476Y-105393649D01*
X66240547Y-105393649D01*
X66236478Y-105359414D01*
X66217562Y-105201824D01*
X66199148Y-105050042D01*
X66181949Y-104910046D01*
X66166677Y-104787813D01*
X66154044Y-104689321D01*
X66144762Y-104620547D01*
X66141409Y-104597965D01*
X66128582Y-104517514D01*
X65931584Y-104530250D01*
X65925184Y-104653680D01*
X65918785Y-104777110D01*
X65834988Y-104681911D01*
X65732022Y-104587844D01*
X65622037Y-104527223D01*
X65510895Y-104500113D01*
X65404458Y-104506579D01*
G37*
X65404458Y-104506579D02*
X65308589Y-104546686D01*
X65229150Y-104620499D01*
X65194937Y-104674803D01*
X65155033Y-104792787D01*
X65141321Y-104934163D01*
X65153012Y-105089705D01*
X65189315Y-105250186D01*
X65249439Y-105406381D01*
X65259346Y-105426652D01*
X65319278Y-105520568D01*
X65399178Y-105611244D01*
X65487745Y-105687881D01*
X65573676Y-105739678D01*
X65596021Y-105748358D01*
X65686516Y-105764785D01*
X65788347Y-105762989D01*
X65884613Y-105744766D01*
X65958413Y-105711910D01*
X65961735Y-105709529D01*
X66022325Y-105664733D01*
X66047443Y-105880658D01*
X66060865Y-105996030D01*
X66072055Y-106075953D01*
X66084606Y-106126910D01*
X66102111Y-106155383D01*
X66128162Y-106167853D01*
X66166353Y-106170804D01*
X66208177Y-106170667D01*
X66274535Y-106169050D01*
X66308908Y-106161354D01*
X66321608Y-106143306D01*
X66323124Y-106123042D01*
X66320635Y-106092170D01*
X66313663Y-106025264D01*
X66302919Y-105928299D01*
X66289117Y-105807254D01*
X66272968Y-105668106D01*
X66255184Y-105516834D01*
X66240547Y-105393649D01*
X65988476Y-105393649D01*
X65988128Y-105455948D01*
X65971439Y-105496912D01*
X65934933Y-105526517D01*
X65889259Y-105548665D01*
X65805279Y-105573759D01*
X65727821Y-105567459D01*
X65643815Y-105530375D01*
X65593146Y-105495026D01*
X65550026Y-105446411D01*
X65505950Y-105373819D01*
X65480871Y-105325134D01*
X65440774Y-105240419D01*
X65417234Y-105174262D01*
X65405929Y-105108394D01*
X65402538Y-105024546D01*
X65402417Y-104993521D01*
X65403764Y-104904462D01*
X65409546Y-104846052D01*
X65422376Y-104806645D01*
X65444868Y-104774597D01*
X65453732Y-104764845D01*
X65521462Y-104719489D01*
X65599259Y-104712527D01*
X65681729Y-104742943D01*
X65763481Y-104809721D01*
X65778054Y-104825932D01*
X65834402Y-104908649D01*
X65889105Y-105018843D01*
X65936059Y-105141891D01*
X65969161Y-105263173D01*
X65975962Y-105300044D01*
X65988476Y-105393649D01*
X66240547Y-105393649D01*
X66236478Y-105359414D01*
X66217562Y-105201824D01*
X66199148Y-105050042D01*
X66181949Y-104910046D01*
X66166677Y-104787813D01*
X66154044Y-104689321D01*
X66144762Y-104620547D01*
X66141409Y-104597965D01*
X66128582Y-104517514D01*
X65931584Y-104530250D01*
X65925184Y-104653680D01*
X65918785Y-104777110D01*
X65834988Y-104681911D01*
X65732022Y-104587844D01*
X65622037Y-104527223D01*
X65510895Y-104500113D01*
X65404458Y-104506579D01*
G36*
X62107582Y-104520468D02*
G01*
X62061712Y-104522550D01*
X62047878Y-104524958D01*
X62054785Y-104601472D01*
X62066334Y-104706355D01*
X62081653Y-104833364D01*
X62099867Y-104976260D01*
X62120105Y-105128801D01*
X62141492Y-105284746D01*
X62163156Y-105437856D01*
X62184224Y-105581888D01*
X62203822Y-105710602D01*
X62221077Y-105817758D01*
X62235116Y-105897114D01*
X62245067Y-105942429D01*
X62246985Y-105948128D01*
X62313180Y-106062497D01*
X62401026Y-106140834D01*
X62443696Y-106162811D01*
X62508006Y-106180887D01*
X62585273Y-106190095D01*
X62658684Y-106189662D01*
X62711422Y-106178816D01*
X62717903Y-106175398D01*
X62732923Y-106141235D01*
X62727725Y-106086283D01*
X62713332Y-106038611D01*
X62686544Y-106012995D01*
X62633451Y-105997324D01*
X62623153Y-105995240D01*
X62541369Y-105965198D01*
X62500227Y-105926624D01*
X62487028Y-105890618D01*
X62471145Y-105818179D01*
X62452384Y-105708098D01*
X62430550Y-105559160D01*
X62405452Y-105370156D01*
X62384565Y-105202986D01*
X62364553Y-105039356D01*
X62346274Y-104889773D01*
X62330342Y-104759259D01*
X62317368Y-104652837D01*
X62307965Y-104575530D01*
X62302746Y-104532362D01*
X62301878Y-104524958D01*
X62282429Y-104522166D01*
X62232263Y-104520248D01*
X62174500Y-104519667D01*
X62107582Y-104520468D01*
G37*
X62107582Y-104520468D02*
X62061712Y-104522550D01*
X62047878Y-104524958D01*
X62054785Y-104601472D01*
X62066334Y-104706355D01*
X62081653Y-104833364D01*
X62099867Y-104976260D01*
X62120105Y-105128801D01*
X62141492Y-105284746D01*
X62163156Y-105437856D01*
X62184224Y-105581888D01*
X62203822Y-105710602D01*
X62221077Y-105817758D01*
X62235116Y-105897114D01*
X62245067Y-105942429D01*
X62246985Y-105948128D01*
X62313180Y-106062497D01*
X62401026Y-106140834D01*
X62443696Y-106162811D01*
X62508006Y-106180887D01*
X62585273Y-106190095D01*
X62658684Y-106189662D01*
X62711422Y-106178816D01*
X62717903Y-106175398D01*
X62732923Y-106141235D01*
X62727725Y-106086283D01*
X62713332Y-106038611D01*
X62686544Y-106012995D01*
X62633451Y-105997324D01*
X62623153Y-105995240D01*
X62541369Y-105965198D01*
X62500227Y-105926624D01*
X62487028Y-105890618D01*
X62471145Y-105818179D01*
X62452384Y-105708098D01*
X62430550Y-105559160D01*
X62405452Y-105370156D01*
X62384565Y-105202986D01*
X62364553Y-105039356D01*
X62346274Y-104889773D01*
X62330342Y-104759259D01*
X62317368Y-104652837D01*
X62307965Y-104575530D01*
X62302746Y-104532362D01*
X62301878Y-104524958D01*
X62282429Y-104522166D01*
X62232263Y-104520248D01*
X62174500Y-104519667D01*
X62107582Y-104520468D01*
D11*
X61620000Y-44905516D02*
X61620000Y-41370000D01*
X61620000Y-44905498D02*
G75*
G02X59620000Y-44905534I-1000000J-18D01*
G01*
X59620000Y-41370000D02*
X59620000Y-44905534D01*
X222070000Y-44835516D02*
X222070000Y-41300000D01*
X222070000Y-44835498D02*
G75*
G02X220070000Y-44835534I-1000000J-18D01*
G01*
X220070000Y-41300000D02*
X220070000Y-44835534D01*
X220700000Y-127654484D02*
X220700000Y-131190000D01*
X220700000Y-127654502D02*
G75*
G02X222700000Y-127654466I1000000J18D01*
G01*
X222700000Y-131190000D02*
X222700000Y-127654466D01*
X67690000Y-127624484D02*
X67690000Y-131160000D01*
X67690000Y-127624502D02*
G75*
G02X69690000Y-127624466I1000000J18D01*
G01*
X69690000Y-131160000D02*
X69690000Y-127624466D01*
M02*
