0
SECTION
2
HEADER
9
$INSUNITS
70
4
9
$ACADVER
1
AC1014
9
$HANDSEED
5
FFFF
0
ENDSEC
0
SECTION
2
TABLES
0
TABLE
2
VPORT
5
8
100
AcDbSymbolTable
0
ENDTAB
0
TABLE
2
LTYPE
5
5
100
AcDbSymbolTable
0
LTYPE
5
14
100
AcDbSymbolTableRecord
100
AcDbLinetypeTableRecord
2
BYBLOCK
70
0
0
LTYPE
5
15
100
AcDbSymbolTableRecord
100
AcDbLinetypeTableRecord
2
BYLAYER
70
0
0
ENDTAB
0
TABLE
2
LAYER
5
2
100
AcDbSymbolTable
70
2
0
LAYER
5
50
100
AcDbSymbolTableRecord
100
AcDbLayerTableRecord
2
0
70
0
6
CONTINUOUS
0
ENDTAB
0
TABLE
2
STYLE
5
3
100
AcDbSymbolTable
70
1
0
STYLE
5
11
100
AcDbSymbolTableRecord
100
AcDbTextStyleTableRecord
2
STANDARD
70
0
0
ENDTAB
0
TABLE
2
VIEW
5
6
100
AcDbSymbolTable
70
0
0
ENDTAB
0
TABLE
2
UCS
5
7
100
AcDbSymbolTable
70
0
0
ENDTAB
0
TABLE
2
APPID
5
9
100
AcDbSymbolTable
70
2
0
APPID
5
12
100
AcDbSymbolTableRecord
100
AcDbRegAppTableRecord
2
ACAD
70
0
0
ENDTAB
0
TABLE
2
DIMSTYLE
5
A
100
AcDbSymbolTable
70
1
0
ENDTAB
0
TABLE
2
BLOCK_RECORD
5
1
100
AcDbSymbolTable
70
1
0
BLOCK_RECORD
5
1F
100
AcDbSymbolTableRecord
100
AcDbBlockTableRecord
2
*MODEL_SPACE
0
BLOCK_RECORD
5
1B
100
AcDbSymbolTableRecord
100
AcDbBlockTableRecord
2
*PAPER_SPACE
0
ENDTAB
0
ENDSEC
0
SECTION
2
BLOCKS
0
BLOCK
5
20
100
AcDbEntity
100
AcDbBlockBegin
2
*MODEL_SPACE
0
ENDBLK
5
21
100
AcDbEntity
100
AcDbBlockEnd
0
BLOCK
5
1C
100
AcDbEntity
100
AcDbBlockBegin
2
*PAPER_SPACE
0
ENDBLK
5
1D
100
AcDbEntity
100
AcDbBlockEnd
0
ENDSEC
0
SECTION
2
ENTITIES
0
LINE
5
100
100
AcDbEntity
8
0
100
AcDbLine
10
18.936693252176774
20
-313.16517568379692
30
0
11
18.936693252176752
21
-237.46517568379701
31
0
0
SPLINE
5
101
100
AcDbEntity
8
0
100
AcDbSpline
70
4
71
5
72
21
73
15
74
0
42
0.000000001
43
0.0000000001
44
0.0000000001
40
0
40
0
40
0
40
0
40
0
40
0
40
0.10000000000000001
40
0.20000000000000001
40
0.30000000000000004
40
0.40000000000000002
40
0.5
40
0.59999999999999998
40
0.69999999999999996
40
0.79999999999999993
40
0.89999999999999991
40
1
40
1
40
1
40
1
40
1
40
1
41
1
41
1
41
1
41
1
41
1
41
1
41
1
41
1
41
1
41
1
41
1
41
1
41
1
41
1
41
1
10
194.18252333530447
20
-233.4920845773307
30
0
10
194.19682629211286
20
-233.55527499361173
30
0
10
194.23024654610708
20
-233.68269442420006
30
0
10
194.29482053972811
20
-233.87693949176611
30
0
10
194.41027655526838
20
-234.1422661801877
30
0
10
194.60659615758397
20
-234.48514241475223
30
0
10
194.85865361675326
20
-234.84004298143765
30
0
10
195.16948781373881
20
-235.20762345822601
30
0
10
195.53819743966096
20
-235.58768940566014
30
0
10
195.96033378501272
20
-235.97928110329161
30
0
10
196.43079664804006
20
-236.38129828420759
30
0
10
196.84218833339216
20
-236.71046719709582
30
0
10
197.16909802148194
20
-236.96130596394067
30
0
10
197.39506616772078
20
-237.13026376595343
30
0
10
197.51005745674212
20
-237.21517568379704
30
0
0
LINE
5
102
100
AcDbEntity
8
0
100
AcDbLine
10
191.85500962151332
20
-316.84939662981355
30
0
11
191.85500962151332
21
-320.38493657133699
31
0
0
ARC
5
103
100
AcDbEntity
8
0
100
AcDbCircle
10
190.85500962151332
20
-316.84939662981355
30
0
40
4.0000000000000266
210
0
220
0
230
1
100
AcDbArc
50
189.69309423497245
51
250.52877945121341
0
SPLINE
5
104
100
AcDbEntity
8
0
100
AcDbSpline
70
4
71
5
72
21
73
15
74
0
42
0.000000001
43
0.0000000001
44
0.0000000001
40
0
40
0
40
0
40
0
40
0
40
0
40
0.10000000000000001
40
0.20000000000000001
40
0.30000000000000004
40
0.40000000000000002
40
0.5
40
0.59999999999999998
40
0.69999999999999996
40
0.79999999999999993
40
0.89999999999999991
40
1
40
1
40
1
40
1
40
1
40
1
41
1
41
1
41
1
41
1
41
1
41
1
41
1
41
1
41
1
41
1
41
1
41
1
41
1
41
1
41
1
10
194.85067175904931
20
-317.0357554395685
30
0
10
194.88240515763027
20
-316.94364382433099
30
0
10
194.94872095256682
20
-316.76115553276998
30
0
10
195.05674150168463
20
-316.49262782898114
30
0
10
195.21814501682144
20
-316.14517233106193
30
0
10
195.45080417800131
20
-315.72967286915951
30
0
10
195.71704774576511
20
-315.33462512328026
30
0
10
196.01948876279761
20
-314.96162034395422
30
0
10
196.35931703904021
20
-314.61138308331169
30
0
10
196.73478340756432
20
-314.28284816052303
30
0
10
197.14308492780046
20
-313.97430868388915
30
0
10
197.49378241719964
20
-313.74212652219126
30
0
10
197.76946865656316
20
-313.575701294559
30
0
10
197.95879541788378
20
-313.46812233148103
30
0
10
198.0548428425966
20
-313.41517568382142
30
0
0
SPLINE
5
105
100
AcDbEntity
8
0
100
AcDbSpline
70
4
71
5
72
21
73
15
74
0
42
0.000000001
43
0.0000000001
44
0.0000000001
40
0
40
0
40
0
40
0
40
0
40
0
40
0.10000000000000001
40
0.20000000000000001
40
0.30000000000000004
40
0.40000000000000002
40
0.5
40
0.59999999999999998
40
0.69999999999999996
40
0.79999999999999993
40
0.89999999999999991
40
1
40
1
40
1
40
1
40
1
40
1
41
1
41
1
41
1
41
1
41
1
41
1
41
1
41
1
41
1
41
1
41
1
41
1
41
1
41
1
41
1
10
186.9121145428179
20
-317.52287892237939
30
0
10
186.90090232891404
20
-317.40309712689316
30
0
10
186.87365432983063
20
-317.16683826755764
30
0
10
186.8183119194922
20
-316.82236396648148
30
0
10
186.71510247485435
20
-316.38322086974074
30
0
10
186.53375416942345
20
-315.870148851772
30
0
10
186.29548573688402
20
-315.39607402773879
30
0
10
185.99579773740095
20
-314.96407905987377
30
0
10
185.6325026252548
20
-314.5756626824068
30
0
10
185.20843062550131
20
-314.2288858477213
30
0
10
184.72829894871421
20
-313.92051669415179
30
0
10
184.30309106296733
20
-313.70198160156269
30
0
10
183.96254419580589
20
-313.5529069607403
30
0
10
183.72605202031309
20
-313.46000575239026
30
0
10
183.60544060619935
20
-313.41517568378561
30
0
0
LINE
5
106
100
AcDbEntity
8
0
100
AcDbLine
10
189.23962247654225
20
-234.16553302968032
30
0
11
189.23962247654225
21
-230.62999912374761
31
0
0
LWPOLYLINE
5
107
100
AcDbEntity
8
0
100
AcDbPolyline
90
4
70
1
43
0.0
10
192.71169325217664
20
-253.94017568379695
10
192.71169325217664
20
-239.54017568379697
10
207.11169325217656
20
-239.54017568379697
10
207.11169325217656
20
-253.94017568379695
0
LINE
5
108
100
AcDbEntity
8
0
100
AcDbLine
10
189.85500962680035
20
-316.84949946103353
30
0
11
189.85500962680035
21
-320.38493053762016
31
0
0
ARC
5
109
100
AcDbEntity
8
0
100
AcDbCircle
10
191.48962247654225
20
-230.62999912374755
30
0
40
0.25000000000000916
210
0
220
-0
230
1
100
AcDbArc
50
70.528779365512094
51
180
0
ARC
5
110
100
AcDbEntity
8
0
100
AcDbCircle
10
192.10500962151326
20
-320.38493657133699
30
0
40
0.24999999999995026
210
0
220
0
230
1
100
AcDbArc
50
180
51
289.47118989552513
0
ARC
5
111
100
AcDbEntity
8
0
100
AcDbCircle
10
190.23962247654225
20
-234.16553302968032
30
0
40
3.9999999999999907
210
0
220
-0
230
1
100
AcDbArc
50
9.6926024896667862
51
70.528779365509621
0
ARC
5
112
100
AcDbEntity
8
0
100
AcDbCircle
10
190.23962247654225
20
-234.16553302968032
30
0
40
1.0000000000000142
210
0
220
0
230
1
100
AcDbArc
50
-180
51
0
0
ARC
5
113
100
AcDbEntity
8
0
100
AcDbCircle
10
30.989622476542252
20
-230.62999912374755
30
0
40
0.2499999999999786
210
0
220
-0
230
1
100
AcDbArc
50
70.528779365504562
51
180
0
LINE
5
114
100
AcDbEntity
8
0
100
AcDbLine
10
30.739622476542255
20
-234.1655330296804
30
0
11
30.739622476542259
21
-230.62999912374755
31
0
0
ARC
5
115
100
AcDbEntity
8
0
100
AcDbCircle
10
190.85500962151332
20
-316.84939662981355
30
0
40
0.99999999999997868
210
0
220
0
230
1
100
AcDbArc
50
0
51
180.00589179487829
0
ARC
5
116
100
AcDbEntity
8
0
100
AcDbCircle
10
188.98962247654225
20
-230.62999912374755
30
0
40
0.24999999999998579
210
0
220
0
230
1
100
AcDbArc
50
0
51
109.47122063448791
0
ARC
5
117
100
AcDbEntity
8
0
100
AcDbCircle
10
189.60500962680044
20
-320.38493053762016
30
0
40
0.24999999999781919
210
0
220
0
230
1
100
AcDbArc
50
-109.47122054879767
51
0
0
ARC
5
118
100
AcDbEntity
8
0
100
AcDbCircle
10
36.605009621668586
20
-320.38493053580123
30
0
40
0.25000000000004208
210
0
220
0
230
1
100
AcDbArc
50
-109.47122063196741
51
0
0
SPLINE
5
119
100
AcDbEntity
8
0
100
AcDbSpline
70
4
71
5
72
21
73
15
74
0
42
0.000000001
43
0.0000000001
44
0.0000000001
40
0
40
0
40
0
40
0
40
0
40
0
40
0.10000000000000001
40
0.20000000000000001
40
0.30000000000000004
40
0.40000000000000002
40
0.5
40
0.59999999999999998
40
0.69999999999999996
40
0.79999999999999993
40
0.89999999999999991
40
1
40
1
40
1
40
1
40
1
40
1
41
1
41
1
41
1
41
1
41
1
41
1
41
1
41
1
41
1
41
1
41
1
41
1
41
1
41
1
41
1
10
33.682523335304481
20
-233.4920845773307
30
0
10
33.696826292125166
20
-233.55527499361204
30
0
10
33.730246546140677
20
-233.682694424201
30
0
10
33.794820539783686
20
-233.87693949176764
30
0
10
33.910276555332807
20
-234.14226618018944
30
0
10
34.10659615763204
20
-234.48514241475326
30
0
10
34.358653616769118
20
-234.84004298143793
30
0
10
34.669487813717964
20
-235.20762345822558
30
0
10
35.038197439608581
20
-235.58768940565972
30
0
10
35.460333784940673
20
-235.97928110329099
30
0
10
35.930796647966346
20
-236.38129828420711
30
0
10
36.342188333335329
20
-236.71046719709551
30
0
10
36.66909802144923
20
-236.9613059639405
30
0
10
36.895066167709068
20
-237.13026376595337
30
0
10
37.010057456742132
20
-237.21517568379704
30
0
0
ARC
5
120
100
AcDbEntity
8
0
100
AcDbCircle
10
39.105009621513162
20
-320.38493053574632
30
0
40
0.24999999999999911
210
0
220
0
230
1
100
AcDbArc
50
180
51
289.47122063448819
0
ARC
5
121
100
AcDbEntity
8
0
100
AcDbCircle
10
37.855009621513183
20
-316.84939662981367
30
0
40
3.999999999999964
210
0
220
0
230
1
100
AcDbArc
50
289.47122063449063
51
357.32805109560593
0
ARC
5
122
100
AcDbEntity
8
0
100
AcDbCircle
10
37.8550096216686
20
-316.84941426049238
30
0
40
0.99999999999999889
210
0
220
-0
230
1
100
AcDbArc
50
0.0010101632440297191
51
180
0
SPLINE
5
123
100
AcDbEntity
8
0
100
AcDbSpline
70
4
71
5
72
21
73
15
74
0
42
0.000000001
43
0.0000000001
44
0.0000000001
40
0
40
0
40
0
40
0
40
0
40
0
40
0.10000000000000001
40
0.20000000000000001
40
0.30000000000000004
40
0.40000000000000002
40
0.5
40
0.59999999999999998
40
0.69999999999999996
40
0.79999999999999993
40
0.89999999999999991
40
1
40
1
40
1
40
1
40
1
40
1
41
1
41
1
41
1
41
1
41
1
41
1
41
1
41
1
41
1
41
1
41
1
41
1
41
1
41
1
41
1
10
33.912133019007854
20
-317.52298708210338
30
0
10
33.901902151469471
20
-317.40175159770718
30
0
10
33.876533582823917
20
-317.16271077530331
30
0
10
33.823760552146233
20
-316.81443975507113
30
0
10
33.723469016075079
20
-316.37099935896481
30
0
10
33.544861926253503
20
-315.8539184166554
30
0
10
33.308338987061099
20
-315.37732383661267
30
0
10
33.009306256014071
20
-314.94442703715549
30
0
10
32.645499879758496
20
-314.55681057621609
30
0
10
32.21976883430942
20
-314.21248286294195
30
0
10
31.736905266467797
20
-313.9080939232818
30
0
10
31.308718222795221
20
-313.69387051087512
30
0
10
30.965518060172673
20
-313.54862402016596
30
0
10
30.727073838606724
20
-313.45853479156051
30
0
10
30.60544060621303
20
-313.41517568379606
30
0
0
ARC
5
124
100
AcDbEntity
8
0
100
AcDbCircle
10
190.8550096268003
20
-316.84949946103353
30
0
40
1.0000000000001377
210
0
220
-0
230
1
100
AcDbArc
50
0.0058917948782933388
51
180
0
LINE
5
125
100
AcDbEntity
8
0
100
AcDbLine
10
28.739622476542259
20
-234.16553302968023
30
0
11
28.739622476541285
21
-230.62999308815719
31
0
0
LINE
5
126
100
AcDbEntity
8
0
100
AcDbLine
10
30.60544060621303
20
-313.41517568379606
30
0
11
19.186693252176795
21
-313.41517568379692
31
0
0
LINE
5
127
100
AcDbEntity
8
0
100
AcDbLine
10
209.18669325217718
20
-313.41517568379743
30
0
11
198.0548428425966
21
-313.41517568382142
31
0
0
ARC
5
128
100
AcDbEntity
8
0
100
AcDbCircle
10
29.739619031591236
20
-234.16553286903684
30
0
40
0.99999655504899154
210
0
220
0
230
1
100
AcDbArc
50
180.00000919542356
51
359.99999080457644
0
LINE
5
129
100
AcDbEntity
8
0
100
AcDbLine
10
197.51005745674212
20
-237.21517568379704
30
0
11
209.18669325217661
21
-237.21517568379696
31
0
0
LINE
5
130
100
AcDbEntity
8
0
100
AcDbLine
10
209.43669325217658
20
-237.46517568379693
30
0
11
209.43669325217658
21
-313.16517568379743
31
0
0
ARC
5
131
100
AcDbEntity
8
0
100
AcDbCircle
10
190.23962247654225
20
-234.16553302968032
30
0
40
4.0000000000000364
210
0
220
0
230
1
100
AcDbArc
50
109.47122063449038
51
177.33014216622871
0
LINE
5
132
100
AcDbEntity
8
0
100
AcDbLine
10
19.186693252176749
20
-237.21517568379704
30
0
11
22.509761743573236
21
-237.21517568379699
31
0
0
SPLINE
5
133
100
AcDbEntity
8
0
100
AcDbSpline
70
4
71
5
72
21
73
15
74
0
42
0.000000001
43
0.0000000001
44
0.0000000001
40
0
40
0
40
0
40
0
40
0
40
0
40
0.10000000000000001
40
0.20000000000000001
40
0.30000000000000004
40
0.40000000000000002
40
0.5
40
0.59999999999999998
40
0.69999999999999996
40
0.79999999999999993
40
0.89999999999999991
40
1
40
1
40
1
40
1
40
1
40
1
41
1
41
1
41
1
41
1
41
1
41
1
41
1
41
1
41
1
41
1
41
1
41
1
41
1
41
1
41
1
10
41.850660892758555
20
-317.03586624823754
30
0
10
41.847306031369342
20
-316.93615515884613
30
0
10
41.846647605164414
20
-316.73918238100589
30
0
10
41.863814161959432
20
-316.4510715410899
30
0
10
41.923605976454716
20
-316.08186111852484
30
0
10
42.063878703636803
20
-315.64687405699175
30
0
10
42.274966862128295
20
-315.24055116373592
30
0
10
42.561755691566894
20
-314.86486985136372
30
0
10
42.925252902783122
20
-314.52023801386662
30
0
10
43.360787387368653
20
-314.20476491305828
30
0
10
43.862189901779722
20
-313.91595340624065
30
0
10
44.311334870816701
20
-313.70434259292642
30
0
10
44.673434357756953
20
-313.55585125880725
30
0
10
44.925867630369709
20
-313.46132314433737
30
0
10
45.054842842511569
20
-313.41517568386234
30
0
0
ARC
5
134
100
AcDbEntity
8
0
100
AcDbCircle
10
37.855009621513183
20
-316.84939662981367
30
0
40
0.99999999999999645
210
0
220
0
230
1
100
AcDbArc
50
0
51
180.00101016324402
0
SPLINE
5
135
100
AcDbEntity
8
0
100
AcDbSpline
70
4
71
5
72
21
73
15
74
0
42
0.000000001
43
0.0000000001
44
0.0000000001
40
0
40
0
40
0
40
0
40
0
40
0
40
0.10000000000000001
40
0.20000000000000001
40
0.30000000000000004
40
0.40000000000000002
40
0.5
40
0.59999999999999998
40
0.69999999999999996
40
0.79999999999999993
40
0.89999999999999991
40
1
40
1
40
1
40
1
40
1
40
1
41
1
41
1
41
1
41
1
41
1
41
1
41
1
41
1
41
1
41
1
41
1
41
1
41
1
41
1
41
1
10
186.24397040767354
20
-233.97908050342909
30
0
10
186.23578011281185
20
-234.04853369491622
30
0
10
186.21423526226266
20
-234.18700757785308
30
0
10
186.16642460977414
20
-234.393420852384
30
0
10
186.07118567569722
20
-234.66600118872918
30
0
10
185.89631097295421
20
-235.00205125228723
30
0
10
185.66145188677041
20
-235.33307770277247
30
0
10
185.36305769208653
20
-235.65878317163185
30
0
10
185.00155877048138
20
-235.97920370274636
30
0
10
184.58153014332271
20
-236.29472244811933
30
0
10
184.10838726302359
20
-236.60579294474641
30
0
10
183.69131573061014
20
-236.85142022496302
30
0
10
183.35827806307356
20
-237.03394611274095
30
0
10
183.12740809085005
20
-237.1548892925023
30
0
10
183.00976174357322
20
-237.21517568379699
30
0
0
LINE
5
136
100
AcDbEntity
8
0
100
AcDbLine
10
183.60544060619935
20
-313.41517568378561
30
0
11
45.054842842511569
21
-313.41517568386234
31
0
0
ARC
5
137
100
AcDbEntity
8
0
100
AcDbCircle
10
29.739619031591236
20
-234.16553286903684
30
0
40
4.0000033687288736
210
0
220
-0
230
1
100
AcDbArc
50
9.6925919135972283
51
70.52873207532069
0
ARC
5
138
100
AcDbEntity
8
0
100
AcDbCircle
10
29.739619031591236
20
-234.16553286903684
30
0
40
4.0000043906398668
210
0
220
0
230
1
100
AcDbArc
50
109.47114413941442
51
177.330142166229
0
LINE
5
139
100
AcDbEntity
8
0
100
AcDbLine
10
37.010057456742132
20
-237.21517568379704
30
0
11
183.00976174357322
21
-237.21517568379699
31
0
0
ARC
5
140
100
AcDbEntity
8
0
100
AcDbCircle
10
37.855009621513183
20
-316.84939662981367
30
0
40
3.9999999999999849
210
0
220
0
230
1
100
AcDbArc
50
189.69466595070099
51
250.52877936802744
0
ARC
5
141
100
AcDbEntity
8
0
100
AcDbCircle
10
190.23962247654225
20
-234.16553302968032
30
0
40
1.0000000000000142
210
0
220
0
230
1
100
AcDbArc
50
-180
51
0
0
SPLINE
5
142
100
AcDbEntity
8
0
100
AcDbSpline
70
4
71
5
72
21
73
15
74
0
42
0.000000001
43
0.0000000001
44
0.0000000001
40
0
40
0
40
0
40
0
40
0
40
0
40
0.10000000000000001
40
0.20000000000000001
40
0.30000000000000004
40
0.40000000000000002
40
0.5
40
0.59999999999999998
40
0.69999999999999996
40
0.79999999999999993
40
0.89999999999999991
40
1
40
1
40
1
40
1
40
1
40
1
41
1
41
1
41
1
41
1
41
1
41
1
41
1
41
1
41
1
41
1
41
1
41
1
41
1
41
1
41
1
10
25.743970407673572
20
-233.97908050342909
30
0
10
25.735780112826582
20
-234.04853369491761
30
0
10
25.714235262303067
20
-234.187007577857
30
0
10
25.666424609841847
20
-234.39342085239079
30
0
10
25.571185675780498
20
-234.66600118873853
30
0
10
25.396310973024736
20
-235.00205125229616
30
0
10
25.161451886801341
20
-235.33307770277685
30
0
10
24.86305769206005
20
-235.65878317162827
30
0
10
24.501558770392883
20
-235.97920370273388
30
0
10
24.081530143186178
20
-236.29472244810006
30
0
10
23.608387262872323
20
-236.60579294472552
30
0
10
23.191315730487485
20
-236.85142022494648
30
0
10
22.858278063000782
20
-237.03394611273137
30
0
10
22.627408090823636
20
-237.15488929249884
30
0
10
22.509761743573236
20
-237.21517568379699
30
0
0
LINE
5
143
100
AcDbEntity
8
0
100
AcDbLine
10
38.855009621513176
20
-316.84939662981367
30
0
11
38.855009621513162
21
-320.38493053574632
31
0
0
ARC
5
144
100
AcDbEntity
8
0
100
AcDbCircle
10
28.489622476541282
20
-230.62999308815728
30
0
40
0.25000000000000355
210
0
220
-0
230
1
100
AcDbArc
50
0
51
109.47118989554059
0
LINE
5
145
100
AcDbEntity
8
0
100
AcDbLine
10
36.8550096216686
20
-316.84941426049238
30
0
11
36.855009621668593
21
-320.38493053580123
31
0
0
LINE
5
146
100
AcDbEntity
8
0
100
AcDbLine
10
191.23962247654225
20
-234.16553302968032
30
0
11
191.23962247654225
21
-230.62999912374761
31
0
0
ARC
5
147
100
AcDbEntity
8
0
100
AcDbCircle
10
190.85500962151332
20
-316.84939662981355
30
0
40
4.000005690409937
210
0
220
0
230
1
100
AcDbArc
50
289.47118989552547
51
357.32964384092423
0
ARC
5
148
100
AcDbEntity
8
0
100
AcDbCircle
10
29.739622476542252
20
-234.16553302968032
30
0
40
0.99999999999999645
210
0
220
0
230
1
100
AcDbArc
50
180
51
360
0
LWPOLYLINE
5
149
100
AcDbEntity
8
0
100
AcDbPolyline
90
4
70
1
43
0.0
10
92.811693252176681
20
-272.99017568379696
10
78.411693252176718
20
-272.99017568379696
10
78.411693252176718
20
-258.59017568379699
10
92.811693252176681
20
-258.59017568379699
0
LWPOLYLINE
5
150
100
AcDbEntity
8
0
100
AcDbPolyline
90
4
70
1
43
0.0
10
35.66169325217674
20
-258.59017568379699
10
35.661693252176747
20
-272.99017568379696
10
21.261693252176762
20
-272.99017568379696
10
21.261693252176759
20
-258.59017568379699
0
LWPOLYLINE
5
151
100
AcDbEntity
8
0
100
AcDbPolyline
90
4
70
1
43
0.0
10
97.461693252176715
20
-277.64017568379694
10
111.86169325217669
20
-277.64017568379694
10
111.86169325217669
20
-292.04017568379692
10
97.461693252176715
20
-292.04017568379692
0
LWPOLYLINE
5
152
100
AcDbEntity
8
0
100
AcDbPolyline
90
4
70
1
43
0.0
10
169.01169325217666
20
-296.69017568379695
10
169.01169325217666
20
-311.09017568379693
10
154.61169325217665
20
-311.09017568379693
10
154.61169325217665
20
-296.69017568379695
0
LWPOLYLINE
5
153
100
AcDbEntity
8
0
100
AcDbPolyline
90
4
70
1
43
0.0
10
78.411693252176718
20
-296.69017568379695
10
92.811693252176696
20
-296.69017568379695
10
92.811693252176696
20
-311.09017568379693
10
78.411693252176718
20
-311.09017568379693
0
LWPOLYLINE
5
154
100
AcDbEntity
8
0
100
AcDbPolyline
90
4
70
1
43
0.0
10
59.361693252176728
20
-258.59017568379699
10
73.761693252176713
20
-258.59017568379699
10
73.761693252176713
20
-272.99017568379696
10
59.361693252176728
20
-272.99017568379696
0
LWPOLYLINE
5
155
100
AcDbEntity
8
0
100
AcDbPolyline
90
4
70
1
43
0.0
10
54.71169325217673
20
-311.09017568379693
10
40.311693252176752
20
-311.09017568379693
10
40.311693252176752
20
-296.69017568379695
10
54.71169325217673
20
-296.69017568379695
0
LWPOLYLINE
5
156
100
AcDbEntity
8
0
100
AcDbPolyline
90
4
70
1
43
0.0
10
35.661693252176747
20
-311.09017568379693
10
21.261693252176769
20
-311.09017568379699
10
21.261693252176762
20
-296.69017568379701
10
35.661693252176747
20
-296.69017568379695
0
LWPOLYLINE
5
157
100
AcDbEntity
8
0
100
AcDbPolyline
90
4
70
1
43
0.0
10
59.361693252176735
20
-277.64017568379694
10
73.761693252176727
20
-277.64017568379694
10
73.761693252176727
20
-292.04017568379692
10
59.361693252176735
20
-292.04017568379692
0
LWPOLYLINE
5
158
100
AcDbEntity
8
0
100
AcDbPolyline
90
4
70
1
43
0.0
10
130.91169325217666
20
-296.69017568379695
10
130.91169325217666
20
-311.09017568379693
10
116.51169325217668
20
-311.09017568379693
10
116.51169325217668
20
-296.69017568379695
0
LWPOLYLINE
5
159
100
AcDbEntity
8
0
100
AcDbPolyline
90
4
70
1
43
0.0
10
59.361693252176721
20
-239.54017568379697
10
73.761693252176713
20
-239.54017568379697
10
73.761693252176713
20
-253.94017568379695
10
59.361693252176728
20
-253.94017568379695
0
LWPOLYLINE
5
160
100
AcDbEntity
8
0
100
AcDbPolyline
90
4
70
1
43
0.0
10
111.86169325217665
20
-258.59017568379693
10
111.86169325217669
20
-272.99017568379696
10
97.461693252176701
20
-272.99017568379696
10
97.461693252176701
20
-258.59017568379699
0
LWPOLYLINE
5
161
100
AcDbEntity
8
0
100
AcDbPolyline
90
4
70
1
43
0.0
10
111.86169325217669
20
-311.09017568379693
10
97.461693252176715
20
-311.09017568379693
10
97.461693252176715
20
-296.69017568379695
10
111.86169325217669
20
-296.69017568379695
0
LWPOLYLINE
5
162
100
AcDbEntity
8
0
100
AcDbPolyline
90
4
70
1
43
0.0
10
97.461693252176673
20
-239.54017568379697
10
111.86169325217665
20
-239.54017568379697
10
111.86169325217665
20
-253.94017568379695
10
97.461693252176701
20
-253.94017568379695
0
LWPOLYLINE
5
163
100
AcDbEntity
8
0
100
AcDbPolyline
90
4
70
1
43
0.0
10
135.56169325217667
20
-272.99017568379691
10
135.56169325217664
20
-258.59017568379693
10
149.96169325217662
20
-258.59017568379693
10
149.96169325217664
20
-272.99017568379691
0
LWPOLYLINE
5
164
100
AcDbEntity
8
0
100
AcDbPolyline
90
4
70
1
43
0.0
10
149.96169325217664
20
-277.64017568379694
10
149.96169325217664
20
-292.04017568379692
10
135.56169325217667
20
-292.04017568379692
10
135.56169325217667
20
-277.64017568379694
0
LWPOLYLINE
5
165
100
AcDbEntity
8
0
100
AcDbPolyline
90
4
70
1
43
0.0
10
59.361693252176735
20
-311.09017568379693
10
59.361693252176735
20
-296.69017568379695
10
73.761693252176727
20
-296.69017568379695
10
73.761693252176727
20
-311.09017568379693
0
LWPOLYLINE
5
166
100
AcDbEntity
8
0
100
AcDbPolyline
90
4
70
1
43
0.0
10
154.61169325217665
20
-277.64017568379694
10
169.01169325217666
20
-277.64017568379694
10
169.01169325217666
20
-292.04017568379692
10
154.61169325217665
20
-292.04017568379692
0
LWPOLYLINE
5
167
100
AcDbEntity
8
0
100
AcDbPolyline
90
4
70
1
43
0.0
10
135.56169325217667
20
-311.09017568379693
10
135.56169325217667
20
-296.69017568379695
10
149.96169325217664
20
-296.69017568379695
10
149.96169325217664
20
-311.09017568379693
0
LWPOLYLINE
5
168
100
AcDbEntity
8
0
100
AcDbPolyline
90
4
70
1
43
0.0
10
173.66169325217663
20
-277.64017568379694
10
188.06169325217661
20
-277.64017568379694
10
188.06169325217664
20
-292.04017568379692
10
173.66169325217663
20
-292.04017568379692
0
LWPOLYLINE
5
169
100
AcDbEntity
8
0
100
AcDbPolyline
90
4
70
1
43
0.0
10
78.411693252176718
20
-277.64017568379694
10
92.811693252176696
20
-277.64017568379694
10
92.811693252176696
20
-292.04017568379692
10
78.411693252176718
20
-292.04017568379692
0
LWPOLYLINE
5
170
100
AcDbEntity
8
0
100
AcDbPolyline
90
4
70
1
43
0.0
10
54.71169325217673
20
-292.04017568379692
10
40.311693252176752
20
-292.04017568379692
10
40.311693252176752
20
-277.64017568379694
10
54.71169325217673
20
-277.64017568379694
0
LWPOLYLINE
5
171
100
AcDbEntity
8
0
100
AcDbPolyline
90
4
70
1
43
0.0
10
173.66169325217663
20
-272.99017568379691
10
173.66169325217663
20
-258.59017568379693
10
188.06169325217661
20
-258.59017568379693
10
188.06169325217661
20
-272.99017568379691
0
LWPOLYLINE
5
172
100
AcDbEntity
8
0
100
AcDbPolyline
90
4
70
1
43
0.0
10
130.91169325217666
20
-277.64017568379694
10
130.91169325217666
20
-292.04017568379692
10
116.51169325217668
20
-292.04017568379692
10
116.51169325217668
20
-277.64017568379694
0
LWPOLYLINE
5
173
100
AcDbEntity
8
0
100
AcDbPolyline
90
4
70
1
43
0.0
10
188.06169325217661
20
-296.69017568379695
10
188.06169325217664
20
-311.09017568379693
10
173.66169325217663
20
-311.09017568379693
10
173.66169325217663
20
-296.69017568379695
0
LWPOLYLINE
5
174
100
AcDbEntity
8
0
100
AcDbPolyline
90
4
70
1
43
0.0
10
54.711693252176723
20
-253.94017568379695
10
40.311693252176745
20
-253.94017568379698
10
40.311693252176738
20
-239.54017568379697
10
54.711693252176715
20
-239.54017568379697
0
LWPOLYLINE
5
175
100
AcDbEntity
8
0
100
AcDbPolyline
90
4
70
1
43
0.0
10
149.96169325217662
20
-239.54017568379697
10
149.96169325217662
20
-253.94017568379695
10
135.56169325217664
20
-253.94017568379695
10
135.56169325217664
20
-239.54017568379697
0
LWPOLYLINE
5
176
100
AcDbEntity
8
0
100
AcDbPolyline
90
4
70
1
43
0.0
10
130.91169325217663
20
-258.59017568379693
10
130.91169325217666
20
-272.99017568379696
10
116.51169325217668
20
-272.99017568379696
10
116.51169325217666
20
-258.59017568379693
0
LWPOLYLINE
5
177
100
AcDbEntity
8
0
100
AcDbPolyline
90
4
70
1
43
0.0
10
154.61169325217665
20
-239.54017568379697
10
169.01169325217663
20
-239.54017568379697
10
169.01169325217663
20
-253.94017568379695
10
154.61169325217665
20
-253.94017568379695
0
LWPOLYLINE
5
178
100
AcDbEntity
8
0
100
AcDbPolyline
90
4
70
1
43
0.0
10
78.411693252176704
20
-239.54017568379697
10
92.811693252176681
20
-239.54017568379697
10
92.811693252176681
20
-253.94017568379695
10
78.411693252176718
20
-253.94017568379695
0
LWPOLYLINE
5
179
100
AcDbEntity
8
0
100
AcDbPolyline
90
4
70
1
43
0.0
10
188.06169325217661
20
-239.54017568379695
10
188.06169325217661
20
-253.94017568379695
10
173.66169325217663
20
-253.94017568379695
10
173.66169325217663
20
-239.54017568379697
0
LWPOLYLINE
5
180
100
AcDbEntity
8
0
100
AcDbPolyline
90
4
70
1
43
0.0
10
21.261693252176755
20
-253.94017568379698
10
21.261693252176748
20
-239.54017568379697
10
35.661693252176732
20
-239.54017568379697
10
35.66169325217674
20
-253.94017568379698
0
LWPOLYLINE
5
181
100
AcDbEntity
8
0
100
AcDbPolyline
90
4
70
1
43
0.0
10
116.51169325217666
20
-239.54017568379697
10
130.91169325217663
20
-239.54017568379697
10
130.91169325217663
20
-253.94017568379695
10
116.51169325217666
20
-253.94017568379695
0
LWPOLYLINE
5
182
100
AcDbEntity
8
0
100
AcDbPolyline
90
4
70
1
43
0.0
10
192.71169325217667
20
-311.09017568379693
10
192.71169325217664
20
-296.69017568379695
10
207.11169325217656
20
-296.69017568379695
10
207.11169325217662
20
-311.09017568379693
0
LWPOLYLINE
5
183
100
AcDbEntity
8
0
100
AcDbPolyline
90
4
70
1
43
0.0
10
169.01169325217666
20
-272.99017568379691
10
154.61169325217665
20
-272.99017568379691
10
154.61169325217665
20
-258.59017568379693
10
169.01169325217663
20
-258.59017568379693
0
LWPOLYLINE
5
184
100
AcDbEntity
8
0
100
AcDbPolyline
90
4
70
1
43
0.0
10
21.261693252176762
20
-277.640175683797
10
35.661693252176747
20
-277.64017568379694
10
35.661693252176747
20
-292.04017568379692
10
21.261693252176769
20
-292.04017568379697
0
LWPOLYLINE
5
185
100
AcDbEntity
8
0
100
AcDbPolyline
90
4
70
1
43
0.0
10
207.11169325217656
20
-258.59017568379693
10
207.11169325217656
20
-272.99017568379691
10
192.71169325217664
20
-272.99017568379691
10
192.71169325217664
20
-258.59017568379693
0
LWPOLYLINE
5
186
100
AcDbEntity
8
0
100
AcDbPolyline
90
4
70
1
43
0.0
10
54.71169325217673
20
-258.59017568379699
10
54.71169325217673
20
-272.99017568379696
10
40.311693252176752
20
-272.99017568379696
10
40.311693252176752
20
-258.59017568379699
0
LWPOLYLINE
5
187
100
AcDbEntity
8
0
100
AcDbPolyline
90
4
70
1
43
0.0
10
192.71169325217667
20
-292.04017568379692
10
192.71169325217664
20
-277.64017568379694
10
207.11169325217656
20
-277.64017568379694
10
207.11169325217662
20
-292.04017568379692
0
ARC
5
188
100
AcDbEntity
8
0
100
AcDbCircle
10
209.18669325217667
20
-237.46517568379687
30
0
40
0.24999999999991473
210
-0
220
0
230
1
100
AcDbArc
50
0
51
90.000000000013031
0
ARC
5
189
100
AcDbEntity
8
0
100
AcDbCircle
10
209.18669325217664
20
-313.16517568379749
30
0
40
0.24999999999995026
210
0
220
0
230
1
100
AcDbArc
50
-89.999999999876238
51
0
0
ARC
5
190
100
AcDbEntity
8
0
100
AcDbCircle
10
19.186693252176717
20
-237.46517568379701
30
0
40
0.24999999999998579
210
0
220
-0
230
1
100
AcDbArc
50
89.999999999992667
51
180
0
ARC
5
191
100
AcDbEntity
8
0
100
AcDbCircle
10
19.186693252176731
20
-313.16517568379697
30
0
40
0.2499999999999547
210
0
220
0
230
1
100
AcDbArc
50
180
51
270.00000000001467
0
ENDSEC
0
SECTION
2
OBJECTS
0
DICTIONARY
5
C
100
AcDbDictionary
3
ACAD_GROUP
350
D
3
ACAD_MLINESTYLE
350
17
0
DICTIONARY
5
D
100
AcDbDictionary
0
DICTIONARY
5
1A
330
C
100
AcDbDictionary
0
DICTIONARY
5
17
100
AcDbDictionary
0
ENDSEC
0
EOF
