0
SECTION
2
HEADER
9
$INSUNITS
70
4
9
$ACADVER
1
AC1014
9
$HANDSEED
5
FFFF
0
ENDSEC
0
SECTION
2
TABLES
0
TABLE
2
VPORT
5
8
100
AcDbSymbolTable
0
ENDTAB
0
TABLE
2
LTYPE
5
5
100
AcDbSymbolTable
0
LTYPE
5
14
100
AcDbSymbolTableRecord
100
AcDbLinetypeTableRecord
2
BYBLOCK
70
0
0
LTYPE
5
15
100
AcDbSymbolTableRecord
100
AcDbLinetypeTableRecord
2
BYLAYER
70
0
0
ENDTAB
0
TABLE
2
LAYER
5
2
100
AcDbSymbolTable
70
2
0
LAYER
5
50
100
AcDbSymbolTableRecord
100
AcDbLayerTableRecord
2
0
70
0
6
CONTINUOUS
0
ENDTAB
0
TABLE
2
STYLE
5
3
100
AcDbSymbolTable
70
1
0
STYLE
5
11
100
AcDbSymbolTableRecord
100
AcDbTextStyleTableRecord
2
STANDARD
70
0
0
ENDTAB
0
TABLE
2
VIEW
5
6
100
AcDbSymbolTable
70
0
0
ENDTAB
0
TABLE
2
UCS
5
7
100
AcDbSymbolTable
70
0
0
ENDTAB
0
TABLE
2
APPID
5
9
100
AcDbSymbolTable
70
2
0
APPID
5
12
100
AcDbSymbolTableRecord
100
AcDbRegAppTableRecord
2
ACAD
70
0
0
ENDTAB
0
TABLE
2
DIMSTYLE
5
A
100
AcDbSymbolTable
70
1
0
ENDTAB
0
TABLE
2
BLOCK_RECORD
5
1
100
AcDbSymbolTable
70
1
0
BLOCK_RECORD
5
1F
100
AcDbSymbolTableRecord
100
AcDbBlockTableRecord
2
*MODEL_SPACE
0
BLOCK_RECORD
5
1B
100
AcDbSymbolTableRecord
100
AcDbBlockTableRecord
2
*PAPER_SPACE
0
ENDTAB
0
ENDSEC
0
SECTION
2
BLOCKS
0
BLOCK
5
20
100
AcDbEntity
100
AcDbBlockBegin
2
*MODEL_SPACE
0
ENDBLK
5
21
100
AcDbEntity
100
AcDbBlockEnd
0
BLOCK
5
1C
100
AcDbEntity
100
AcDbBlockBegin
2
*PAPER_SPACE
0
ENDBLK
5
1D
100
AcDbEntity
100
AcDbBlockEnd
0
ENDSEC
0
SECTION
2
ENTITIES
0
LWPOLYLINE
5
100
100
AcDbEntity
8
0
100
AcDbPolyline
90
8
70
1
43
0.0
10
341.6249999988824
20
17.475000000000001
10
355.52500000111758
20
17.475000000000001
42
-0.41421356237309509
10
355.57499999999999
20
17.425000001117589
10
355.57499999999999
20
3.5249999988824143
42
-0.41421356237309509
10
355.52500000111758
20
3.4750000000000014
10
341.6249999988824
20
3.4750000000000014
42
-0.41421356237309509
10
341.57499999999999
20
3.5249999988824143
10
341.57499999999999
20
17.425000001117589
42
-0.41421356237309509
0
LWPOLYLINE
5
101
100
AcDbEntity
8
0
100
AcDbPolyline
90
8
70
1
43
0.0
10
360.67499999888241
20
17.475000000000001
10
374.57500000111759
20
17.475000000000001
42
-0.41421356237309509
10
374.625
20
17.425000001117589
10
374.625
20
3.5249999988824143
42
-0.41421356237309509
10
374.57500000111759
20
3.4750000000000014
10
360.67499999888241
20
3.4750000000000014
42
-0.41421356237309509
10
360.625
20
3.5249999988824143
10
360.625
20
17.425000001117589
42
-0.41421356237309509
0
LWPOLYLINE
5
102
100
AcDbEntity
8
0
100
AcDbPolyline
90
8
70
1
43
0.0
10
379.72499999888242
20
17.475000000000001
10
393.6250000011176
20
17.475000000000001
42
-0.41421356237309509
10
393.67500000000001
20
17.425000001117589
10
393.67500000000001
20
3.5249999988824143
42
-0.41421356237309509
10
393.6250000011176
20
3.4750000000000014
10
379.72499999888242
20
3.4750000000000014
42
-0.41421356237309509
10
379.67500000000001
20
3.5249999988824143
10
379.67500000000001
20
17.425000001117589
42
-0.41421356237309509
0
LWPOLYLINE
5
103
100
AcDbEntity
8
0
100
AcDbPolyline
90
8
70
1
43
0.0
10
398.77499999888244
20
17.475000000000001
10
412.67500000111761
20
17.475000000000001
42
-0.41421356237309509
10
412.72500000000002
20
17.425000001117589
10
412.72500000000002
20
3.5249999988824143
42
-0.41421356237309509
10
412.67500000111761
20
3.4750000000000014
10
398.77499999888244
20
3.4750000000000014
42
-0.41421356237309509
10
398.72500000000002
20
3.5249999988824143
10
398.72500000000002
20
17.425000001117589
42
-0.41421356237309509
0
LWPOLYLINE
5
104
100
AcDbEntity
8
0
100
AcDbPolyline
90
8
70
1
43
0.0
10
417.82499999888245
20
17.475000000000001
10
431.72500000111762
20
17.475000000000001
42
-0.41421356237309509
10
431.77500000000003
20
17.425000001117589
10
431.77500000000003
20
3.5249999988824143
42
-0.41421356237309509
10
431.72500000111762
20
3.4750000000000014
10
417.82499999888245
20
3.4750000000000014
42
-0.41421356237309509
10
417.77500000000003
20
3.5249999988824143
10
417.77500000000003
20
17.425000001117589
42
-0.41421356237309509
0
LWPOLYLINE
5
105
100
AcDbEntity
8
0
100
AcDbPolyline
90
8
70
1
43
0.0
10
436.8749999988824
20
17.475000000000001
10
450.77500000111752
20
17.475000000000001
42
-0.41421356237309509
10
450.82499999999993
20
17.425000001117589
10
450.82499999999993
20
3.5249999988824143
42
-0.41421356237309509
10
450.77500000111752
20
3.4750000000000014
10
436.8749999988824
20
3.4750000000000014
42
-0.41421356237309509
10
436.82499999999999
20
3.5249999988824143
10
436.82499999999999
20
17.425000001117589
42
-0.41421356237309509
0
LWPOLYLINE
5
106
100
AcDbEntity
8
0
100
AcDbPolyline
90
8
70
1
43
0.0
10
455.92499999888241
20
17.475000000000001
10
469.82500000111759
20
17.475000000000001
42
-0.41421356237309509
10
469.875
20
17.425000001117589
10
469.875
20
3.5249999988824143
42
-0.41421356237309509
10
469.82500000111759
20
3.4750000000000014
10
455.92499999888241
20
3.4750000000000014
42
-0.41421356237309509
10
455.875
20
3.5249999988824143
10
455.875
20
17.425000001117589
42
-0.41421356237309509
0
LWPOLYLINE
5
107
100
AcDbEntity
8
0
100
AcDbPolyline
90
8
70
1
43
0.0
10
474.97499999888242
20
17.475000000000001
10
488.87500000111754
20
17.475000000000001
42
-0.41421356237309509
10
488.92499999999995
20
17.425000001117589
10
488.92499999999995
20
3.5249999988824143
42
-0.41421356237309509
10
488.87500000111754
20
3.4750000000000014
10
474.97499999888242
20
3.4750000000000014
42
-0.41421356237309509
10
474.92500000000001
20
3.5249999988824143
10
474.92500000000001
20
17.425000001117589
42
-0.41421356237309509
0
LWPOLYLINE
5
108
100
AcDbEntity
8
0
100
AcDbPolyline
90
8
70
1
43
0.0
10
494.02499999888244
20
17.475000000000001
10
507.92500000111761
20
17.475000000000001
42
-0.41421356237309509
10
507.97500000000002
20
17.425000001117589
10
507.97500000000002
20
3.5249999988824143
42
-0.41421356237309509
10
507.92500000111761
20
3.4750000000000014
10
494.02499999888244
20
3.4750000000000014
42
-0.41421356237309509
10
493.97500000000002
20
3.5249999988824143
10
493.97500000000002
20
17.425000001117589
42
-0.41421356237309509
0
LWPOLYLINE
5
109
100
AcDbEntity
8
0
100
AcDbPolyline
90
8
70
1
43
0.0
10
322.57499999888239
20
-1.575000000000002
10
336.47500000111762
20
-1.575000000000002
42
-0.414213562373069
10
336.52500000000003
20
-1.6249999988824104
10
336.52500000000003
20
-15.525000001117588
42
-0.41421356237309509
10
336.47500000111762
20
-15.575000000000001
10
322.57499999888239
20
-15.575000000000001
42
-0.41421356237309509
10
322.52499999999998
20
-15.525000001117588
10
322.52499999999998
20
-1.6249999988824149
42
-0.41421356237309509
0
LWPOLYLINE
5
110
100
AcDbEntity
8
0
100
AcDbPolyline
90
8
70
1
43
0.0
10
341.6249999988824
20
-1.575000000000002
10
355.52500000111758
20
-1.575000000000002
42
-0.414213562373069
10
355.57499999999999
20
-1.6249999988824104
10
355.57499999999999
20
-15.525000001117588
42
-0.41421356237309509
10
355.52500000111758
20
-15.575000000000001
10
341.6249999988824
20
-15.575000000000001
42
-0.41421356237309509
10
341.57499999999999
20
-15.525000001117588
10
341.57499999999999
20
-1.6249999988824149
42
-0.41421356237309509
0
LWPOLYLINE
5
111
100
AcDbEntity
8
0
100
AcDbPolyline
90
8
70
1
43
0.0
10
360.67499999888241
20
-1.575000000000002
10
374.57500000111759
20
-1.575000000000002
42
-0.414213562373069
10
374.625
20
-1.6249999988824104
10
374.625
20
-15.525000001117588
42
-0.41421356237309509
10
374.57500000111759
20
-15.575000000000001
10
360.67499999888241
20
-15.575000000000001
42
-0.41421356237309509
10
360.625
20
-15.525000001117588
10
360.625
20
-1.6249999988824149
42
-0.41421356237309509
0
LWPOLYLINE
5
112
100
AcDbEntity
8
0
100
AcDbPolyline
90
8
70
1
43
0.0
10
379.72499999888242
20
-1.575000000000002
10
393.6250000011176
20
-1.575000000000002
42
-0.414213562373069
10
393.67500000000001
20
-1.6249999988824104
10
393.67500000000001
20
-15.525000001117588
42
-0.41421356237309509
10
393.6250000011176
20
-15.575000000000001
10
379.72499999888242
20
-15.575000000000001
42
-0.41421356237309509
10
379.67500000000001
20
-15.525000001117588
10
379.67500000000001
20
-1.6249999988824149
42
-0.41421356237309509
0
LWPOLYLINE
5
113
100
AcDbEntity
8
0
100
AcDbPolyline
90
8
70
1
43
0.0
10
398.77499999888244
20
-1.575000000000002
10
412.67500000111761
20
-1.575000000000002
42
-0.414213562373069
10
412.72500000000002
20
-1.6249999988824104
10
412.72500000000002
20
-15.525000001117588
42
-0.41421356237309509
10
412.67500000111761
20
-15.575000000000001
10
398.77499999888244
20
-15.575000000000001
42
-0.41421356237309509
10
398.72500000000002
20
-15.525000001117588
10
398.72500000000002
20
-1.6249999988824149
42
-0.41421356237309509
0
LWPOLYLINE
5
114
100
AcDbEntity
8
0
100
AcDbPolyline
90
8
70
1
43
0.0
10
417.82499999888245
20
-1.575000000000002
10
431.72500000111762
20
-1.575000000000002
42
-0.414213562373069
10
431.77500000000003
20
-1.6249999988824104
10
431.77500000000003
20
-15.525000001117588
42
-0.41421356237309509
10
431.72500000111762
20
-15.575000000000001
10
417.82499999888245
20
-15.575000000000001
42
-0.41421356237309509
10
417.77500000000003
20
-15.525000001117588
10
417.77500000000003
20
-1.6249999988824149
42
-0.41421356237309509
0
LWPOLYLINE
5
115
100
AcDbEntity
8
0
100
AcDbPolyline
90
8
70
1
43
0.0
10
436.8749999988824
20
-1.575000000000002
10
450.77500000111752
20
-1.575000000000002
42
-0.414213562373069
10
450.82499999999993
20
-1.6249999988824104
10
450.82499999999993
20
-15.525000001117588
42
-0.41421356237309509
10
450.77500000111752
20
-15.575000000000001
10
436.8749999988824
20
-15.575000000000001
42
-0.41421356237309509
10
436.82499999999999
20
-15.525000001117588
10
436.82499999999999
20
-1.6249999988824149
42
-0.41421356237309509
0
LWPOLYLINE
5
116
100
AcDbEntity
8
0
100
AcDbPolyline
90
8
70
1
43
0.0
10
455.92499999888241
20
-1.575000000000002
10
469.82500000111759
20
-1.575000000000002
42
-0.414213562373069
10
469.875
20
-1.6249999988824104
10
469.875
20
-15.525000001117588
42
-0.41421356237309509
10
469.82500000111759
20
-15.575000000000001
10
455.92499999888241
20
-15.575000000000001
42
-0.41421356237309509
10
455.875
20
-15.525000001117588
10
455.875
20
-1.6249999988824149
42
-0.41421356237309509
0
LWPOLYLINE
5
117
100
AcDbEntity
8
0
100
AcDbPolyline
90
8
70
1
43
0.0
10
474.97499999888242
20
-1.575000000000002
10
488.87500000111754
20
-1.575000000000002
42
-0.414213562373069
10
488.92499999999995
20
-1.6249999988824104
10
488.92499999999995
20
-15.525000001117588
42
-0.41421356237309509
10
488.87500000111754
20
-15.575000000000001
10
474.97499999888242
20
-15.575000000000001
42
-0.41421356237309509
10
474.92500000000001
20
-15.525000001117588
10
474.92500000000001
20
-1.6249999988824149
42
-0.41421356237309509
0
LWPOLYLINE
5
118
100
AcDbEntity
8
0
100
AcDbPolyline
90
8
70
1
43
0.0
10
494.02499999888244
20
-1.575000000000002
10
507.92500000111761
20
-1.575000000000002
42
-0.414213562373069
10
507.97500000000002
20
-1.6249999988824104
10
507.97500000000002
20
-15.525000001117588
42
-0.41421356237309509
10
507.92500000111761
20
-15.575000000000001
10
494.02499999888244
20
-15.575000000000001
42
-0.41421356237309509
10
493.97500000000002
20
-15.525000001117588
10
493.97500000000002
20
-1.6249999988824149
42
-0.41421356237309509
0
LWPOLYLINE
5
119
100
AcDbEntity
8
0
100
AcDbPolyline
90
8
70
1
43
0.0
10
322.57499999888239
20
-20.625
10
336.47500000111762
20
-20.625
42
-0.41421356237309509
10
336.52500000000003
20
-20.674999998882413
10
336.52500000000003
20
-34.575000001117587
42
-0.41421356237309509
10
336.47500000111762
20
-34.625
10
322.57499999888239
20
-34.625
42
-0.41421356237309509
10
322.52499999999998
20
-34.575000001117587
10
322.52499999999998
20
-20.674999998882413
42
-0.41421356237309509
0
LWPOLYLINE
5
120
100
AcDbEntity
8
0
100
AcDbPolyline
90
8
70
1
43
0.0
10
341.6249999988824
20
-20.625
10
355.52500000111758
20
-20.625
42
-0.41421356237309509
10
355.57499999999999
20
-20.674999998882413
10
355.57499999999999
20
-34.575000001117587
42
-0.41421356237309509
10
355.52500000111758
20
-34.625
10
341.6249999988824
20
-34.625
42
-0.41421356237309509
10
341.57499999999999
20
-34.575000001117587
10
341.57499999999999
20
-20.674999998882413
42
-0.41421356237309509
0
LWPOLYLINE
5
121
100
AcDbEntity
8
0
100
AcDbPolyline
90
8
70
1
43
0.0
10
360.67499999888241
20
-20.625
10
374.57500000111759
20
-20.625
42
-0.41421356237309509
10
374.625
20
-20.674999998882413
10
374.625
20
-34.575000001117587
42
-0.41421356237309509
10
374.57500000111759
20
-34.625
10
360.67499999888241
20
-34.625
42
-0.41421356237309509
10
360.625
20
-34.575000001117587
10
360.625
20
-20.674999998882413
42
-0.41421356237309509
0
LWPOLYLINE
5
122
100
AcDbEntity
8
0
100
AcDbPolyline
90
8
70
1
43
0.0
10
379.72499999888242
20
-20.625
10
393.6250000011176
20
-20.625
42
-0.41421356237309509
10
393.67500000000001
20
-20.674999998882413
10
393.67500000000001
20
-34.575000001117587
42
-0.41421356237309509
10
393.6250000011176
20
-34.625
10
379.72499999888242
20
-34.625
42
-0.41421356237309509
10
379.67500000000001
20
-34.575000001117587
10
379.67500000000001
20
-20.674999998882413
42
-0.41421356237309509
0
LWPOLYLINE
5
123
100
AcDbEntity
8
0
100
AcDbPolyline
90
8
70
1
43
0.0
10
398.77499999888244
20
-20.625
10
412.67500000111761
20
-20.625
42
-0.41421356237309509
10
412.72500000000002
20
-20.674999998882413
10
412.72500000000002
20
-34.575000001117587
42
-0.41421356237309509
10
412.67500000111761
20
-34.625
10
398.77499999888244
20
-34.625
42
-0.41421356237309509
10
398.72500000000002
20
-34.575000001117587
10
398.72500000000002
20
-20.674999998882413
42
-0.41421356237309509
0
LWPOLYLINE
5
124
100
AcDbEntity
8
0
100
AcDbPolyline
90
8
70
1
43
0.0
10
417.82499999888245
20
-20.625
10
431.72500000111762
20
-20.625
42
-0.41421356237309509
10
431.77500000000003
20
-20.674999998882413
10
431.77500000000003
20
-34.575000001117587
42
-0.41421356237309509
10
431.72500000111762
20
-34.625
10
417.82499999888245
20
-34.625
42
-0.41421356237309509
10
417.77500000000003
20
-34.575000001117587
10
417.77500000000003
20
-20.674999998882413
42
-0.41421356237309509
0
LWPOLYLINE
5
125
100
AcDbEntity
8
0
100
AcDbPolyline
90
8
70
1
43
0.0
10
436.8749999988824
20
-20.625
10
450.77500000111752
20
-20.625
42
-0.41421356237309509
10
450.82499999999993
20
-20.674999998882413
10
450.82499999999993
20
-34.575000001117587
42
-0.41421356237309509
10
450.77500000111752
20
-34.625
10
436.8749999988824
20
-34.625
42
-0.41421356237309509
10
436.82499999999999
20
-34.575000001117587
10
436.82499999999999
20
-20.674999998882413
42
-0.41421356237309509
0
LWPOLYLINE
5
126
100
AcDbEntity
8
0
100
AcDbPolyline
90
8
70
1
43
0.0
10
455.92499999888241
20
-20.625
10
469.82500000111759
20
-20.625
42
-0.41421356237309509
10
469.875
20
-20.674999998882413
10
469.875
20
-34.575000001117587
42
-0.41421356237309509
10
469.82500000111759
20
-34.625
10
455.92499999888241
20
-34.625
42
-0.41421356237309509
10
455.875
20
-34.575000001117587
10
455.875
20
-20.674999998882413
42
-0.41421356237309509
0
LWPOLYLINE
5
127
100
AcDbEntity
8
0
100
AcDbPolyline
90
8
70
1
43
0.0
10
474.97499999888242
20
-20.625
10
488.87500000111754
20
-20.625
42
-0.41421356237309509
10
488.92499999999995
20
-20.674999998882413
10
488.92499999999995
20
-34.575000001117587
42
-0.41421356237309509
10
488.87500000111754
20
-34.625
10
474.97499999888242
20
-34.625
42
-0.41421356237309509
10
474.92500000000001
20
-34.575000001117587
10
474.92500000000001
20
-20.674999998882413
42
-0.41421356237309509
0
LWPOLYLINE
5
128
100
AcDbEntity
8
0
100
AcDbPolyline
90
8
70
1
43
0.0
10
494.02499999888244
20
-20.625
10
507.92500000111761
20
-20.625
42
-0.41421356237309509
10
507.97500000000002
20
-20.674999998882413
10
507.97500000000002
20
-34.575000001117587
42
-0.41421356237309509
10
507.92500000111761
20
-34.625
10
494.02499999888244
20
-34.625
42
-0.41421356237309509
10
493.97500000000002
20
-34.575000001117587
10
493.97500000000002
20
-20.674999998882413
42
-0.41421356237309509
0
LWPOLYLINE
5
129
100
AcDbEntity
8
0
100
AcDbPolyline
90
8
70
1
43
0.0
10
322.57499999888239
20
-39.675000000000004
10
336.47500000111762
20
-39.675000000000004
42
-0.41421356237304296
10
336.52500000000003
20
-39.72499999888241
10
336.52500000000003
20
-53.625000001117584
42
-0.41421356237309509
10
336.47500000111762
20
-53.674999999999997
10
322.57499999888239
20
-53.674999999999997
42
-0.41421356237309509
10
322.52499999999998
20
-53.625000001117584
10
322.52499999999998
20
-39.724999998882417
42
-0.41421356237309509
0
LWPOLYLINE
5
130
100
AcDbEntity
8
0
100
AcDbPolyline
90
8
70
1
43
0.0
10
341.6249999988824
20
-39.675000000000004
10
355.52500000111758
20
-39.675000000000004
42
-0.41421356237304296
10
355.57499999999999
20
-39.72499999888241
10
355.57499999999999
20
-53.625000001117584
42
-0.41421356237309509
10
355.52500000111758
20
-53.674999999999997
10
341.6249999988824
20
-53.674999999999997
42
-0.41421356237309509
10
341.57499999999999
20
-53.625000001117584
10
341.57499999999999
20
-39.724999998882417
42
-0.41421356237309509
0
LWPOLYLINE
5
131
100
AcDbEntity
8
0
100
AcDbPolyline
90
8
70
1
43
0.0
10
360.67499999888241
20
-39.675000000000004
10
374.57500000111759
20
-39.675000000000004
42
-0.41421356237304296
10
374.625
20
-39.72499999888241
10
374.625
20
-53.625000001117584
42
-0.41421356237309509
10
374.57500000111759
20
-53.674999999999997
10
360.67499999888241
20
-53.674999999999997
42
-0.41421356237309509
10
360.625
20
-53.625000001117584
10
360.625
20
-39.724999998882417
42
-0.41421356237309509
0
LWPOLYLINE
5
132
100
AcDbEntity
8
0
100
AcDbPolyline
90
8
70
1
43
0.0
10
379.72499999888242
20
-39.675000000000004
10
393.6250000011176
20
-39.675000000000004
42
-0.41421356237304296
10
393.67500000000001
20
-39.72499999888241
10
393.67500000000001
20
-53.625000001117584
42
-0.41421356237309509
10
393.6250000011176
20
-53.674999999999997
10
379.72499999888242
20
-53.674999999999997
42
-0.41421356237309509
10
379.67500000000001
20
-53.625000001117584
10
379.67500000000001
20
-39.724999998882417
42
-0.41421356237309509
0
LWPOLYLINE
5
133
100
AcDbEntity
8
0
100
AcDbPolyline
90
8
70
1
43
0.0
10
408.29999999888241
20
-39.675000000000004
10
422.20000000111759
20
-39.675000000000004
42
-0.41421356237304296
10
422.25
20
-39.72499999888241
10
422.25
20
-53.625000001117584
42
-0.41421356237309509
10
422.20000000111759
20
-53.674999999999997
10
408.29999999888241
20
-53.674999999999997
42
-0.41421356237309509
10
408.25
20
-53.625000001117584
10
408.25
20
-39.724999998882417
42
-0.41421356237309509
0
LWPOLYLINE
5
134
100
AcDbEntity
8
0
100
AcDbPolyline
90
8
70
1
43
0.0
10
423.8629999988824
20
-38.675000000000004
10
430.51300000111758
20
-38.675000000000004
42
-0.41421356237309509
10
430.56299999999999
20
-38.724999998882417
10
430.56299999999999
20
-52.625000001117598
42
-0.41421356237309509
10
430.51300000111758
20
-52.675000000000011
10
423.8629999988824
20
-52.675000000000011
42
-0.41421356237309509
10
423.81299999999999
20
-52.625000001117598
10
423.81299999999999
20
-38.724999998882417
42
-0.41421356237309509
0
LWPOLYLINE
5
135
100
AcDbEntity
8
0
100
AcDbPolyline
90
8
70
1
43
0.0
10
399.98699999888242
20
-38.675000000000004
10
406.6370000011176
20
-38.675000000000004
42
-0.41421356237309509
10
406.68700000000001
20
-38.724999998882417
10
406.68700000000001
20
-52.625000001117598
42
-0.41421356237309509
10
406.6370000011176
20
-52.675000000000011
10
399.98699999888242
20
-52.675000000000011
42
-0.41421356237309509
10
399.93700000000001
20
-52.625000001117598
10
399.93700000000001
20
-38.724999998882417
42
-0.41421356237309509
0
LWPOLYLINE
5
136
100
AcDbEntity
8
0
100
AcDbPolyline
90
8
70
1
43
0.0
10
436.8749999988824
20
-39.675000000000004
10
450.77500000111752
20
-39.675000000000004
42
-0.41421356237304296
10
450.82499999999993
20
-39.72499999888241
10
450.82499999999993
20
-53.625000001117584
42
-0.41421356237309509
10
450.77500000111752
20
-53.674999999999997
10
436.8749999988824
20
-53.674999999999997
42
-0.41421356237309509
10
436.82499999999999
20
-53.625000001117584
10
436.82499999999999
20
-39.724999998882417
42
-0.41421356237309509
0
LWPOLYLINE
5
137
100
AcDbEntity
8
0
100
AcDbPolyline
90
8
70
1
43
0.0
10
455.92499999888241
20
-39.675000000000004
10
469.82500000111759
20
-39.675000000000004
42
-0.41421356237304296
10
469.875
20
-39.72499999888241
10
469.875
20
-53.625000001117584
42
-0.41421356237309509
10
469.82500000111759
20
-53.674999999999997
10
455.92499999888241
20
-53.674999999999997
42
-0.41421356237309509
10
455.875
20
-53.625000001117584
10
455.875
20
-39.724999998882417
42
-0.41421356237309509
0
LWPOLYLINE
5
138
100
AcDbEntity
8
0
100
AcDbPolyline
90
8
70
1
43
0.0
10
474.97499999888242
20
-39.675000000000004
10
488.87500000111754
20
-39.675000000000004
42
-0.41421356237304296
10
488.92499999999995
20
-39.72499999888241
10
488.92499999999995
20
-53.625000001117584
42
-0.41421356237309509
10
488.87500000111754
20
-53.674999999999997
10
474.97499999888242
20
-53.674999999999997
42
-0.41421356237309509
10
474.92500000000001
20
-53.625000001117584
10
474.92500000000001
20
-39.724999998882417
42
-0.41421356237309509
0
LWPOLYLINE
5
139
100
AcDbEntity
8
0
100
AcDbPolyline
90
8
70
1
43
0.0
10
494.02499999888244
20
-39.675000000000004
10
507.92500000111761
20
-39.675000000000004
42
-0.41421356237304296
10
507.97500000000002
20
-39.72499999888241
10
507.97500000000002
20
-53.625000001117584
42
-0.41421356237309509
10
507.92500000111761
20
-53.674999999999997
10
494.02499999888244
20
-53.674999999999997
42
-0.41421356237309509
10
493.97500000000002
20
-53.625000001117584
10
493.97500000000002
20
-39.724999998882417
42
-0.41421356237309509
0
ARC
5
140
100
AcDbEntity
8
0
100
AcDbCircle
10
338.93537327640871
20
-59.625428871769728
30
0
40
3.9999999999999938
210
0
220
0
230
1
100
AcDbArc
50
189.69466595070156
51
250.52877936802776
0
LINE
5
141
100
AcDbEntity
8
0
100
AcDbLine
10
338.09042111163768
20
20.008792074246884
30
0
11
484.09012539846879
21
20.008792074246919
31
0
0
SPLINE
5
142
100
AcDbEntity
8
0
100
AcDbSpline
70
4
71
5
72
21
73
15
74
0
42
0.000000001
43
0.0000000001
44
0.0000000001
40
0
40
0
40
0
40
0
40
0
40
0
40
0.10000000000000001
40
0.20000000000000001
40
0.30000000000000004
40
0.40000000000000002
40
0.5
40
0.59999999999999998
40
0.69999999999999996
40
0.79999999999999993
40
0.89999999999999991
40
1
40
1
40
1
40
1
40
1
40
1
41
1
41
1
41
1
41
1
41
1
41
1
41
1
41
1
41
1
41
1
41
1
41
1
41
1
41
1
41
1
10
495.93103541394487
20
-59.811787681524606
30
0
10
495.9627688123731
20
-59.719676066343972
30
0
10
496.02908460704555
20
-59.537187774881048
30
0
10
496.13710515589446
20
-59.268660071191007
30
0
10
496.29850867090659
20
-58.921204573314952
30
0
10
496.53116783222856
20
-58.505705111356299
30
0
10
496.79741140031518
20
-58.110657365357604
30
0
10
497.0998524177358
20
-57.737652585894033
30
0
10
497.43968069432583
20
-57.387415325134569
30
0
10
497.81514706307757
20
-57.058880402274099
30
0
10
498.22344858336214
20
-56.750340925629644
30
0
10
498.57414607262206
20
-56.518158763979685
30
0
10
498.84983231176739
20
-56.351733536417811
30
0
10
499.03915907289081
20
-56.24415457340217
30
0
10
499.13520649749216
20
-56.191207925777533
30
0
0
LINE
5
143
100
AcDbEntity
8
0
100
AcDbLine
10
492.93537327640882
20
-59.625428871769657
30
0
11
492.93537327640882
21
-63.160968813293081
31
0
0
ARC
5
144
100
AcDbEntity
8
0
100
AcDbCircle
10
491.93537327640882
20
-59.625428871769657
30
0
40
3.9999999999999907
210
0
220
0
230
1
100
AcDbArc
50
189.69309423497268
51
250.52877945121335
0
ARC
5
145
100
AcDbEntity
8
0
100
AcDbCircle
10
491.31998613143776
20
23.058434728363579
30
0
40
1.0000000000000142
210
0
220
0
230
1
100
AcDbArc
50
-180
51
0
0
LINE
5
146
100
AcDbEntity
8
0
100
AcDbLine
10
320.26705690707229
20
20.008792074246884
30
0
11
323.59012539846879
21
20.008792074246919
31
0
0
ARC
5
147
100
AcDbEntity
8
0
100
AcDbCircle
10
490.06998613143776
20
26.593968634296345
30
0
40
0.24999999999998579
210
0
220
0
230
1
100
AcDbArc
50
0
51
109.47122063448573
0
ARC
5
148
100
AcDbEntity
8
0
100
AcDbCircle
10
332.06998613143782
20
26.593968634296345
30
0
40
0.24999999999997566
210
0
220
-0
230
1
100
AcDbArc
50
70.528779365511554
51
180
0
LWPOLYLINE
5
149
100
AcDbEntity
8
0
100
AcDbPolyline
90
8
70
1
43
0.0
10
322.57000403124857
20
17.476366720749965
10
336.47000403348375
20
17.47636672074993
42
-0.41421356237309509
10
336.52000403236616
20
17.426366721867517
10
336.52000403236616
20
3.5263667196323567
42
-0.41421356237309509
10
336.47000403348375
20
3.4763667207499438
10
322.57000403124857
20
3.4763667207499793
42
-0.41421356237309509
10
322.52000403236616
20
3.5263667196323922
10
322.52000403236616
20
17.426366721867552
42
-0.41421356237309509
0
LINE
5
150
100
AcDbEntity
8
0
100
AcDbLine
10
492.31998613143782
20
23.058434728363579
30
0
11
492.31998613143782
21
26.59396863429631
31
0
0
LINE
5
151
100
AcDbEntity
8
0
100
AcDbLine
10
331.81998613143776
20
23.058434728363508
30
0
11
331.81998613143776
21
26.593968634296345
31
0
0
LINE
5
152
100
AcDbEntity
8
0
100
AcDbLine
10
329.81998613143782
20
23.058434728363686
30
0
11
329.81998613143679
21
26.59397466988672
31
0
0
LINE
5
153
100
AcDbEntity
8
0
100
AcDbLine
10
490.31998613143776
20
23.058434728363579
30
0
11
490.31998613143776
21
26.59396863429631
31
0
0
LINE
5
154
100
AcDbEntity
8
0
100
AcDbLine
10
490.93537328169589
20
-59.625531702989605
30
0
11
490.93537328169589
21
-63.160962779576266
31
0
0
ARC
5
155
100
AcDbEntity
8
0
100
AcDbCircle
10
510.26705690707212
20
19.758792074246969
30
0
40
0.24999999999998579
210
0
220
0
230
1
100
AcDbArc
50
0
51
90
0
LINE
5
156
100
AcDbEntity
8
0
100
AcDbLine
10
339.93537327640871
20
-59.625428871769728
30
0
11
339.93537327640871
21
-63.160962777702423
31
0
0
SPLINE
5
157
100
AcDbEntity
8
0
100
AcDbSpline
70
4
71
5
72
21
73
15
74
0
42
0.000000001
43
0.0000000001
44
0.0000000001
40
0
40
0
40
0
40
0
40
0
40
0
40
0.10000000000000001
40
0.20000000000000001
40
0.30000000000000004
40
0.40000000000000002
40
0.5
40
0.59999999999999998
40
0.69999999999999996
40
0.79999999999999993
40
0.89999999999999991
40
1
40
1
40
1
40
1
40
1
40
1
41
1
41
1
41
1
41
1
41
1
41
1
41
1
41
1
41
1
41
1
41
1
41
1
41
1
41
1
41
1
10
342.93102454765409
20
-59.811898490193656
30
0
10
342.92766968624443
20
-59.712187400875997
30
0
10
342.92701126000429
20
-59.515214623162898
30
0
10
342.94417781676452
20
-59.227103783374986
30
0
10
343.00396963124541
20
-58.857893360866541
30
0
10
343.14424235845001
20
-58.42290629925759
30
0
10
343.35533051698638
20
-58.016583405834936
30
0
10
343.64211934647841
20
-57.640902093260216
30
0
10
344.00561655774243
20
-57.296270255577426
30
0
10
344.44115104235942
20
-56.980797154644208
30
0
10
344.94255355677637
20
-56.691985647800351
30
0
10
345.3916985257917
20
-56.48037483456865
30
0
10
345.75379801269889
20
-56.331883500579131
30
0
10
346.0062312852819
20
-56.237355386226952
30
0
10
346.13520649740707
20
-56.191207925818425
30
0
0
LINE
5
158
100
AcDbEntity
8
0
100
AcDbLine
10
484.68580426109492
20
-56.191207925741722
30
0
11
346.13520649740707
21
-56.191207925818425
31
0
0
ARC
5
159
100
AcDbEntity
8
0
100
AcDbCircle
10
338.93537327640871
20
-59.625428871769728
30
0
40
1.0000000000000142
210
0
220
0
230
1
100
AcDbArc
50
0
51
180.00101016324402
0
SPLINE
5
160
100
AcDbEntity
8
0
100
AcDbSpline
70
4
71
5
72
21
73
15
74
0
42
0.000000001
43
0.0000000001
44
0.0000000001
40
0
40
0
40
0
40
0
40
0
40
0
40
0.10000000000000001
40
0.20000000000000001
40
0.30000000000000004
40
0.40000000000000002
40
0.5
40
0.59999999999999998
40
0.69999999999999996
40
0.79999999999999993
40
0.89999999999999991
40
1
40
1
40
1
40
1
40
1
40
1
41
1
41
1
41
1
41
1
41
1
41
1
41
1
41
1
41
1
41
1
41
1
41
1
41
1
41
1
41
1
10
334.99249667390336
20
-60.299019324059486
30
0
10
334.98226580635401
20
-60.17778383966828
30
0
10
334.95689723768982
20
-59.938743017272962
30
0
10
334.90412420699494
20
-59.590471997048802
30
0
10
334.80383267091406
20
-59.147031600947571
30
0
10
334.62522558109441
20
-58.629950658639004
30
0
10
334.38870264191934
20
-58.153356078589226
30
0
10
334.08966991090813
20
-57.720459279113271
30
0
10
333.72586353470388
20
-57.332842818142836
30
0
10
333.30013248930527
20
-56.988515104835493
30
0
10
332.81726892149032
20
-56.684126165155874
30
0
10
332.38908187780112
20
-56.46990275275855
30
0
10
332.04588171513581
20
-56.324656262077212
30
0
10
331.80743749352706
20
-56.234567033500149
30
0
10
331.68580426110856
20
-56.191207925752167
30
0
0
ARC
5
161
100
AcDbEntity
8
0
100
AcDbCircle
10
493.18537327640882
20
-63.160968813293081
30
0
40
0.24999999999998579
210
0
220
0
230
1
100
AcDbArc
50
180
51
289.47118989552729
0
LINE
5
162
100
AcDbEntity
8
0
100
AcDbLine
10
331.68580426110856
20
-56.191207925752167
30
0
11
320.26705690707229
21
-56.191207925753019
31
0
0
ARC
5
163
100
AcDbEntity
8
0
100
AcDbCircle
10
320.26705690707217
20
19.758792074246969
30
0
40
0.24999999999991473
210
0
220
-0
230
1
100
AcDbArc
50
89.999999999973952
51
180
0
ARC
5
164
100
AcDbEntity
8
0
100
AcDbCircle
10
491.93537327640882
20
-59.625428871769657
30
0
40
1.0000000000000142
210
0
220
0
230
1
100
AcDbArc
50
0
51
180.00589179487829
0
LINE
5
165
100
AcDbEntity
8
0
100
AcDbLine
10
510.26705690707274
20
-56.191207925753481
30
0
11
499.13520649749216
21
-56.191207925777533
31
0
0
ARC
5
166
100
AcDbEntity
8
0
100
AcDbCircle
10
340.18537327640871
20
-63.160962777702423
30
0
40
0.24999999999998579
210
0
220
0
230
1
100
AcDbArc
50
180
51
289.47122063448575
0
SPLINE
5
167
100
AcDbEntity
8
0
100
AcDbSpline
70
4
71
5
72
21
73
15
74
0
42
0.000000001
43
0.0000000001
44
0.0000000001
40
0
40
0
40
0
40
0
40
0
40
0
40
0.10000000000000001
40
0.20000000000000001
40
0.30000000000000004
40
0.40000000000000002
40
0.5
40
0.59999999999999998
40
0.69999999999999996
40
0.79999999999999993
40
0.89999999999999991
40
1
40
1
40
1
40
1
40
1
40
1
41
1
41
1
41
1
41
1
41
1
41
1
41
1
41
1
41
1
41
1
41
1
41
1
41
1
41
1
41
1
10
487.32433406256911
20
23.244887254614817
30
0
10
487.31614376767698
20
23.175434063114288
30
0
10
487.29459891707455
20
23.036960180154324
30
0
10
487.24678826453015
20
22.830546905600073
30
0
10
487.15154933042174
20
22.557966569243657
30
0
10
486.9766746277042
20
22.221916505699319
30
0
10
486.74181554160043
20
21.890890055247418
30
0
10
486.44342134703743
20
21.56518458643324
30
0
10
486.08192242556686
20
21.244764055364623
30
0
10
485.66189379851613
20
20.929245310025895
30
0
10
485.1887509182535
20
20.618174813408068
30
0
10
484.77167938577901
20
20.372547533169847
30
0
10
484.43864171813203
20
20.190021645355539
30
0
10
484.20777174580473
20
20.069078465560683
30
0
10
484.09012539846879
20
20.008792074246919
30
0
0
SPLINE
5
168
100
AcDbEntity
8
0
100
AcDbSpline
70
4
71
5
72
21
73
15
74
0
42
0.000000001
43
0.0000000001
44
0.0000000001
40
0
40
0
40
0
40
0
40
0
40
0
40
0.10000000000000001
40
0.20000000000000001
40
0.30000000000000004
40
0.40000000000000002
40
0.5
40
0.59999999999999998
40
0.69999999999999996
40
0.79999999999999993
40
0.89999999999999991
40
1
40
1
40
1
40
1
40
1
40
1
41
1
41
1
41
1
41
1
41
1
41
1
41
1
41
1
41
1
41
1
41
1
41
1
41
1
41
1
41
1
10
326.82433406256911
20
23.244887254614817
30
0
10
326.81614376765651
20
23.175434063114288
30
0
10
326.79459891702095
20
23.036960180154324
30
0
10
326.74678826445017
20
22.830546905600073
30
0
10
326.65154933034739
20
22.557966569243657
30
0
10
326.47667462767049
20
22.221916505699319
30
0
10
326.24181554160384
20
21.890890055247418
30
0
10
325.94342134704357
20
21.56518458643324
30
0
10
325.58192242553457
20
21.244764055364623
30
0
10
325.16189379842695
20
20.929245310025895
30
0
10
324.68875091812345
20
20.618174813408068
30
0
10
324.2716793856589
20
20.372547533169847
30
0
10
323.9386417180566
20
20.190021645355539
30
0
10
323.70777174577677
20
20.069078465560683
30
0
10
323.59012539846879
20
20.008792074246919
30
0
0
LINE
5
169
100
AcDbEntity
8
0
100
AcDbLine
10
510.51705690707206
20
19.758792074246969
30
0
11
510.51705690707217
21
-55.941207925753531
31
0
0
ARC
5
170
100
AcDbEntity
8
0
100
AcDbCircle
10
330.81998268648675
20
23.05843488900706
30
0
40
0.9999965550489649
210
0
220
0
230
1
100
AcDbArc
50
180.00000919542356
51
359.99999080457644
0
SPLINE
5
171
100
AcDbEntity
8
0
100
AcDbSpline
70
4
71
5
72
21
73
15
74
0
42
0.000000001
43
0.0000000001
44
0.0000000001
40
0
40
0
40
0
40
0
40
0
40
0
40
0.10000000000000001
40
0.20000000000000001
40
0.30000000000000004
40
0.40000000000000002
40
0.5
40
0.59999999999999998
40
0.69999999999999996
40
0.79999999999999993
40
0.89999999999999991
40
1
40
1
40
1
40
1
40
1
40
1
41
1
41
1
41
1
41
1
41
1
41
1
41
1
41
1
41
1
41
1
41
1
41
1
41
1
41
1
41
1
10
334.76288699020006
20
23.731883180713211
30
0
10
334.77718994693441
20
23.668692764384417
30
0
10
334.81061020080301
20
23.541273333714766
30
0
10
334.87518419430467
20
23.347028266070431
30
0
10
334.99064020981268
20
23.08170157762655
30
0
10
335.18695981223425
20
22.738825343130795
30
0
10
335.439017271578
20
22.383924776559503
30
0
10
335.74985146873428
20
22.016344299883677
30
0
10
336.11856109477719
20
21.63627835253024
30
0
10
336.54069744018148
20
21.244686654935162
30
0
10
337.01116030318894
20
20.842669474007497
30
0
10
337.42255198847067
20
20.513500561072675
30
0
10
337.74946167647954
20
20.262661794172917
30
0
10
337.97542982265242
20
20.093703992115081
30
0
10
338.09042111163768
20
20.008792074246884
30
0
0
ARC
5
172
100
AcDbEntity
8
0
100
AcDbCircle
10
491.93537327640882
20
-59.625428871769657
30
0
40
4.000005690409961
210
0
220
0
230
1
100
AcDbArc
50
289.47118989552644
51
357.32964384092423
0
ARC
5
173
100
AcDbEntity
8
0
100
AcDbCircle
10
510.26705690707223
20
-55.941207925753567
30
0
40
0.24999999999991473
210
-0
220
0
230
1
100
AcDbArc
50
-89.99999999988276
51
0
0
ARC
5
174
100
AcDbEntity
8
0
100
AcDbCircle
10
330.81998613143782
20
23.058434728363579
30
0
40
1.0000000000000142
210
0
220
0
230
1
100
AcDbArc
50
180
51
360
0
ARC
5
175
100
AcDbEntity
8
0
100
AcDbCircle
10
490.685373281696
20
-63.160962779576266
30
0
40
0.24999999999783101
210
0
220
0
230
1
100
AcDbArc
50
-109.47122054881108
51
0
0
ARC
5
176
100
AcDbEntity
8
0
100
AcDbCircle
10
330.81998268648675
20
23.05843488900706
30
0
40
4.000004390639857
210
0
220
0
230
1
100
AcDbArc
50
109.47114413941415
51
177.33014216622871
0
ARC
5
177
100
AcDbEntity
8
0
100
AcDbCircle
10
491.93537328169583
20
-59.625531702989605
30
0
40
1.0000000000001377
210
0
220
-0
230
1
100
AcDbArc
50
0.0058917948782933388
51
180
0
ARC
5
178
100
AcDbEntity
8
0
100
AcDbCircle
10
491.31998613143776
20
23.058434728363579
30
0
40
3.9999999999999907
210
0
220
-0
230
1
100
AcDbArc
50
9.6926024896668981
51
70.528779365508981
0
SPLINE
5
179
100
AcDbEntity
8
0
100
AcDbSpline
70
4
71
5
72
21
73
15
74
0
42
0.000000001
43
0.0000000001
44
0.0000000001
40
0
40
0
40
0
40
0
40
0
40
0
40
0.10000000000000001
40
0.20000000000000001
40
0.30000000000000004
40
0.40000000000000002
40
0.5
40
0.59999999999999998
40
0.69999999999999996
40
0.79999999999999993
40
0.89999999999999991
40
1
40
1
40
1
40
1
40
1
40
1
41
1
41
1
41
1
41
1
41
1
41
1
41
1
41
1
41
1
41
1
41
1
41
1
41
1
41
1
41
1
10
495.2628869902
20
23.731883180713211
30
0
10
495.27718994698631
20
23.668692764384417
30
0
10
495.31061020094307
20
23.541273333714766
30
0
10
495.37518419452988
20
23.347028266070431
30
0
10
495.49064021006677
20
23.08170157762655
30
0
10
495.686959812422
20
22.738825343130795
30
0
10
495.93901727163939
20
22.383924776559503
30
0
10
496.24985146865367
20
22.016344299883677
30
0
10
496.61856109457585
20
21.63627835253024
30
0
10
497.04069743990777
20
21.244686654935162
30
0
10
497.51116030291087
20
20.842669474007497
30
0
10
497.92255198825592
20
20.513500561072675
30
0
10
498.24946167635466
20
20.262661794172917
30
0
10
498.4754298226074
20
20.093703992115081
30
0
10
498.59042111163768
20
20.008792074246884
30
0
0
ARC
5
180
100
AcDbEntity
8
0
100
AcDbCircle
10
491.31998613143776
20
23.058434728363579
30
0
40
4.0000000000000364
210
0
220
0
230
1
100
AcDbArc
50
109.47122063449025
51
177.33014216622843
0
ARC
5
181
100
AcDbEntity
8
0
100
AcDbCircle
10
491.31998613143776
20
23.058434728363579
30
0
40
1.0000000000000142
210
0
220
0
230
1
100
AcDbArc
50
-180
51
0
0
ARC
5
182
100
AcDbEntity
8
0
100
AcDbCircle
10
492.56998613143776
20
26.593968634296345
30
0
40
0.25000000000000916
210
0
220
-0
230
1
100
AcDbArc
50
70.52877936550199
51
180
0
LINE
5
183
100
AcDbEntity
8
0
100
AcDbLine
10
498.59042111163768
20
20.008792074246884
30
0
11
510.26705690707212
21
20.008792074246955
31
0
0
LINE
5
184
100
AcDbEntity
8
0
100
AcDbLine
10
320.01705690707229
20
-55.941207925752998
30
0
11
320.01705690707229
21
19.758792074246898
31
0
0
SPLINE
5
185
100
AcDbEntity
8
0
100
AcDbSpline
70
4
71
5
72
21
73
15
74
0
42
0.000000001
43
0.0000000001
44
0.0000000001
40
0
40
0
40
0
40
0
40
0
40
0
40
0.10000000000000001
40
0.20000000000000001
40
0.30000000000000004
40
0.40000000000000002
40
0.5
40
0.59999999999999998
40
0.69999999999999996
40
0.79999999999999993
40
0.89999999999999991
40
1
40
1
40
1
40
1
40
1
40
1
41
1
41
1
41
1
41
1
41
1
41
1
41
1
41
1
41
1
41
1
41
1
41
1
41
1
41
1
41
1
10
487.99247819771347
20
-60.2989111643355
30
0
10
487.98126598385159
20
-60.179129368851903
30
0
10
487.95401798483886
20
-59.94287050952164
30
0
10
487.89867557456552
20
-59.598396208453025
30
0
10
487.79546612994056
20
-59.15925311172164
30
0
10
487.61411782445117
20
-58.64618109375651
30
0
10
487.37584939182784
20
-58.172106269716615
30
0
10
487.07616139228253
20
-57.740111301830986
30
0
10
486.71286628012132
20
-57.351694924332719
30
0
10
486.28879428039232
20
-57.004918089615416
30
0
10
485.80866260364297
20
-56.696548936028179
30
0
10
485.38345471790944
20
-56.478013843448629
30
0
10
485.04290785073488
20
-56.328939202653075
30
0
10
484.80641567522173
20
-56.236037994330346
30
0
10
484.68580426109492
20
-56.191207925741722
30
0
0
ARC
5
186
100
AcDbEntity
8
0
100
AcDbCircle
10
337.68537327656412
20
-63.160962777757348
30
0
40
0.25000000000003469
210
0
220
0
230
1
100
AcDbArc
50
-109.47122063196807
51
0
0
ARC
5
187
100
AcDbEntity
8
0
100
AcDbCircle
10
338.93537327640871
20
-59.625428871769728
30
0
40
3.9999999999999685
210
0
220
0
230
1
100
AcDbArc
50
289.47122063449058
51
357.32805109560513
0
ARC
5
188
100
AcDbEntity
8
0
100
AcDbCircle
10
338.93537327656412
20
-59.625446502448476
30
0
40
1.0000000000000389
210
0
220
-0
230
1
100
AcDbArc
50
0.0010101632440297191
51
180
0
ARC
5
189
100
AcDbEntity
8
0
100
AcDbCircle
10
330.81998268648675
20
23.05843488900706
30
0
40
4.0000033687289083
210
0
220
-0
230
1
100
AcDbArc
50
9.6925919135973029
51
70.528732075320491
0
ARC
5
190
100
AcDbEntity
8
0
100
AcDbCircle
10
320.26705690707229
20
-55.941207925752963
30
0
40
0.25000000000005684
210
0
220
0
230
1
100
AcDbArc
50
180
51
270
0
LINE
5
191
100
AcDbEntity
8
0
100
AcDbLine
10
337.93537327656418
20
-59.625446502448476
30
0
11
337.93537327656406
21
-63.160962777757348
31
0
0
ARC
5
192
100
AcDbEntity
8
0
100
AcDbCircle
10
329.56998613143685
20
26.593974669886649
30
0
40
0.24999999999998579
210
0
220
-0
230
1
100
AcDbArc
50
0
51
109.47118989554913
0
ENDSEC
0
SECTION
2
OBJECTS
0
DICTIONARY
5
C
100
AcDbDictionary
3
ACAD_GROUP
350
D
3
ACAD_MLINESTYLE
350
17
0
DICTIONARY
5
D
100
AcDbDictionary
0
DICTIONARY
5
1A
330
C
100
AcDbDictionary
0
DICTIONARY
5
17
100
AcDbDictionary
0
ENDSEC
0
EOF
