0
SECTION
2
HEADER
9
$INSUNITS
70
4
9
$ACADVER
1
AC1014
9
$HANDSEED
5
FFFF
0
ENDSEC
0
SECTION
2
TABLES
0
TABLE
2
VPORT
5
8
100
AcDbSymbolTable
0
ENDTAB
0
TABLE
2
LTYPE
5
5
100
AcDbSymbolTable
0
LTYPE
5
14
100
AcDbSymbolTableRecord
100
AcDbLinetypeTableRecord
2
BYBLOCK
70
0
0
LTYPE
5
15
100
AcDbSymbolTableRecord
100
AcDbLinetypeTableRecord
2
BYLAYER
70
0
0
ENDTAB
0
TABLE
2
LAYER
5
2
100
AcDbSymbolTable
70
2
0
LAYER
5
50
100
AcDbSymbolTableRecord
100
AcDbLayerTableRecord
2
0
70
0
6
CONTINUOUS
0
ENDTAB
0
TABLE
2
STYLE
5
3
100
AcDbSymbolTable
70
1
0
STYLE
5
11
100
AcDbSymbolTableRecord
100
AcDbTextStyleTableRecord
2
STANDARD
70
0
0
ENDTAB
0
TABLE
2
VIEW
5
6
100
AcDbSymbolTable
70
0
0
ENDTAB
0
TABLE
2
UCS
5
7
100
AcDbSymbolTable
70
0
0
ENDTAB
0
TABLE
2
APPID
5
9
100
AcDbSymbolTable
70
2
0
APPID
5
12
100
AcDbSymbolTableRecord
100
AcDbRegAppTableRecord
2
ACAD
70
0
0
ENDTAB
0
TABLE
2
DIMSTYLE
5
A
100
AcDbSymbolTable
70
1
0
ENDTAB
0
TABLE
2
BLOCK_RECORD
5
1
100
AcDbSymbolTable
70
1
0
BLOCK_RECORD
5
1F
100
AcDbSymbolTableRecord
100
AcDbBlockTableRecord
2
*MODEL_SPACE
0
BLOCK_RECORD
5
1B
100
AcDbSymbolTableRecord
100
AcDbBlockTableRecord
2
*PAPER_SPACE
0
ENDTAB
0
ENDSEC
0
SECTION
2
BLOCKS
0
BLOCK
5
20
100
AcDbEntity
100
AcDbBlockBegin
2
*MODEL_SPACE
0
ENDBLK
5
21
100
AcDbEntity
100
AcDbBlockEnd
0
BLOCK
5
1C
100
AcDbEntity
100
AcDbBlockBegin
2
*PAPER_SPACE
0
ENDBLK
5
1D
100
AcDbEntity
100
AcDbBlockEnd
0
ENDSEC
0
SECTION
2
ENTITIES
0
LWPOLYLINE
5
100
100
AcDbEntity
8
0
100
AcDbPolyline
90
8
70
1
43
0.0
10
430.63964037858807
20
-118.79760103729403
42
-0.41421356237309509
10
430.68964037747048
20
-118.84760103617644
10
430.68964037747048
20
-132.7476010384116
42
-0.41421356237309509
10
430.63964037858807
20
-132.79760103729402
10
416.73964037635295
20
-132.79760103729399
42
-0.41421356237309509
10
416.68964037747054
20
-132.74760103841157
10
416.68964037747054
20
-118.8476010361764
42
-0.41421356237309509
10
416.73964037635295
20
-118.79760103729399
0
LWPOLYLINE
5
101
100
AcDbEntity
8
0
100
AcDbPolyline
90
8
70
1
43
0.0
10
411.58964037858811
20
-118.79760103729399
42
-0.41421356237309509
10
411.63964037747053
20
-118.8476010361764
10
411.63964037747053
20
-132.74760103841157
42
-0.41421356237309509
10
411.58964037858811
20
-132.79760103729399
10
397.689640376353
20
-132.79760103729399
42
-0.41421356237309509
10
397.63964037747058
20
-132.74760103841157
10
397.63964037747058
20
-118.8476010361764
42
-0.41421356237309509
10
397.689640376353
20
-118.79760103729399
0
LWPOLYLINE
5
102
100
AcDbEntity
8
0
100
AcDbPolyline
90
8
70
1
43
0.0
10
373.53964037747062
20
-99.797601036176431
10
373.53964037747062
20
-113.69760103841159
42
-0.41421356237309509
10
373.48964037858821
20
-113.747601037294
10
359.58964037635297
20
-113.74760103729398
42
-0.41421356237309509
10
359.53964037747056
20
-113.69760103841156
10
359.53964037747056
20
-99.797601036176388
42
-0.41421356237309509
10
359.58964037635297
20
-99.747601037293975
10
373.48964037858821
20
-99.747601037294018
42
-0.41421356237309509
0
LWPOLYLINE
5
103
100
AcDbEntity
8
0
100
AcDbPolyline
90
8
70
1
43
0.0
10
335.4396403774706
20
-118.84760103617637
10
335.4396403774706
20
-132.74760103841152
42
-0.41421356237309509
10
335.38964037858818
20
-132.79760103729393
10
321.48964037635301
20
-132.79760103729393
42
-0.41421356237309509
10
321.4396403774706
20
-132.74760103841152
10
321.4396403774706
20
-118.84760103617637
42
-0.41421356237309509
10
321.48964037635301
20
-118.79760103729396
10
335.38964037858818
20
-118.79760103729396
42
-0.41421356237309509
0
LWPOLYLINE
5
104
100
AcDbEntity
8
0
100
AcDbPolyline
90
8
70
1
43
0.0
10
321.48964037635301
20
-99.747601037293947
10
335.38964037858818
20
-99.747601037293975
42
-0.41421356237309509
10
335.4396403774706
20
-99.797601036176388
10
335.4396403774706
20
-113.69760103841156
42
-0.41421356237309509
10
335.38964037858818
20
-113.74760103729398
10
321.48964037635301
20
-113.74760103729393
42
-0.41421356237309509
10
321.4396403774706
20
-113.69760103841152
10
321.4396403774706
20
-99.79760103617636
42
-0.41421356237309509
0
LWPOLYLINE
5
105
100
AcDbEntity
8
0
100
AcDbPolyline
90
8
70
1
43
0.0
10
430.63964037858807
20
-137.84760103729397
42
-0.41421356237309509
10
430.68964037747048
20
-137.89760103617638
10
430.68964037747048
20
-151.79760103841159
42
-0.41421356237309509
10
430.63964037858807
20
-151.847601037294
10
416.73964037635301
20
-151.847601037294
42
-0.41421356237330315
10
416.68964037747054
20
-151.79760103841153
10
416.68964037747054
20
-137.89760103617638
42
-0.41421356237309509
10
416.73964037635295
20
-137.84760103729397
0
SPLINE
5
106
100
AcDbEntity
8
0
100
AcDbSpline
70
4
71
5
72
21
73
15
74
0
42
0.000000001
43
0.0000000001
44
0.0000000001
40
0
40
0
40
0
40
0
40
0
40
0
40
0.10000000000000001
40
0.20000000000000001
40
0.30000000000000004
40
0.40000000000000002
40
0.5
40
0.59999999999999998
40
0.69999999999999996
40
0.79999999999999993
40
0.89999999999999991
40
1
40
1
40
1
40
1
40
1
40
1
41
1
41
1
41
1
41
1
41
1
41
1
41
1
41
1
41
1
41
1
41
1
41
1
41
1
41
1
41
1
10
494.1825233353045
20
-93.492084577330701
30
0
10
494.19682629203231
20
-93.555274993632622
30
0
10
494.23024654588966
20
-93.682694424256482
30
0
10
494.29482053937943
20
-93.876939491856376
30
0
10
494.41027655488381
20
-94.142266180286185
30
0
10
494.60659615731663
20
-94.485142414818952
30
0
10
494.85865361667749
20
-94.840042981455383
30
0
10
495.16948781384701
20
-95.207623458199663
30
0
10
495.53819743989516
20
-95.587689405606952
30
0
10
495.96033378529762
20
-95.979281103230974
30
0
10
496.43079664829946
20
-96.381298284156202
30
0
10
496.8421883335767
20
-96.710467197061178
30
0
10
497.16909802158386
20
-96.961305963922214
30
0
10
497.39506616775668
20
-97.13026376594712
30
0
10
497.51005745674212
20
-97.215175683797028
30
0
0
ARC
5
107
100
AcDbEntity
8
0
100
AcDbCircle
10
491.48962247654225
20
-90.629999123747567
30
0
40
0.25000000000000916
210
0
220
-0
230
1
100
AcDbArc
50
70.528779365514268
51
180
0
LWPOLYLINE
5
108
100
AcDbEntity
8
0
100
AcDbPolyline
90
8
70
1
43
0.0
10
435.78964037635285
20
-113.747601037294
42
-0.41421356237309509
10
435.73964037747044
20
-113.69760103841159
10
435.73964037747055
20
-99.797601036176431
42
-0.41421356237309509
10
435.78964037635296
20
-99.747601037294018
10
449.68964037858814
20
-99.747601037294018
42
-0.41421356237309509
10
449.73964037747055
20
-99.797601036176431
10
449.73964037747055
20
-113.69760103841159
42
-0.41421356237309509
10
449.68964037858814
20
-113.747601037294
0
LWPOLYLINE
5
109
100
AcDbEntity
8
0
100
AcDbPolyline
90
8
70
1
43
0.0
10
392.53964037858816
20
-118.79760103729399
42
-0.41421356237309509
10
392.58964037747057
20
-118.8476010361764
10
392.58964037747057
20
-132.74760103841157
42
-0.41421356237309509
10
392.53964037858816
20
-132.79760103729399
10
378.63964037635299
20
-132.79760103729399
42
-0.41421356237309509
10
378.58964037747057
20
-132.74760103841157
10
378.58964037747057
20
-118.8476010361764
42
-0.41421356237309509
10
378.63964037635299
20
-118.79760103729399
0
LWPOLYLINE
5
110
100
AcDbEntity
8
0
100
AcDbPolyline
90
8
70
1
43
0.0
10
397.63964037747053
20
-151.79760103841153
10
397.63964037747053
20
-137.89760103617638
42
-0.41421356237309509
10
397.68964037635294
20
-137.84760103729397
10
411.58964037858811
20
-137.84760103729397
42
-0.41421356237309509
10
411.63964037747053
20
-137.89760103617638
10
411.63964037747053
20
-151.79760103841153
42
-0.41421356237309509
10
411.58964037858811
20
-151.84760103729394
10
397.68964037635294
20
-151.84760103729394
42
-0.41421356237309509
0
LWPOLYLINE
5
111
100
AcDbEntity
8
0
100
AcDbPolyline
90
8
70
1
43
0.0
10
506.839640378588
20
-118.79760103729403
42
-0.41421356237309509
10
506.88964037747041
20
-118.84760103617644
10
506.88964037747041
20
-132.7476010384116
42
-0.41421356237309509
10
506.839640378588
20
-132.79760103729402
10
492.93964037635294
20
-132.79760103729402
42
-0.41421356237309509
10
492.88964037747053
20
-132.7476010384116
10
492.88964037747053
20
-118.84760103617644
42
-0.41421356237309509
10
492.93964037635294
20
-118.79760103729403
0
LWPOLYLINE
5
112
100
AcDbEntity
8
0
100
AcDbPolyline
90
8
70
1
43
0.0
10
492.88964037747053
20
-99.797601036176474
42
-0.41421356237309509
10
492.93964037635294
20
-99.747601037294061
10
506.839640378588
20
-99.747601037294061
42
-0.41421356237309509
10
506.88964037747041
20
-99.797601036176474
10
506.88964037747041
20
-113.69760103841162
42
-0.41421356237309509
10
506.839640378588
20
-113.74760103729403
10
492.93964037635294
20
-113.74760103729403
42
-0.41421356237309509
10
492.88964037747053
20
-113.69760103841162
0
LWPOLYLINE
5
113
100
AcDbEntity
8
0
100
AcDbPolyline
90
8
70
1
43
0.0
10
340.53964037635296
20
-151.84760103729394
42
-0.41421356237309509
10
340.48964037747055
20
-151.79760103841153
10
340.48964037747061
20
-137.89760103617635
42
-0.41421356237309509
10
340.53964037635302
20
-137.84760103729394
10
354.43964037858819
20
-137.84760103729397
42
-0.41421356237309509
10
354.48964037747061
20
-137.89760103617638
10
354.48964037747061
20
-151.79760103841153
42
-0.41421356237309509
10
354.43964037858819
20
-151.84760103729394
0
LWPOLYLINE
5
114
100
AcDbEntity
8
0
100
AcDbPolyline
90
8
70
1
43
0.0
10
392.53964037858816
20
-151.84760103729394
10
378.63964037635299
20
-151.84760103729394
42
-0.41421356237309509
10
378.58964037747057
20
-151.79760103841153
10
378.58964037747057
20
-137.89760103617638
42
-0.41421356237309509
10
378.63964037635299
20
-137.84760103729397
10
392.53964037858816
20
-137.84760103729397
42
-0.41421356237309509
10
392.58964037747057
20
-137.89760103617638
10
392.58964037747057
20
-151.79760103841153
42
-0.41421356237309509
0
LWPOLYLINE
5
115
100
AcDbEntity
8
0
100
AcDbPolyline
90
8
70
1
43
0.0
10
321.48964037635301
20
-137.84760103729394
10
335.38964037858818
20
-137.84760103729394
42
-0.41421356237309509
10
335.4396403774706
20
-137.89760103617635
10
335.4396403774706
20
-151.79760103841153
42
-0.41421356237309509
10
335.38964037858818
20
-151.84760103729394
10
321.48964037635301
20
-151.84760103729391
42
-0.41421356237309509
10
321.4396403774706
20
-151.7976010384115
10
321.4396403774706
20
-137.89760103617635
42
-0.41421356237309509
0
LWPOLYLINE
5
116
100
AcDbEntity
8
0
100
AcDbPolyline
90
8
70
1
43
0.0
10
468.73964037858804
20
-170.89760103729395
10
454.83964037635292
20
-170.89760103729395
42
-0.41421356237309509
10
454.7896403774705
20
-170.84760103841154
10
454.7896403774705
20
-156.94760103617639
42
-0.41421356237309509
10
454.83964037635292
20
-156.89760103729398
10
468.73964037858804
20
-156.89760103729398
42
-0.41421356237309509
10
468.78964037747045
20
-156.94760103617639
10
468.78964037747045
20
-170.84760103841154
42
-0.41421356237309509
0
LWPOLYLINE
5
117
100
AcDbEntity
8
0
100
AcDbPolyline
90
8
70
1
43
0.0
10
468.73964037858809
20
-99.747601037294018
42
-0.41421356237309509
10
468.7896403774705
20
-99.797601036176431
10
468.7896403774705
20
-113.69760103841159
42
-0.41421356237309509
10
468.73964037858809
20
-113.747601037294
10
454.83964037635292
20
-113.747601037294
42
-0.41421356237309509
10
454.7896403774705
20
-113.69760103841159
10
454.7896403774705
20
-99.797601036176431
42
-0.41421356237309509
10
454.83964037635292
20
-99.747601037294018
0
LWPOLYLINE
5
118
100
AcDbEntity
8
0
100
AcDbPolyline
90
8
70
1
43
0.0
10
435.73964037747044
20
-151.79760103841159
10
435.73964037747044
20
-137.89760103617641
42
-0.41421356237309509
10
435.78964037635285
20
-137.847601037294
10
449.68964037858814
20
-137.847601037294
42
-0.41421356237309509
10
449.73964037747055
20
-137.89760103617641
10
449.73964037747044
20
-151.79760103841159
42
-0.41421356237309509
10
449.68964037858802
20
-151.847601037294
10
435.78964037635285
20
-151.847601037294
42
-0.41421356237309509
0
LWPOLYLINE
5
119
100
AcDbEntity
8
0
100
AcDbPolyline
90
8
70
1
43
0.0
10
378.63964037635299
20
-99.747601037294018
10
392.53964037858816
20
-99.747601037294018
42
-0.41421356237309509
10
392.58964037747057
20
-99.797601036176431
10
392.58964037747057
20
-113.69760103841159
42
-0.41421356237309509
10
392.53964037858816
20
-113.747601037294
10
378.63964037635299
20
-113.747601037294
42
-0.41421356237309509
10
378.58964037747057
20
-113.69760103841159
10
378.58964037747057
20
-99.797601036176431
42
-0.41421356237309509
0
LWPOLYLINE
5
120
100
AcDbEntity
8
0
100
AcDbPolyline
90
8
70
1
43
0.0
10
473.88964037635287
20
-113.74760103729403
42
-0.41421356237309509
10
473.83964037747046
20
-113.69760103841162
10
473.83964037747046
20
-99.797601036176474
42
-0.41421356237309509
10
473.88964037635287
20
-99.747601037294061
10
487.78964037858805
20
-99.747601037294061
42
-0.41421356237309509
10
487.83964037747046
20
-99.797601036176474
10
487.83964037747046
20
-113.69760103841162
42
-0.41421356237309509
10
487.78964037858805
20
-113.74760103729403
0
LWPOLYLINE
5
121
100
AcDbEntity
8
0
100
AcDbPolyline
90
8
70
1
43
0.0
10
373.53964037747056
20
-156.94760103617637
10
373.53964037747056
20
-170.84760103841151
42
-0.41421356237309509
10
373.48964037858815
20
-170.89760103729392
10
359.58964037635297
20
-170.89760103729392
42
-0.41421356237309509
10
359.53964037747056
20
-170.84760103841151
10
359.53964037747056
20
-156.94760103617637
42
-0.41421356237309509
10
359.58964037635297
20
-156.89760103729395
10
373.48964037858815
20
-156.89760103729395
42
-0.41421356237309509
0
LWPOLYLINE
5
122
100
AcDbEntity
8
0
100
AcDbPolyline
90
8
70
1
43
0.0
10
335.4396403774706
20
-156.94760103617631
10
335.4396403774706
20
-170.84760103841148
42
-0.41421356237309509
10
335.38964037858818
20
-170.8976010372939
10
321.48964037635301
20
-170.8976010372939
42
-0.41421356237309509
10
321.4396403774706
20
-170.84760103841148
10
321.4396403774706
20
-156.94760103617631
42
-0.41421356237309509
10
321.48964037635301
20
-156.8976010372939
10
335.38964037858818
20
-156.8976010372939
42
-0.41421356237309509
0
LWPOLYLINE
5
123
100
AcDbEntity
8
0
100
AcDbPolyline
90
8
70
1
43
0.0
10
430.68964037747048
20
-99.797601036176431
10
430.68964037747048
20
-113.69760103841159
42
-0.41421356237309509
10
430.63964037858807
20
-113.747601037294
10
416.73964037635295
20
-113.747601037294
42
-0.41421356237309509
10
416.68964037747054
20
-113.69760103841159
10
416.68964037747054
20
-99.797601036176431
42
-0.41421356237309509
10
416.73964037635295
20
-99.747601037294018
10
430.63964037858807
20
-99.747601037294018
42
-0.41421356237309509
0
LWPOLYLINE
5
124
100
AcDbEntity
8
0
100
AcDbPolyline
90
8
70
1
43
0.0
10
340.48964037747061
20
-113.69760103841156
10
340.48964037747061
20
-99.797601036176388
42
-0.41421356237309509
10
340.53964037635302
20
-99.747601037293975
10
354.43964037858819
20
-99.747601037293975
42
-0.41421356237309509
10
354.48964037747061
20
-99.797601036176388
10
354.48964037747061
20
-113.69760103841156
42
-0.41421356237309509
10
354.43964037858819
20
-113.74760103729398
10
340.53964037635302
20
-113.74760103729398
42
-0.41421356237309509
0
LWPOLYLINE
5
125
100
AcDbEntity
8
0
100
AcDbPolyline
90
8
70
1
43
0.0
10
354.43964037858814
20
-170.89760103729392
10
340.53964037635296
20
-170.8976010372939
42
-0.41421356237309509
10
340.48964037747055
20
-170.84760103841148
10
340.48964037747055
20
-156.94760103617631
42
-0.41421356237309509
10
340.53964037635296
20
-156.8976010372939
10
354.43964037858819
20
-156.89760103729395
42
-0.41421356237288692
10
354.48964037747061
20
-156.94760103617631
10
354.48964037747055
20
-170.84760103841151
42
-0.41421356237309509
0
ARC
5
126
100
AcDbEntity
8
0
100
AcDbCircle
10
490.85500962151332
20
-176.84939662981355
30
0
40
1.0000000000000142
210
0
220
0
230
1
100
AcDbArc
50
0
51
180.00589179487829
0
LINE
5
127
100
AcDbEntity
8
0
100
AcDbLine
10
337.01005745674217
20
-97.215175683797028
30
0
11
483.00976174357322
21
-97.215175683796986
31
0
0
LWPOLYLINE
5
128
100
AcDbEntity
8
0
100
AcDbPolyline
90
8
70
1
43
0.0
10
487.78964037858805
20
-118.79760103729403
42
-0.41421356237309509
10
487.83964037747046
20
-118.84760103617644
10
487.8396403774704
20
-132.7476010384116
42
-0.41421356237309509
10
487.78964037858799
20
-132.79760103729402
10
473.88964037635287
20
-132.79760103729402
42
-0.41421356237309509
10
473.83964037747046
20
-132.7476010384116
10
473.83964037747046
20
-118.84760103617644
42
-0.41421356237309509
10
473.88964037635287
20
-118.79760103729403
0
LWPOLYLINE
5
129
100
AcDbEntity
8
0
100
AcDbPolyline
90
8
70
1
43
0.0
10
449.68964037858814
20
-132.79760103729402
10
435.78964037635285
20
-132.79760103729402
42
-0.41421356237309509
10
435.73964037747044
20
-132.7476010384116
10
435.73964037747044
20
-118.84760103617644
42
-0.41421356237309509
10
435.78964037635285
20
-118.79760103729403
10
449.68964037858814
20
-118.79760103729403
42
-0.41421356237309509
10
449.73964037747055
20
-118.84760103617644
10
449.73964037747055
20
-132.7476010384116
42
-0.41421356237309509
0
LINE
5
130
100
AcDbEntity
8
0
100
AcDbLine
10
318.93669325217678
20
-173.16517568379692
30
0
11
318.93669325217678
21
-97.465175683797014
31
0
0
LWPOLYLINE
5
131
100
AcDbEntity
8
0
100
AcDbPolyline
90
8
70
1
43
0.0
10
373.48964037858821
20
-118.79760103729396
42
-0.41421356237309509
10
373.53964037747062
20
-118.84760103617637
10
373.53964037747056
20
-132.74760103841152
42
-0.41421356237309509
10
373.48964037858815
20
-132.79760103729393
10
359.58964037635297
20
-132.79760103729393
42
-0.41421356237309509
10
359.53964037747056
20
-132.74760103841152
10
359.53964037747056
20
-118.84760103617637
42
-0.41421356237309509
10
359.58964037635297
20
-118.79760103729396
0
ARC
5
132
100
AcDbEntity
8
0
100
AcDbCircle
10
329.73961903159125
20
-94.165532869036852
30
0
40
4.000004390639857
210
0
220
0
230
1
100
AcDbArc
50
109.47114413941414
51
177.33014216622871
0
LWPOLYLINE
5
133
100
AcDbEntity
8
0
100
AcDbPolyline
90
8
70
1
43
0.0
10
454.7896403774705
20
-151.79760103841159
10
454.7896403774705
20
-137.89760103617641
42
-0.41421356237309509
10
454.83964037635292
20
-137.847601037294
10
468.73964037858809
20
-137.847601037294
42
-0.41421356237309509
10
468.7896403774705
20
-137.89760103617641
10
468.78964037747045
20
-151.79760103841159
42
-0.41421356237309509
10
468.73964037858804
20
-151.847601037294
10
454.83964037635292
20
-151.847601037294
42
-0.41421356237309509
0
ARC
5
134
100
AcDbEntity
8
0
100
AcDbCircle
10
490.85500962151332
20
-176.84939662981355
30
0
40
4.000005690409961
210
0
220
0
230
1
100
AcDbArc
50
289.47118989552638
51
357.32964384092423
0
LWPOLYLINE
5
135
100
AcDbEntity
8
0
100
AcDbPolyline
90
8
70
1
43
0.0
10
354.48964037747061
20
-132.74760103841152
42
-0.41421356237309509
10
354.43964037858819
20
-132.79760103729393
10
340.53964037635302
20
-132.79760103729393
42
-0.41421356237309509
10
340.48964037747061
20
-132.74760103841152
10
340.48964037747061
20
-118.84760103617637
42
-0.41421356237309509
10
340.53964037635302
20
-118.79760103729396
10
354.43964037858819
20
-118.79760103729396
42
-0.41421356237309509
10
354.48964037747061
20
-118.84760103617637
0
LWPOLYLINE
5
136
100
AcDbEntity
8
0
100
AcDbPolyline
90
8
70
1
43
0.0
10
359.53964037747056
20
-137.89760103617638
42
-0.41421356237309509
10
359.58964037635297
20
-137.84760103729397
10
373.48964037858815
20
-137.84760103729397
42
-0.41421356237309509
10
373.53964037747056
20
-137.89760103617638
10
373.53964037747056
20
-151.79760103841153
42
-0.41421356237309509
10
373.48964037858815
20
-151.84760103729394
10
359.58964037635297
20
-151.84760103729394
42
-0.41421356237309509
10
359.53964037747056
20
-151.79760103841153
0
LINE
5
137
100
AcDbEntity
8
0
100
AcDbLine
10
491.23962247654225
20
-94.165533029680333
30
0
11
491.23962247654225
21
-90.629999123747609
31
0
0
SPLINE
5
138
100
AcDbEntity
8
0
100
AcDbSpline
70
4
71
5
72
21
73
15
74
0
42
0.000000001
43
0.0000000001
44
0.0000000001
40
0
40
0
40
0
40
0
40
0
40
0
40
0.10000000000000001
40
0.20000000000000001
40
0.30000000000000004
40
0.40000000000000002
40
0.5
40
0.59999999999999998
40
0.69999999999999996
40
0.79999999999999993
40
0.89999999999999991
40
1
40
1
40
1
40
1
40
1
40
1
41
1
41
1
41
1
41
1
41
1
41
1
41
1
41
1
41
1
41
1
41
1
41
1
41
1
41
1
41
1
10
325.7439704076736
20
-93.979080503429088
30
0
10
325.73578011278533
20
-94.048533694902005
30
0
10
325.71423526219127
20
-94.187007577814356
30
0
10
325.66642460966068
20
-94.393420852320489
30
0
10
325.5711856755712
20
-94.666001188655414
30
0
10
325.39631097286309
20
-95.00205125222999
30
0
10
325.16145188673931
20
-95.333077702750813
30
0
10
324.86305769211754
20
-95.658783171652075
30
0
10
324.50155877056011
20
-95.979203702804412
30
0
10
324.08153014342588
20
-96.294722448201767
30
0
10
323.60838726312352
20
-96.605792944832416
30
0
10
323.19131573068438
20
-96.851420225030267
30
0
10
322.85827806311573
20
-97.0339461127802
30
0
10
322.62740809086506
20
-97.154889292516415
30
0
10
322.50976174357328
20
-97.215175683796986
30
0
0
ARC
5
139
100
AcDbEntity
8
0
100
AcDbCircle
10
337.8550096215132
20
-176.84939662981364
30
0
40
3.9999999999999938
210
0
220
0
230
1
100
AcDbArc
50
189.69466595070136
51
250.52877936802705
0
LINE
5
140
100
AcDbEntity
8
0
100
AcDbLine
10
328.73962247654225
20
-94.165533029680233
30
0
11
328.73962247654129
21
-90.629993088157192
31
0
0
LINE
5
141
100
AcDbEntity
8
0
100
AcDbLine
10
338.8550096215132
20
-176.84939662981364
30
0
11
338.8550096215132
21
-180.38493053574632
31
0
0
LWPOLYLINE
5
142
100
AcDbEntity
8
0
100
AcDbPolyline
90
8
70
1
43
0.0
10
506.88964037747041
20
-156.94760103617642
10
506.88964037747041
20
-170.8476010384116
42
-0.41421356237309509
10
506.839640378588
20
-170.89760103729401
10
492.93964037635294
20
-170.89760103729401
42
-0.41421356237309509
10
492.88964037747053
20
-170.8476010384116
10
492.88964037747053
20
-156.94760103617642
42
-0.41421356237309509
10
492.93964037635294
20
-156.89760103729401
10
506.839640378588
20
-156.89760103729401
42
-0.41421356237309509
0
ARC
5
143
100
AcDbEntity
8
0
100
AcDbCircle
10
329.73961903159125
20
-94.165532869036852
30
0
40
4.0000033687289083
210
0
220
-0
230
1
100
AcDbArc
50
9.6925919135974183
51
70.528732075320463
0
ARC
5
144
100
AcDbEntity
8
0
100
AcDbCircle
10
329.73962247654231
20
-94.165533029680333
30
0
40
1.0000000000000142
210
0
220
0
230
1
100
AcDbArc
50
180
51
360
0
LINE
5
145
100
AcDbEntity
8
0
100
AcDbLine
10
509.18669325217718
20
-173.4151756837974
30
0
11
498.0548428425966
21
-173.41517568382145
31
0
0
LINE
5
146
100
AcDbEntity
8
0
100
AcDbLine
10
336.85500962166861
20
-176.84941426049238
30
0
11
336.85500962166856
21
-180.38493053580126
31
0
0
ARC
5
147
100
AcDbEntity
8
0
100
AcDbCircle
10
492.10500962151332
20
-180.38493657133699
30
0
40
0.24999999999998579
210
0
220
0
230
1
100
AcDbArc
50
180
51
289.47118989552729
0
ARC
5
148
100
AcDbEntity
8
0
100
AcDbCircle
10
509.18669325217655
20
-97.465175683796943
30
0
40
0.24999999999998579
210
0
220
0
230
1
100
AcDbArc
50
0
51
90
0
ARC
5
149
100
AcDbEntity
8
0
100
AcDbCircle
10
490.85500962680032
20
-176.84949946103353
30
0
40
1.0000000000001377
210
0
220
-0
230
1
100
AcDbArc
50
0.0058917948782933388
51
180
0
ARC
5
150
100
AcDbEntity
8
0
100
AcDbCircle
10
330.98962247654231
20
-90.629999123747567
30
0
40
0.24999999999997566
210
0
220
-0
230
1
100
AcDbArc
50
70.528779365511028
51
180
0
LINE
5
151
100
AcDbEntity
8
0
100
AcDbLine
10
330.60544060621305
20
-173.41517568379606
30
0
11
319.18669325217678
21
-173.41517568379692
31
0
0
LWPOLYLINE
5
152
100
AcDbEntity
8
0
100
AcDbPolyline
90
8
70
1
43
0.0
10
468.73964037858809
20
-118.79760103729403
42
-0.41421356237309509
10
468.7896403774705
20
-118.84760103617644
10
468.7896403774705
20
-132.7476010384116
42
-0.41421356237309509
10
468.73964037858809
20
-132.79760103729402
10
454.83964037635292
20
-132.79760103729402
42
-0.41421356237309509
10
454.7896403774705
20
-132.7476010384116
10
454.7896403774705
20
-118.84760103617644
42
-0.41421356237309509
10
454.83964037635292
20
-118.79760103729403
0
LINE
5
153
100
AcDbEntity
8
0
100
AcDbLine
10
330.73962247654219
20
-94.165533029680404
30
0
11
330.73962247654219
21
-90.629999123747567
31
0
0
LWPOLYLINE
5
154
100
AcDbEntity
8
0
100
AcDbPolyline
90
8
70
1
43
0.0
10
397.63964037747058
20
-113.69760103841159
10
397.63964037747058
20
-99.797601036176431
42
-0.41421356237309509
10
397.689640376353
20
-99.747601037294018
10
411.58964037858817
20
-99.747601037294018
42
-0.41421356237309509
10
411.63964037747058
20
-99.797601036176431
10
411.63964037747053
20
-113.69760103841159
42
-0.41421356237309509
10
411.58964037858811
20
-113.747601037294
10
397.689640376353
20
-113.747601037294
42
-0.41421356237309509
0
ARC
5
155
100
AcDbEntity
8
0
100
AcDbCircle
10
329.73961903159125
20
-94.165532869036852
30
0
40
0.9999965550489649
210
0
220
0
230
1
100
AcDbArc
50
180.00000919542356
51
359.99999080457644
0
SPLINE
5
156
100
AcDbEntity
8
0
100
AcDbSpline
70
4
71
5
72
21
73
15
74
0
42
0.000000001
43
0.0000000001
44
0.0000000001
40
0
40
0
40
0
40
0
40
0
40
0
40
0.10000000000000001
40
0.20000000000000001
40
0.30000000000000004
40
0.40000000000000002
40
0.5
40
0.59999999999999998
40
0.69999999999999996
40
0.79999999999999993
40
0.89999999999999991
40
1
40
1
40
1
40
1
40
1
40
1
41
1
41
1
41
1
41
1
41
1
41
1
41
1
41
1
41
1
41
1
41
1
41
1
41
1
41
1
41
1
10
486.24397040767354
20
-93.979080503429088
30
0
10
486.2357801128075
20
-94.048533694902005
30
0
10
486.21423526224896
20
-94.187007577814356
30
0
10
486.16642460974515
20
-94.393420852320489
30
0
10
486.07118567564487
20
-94.666001188655414
30
0
10
485.89631097288884
20
-95.00205125222999
30
0
10
485.66145188672891
20
-95.333077702750813
30
0
10
485.36305769211606
20
-95.658783171652075
30
0
10
485.00155877061593
20
-95.979203702804412
30
0
10
484.58153014355833
20
-96.294722448201767
30
0
10
484.10838726330729
20
-96.605792944832416
30
0
10
483.69131573085093
20
-96.851420225030267
30
0
10
483.35827806321987
20
-97.0339461127802
30
0
10
483.12740809090366
20
-97.154889292516415
30
0
10
483.00976174357322
20
-97.215175683796986
30
0
0
LINE
5
157
100
AcDbEntity
8
0
100
AcDbLine
10
497.51005745674212
20
-97.215175683797028
30
0
11
509.18669325217655
21
-97.215175683796957
31
0
0
ARC
5
158
100
AcDbEntity
8
0
100
AcDbCircle
10
319.18669325217667
20
-97.465175683796943
30
0
40
0.24999999999991473
210
0
220
-0
230
1
100
AcDbArc
50
89.999999999986969
51
180
0
SPLINE
5
159
100
AcDbEntity
8
0
100
AcDbSpline
70
4
71
5
72
21
73
15
74
0
42
0.000000001
43
0.0000000001
44
0.0000000001
40
0
40
0
40
0
40
0
40
0
40
0
40
0.10000000000000001
40
0.20000000000000001
40
0.30000000000000004
40
0.40000000000000002
40
0.5
40
0.59999999999999998
40
0.69999999999999996
40
0.79999999999999993
40
0.89999999999999991
40
1
40
1
40
1
40
1
40
1
40
1
41
1
41
1
41
1
41
1
41
1
41
1
41
1
41
1
41
1
41
1
41
1
41
1
41
1
41
1
41
1
10
333.6825233353045
20
-93.492084577330701
30
0
10
333.69682629208461
20
-93.555274993632622
30
0
10
333.73024654603103
20
-93.682694424256482
30
0
10
333.79482053960692
20
-93.876939491856376
30
0
10
333.91027655513659
20
-94.142266180286185
30
0
10
334.10659615749512
20
-94.485142414818952
30
0
10
334.35865361673018
20
-94.840042981455383
30
0
10
334.66948781377363
20
-95.207623458199663
30
0
10
335.03819743972934
20
-95.587689405606952
30
0
10
335.46033378508838
20
-95.979281103230974
30
0
10
335.93079664810159
20
-96.381298284156202
30
0
10
336.34218833343192
20
-96.710467197061178
30
0
10
336.66909802150252
20
-96.961305963922214
30
0
10
336.8950661677278
20
-97.13026376594712
30
0
10
337.01005745674217
20
-97.215175683797028
30
0
0
ARC
5
160
100
AcDbEntity
8
0
100
AcDbCircle
10
509.18669325217672
20
-173.16517568379749
30
0
40
0.24999999999991473
210
-0
220
0
230
1
100
AcDbArc
50
-89.999999999895778
51
0
0
SPLINE
5
161
100
AcDbEntity
8
0
100
AcDbSpline
70
4
71
5
72
21
73
15
74
0
42
0.000000001
43
0.0000000001
44
0.0000000001
40
0
40
0
40
0
40
0
40
0
40
0
40
0.10000000000000001
40
0.20000000000000001
40
0.30000000000000004
40
0.40000000000000002
40
0.5
40
0.59999999999999998
40
0.69999999999999996
40
0.79999999999999993
40
0.89999999999999991
40
1
40
1
40
1
40
1
40
1
40
1
41
1
41
1
41
1
41
1
41
1
41
1
41
1
41
1
41
1
41
1
41
1
41
1
41
1
41
1
41
1
10
341.85066089275858
20
-177.03586624823757
30
0
10
341.84730603132755
20
-176.93615515892634
30
0
10
341.84664760505075
20
-176.73918238122371
30
0
10
341.86381416177289
20
-176.45107154144415
30
0
10
341.92360597623582
20
-176.08186111893451
30
0
10
342.06387870346106
20
-175.64687405731371
30
0
10
342.27496686204717
20
-175.24055116387913
30
0
10
342.56175569160058
20
-174.86486985130171
30
0
10
342.92525290292275
20
-174.5202380136281
30
0
10
343.3607873875801
20
-174.20476491271049
30
0
10
343.86218990200678
20
-173.91595340587881
30
0
10
344.31133487099703
20
-173.7043425926453
30
0
10
344.6734343578629
20
-173.55585125864397
30
0
10
344.92586763040788
20
-173.46132314427871
30
0
10
345.05484284251156
20
-173.41517568386234
30
0
0
ARC
5
162
100
AcDbEntity
8
0
100
AcDbCircle
10
337.85500962166856
20
-176.84941426049238
30
0
40
1.0000000000000389
210
0
220
-0
230
1
100
AcDbArc
50
0.0010101632440297191
51
180
0
ARC
5
163
100
AcDbEntity
8
0
100
AcDbCircle
10
337.8550096215132
20
-176.84939662981364
30
0
40
3.9999999999999685
210
0
220
0
230
1
100
AcDbArc
50
289.47122063449052
51
357.32805109560513
0
SPLINE
5
164
100
AcDbEntity
8
0
100
AcDbSpline
70
4
71
5
72
21
73
15
74
0
42
0.000000001
43
0.0000000001
44
0.0000000001
40
0
40
0
40
0
40
0
40
0
40
0
40
0.10000000000000001
40
0.20000000000000001
40
0.30000000000000004
40
0.40000000000000002
40
0.5
40
0.59999999999999998
40
0.69999999999999996
40
0.79999999999999993
40
0.89999999999999991
40
1
40
1
40
1
40
1
40
1
40
1
41
1
41
1
41
1
41
1
41
1
41
1
41
1
41
1
41
1
41
1
41
1
41
1
41
1
41
1
41
1
10
494.85067175904931
20
-177.0357554395685
30
0
10
494.88240515754728
20
-176.94364382433673
30
0
10
494.94872095234138
20
-176.76115553278561
30
0
10
495.05674150131762
20
-176.49262782900678
30
0
10
495.21814501639761
20
-176.14517233109206
30
0
10
495.45080417766644
20
-175.72967286918407
30
0
10
495.71704774560305
20
-175.33462512329294
30
0
10
496.01948876282285
20
-174.96162034395272
30
0
10
496.35931703921079
20
-174.6113830832976
30
0
10
496.73478340781139
20
-174.28284816050063
30
0
10
497.14308492804639
20
-173.97430868386527
30
0
10
497.49378241738373
20
-173.74212652217267
30
0
10
497.76946865666764
20
-173.5757012945484
30
0
10
497.95879541792101
20
-173.46812233147719
30
0
10
498.0548428425966
20
-173.41517568382145
30
0
0
ARC
5
165
100
AcDbEntity
8
0
100
AcDbCircle
10
488.98962247654225
20
-90.629999123747567
30
0
40
0.24999999999998579
210
0
220
0
230
1
100
AcDbArc
50
0
51
109.47122063448573
0
SPLINE
5
166
100
AcDbEntity
8
0
100
AcDbSpline
70
4
71
5
72
21
73
15
74
0
42
0.000000001
43
0.0000000001
44
0.0000000001
40
0
40
0
40
0
40
0
40
0
40
0
40
0.10000000000000001
40
0.20000000000000001
40
0.30000000000000004
40
0.40000000000000002
40
0.5
40
0.59999999999999998
40
0.69999999999999996
40
0.79999999999999993
40
0.89999999999999991
40
1
40
1
40
1
40
1
40
1
40
1
41
1
41
1
41
1
41
1
41
1
41
1
41
1
41
1
41
1
41
1
41
1
41
1
41
1
41
1
41
1
10
333.91213301900785
20
-177.52298708210338
30
0
10
333.90190215145958
20
-177.40175159769171
30
0
10
333.87653358279641
20
-177.1627107752613
30
0
10
333.82376055209903
20
-176.81443975500247
30
0
10
333.72346901601253
20
-176.37099935888611
30
0
10
333.5448619261893
20
-175.85391841659589
30
0
10
333.30833898701627
20
-175.37732383658704
30
0
10
333.00930625601222
20
-174.94442703716064
30
0
10
332.6454998798182
20
-174.55681057623607
30
0
10
332.21976883442915
20
-174.21248286296014
30
0
10
331.73690526661915
20
-173.90809392328876
30
0
10
331.30871822292659
20
-173.69387051087375
30
0
10
330.9655180602532
20
-173.5486240201632
30
0
10
330.72707383863633
20
-173.45853479155923
30
0
10
330.60544060621305
20
-173.41517568379606
30
0
0
ARC
5
167
100
AcDbEntity
8
0
100
AcDbCircle
10
490.23962247654225
20
-94.165533029680333
30
0
40
4.0000000000000364
210
0
220
0
230
1
100
AcDbArc
50
109.47122063449025
51
177.33014216622843
0
ARC
5
168
100
AcDbEntity
8
0
100
AcDbCircle
10
490.23962247654225
20
-94.165533029680333
30
0
40
1.0000000000000142
210
0
220
0
230
1
100
AcDbArc
50
-180
51
0
0
ARC
5
169
100
AcDbEntity
8
0
100
AcDbCircle
10
328.48962247654129
20
-90.629993088157264
30
0
40
0.24999999999998579
210
0
220
-0
230
1
100
AcDbArc
50
0
51
109.4711898955363
0
ARC
5
170
100
AcDbEntity
8
0
100
AcDbCircle
10
319.18669325217678
20
-173.16517568379686
30
0
40
0.25000000000002132
210
0
220
0
230
1
100
AcDbArc
50
180
51
270
0
LINE
5
171
100
AcDbEntity
8
0
100
AcDbLine
10
491.85500962151332
20
-176.84939662981355
30
0
11
491.85500962151332
21
-180.38493657133699
31
0
0
LINE
5
172
100
AcDbEntity
8
0
100
AcDbLine
10
319.18669325217672
20
-97.215175683797028
30
0
11
322.50976174357328
21
-97.215175683796986
31
0
0
ARC
5
173
100
AcDbEntity
8
0
100
AcDbCircle
10
339.1050096215132
20
-180.38493053574632
30
0
40
0.24999999999998579
210
0
220
0
230
1
100
AcDbArc
50
180
51
289.47122063448353
0
LWPOLYLINE
5
174
100
AcDbEntity
8
0
100
AcDbPolyline
90
8
70
1
43
0.0
10
506.88964037747041
20
-137.89760103617647
10
506.88964037747041
20
-151.79760103841161
42
-0.41421356237309509
10
506.839640378588
20
-151.84760103729403
10
492.93964037635294
20
-151.84760103729403
42
-0.41421356237309509
10
492.88964037747053
20
-151.79760103841161
10
492.88964037747053
20
-137.89760103617647
42
-0.41421356237309509
10
492.93964037635294
20
-137.84760103729406
10
506.839640378588
20
-137.84760103729406
42
-0.41421356237309509
0
LWPOLYLINE
5
175
100
AcDbEntity
8
0
100
AcDbPolyline
90
8
70
1
43
0.0
10
487.78964037858799
20
-156.89760103729398
42
-0.41421356237309509
10
487.8396403774704
20
-156.94760103617639
10
487.8396403774704
20
-170.8476010384116
42
-0.41421356237288692
10
487.78964037858799
20
-170.89760103729395
10
473.88964037635287
20
-170.89760103729395
42
-0.41421356237309509
10
473.83964037747046
20
-170.84760103841154
10
473.83964037747046
20
-156.94760103617639
42
-0.41421356237309509
10
473.88964037635287
20
-156.89760103729398
0
LWPOLYLINE
5
176
100
AcDbEntity
8
0
100
AcDbPolyline
90
8
70
1
43
0.0
10
473.83964037747046
20
-151.79760103841161
10
473.83964037747046
20
-137.89760103617641
42
-0.41421356237309509
10
473.88964037635287
20
-137.847601037294
10
487.78964037858799
20
-137.847601037294
42
-0.41421356237330315
10
487.8396403774704
20
-137.89760103617647
10
487.8396403774704
20
-151.79760103841161
42
-0.41421356237309509
10
487.78964037858799
20
-151.84760103729403
10
473.88964037635287
20
-151.84760103729403
42
-0.41421356237309509
0
LINE
5
177
100
AcDbEntity
8
0
100
AcDbLine
10
489.85500962680032
20
-176.84949946103353
30
0
11
489.85500962680032
21
-180.38493053762016
31
0
0
ARC
5
178
100
AcDbEntity
8
0
100
AcDbCircle
10
336.60500962166856
20
-180.38493053580126
30
0
40
0.25000000000003469
210
0
220
0
230
1
100
AcDbArc
50
-109.47122063196807
51
0
0
SPLINE
5
179
100
AcDbEntity
8
0
100
AcDbSpline
70
4
71
5
72
21
73
15
74
0
42
0.000000001
43
0.0000000001
44
0.0000000001
40
0
40
0
40
0
40
0
40
0
40
0
40
0.10000000000000001
40
0.20000000000000001
40
0.30000000000000004
40
0.40000000000000002
40
0.5
40
0.59999999999999998
40
0.69999999999999996
40
0.79999999999999993
40
0.89999999999999991
40
1
40
1
40
1
40
1
40
1
40
1
41
1
41
1
41
1
41
1
41
1
41
1
41
1
41
1
41
1
41
1
41
1
41
1
41
1
41
1
41
1
10
486.9121145428179
20
-177.52287892237942
30
0
10
486.90090232894937
20
-177.40309712690063
30
0
10
486.87365432992698
20
-177.16683826757873
30
0
10
486.81831191965023
20
-176.82236396651825
30
0
10
486.71510247503909
20
-176.38322086978988
30
0
10
486.53375416957476
20
-175.87014885182003
30
0
10
486.29548573696121
20
-175.39607402777034
30
0
10
485.9957977373931
20
-174.9640790598738
30
0
10
485.63250262517471
20
-174.57566268236667
30
0
10
485.20843062537699
20
-174.22888584764416
30
0
10
484.72829894858364
20
-173.92051669405669
30
0
10
484.30309106286614
20
-173.70198160148107
30
0
10
483.96254419574689
20
-173.55290696069048
30
0
10
483.72605202029195
20
-173.46000575237196
30
0
10
483.60544060619935
20
-173.41517568378563
30
0
0
ARC
5
180
100
AcDbEntity
8
0
100
AcDbCircle
10
490.23962247654225
20
-94.165533029680333
30
0
40
1.0000000000000142
210
0
220
0
230
1
100
AcDbArc
50
-180
51
0
0
ARC
5
181
100
AcDbEntity
8
0
100
AcDbCircle
10
489.60500962680044
20
-180.38493053762016
30
0
40
0.24999999999783101
210
0
220
0
230
1
100
AcDbArc
50
-109.47122054880995
51
0
0
ARC
5
182
100
AcDbEntity
8
0
100
AcDbCircle
10
337.8550096215132
20
-176.84939662981364
30
0
40
1.0000000000000142
210
0
220
0
230
1
100
AcDbArc
50
0
51
180.00101016324402
0
LINE
5
183
100
AcDbEntity
8
0
100
AcDbLine
10
489.23962247654225
20
-94.165533029680333
30
0
11
489.23962247654225
21
-90.629999123747609
31
0
0
ARC
5
184
100
AcDbEntity
8
0
100
AcDbCircle
10
490.23962247654225
20
-94.165533029680333
30
0
40
3.9999999999999907
210
0
220
-0
230
1
100
AcDbArc
50
9.6926024896668981
51
70.528779365509749
0
LINE
5
185
100
AcDbEntity
8
0
100
AcDbLine
10
483.60544060619935
20
-173.41517568378563
30
0
11
345.05484284251156
21
-173.41517568386234
31
0
0
ARC
5
186
100
AcDbEntity
8
0
100
AcDbCircle
10
490.85500962151332
20
-176.84939662981355
30
0
40
3.9999999999999907
210
0
220
0
230
1
100
AcDbArc
50
189.69309423497282
51
250.52877945121264
0
LINE
5
187
100
AcDbEntity
8
0
100
AcDbLine
10
509.43669325217655
20
-97.465175683796943
30
0
11
509.43669325217661
21
-173.16517568379743
31
0
0
LWPOLYLINE
5
188
100
AcDbEntity
8
0
100
AcDbPolyline
90
8
70
1
43
0.0
10
449.73964037747038
20
-170.91953351851191
10
449.73964037747038
20
-153.79835336466624
10
416.77364281179268
20
-153.79835336466624
10
411.72364281179262
20
-153.79835336466624
10
378.59403698715255
20
-153.79835336466624
10
378.59403698715255
20
-170.91953351851191
10
411.63964037747053
20
-170.91953351851191
10
416.68964037747054
20
-170.91953351851191
0
ENDSEC
0
SECTION
2
OBJECTS
0
DICTIONARY
5
C
100
AcDbDictionary
3
ACAD_GROUP
350
D
3
ACAD_MLINESTYLE
350
17
0
DICTIONARY
5
D
100
AcDbDictionary
0
DICTIONARY
5
1A
330
C
100
AcDbDictionary
0
DICTIONARY
5
17
100
AcDbDictionary
0
ENDSEC
0
EOF
