0
SECTION
2
HEADER
9
$INSUNITS
70
4
9
$ACADVER
1
AC1014
9
$HANDSEED
5
FFFF
0
ENDSEC
0
SECTION
2
TABLES
0
TABLE
2
VPORT
5
8
100
AcDbSymbolTable
0
ENDTAB
0
TABLE
2
LTYPE
5
5
100
AcDbSymbolTable
0
LTYPE
5
14
100
AcDbSymbolTableRecord
100
AcDbLinetypeTableRecord
2
BYBLOCK
70
0
0
LTYPE
5
15
100
AcDbSymbolTableRecord
100
AcDbLinetypeTableRecord
2
BYLAYER
70
0
0
ENDTAB
0
TABLE
2
LAYER
5
2
100
AcDbSymbolTable
70
2
0
LAYER
5
50
100
AcDbSymbolTableRecord
100
AcDbLayerTableRecord
2
0
70
0
6
CONTINUOUS
0
ENDTAB
0
TABLE
2
STYLE
5
3
100
AcDbSymbolTable
70
1
0
STYLE
5
11
100
AcDbSymbolTableRecord
100
AcDbTextStyleTableRecord
2
STANDARD
70
0
0
ENDTAB
0
TABLE
2
VIEW
5
6
100
AcDbSymbolTable
70
0
0
ENDTAB
0
TABLE
2
UCS
5
7
100
AcDbSymbolTable
70
0
0
ENDTAB
0
TABLE
2
APPID
5
9
100
AcDbSymbolTable
70
2
0
APPID
5
12
100
AcDbSymbolTableRecord
100
AcDbRegAppTableRecord
2
ACAD
70
0
0
ENDTAB
0
TABLE
2
DIMSTYLE
5
A
100
AcDbSymbolTable
70
1
0
ENDTAB
0
TABLE
2
BLOCK_RECORD
5
1
100
AcDbSymbolTable
70
1
0
BLOCK_RECORD
5
1F
100
AcDbSymbolTableRecord
100
AcDbBlockTableRecord
2
*MODEL_SPACE
0
BLOCK_RECORD
5
1B
100
AcDbSymbolTableRecord
100
AcDbBlockTableRecord
2
*PAPER_SPACE
0
ENDTAB
0
ENDSEC
0
SECTION
2
BLOCKS
0
BLOCK
5
20
100
AcDbEntity
100
AcDbBlockBegin
2
*MODEL_SPACE
0
ENDBLK
5
21
100
AcDbEntity
100
AcDbBlockEnd
0
BLOCK
5
1C
100
AcDbEntity
100
AcDbBlockBegin
2
*PAPER_SPACE
0
ENDBLK
5
1D
100
AcDbEntity
100
AcDbBlockEnd
0
ENDSEC
0
SECTION
2
ENTITIES
0
ARC
5
100
100
AcDbEntity
8
0
100
AcDbCircle
10
337.8550096215132
20
43.15060337018636
30
0
40
1.0000000000000142
210
0
220
0
230
1
100
AcDbArc
50
0
51
180.00101016324402
0
ARC
5
101
100
AcDbEntity
8
0
100
AcDbCircle
10
489.60500962680044
20
39.615069462379822
30
0
40
0.24999999999783101
210
0
220
0
230
1
100
AcDbArc
50
-109.47122054881108
51
0
0
ARC
5
102
100
AcDbEntity
8
0
100
AcDbCircle
10
492.10500962151332
20
39.615063428663007
30
0
40
0.24999999999998579
210
0
220
0
230
1
100
AcDbArc
50
180
51
289.47118989552729
0
LINE
5
103
100
AcDbEntity
8
0
100
AcDbLine
10
509.43669325217655
20
122.53482431620304
30
0
11
509.43669325217661
21
46.834824316202564
31
0
0
LINE
5
104
100
AcDbEntity
8
0
100
AcDbLine
10
330.60544060621305
20
46.584824316203921
30
0
11
319.18669325217678
21
46.584824316203083
31
0
0
ARC
5
105
100
AcDbEntity
8
0
100
AcDbCircle
10
490.85500962680032
20
43.150500538966483
30
0
40
1.0000000000001377
210
0
220
-0
230
1
100
AcDbArc
50
0.0058917948782933388
51
180
0
ARC
5
106
100
AcDbEntity
8
0
100
AcDbCircle
10
329.73962247654231
20
125.83446697031967
30
0
40
1.0000000000000142
210
0
220
0
230
1
100
AcDbArc
50
180
51
360
0
ARC
5
107
100
AcDbEntity
8
0
100
AcDbCircle
10
329.73961903159125
20
125.83446713096315
30
0
40
4.0000033687289083
210
0
220
-0
230
1
100
AcDbArc
50
9.6925919135974183
51
70.528732075320463
0
ARC
5
108
100
AcDbEntity
8
0
100
AcDbCircle
10
337.85500962166856
20
43.150585739507612
30
0
40
1.0000000000000389
210
0
220
-0
230
1
100
AcDbArc
50
0.0010101632440297191
51
180
0
ARC
5
109
100
AcDbEntity
8
0
100
AcDbCircle
10
330.98962247654231
20
129.37000087625245
30
0
40
0.24999999999997566
210
0
220
-0
230
1
100
AcDbArc
50
70.528779365509934
51
180
0
LINE
5
110
100
AcDbEntity
8
0
100
AcDbLine
10
338.8550096215132
20
43.15060337018636
30
0
11
338.8550096215132
21
39.615069464253665
31
0
0
LINE
5
111
100
AcDbEntity
8
0
100
AcDbLine
10
328.73962247654225
20
125.83446697031977
30
0
11
328.73962247654129
21
129.37000691184281
31
0
0
ARC
5
112
100
AcDbEntity
8
0
100
AcDbCircle
10
490.23962247654225
20
125.83446697031967
30
0
40
1.0000000000000142
210
0
220
0
230
1
100
AcDbArc
50
-180
51
0
0
ARC
5
113
100
AcDbEntity
8
0
100
AcDbCircle
10
490.23962247654225
20
125.83446697031967
30
0
40
4.0000000000000364
210
0
220
0
230
1
100
AcDbArc
50
109.47122063449031
51
177.33014216622843
0
LINE
5
114
100
AcDbEntity
8
0
100
AcDbLine
10
330.73962247654219
20
125.8344669703196
30
0
11
330.73962247654219
21
129.37000087625245
31
0
0
ARC
5
115
100
AcDbEntity
8
0
100
AcDbCircle
10
490.23962247654225
20
125.83446697031967
30
0
40
1.0000000000000142
210
0
220
0
230
1
100
AcDbArc
50
-180
51
0
0
LINE
5
116
100
AcDbEntity
8
0
100
AcDbLine
10
489.23962247654225
20
125.83446697031967
30
0
11
489.23962247654225
21
129.37000087625239
31
0
0
SPLINE
5
117
100
AcDbEntity
8
0
100
AcDbSpline
70
4
71
5
72
21
73
15
74
0
42
0.000000001
43
0.0000000001
44
0.0000000001
40
0
40
0
40
0
40
0
40
0
40
0
40
0.10000000000000001
40
0.20000000000000001
40
0.30000000000000004
40
0.40000000000000002
40
0.5
40
0.59999999999999998
40
0.69999999999999996
40
0.79999999999999993
40
0.89999999999999991
40
1
40
1
40
1
40
1
40
1
40
1
41
1
41
1
41
1
41
1
41
1
41
1
41
1
41
1
41
1
41
1
41
1
41
1
41
1
41
1
41
1
10
494.1825233353045
20
126.5079154226693
30
0
10
494.19682629203231
20
126.44472500633395
30
0
10
494.23024654588966
20
126.31730557565278
30
0
10
494.29482053937943
20
126.12306050799612
30
0
10
494.41027655488381
20
125.8577338195467
30
0
10
494.60659615731663
20
125.51485758505945
30
0
10
494.85865361667749
20
125.15995701850613
30
0
10
495.16948781384701
20
124.79237654185189
30
0
10
495.53819743989516
20
124.41231059451789
30
0
10
495.96033378529762
20
124.02071889693561
30
0
10
496.43079664829946
20
123.61870171600953
30
0
10
496.8421883335767
20
123.28953280306436
30
0
10
497.16909802158386
20
123.03869403614955
30
0
10
497.39506616775668
20
122.86973623407854
30
0
10
497.51005745674212
20
122.78482431620297
30
0
0
ARC
5
118
100
AcDbEntity
8
0
100
AcDbCircle
10
488.98962247654225
20
129.37000087625245
30
0
40
0.24999999999998579
210
0
220
0
230
1
100
AcDbArc
50
0
51
109.47122063448791
0
ARC
5
119
100
AcDbEntity
8
0
100
AcDbCircle
10
490.23962247654225
20
125.83446697031967
30
0
40
3.9999999999999907
210
0
220
-0
230
1
100
AcDbArc
50
9.6926024896668981
51
70.528779365509678
0
LINE
5
120
100
AcDbEntity
8
0
100
AcDbLine
10
491.23962247654225
20
125.83446697031967
30
0
11
491.23962247654225
21
129.37000087625239
31
0
0
LINE
5
121
100
AcDbEntity
8
0
100
AcDbLine
10
336.85500962166861
20
43.150585739507612
30
0
11
336.85500962166856
21
39.61506946419874
31
0
0
SPLINE
5
122
100
AcDbEntity
8
0
100
AcDbSpline
70
4
71
5
72
21
73
15
74
0
42
0.000000001
43
0.0000000001
44
0.0000000001
40
0
40
0
40
0
40
0
40
0
40
0
40
0.10000000000000001
40
0.20000000000000001
40
0.30000000000000004
40
0.40000000000000002
40
0.5
40
0.59999999999999998
40
0.69999999999999996
40
0.79999999999999993
40
0.89999999999999991
40
1
40
1
40
1
40
1
40
1
40
1
41
1
41
1
41
1
41
1
41
1
41
1
41
1
41
1
41
1
41
1
41
1
41
1
41
1
41
1
41
1
10
325.7439704076736
20
126.02091949657091
30
0
10
325.73578011278533
20
125.95146630505755
30
0
10
325.71423526219127
20
125.81299242207551
30
0
10
325.66642460966068
20
125.60657914749889
30
0
10
325.5711856755712
20
125.33399881113191
30
0
10
325.39631097286309
20
124.99794874760073
30
0
10
325.16145188673931
20
124.66692229718097
30
0
10
324.86305769211754
20
124.34121682840936
30
0
10
324.50155877056011
20
124.0207962973836
30
0
10
324.08153014342588
20
123.70527755207644
30
0
10
323.60838726312352
20
123.39420705546689
30
0
10
323.19131573068438
20
123.14857977520843
30
0
10
322.85827806311573
20
122.9660538873604
30
0
10
322.62740809086506
20
122.84511070753445
30
0
10
322.50976174357328
20
122.78482431620301
30
0
0
ARC
5
123
100
AcDbEntity
8
0
100
AcDbCircle
10
336.60500962166856
20
39.61506946419874
30
0
40
0.25000000000003469
210
0
220
0
230
1
100
AcDbArc
50
-109.47122063196807
51
0
0
ARC
5
124
100
AcDbEntity
8
0
100
AcDbCircle
10
328.48962247654129
20
129.37000691184272
30
0
40
0.24999999999998579
210
0
220
-0
230
1
100
AcDbArc
50
0
51
109.47118989553523
0
ARC
5
125
100
AcDbEntity
8
0
100
AcDbCircle
10
490.85500962151332
20
43.150603370186431
30
0
40
4.000005690409961
210
0
220
0
230
1
100
AcDbArc
50
289.47118989552644
51
357.32964384092423
0
ARC
5
126
100
AcDbEntity
8
0
100
AcDbCircle
10
337.8550096215132
20
43.15060337018636
30
0
40
3.9999999999999685
210
0
220
0
230
1
100
AcDbArc
50
289.47122063449058
51
357.32805109560513
0
ARC
5
127
100
AcDbEntity
8
0
100
AcDbCircle
10
491.48962247654225
20
129.37000087625245
30
0
40
0.25000000000000916
210
0
220
-0
230
1
100
AcDbArc
50
70.528779365512094
51
180
0
LINE
5
128
100
AcDbEntity
8
0
100
AcDbLine
10
318.93669325217678
20
46.83482431620309
30
0
11
318.93669325217678
21
122.53482431620297
31
0
0
SPLINE
5
129
100
AcDbEntity
8
0
100
AcDbSpline
70
4
71
5
72
21
73
15
74
0
42
0.000000001
43
0.0000000001
44
0.0000000001
40
0
40
0
40
0
40
0
40
0
40
0
40
0.10000000000000001
40
0.20000000000000001
40
0.30000000000000004
40
0.40000000000000002
40
0.5
40
0.59999999999999998
40
0.69999999999999996
40
0.79999999999999993
40
0.89999999999999991
40
1
40
1
40
1
40
1
40
1
40
1
41
1
41
1
41
1
41
1
41
1
41
1
41
1
41
1
41
1
41
1
41
1
41
1
41
1
41
1
41
1
10
333.91213301900785
20
42.477012917896602
30
0
10
333.90190215145958
20
42.598248402282309
30
0
10
333.87653358279641
20
42.837289224668183
30
0
10
333.82376055209903
20
43.185560244883085
30
0
10
333.72346901601253
20
43.629000640979783
30
0
10
333.5448619261893
20
44.14608158329181
30
0
10
333.30833898701627
20
44.622676163351791
30
0
10
333.00930625601222
20
45.055572962843094
30
0
10
332.6454998798182
20
45.443189423831384
30
0
10
332.21976883442915
20
45.78751713715414
30
0
10
331.73690526661915
20
46.091906076840637
30
0
10
331.30871822292659
20
46.306129489231722
30
0
10
330.9655180602532
20
46.451375979899524
30
0
10
330.72707383863633
20
46.541465208463471
30
0
10
330.60544060621305
20
46.584824316203921
30
0
0
ARC
5
130
100
AcDbEntity
8
0
100
AcDbCircle
10
329.73961903159125
20
125.83446713096315
30
0
40
4.000004390639857
210
0
220
0
230
1
100
AcDbArc
50
109.47114413941414
51
177.33014216622871
0
ARC
5
131
100
AcDbEntity
8
0
100
AcDbCircle
10
339.1050096215132
20
39.615069464253665
30
0
40
0.24999999999998579
210
0
220
0
230
1
100
AcDbArc
50
180
51
289.47122063448575
0
ARC
5
132
100
AcDbEntity
8
0
100
AcDbCircle
10
490.85500962151332
20
43.150603370186431
30
0
40
3.9999999999999907
210
0
220
0
230
1
100
AcDbArc
50
189.69309423497253
51
250.52877945121253
0
ARC
5
133
100
AcDbEntity
8
0
100
AcDbCircle
10
329.73961903159125
20
125.83446713096315
30
0
40
0.9999965550489649
210
0
220
0
230
1
100
AcDbArc
50
180.00000919542356
51
359.99999080457644
0
LINE
5
134
100
AcDbEntity
8
0
100
AcDbLine
10
509.18669325217718
20
46.584824316202614
30
0
11
498.0548428425966
21
46.584824316178555
31
0
0
LINE
5
135
100
AcDbEntity
8
0
100
AcDbLine
10
319.18669325217672
20
122.78482431620296
30
0
11
322.50976174357328
21
122.78482431620301
31
0
0
LINE
5
136
100
AcDbEntity
8
0
100
AcDbLine
10
497.51005745674212
20
122.78482431620297
30
0
11
509.18669325217655
21
122.78482431620304
31
0
0
SPLINE
5
137
100
AcDbEntity
8
0
100
AcDbSpline
70
4
71
5
72
21
73
15
74
0
42
0.000000001
43
0.0000000001
44
0.0000000001
40
0
40
0
40
0
40
0
40
0
40
0
40
0.10000000000000001
40
0.20000000000000001
40
0.30000000000000004
40
0.40000000000000002
40
0.5
40
0.59999999999999998
40
0.69999999999999996
40
0.79999999999999993
40
0.89999999999999991
40
1
40
1
40
1
40
1
40
1
40
1
41
1
41
1
41
1
41
1
41
1
41
1
41
1
41
1
41
1
41
1
41
1
41
1
41
1
41
1
41
1
10
486.24397040767354
20
126.02091949657091
30
0
10
486.2357801128075
20
125.95146630505755
30
0
10
486.21423526224896
20
125.81299242207551
30
0
10
486.16642460974515
20
125.60657914749889
30
0
10
486.07118567564487
20
125.33399881113191
30
0
10
485.89631097288884
20
124.99794874760073
30
0
10
485.66145188672891
20
124.66692229718097
30
0
10
485.36305769211606
20
124.34121682840936
30
0
10
485.00155877061593
20
124.0207962973836
30
0
10
484.58153014355833
20
123.70527755207644
30
0
10
484.10838726330729
20
123.39420705546689
30
0
10
483.69131573085093
20
123.14857977520843
30
0
10
483.35827806321987
20
122.9660538873604
30
0
10
483.12740809090366
20
122.84511070753445
30
0
10
483.00976174357322
20
122.78482431620301
30
0
0
SPLINE
5
138
100
AcDbEntity
8
0
100
AcDbSpline
70
4
71
5
72
21
73
15
74
0
42
0.000000001
43
0.0000000001
44
0.0000000001
40
0
40
0
40
0
40
0
40
0
40
0
40
0.10000000000000001
40
0.20000000000000001
40
0.30000000000000004
40
0.40000000000000002
40
0.5
40
0.59999999999999998
40
0.69999999999999996
40
0.79999999999999993
40
0.89999999999999991
40
1
40
1
40
1
40
1
40
1
40
1
41
1
41
1
41
1
41
1
41
1
41
1
41
1
41
1
41
1
41
1
41
1
41
1
41
1
41
1
41
1
10
486.9121145428179
20
42.477121077620588
30
0
10
486.90090232894937
20
42.596902873083479
30
0
10
486.87365432992698
20
42.833161732377867
30
0
10
486.81831191965023
20
43.17763603340957
30
0
10
486.71510247503909
20
43.616779130122573
30
0
10
486.53375416957476
20
44.129851148105715
30
0
10
486.29548573696121
20
44.603925972189195
30
0
10
485.9957977373931
20
45.035920940129145
30
0
10
485.63250262517471
20
45.424337317677931
30
0
10
485.20843062537699
20
45.771114152430059
30
0
10
484.72829894858364
20
46.079483306026475
30
0
10
484.30309106286614
20
46.298018398586443
30
0
10
483.96254419574689
20
46.447093039349582
30
0
10
483.72605202029195
20
46.539994247642582
30
0
10
483.60544060619935
20
46.584824316214366
30
0
0
ARC
5
139
100
AcDbEntity
8
0
100
AcDbCircle
10
337.8550096215132
20
43.15060337018636
30
0
40
3.9999999999999938
210
0
220
0
230
1
100
AcDbArc
50
189.69466595070156
51
250.52877936802705
0
SPLINE
5
140
100
AcDbEntity
8
0
100
AcDbSpline
70
4
71
5
72
21
73
15
74
0
42
0.000000001
43
0.0000000001
44
0.0000000001
40
0
40
0
40
0
40
0
40
0
40
0
40
0.10000000000000001
40
0.20000000000000001
40
0.30000000000000004
40
0.40000000000000002
40
0.5
40
0.59999999999999998
40
0.69999999999999996
40
0.79999999999999993
40
0.89999999999999991
40
1
40
1
40
1
40
1
40
1
40
1
41
1
41
1
41
1
41
1
41
1
41
1
41
1
41
1
41
1
41
1
41
1
41
1
41
1
41
1
41
1
10
333.6825233353045
20
126.5079154226693
30
0
10
333.69682629208461
20
126.44472500633395
30
0
10
333.73024654603103
20
126.31730557565278
30
0
10
333.79482053960692
20
126.12306050799612
30
0
10
333.91027655513659
20
125.8577338195467
30
0
10
334.10659615749512
20
125.51485758505945
30
0
10
334.35865361673018
20
125.15995701850613
30
0
10
334.66948781377363
20
124.79237654185189
30
0
10
335.03819743972934
20
124.41231059451789
30
0
10
335.46033378508838
20
124.02071889693561
30
0
10
335.93079664810159
20
123.61870171600953
30
0
10
336.34218833343192
20
123.28953280306436
30
0
10
336.66909802150252
20
123.03869403614955
30
0
10
336.8950661677278
20
122.86973623407854
30
0
10
337.01005745674217
20
122.78482431620297
30
0
0
LINE
5
141
100
AcDbEntity
8
0
100
AcDbLine
10
489.85500962680032
20
43.150500538966483
30
0
11
489.85500962680032
21
39.615069462379822
31
0
0
SPLINE
5
142
100
AcDbEntity
8
0
100
AcDbSpline
70
4
71
5
72
21
73
15
74
0
42
0.000000001
43
0.0000000001
44
0.0000000001
40
0
40
0
40
0
40
0
40
0
40
0
40
0.10000000000000001
40
0.20000000000000001
40
0.30000000000000004
40
0.40000000000000002
40
0.5
40
0.59999999999999998
40
0.69999999999999996
40
0.79999999999999993
40
0.89999999999999991
40
1
40
1
40
1
40
1
40
1
40
1
41
1
41
1
41
1
41
1
41
1
41
1
41
1
41
1
41
1
41
1
41
1
41
1
41
1
41
1
41
1
10
341.85066089275858
20
42.964133751762432
30
0
10
341.84730603132755
20
43.06384484107835
30
0
10
341.84664760505075
20
43.260817618788387
30
0
10
341.86381416177289
20
43.548928458572874
30
0
10
341.92360597623582
20
43.918138881078804
30
0
10
342.06387870346106
20
44.353125942688578
30
0
10
342.27496686204717
20
44.759448836115361
30
0
10
342.56175569160058
20
45.13513014869779
30
0
10
342.92525290292275
20
45.479761986390308
30
0
10
343.3607873875801
20
45.795235087332529
30
0
10
343.86218990200678
20
46.084046594180599
30
0
10
344.31133487099703
20
46.295657407408619
30
0
10
344.6734343578629
20
46.444148741389881
30
0
10
344.92586763040788
20
46.53867685573389
30
0
10
345.05484284251156
20
46.584824316137663
30
0
0
SPLINE
5
143
100
AcDbEntity
8
0
100
AcDbSpline
70
4
71
5
72
21
73
15
74
0
42
0.000000001
43
0.0000000001
44
0.0000000001
40
0
40
0
40
0
40
0
40
0
40
0
40
0.10000000000000001
40
0.20000000000000001
40
0.30000000000000004
40
0.40000000000000002
40
0.5
40
0.59999999999999998
40
0.69999999999999996
40
0.79999999999999993
40
0.89999999999999991
40
1
40
1
40
1
40
1
40
1
40
1
41
1
41
1
41
1
41
1
41
1
41
1
41
1
41
1
41
1
41
1
41
1
41
1
41
1
41
1
41
1
10
494.85067175904931
20
42.964244560431482
30
0
10
494.88240515754728
20
43.056356175600456
30
0
10
494.94872095234138
20
43.23884446704313
30
0
10
495.05674150131762
20
43.507372170712301
30
0
10
495.21814501639761
20
43.854827668578082
30
0
10
495.45080417766644
20
44.270327130546782
30
0
10
495.71704774560305
20
44.66537487656997
30
0
10
496.01948876282285
20
45.038379656065075
30
0
10
496.35931703921079
20
45.388616916854978
30
0
10
496.73478340781139
20
45.717151839737234
30
0
10
497.14308492804639
20
46.025691316388134
30
0
10
497.49378241738373
20
46.257873478026418
30
0
10
497.76946865666764
20
46.424298705567978
30
0
10
497.95879541792101
20
46.531877668564718
30
0
10
498.0548428425966
20
46.584824316178555
30
0
0
ARC
5
144
100
AcDbEntity
8
0
100
AcDbCircle
10
490.85500962151332
20
43.150603370186431
30
0
40
1.0000000000000142
210
0
220
0
230
1
100
AcDbArc
50
0
51
180.00589179487829
0
LINE
5
145
100
AcDbEntity
8
0
100
AcDbLine
10
483.60544060619935
20
46.584824316214366
30
0
11
345.05484284251156
21
46.584824316137663
31
0
0
LINE
5
146
100
AcDbEntity
8
0
100
AcDbLine
10
337.01005745674217
20
122.78482431620297
30
0
11
483.00976174357322
21
122.78482431620301
31
0
0
LINE
5
147
100
AcDbEntity
8
0
100
AcDbLine
10
491.85500962151332
20
43.150603370186431
30
0
11
491.85500962151332
21
39.615063428663007
31
0
0
LWPOLYLINE
5
148
100
AcDbEntity
8
0
100
AcDbPolyline
90
8
70
1
43
0.0
10
506.839640378588
20
120.25239896270594
42
-0.41421356237309509
10
506.88964037747041
20
120.20239896382353
10
506.88964037747041
20
106.30239896158838
42
-0.41421356237309509
10
506.839640378588
20
106.25239896270597
10
492.93964037635294
20
106.25239896270597
42
-0.41421356237309509
10
492.88964037747053
20
106.30239896158838
10
492.88964037747053
20
120.20239896382353
42
-0.41421356237309509
10
492.93964037635294
20
120.25239896270594
0
LWPOLYLINE
5
149
100
AcDbEntity
8
0
100
AcDbPolyline
90
8
70
1
43
0.0
10
487.83964037747046
20
101.15239896382356
10
487.8396403774704
20
87.252398961588398
42
-0.41421356237309509
10
487.78964037858799
20
87.202398962705985
10
473.88964037635287
20
87.202398962705985
42
-0.41421356237309509
10
473.83964037747046
20
87.252398961588398
10
473.83964037747046
20
101.15239896382356
42
-0.41421356237309509
10
473.88964037635287
20
101.20239896270597
10
487.78964037858805
20
101.20239896270597
42
-0.41421356237309509
0
LWPOLYLINE
5
150
100
AcDbEntity
8
0
100
AcDbPolyline
90
8
70
1
43
0.0
10
492.88964037747053
20
101.15239896382354
42
-0.41421356237309509
10
492.93964037635294
20
101.20239896270596
10
506.839640378588
20
101.20239896270596
42
-0.41421356237309509
10
506.88964037747041
20
101.15239896382354
10
506.88964037747041
20
87.252398961588383
42
-0.41421356237309509
10
506.839640378588
20
87.202398962705971
10
492.93964037635294
20
87.202398962705971
42
-0.41421356237309509
10
492.88964037747053
20
87.252398961588383
0
LWPOLYLINE
5
151
100
AcDbEntity
8
0
100
AcDbPolyline
90
8
70
1
43
0.0
10
373.53964037747056
20
82.102398963823617
10
373.53964037747056
20
68.202398961588457
42
-0.41421356237309509
10
373.48964037858815
20
68.152398962706044
10
359.58964037635297
20
68.152398962706059
42
-0.41421356237309509
10
359.53964037747056
20
68.202398961588472
10
359.53964037747056
20
82.102398963823632
42
-0.41421356237309509
10
359.58964037635297
20
82.152398962706044
10
373.48964037858815
20
82.15239896270603
42
-0.41421356237309509
0
LWPOLYLINE
5
152
100
AcDbEntity
8
0
100
AcDbPolyline
90
8
70
1
43
0.0
10
487.83964037747046
20
120.20239896382353
10
487.83964037747046
20
106.30239896158838
42
-0.41421356237309509
10
487.78964037858805
20
106.25239896270597
10
473.88964037635287
20
106.25239896270597
42
-0.41421356237309509
10
473.83964037747046
20
106.30239896158838
10
473.83964037747046
20
120.20239896382353
42
-0.41421356237309509
10
473.88964037635287
20
120.25239896270594
10
487.78964037858805
20
120.25239896270594
42
-0.41421356237309509
0
LWPOLYLINE
5
153
100
AcDbEntity
8
0
100
AcDbPolyline
90
8
70
1
43
0.0
10
321.48964037635301
20
87.202398962706056
42
-0.41421356237309509
10
321.4396403774706
20
87.252398961588469
10
321.4396403774706
20
101.15239896382363
42
-0.41421356237309509
10
321.48964037635301
20
101.20239896270604
10
335.38964037858818
20
101.20239896270604
42
-0.41421356237309509
10
335.4396403774706
20
101.15239896382363
10
335.4396403774706
20
87.252398961588469
42
-0.41421356237309509
10
335.38964037858818
20
87.202398962706056
0
LWPOLYLINE
5
154
100
AcDbEntity
8
0
100
AcDbPolyline
90
8
70
1
43
0.0
10
492.93964037635294
20
82.152398962705973
10
506.839640378588
20
82.152398962705959
42
-0.41421356237309509
10
506.88964037747041
20
82.102398963823546
10
506.88964037747041
20
68.202398961588386
42
-0.41421356237309509
10
506.839640378588
20
68.152398962705973
10
492.93964037635294
20
68.152398962705988
42
-0.41421356237309509
10
492.88964037747053
20
68.202398961588401
10
492.88964037747053
20
82.102398963823561
42
-0.41421356237309509
0
LWPOLYLINE
5
155
100
AcDbEntity
8
0
100
AcDbPolyline
90
8
70
1
43
0.0
10
340.53964037635302
20
87.202398962706056
42
-0.41421356237309509
10
340.48964037747061
20
87.252398961588469
10
340.48964037747061
20
101.15239896382363
42
-0.41421356237309509
10
340.53964037635302
20
101.20239896270604
10
354.43964037858819
20
101.20239896270603
42
-0.41421356237299095
10
354.48964037747061
20
101.15239896382363
10
354.48964037747061
20
87.252398961588455
42
-0.41421356237309509
10
354.43964037858819
20
87.202398962706042
0
LWPOLYLINE
5
156
100
AcDbEntity
8
0
100
AcDbPolyline
90
8
70
1
43
0.0
10
321.4396403774706
20
106.30239896158847
10
321.4396403774706
20
120.20239896382363
42
-0.41421356237309509
10
321.48964037635301
20
120.25239896270604
10
335.38964037858818
20
120.25239896270602
42
-0.41421356237309509
10
335.4396403774706
20
120.20239896382361
10
335.4396403774706
20
106.30239896158844
42
-0.41421356237309509
10
335.38964037858818
20
106.25239896270602
10
321.48964037635301
20
106.25239896270605
42
-0.41421356237309509
0
LWPOLYLINE
5
157
100
AcDbEntity
8
0
100
AcDbPolyline
90
8
70
1
43
0.0
10
359.53964037747056
20
106.30239896158844
10
359.53964037747056
20
120.20239896382361
42
-0.41421356237309509
10
359.58964037635297
20
120.25239896270602
10
373.48964037858821
20
120.252398962706
42
-0.41421356237309509
10
373.53964037747062
20
120.20239896382358
10
373.53964037747062
20
106.30239896158842
42
-0.41421356237309509
10
373.48964037858821
20
106.25239896270601
10
359.58964037635297
20
106.25239896270602
42
-0.41421356237309509
0
LWPOLYLINE
5
158
100
AcDbEntity
8
0
100
AcDbPolyline
90
8
70
1
43
0.0
10
378.58964037747057
20
101.1523989638236
42
-0.41421356237309509
10
378.63964037635299
20
101.20239896270601
10
392.53964037858816
20
101.20239896270601
42
-0.41421356237309509
10
392.58964037747057
20
101.1523989638236
10
392.58964037747057
20
87.252398961588426
42
-0.41421356237309509
10
392.53964037858816
20
87.202398962706013
10
378.63964037635299
20
87.202398962706013
42
-0.41421356237309509
10
378.58964037747057
20
87.252398961588426
0
LWPOLYLINE
5
159
100
AcDbEntity
8
0
100
AcDbPolyline
90
8
70
1
43
0.0
10
340.48964037747061
20
120.20239896382361
42
-0.41421356237309509
10
340.53964037635302
20
120.25239896270602
10
354.43964037858819
20
120.25239896270602
42
-0.41421356237309509
10
354.48964037747061
20
120.20239896382361
10
354.48964037747061
20
106.30239896158844
42
-0.41421356237309509
10
354.43964037858819
20
106.25239896270602
10
340.53964037635302
20
106.25239896270602
42
-0.41421356237309509
10
340.48964037747061
20
106.30239896158844
0
LWPOLYLINE
5
160
100
AcDbEntity
8
0
100
AcDbPolyline
90
8
70
1
43
0.0
10
378.63964037635299
20
106.25239896270601
42
-0.41421356237309509
10
378.58964037747057
20
106.30239896158842
10
378.58964037747057
20
120.20239896382358
42
-0.41421356237309509
10
378.63964037635299
20
120.252398962706
10
392.53964037858816
20
120.252398962706
42
-0.41421356237309509
10
392.58964037747057
20
120.20239896382358
10
392.58964037747057
20
106.30239896158842
42
-0.41421356237309509
10
392.53964037858816
20
106.25239896270601
0
LWPOLYLINE
5
161
100
AcDbEntity
8
0
100
AcDbPolyline
90
8
70
1
43
0.0
10
373.53964037747062
20
101.15239896382361
10
373.53964037747056
20
87.252398961588455
42
-0.41421356237309509
10
373.48964037858815
20
87.202398962706042
10
359.58964037635297
20
87.202398962706042
42
-0.41421356237309509
10
359.53964037747056
20
87.252398961588455
10
359.53964037747056
20
101.15239896382361
42
-0.41421356237309509
10
359.58964037635297
20
101.20239896270603
10
373.48964037858821
20
101.20239896270603
42
-0.41421356237309509
0
LWPOLYLINE
5
162
100
AcDbEntity
8
0
100
AcDbPolyline
90
8
70
1
43
0.0
10
354.43964037858819
20
82.152398962706044
42
-0.41421356237309509
10
354.48964037747061
20
82.102398963823632
10
354.48964037747061
20
68.202398961588472
42
-0.41421356237309509
10
354.43964037858819
20
68.152398962706059
10
340.53964037635296
20
68.152398962706059
42
-0.41421356237309509
10
340.48964037747055
20
68.202398961588472
10
340.48964037747061
20
82.102398963823646
42
-0.41421356237309509
10
340.53964037635302
20
82.152398962706059
0
LWPOLYLINE
5
163
100
AcDbEntity
8
0
100
AcDbPolyline
90
8
70
1
43
0.0
10
378.58964037747057
20
82.102398963823617
42
-0.41421356237309509
10
378.63964037635299
20
82.15239896270603
10
392.53964037858816
20
82.15239896270603
42
-0.41421356237309509
10
392.58964037747057
20
82.102398963823617
10
392.58964037747057
20
68.202398961588443
42
-0.41421356237309509
10
392.53964037858816
20
68.15239896270603
10
378.63964037635299
20
68.152398962706044
42
-0.41421356237309509
10
378.58964037747057
20
68.202398961588457
0
LWPOLYLINE
5
164
100
AcDbEntity
8
0
100
AcDbPolyline
90
8
70
1
43
0.0
10
449.73964037747055
20
120.20239896382355
10
449.73964037747055
20
106.30239896158839
42
-0.41421356237309509
10
449.68964037858814
20
106.25239896270598
10
435.78964037635285
20
106.252398962706
42
-0.41421356237309509
10
435.73964037747044
20
106.30239896158841
10
435.73964037747055
20
120.20239896382357
42
-0.41421356237309509
10
435.78964037635296
20
120.25239896270598
10
449.68964037858814
20
120.25239896270597
42
-0.41421356237309509
0
LWPOLYLINE
5
165
100
AcDbEntity
8
0
100
AcDbPolyline
90
8
70
1
43
0.0
10
388.16464037635296
20
63.102398962706047
10
402.06464037858808
20
63.102398962706033
42
-0.41421356237304296
10
402.11464037747049
20
63.052398963823634
10
402.11464037747049
20
49.15239896158846
42
-0.41421356237309509
10
402.06464037858808
20
49.102398962706047
10
388.16464037635291
20
49.102398962706062
42
-0.41421356237309509
10
388.11464037747049
20
49.152398961588474
10
388.11464037747055
20
63.052398963823634
42
-0.41421356237309509
0
LWPOLYLINE
5
166
100
AcDbEntity
8
0
100
AcDbPolyline
90
8
70
1
43
0.0
10
424.65164037747053
20
64.052398963823606
10
424.65164037747053
20
50.152398961588446
42
-0.41421356237309509
10
424.60164037858812
20
50.102398962706033
10
417.95164037635288
20
50.102398962706033
42
-0.41421356237309509
10
417.90164037747047
20
50.152398961588446
10
417.90164037747047
20
64.052398963823606
42
-0.41421356237309509
10
417.95164037635288
20
64.102398962706019
10
424.60164037858812
20
64.102398962706019
42
-0.41421356237309509
0
LWPOLYLINE
5
167
100
AcDbEntity
8
0
100
AcDbPolyline
90
8
70
1
43
0.0
10
397.63964037747053
20
82.102398963823617
42
-0.41421356237309509
10
397.68964037635294
20
82.15239896270603
10
411.58964037858811
20
82.15239896270603
42
-0.41421356237309509
10
411.63964037747053
20
82.102398963823617
10
411.63964037747053
20
68.202398961588443
42
-0.41421356237309509
10
411.58964037858811
20
68.15239896270603
10
397.68964037635294
20
68.15239896270603
42
-0.41421356237309509
10
397.63964037747053
20
68.202398961588443
0
LWPOLYLINE
5
168
100
AcDbEntity
8
0
100
AcDbPolyline
90
8
70
1
43
0.0
10
416.68964037747054
20
120.20239896382357
42
-0.41421356237309509
10
416.73964037635295
20
120.25239896270598
10
430.63964037858807
20
120.25239896270598
42
-0.41421356237309509
10
430.68964037747048
20
120.20239896382357
10
430.68964037747048
20
106.30239896158841
42
-0.41421356237309509
10
430.63964037858807
20
106.252398962706
10
416.73964037635295
20
106.252398962706
42
-0.41421356237309509
10
416.68964037747054
20
106.30239896158841
0
LWPOLYLINE
5
169
100
AcDbEntity
8
0
100
AcDbPolyline
90
8
70
1
43
0.0
10
506.839640378588
20
49.102398962705998
10
492.93964037635294
20
49.102398962706005
42
-0.41421356237309509
10
492.88964037747053
20
49.152398961588418
10
492.88964037747053
20
63.052398963823578
42
-0.41421356237309509
10
492.93964037635294
20
63.10239896270599
10
506.839640378588
20
63.102398962705983
42
-0.41421356237304296
10
506.88964037747041
20
63.052398963823578
10
506.88964037747041
20
49.15239896158841
42
-0.41421356237309509
0
LWPOLYLINE
5
170
100
AcDbEntity
8
0
100
AcDbPolyline
90
8
70
1
43
0.0
10
440.21464037747052
20
49.152398961588446
42
-0.41421356237309509
10
440.1646403785881
20
49.102398962706033
10
426.26464037635293
20
49.10239896270604
42
-0.41421356237309509
10
426.21464037747052
20
49.152398961588453
10
426.21464037747052
20
63.052398963823613
42
-0.41421356237309509
10
426.26464037635293
20
63.102398962706026
10
440.1646403785881
20
63.102398962706019
42
-0.41421356237304296
10
440.21464037747052
20
63.052398963823613
0
LWPOLYLINE
5
171
100
AcDbEntity
8
0
100
AcDbPolyline
90
8
70
1
43
0.0
10
487.78964037858799
20
68.152398962705988
10
473.88964037635287
20
68.152398962705988
42
-0.41421356237309509
10
473.83964037747046
20
68.202398961588401
10
473.83964037747046
20
82.102398963823589
42
-0.41421356237309509
10
473.88964037635287
20
82.152398962706002
10
487.78964037858799
20
82.152398962706002
42
-0.41421356237319912
10
487.8396403774704
20
82.102398963823561
10
487.8396403774704
20
68.202398961588401
42
-0.41421356237304296
0
LWPOLYLINE
5
172
100
AcDbEntity
8
0
100
AcDbPolyline
90
8
70
1
43
0.0
10
468.78964037747045
20
63.052398963823606
10
468.78964037747045
20
49.152398961588439
42
-0.41421356237309509
10
468.73964037858804
20
49.102398962706026
10
454.83964037635292
20
49.102398962706026
42
-0.41421356237309509
10
454.7896403774705
20
49.152398961588439
10
454.7896403774705
20
63.052398963823599
42
-0.41421356237309509
10
454.83964037635292
20
63.102398962706012
10
468.73964037858804
20
63.102398962706012
42
-0.41421356237304296
0
LWPOLYLINE
5
173
100
AcDbEntity
8
0
100
AcDbPolyline
90
8
70
1
43
0.0
10
410.37764037858807
20
64.102398962705962
42
-0.4142135623735112
10
410.42764037747048
20
64.05239896382362
10
410.42764037747054
20
50.152398961588453
42
-0.4142135623735112
10
410.37764037858807
20
50.10239896270604
10
403.72764037635295
20
50.10239896270604
42
-0.41421356237309509
10
403.67764037747054
20
50.152398961588453
10
403.67764037747054
20
64.05239896382362
42
-0.41421356237309509
10
403.72764037635295
20
64.102398962706033
0
LWPOLYLINE
5
174
100
AcDbEntity
8
0
100
AcDbPolyline
90
8
70
1
43
0.0
10
411.58964037858811
20
106.252398962706
10
397.689640376353
20
106.25239896270601
42
-0.41421356237309509
10
397.63964037747058
20
106.30239896158842
10
397.63964037747058
20
120.20239896382358
42
-0.41421356237309509
10
397.689640376353
20
120.252398962706
10
411.58964037858817
20
120.25239896270598
42
-0.41421356237309509
10
411.63964037747058
20
120.20239896382357
10
411.63964037747053
20
106.30239896158841
42
-0.41421356237309509
0
LWPOLYLINE
5
175
100
AcDbEntity
8
0
100
AcDbPolyline
90
8
70
1
43
0.0
10
340.48964037747055
20
63.052398963823663
42
-0.41421356237309509
10
340.53964037635296
20
63.102398962706076
10
354.43964037858819
20
63.102398962706062
42
-0.41421356237304296
10
354.48964037747061
20
63.052398963823663
10
354.48964037747055
20
49.152398961588489
42
-0.41421356237309509
10
354.43964037858814
20
49.102398962706076
10
340.53964037635296
20
49.10239896270609
42
-0.41421356237309509
10
340.48964037747055
20
49.152398961588503
0
LWPOLYLINE
5
176
100
AcDbEntity
8
0
100
AcDbPolyline
90
8
70
1
43
0.0
10
335.4396403774706
20
49.152398961588503
42
-0.41421356237309509
10
335.38964037858818
20
49.10239896270609
10
321.48964037635301
20
49.102398962706097
42
-0.41421356237309509
10
321.4396403774706
20
49.15239896158851
10
321.4396403774706
20
63.05239896382367
42
-0.41421356237309509
10
321.48964037635301
20
63.102398962706083
10
335.38964037858818
20
63.102398962706076
42
-0.41421356237304296
10
335.4396403774706
20
63.05239896382367
0
LWPOLYLINE
5
177
100
AcDbEntity
8
0
100
AcDbPolyline
90
8
70
1
43
0.0
10
386.55164037747056
20
50.15239896158846
42
-0.41421356237309509
10
386.50164037858815
20
50.102398962706047
10
379.85164037635292
20
50.102398962706054
42
-0.41421356237309509
10
379.80164037747051
20
50.152398961588467
10
379.80164037747051
20
64.052398963823634
42
-0.41421356237309509
10
379.85164037635292
20
64.102398962706047
10
386.50164037858815
20
64.102398962706047
42
-0.41421356237309509
10
386.55164037747056
20
64.052398963823634
0
LWPOLYLINE
5
178
100
AcDbEntity
8
0
100
AcDbPolyline
90
8
70
1
43
0.0
10
449.73964037747055
20
101.15239896382357
10
449.73964037747055
20
87.252398961588398
42
-0.41421356237309509
10
449.68964037858814
20
87.202398962705985
10
435.78964037635285
20
87.202398962705999
42
-0.41421356237309509
10
435.73964037747044
20
87.252398961588412
10
435.73964037747044
20
101.15239896382357
42
-0.41421356237309509
10
435.78964037635285
20
101.20239896270598
10
449.68964037858814
20
101.20239896270597
42
-0.41421356237299095
0
LWPOLYLINE
5
179
100
AcDbEntity
8
0
100
AcDbPolyline
90
8
70
1
43
0.0
10
435.73964037747044
20
82.102398963823589
42
-0.41421356237309509
10
435.78964037635285
20
82.152398962706002
10
449.68964037858814
20
82.152398962706002
42
-0.41421356237309509
10
449.73964037747055
20
82.102398963823589
10
449.73964037747044
20
68.202398961588415
42
-0.41421356237309509
10
449.68964037858802
20
68.152398962706002
10
435.78964037635285
20
68.152398962706002
42
-0.41421356237309509
10
435.73964037747044
20
68.202398961588415
0
LWPOLYLINE
5
180
100
AcDbEntity
8
0
100
AcDbPolyline
90
8
70
1
43
0.0
10
335.38964037858818
20
68.152398962706059
10
321.48964037635301
20
68.152398962706073
42
-0.41421356237309509
10
321.4396403774706
20
68.202398961588486
10
321.4396403774706
20
82.102398963823646
42
-0.41421356237309509
10
321.48964037635301
20
82.152398962706059
10
335.38964037858818
20
82.152398962706059
42
-0.41421356237309509
10
335.4396403774706
20
82.102398963823646
10
335.4396403774706
20
68.202398961588472
42
-0.41421356237309509
0
LWPOLYLINE
5
181
100
AcDbEntity
8
0
100
AcDbPolyline
90
8
70
1
43
0.0
10
397.689640376353
20
101.20239896270601
10
411.58964037858811
20
101.20239896270601
42
-0.41421356237309509
10
411.63964037747053
20
101.1523989638236
10
411.63964037747053
20
87.252398961588426
42
-0.41421356237309509
10
411.58964037858811
20
87.202398962706013
10
397.689640376353
20
87.202398962706013
42
-0.41421356237309509
10
397.63964037747058
20
87.252398961588426
10
397.63964037747058
20
101.1523989638236
42
-0.41421356237309509
0
LWPOLYLINE
5
182
100
AcDbEntity
8
0
100
AcDbPolyline
90
8
70
1
43
0.0
10
373.53964037747056
20
63.052398963823649
10
373.53964037747056
20
49.152398961588482
42
-0.41421356237309509
10
373.48964037858815
20
49.102398962706069
10
359.58964037635297
20
49.102398962706076
42
-0.41421356237309509
10
359.53964037747056
20
49.152398961588489
10
359.53964037747056
20
63.052398963823649
42
-0.41421356237309509
10
359.58964037635297
20
63.102398962706062
10
373.48964037858815
20
63.102398962706054
42
-0.41421356237304296
0
LWPOLYLINE
5
183
100
AcDbEntity
8
0
100
AcDbPolyline
90
8
70
1
43
0.0
10
441.77764037747045
20
64.052398963823606
42
-0.41421356237309509
10
441.82764037635286
20
64.102398962706019
10
448.47764037858809
20
64.102398962706019
42
-0.41421356237309509
10
448.5276403774705
20
64.052398963823606
10
448.5276403774705
20
50.152398961588432
42
-0.41421356237309509
10
448.47764037858809
20
50.102398962706019
10
441.82764037635286
20
50.102398962706019
42
-0.41421356237309509
10
441.77764037747045
20
50.152398961588432
0
LWPOLYLINE
5
184
100
AcDbEntity
8
0
100
AcDbPolyline
90
8
70
1
43
0.0
10
487.8396403774704
20
63.052398963823592
10
487.8396403774704
20
49.152398961588418
42
-0.41421356237304296
10
487.78964037858799
20
49.102398962706019
10
473.88964037635287
20
49.102398962706019
42
-0.41421356237309509
10
473.83964037747046
20
49.152398961588432
10
473.83964037747046
20
63.052398963823592
42
-0.41421356237309509
10
473.88964037635287
20
63.102398962706005
10
487.78964037858799
20
63.102398962706005
42
-0.41421356237309509
0
LWPOLYLINE
5
185
100
AcDbEntity
8
0
100
AcDbPolyline
90
8
70
1
43
0.0
10
416.73964037635295
20
68.152398962706016
42
-0.4142135623731471
10
416.68964037747054
20
68.202398961588443
10
416.68964037747054
20
82.102398963823617
42
-0.41421356237299095
10
416.73964037635295
20
82.152398962706016
10
430.63964037858807
20
82.152398962706016
42
-0.41421356237309509
10
430.68964037747048
20
82.102398963823603
10
430.68964037747048
20
68.202398961588429
42
-0.41421356237309509
10
430.63964037858807
20
68.152398962706016
0
LWPOLYLINE
5
186
100
AcDbEntity
8
0
100
AcDbPolyline
90
8
70
1
43
0.0
10
430.68964037747048
20
101.15239896382357
10
430.68964037747048
20
87.252398961588412
42
-0.41421356237309509
10
430.63964037858807
20
87.202398962705999
10
416.73964037635295
20
87.202398962706013
42
-0.41421356237309509
10
416.68964037747054
20
87.252398961588426
10
416.68964037747054
20
101.1523989638236
42
-0.41421356237309509
10
416.73964037635295
20
101.20239896270601
10
430.63964037858807
20
101.20239896270598
42
-0.41421356237309509
0
LWPOLYLINE
5
187
100
AcDbEntity
8
0
100
AcDbPolyline
90
8
70
1
43
0.0
10
454.83964037635292
20
68.152398962706002
42
-0.41421356237309509
10
454.7896403774705
20
68.202398961588415
10
454.7896403774705
20
82.102398963823589
42
-0.41421356237309509
10
454.83964037635292
20
82.152398962706002
10
468.73964037858809
20
82.152398962706002
42
-0.41421356237309509
10
468.7896403774705
20
82.102398963823589
10
468.78964037747045
20
68.202398961588415
42
-0.41421356237309509
10
468.73964037858804
20
68.152398962706002
0
LWPOLYLINE
5
188
100
AcDbEntity
8
0
100
AcDbPolyline
90
8
70
1
43
0.0
10
454.7896403774705
20
101.15239896382356
42
-0.41421356237309509
10
454.83964037635292
20
101.20239896270597
10
468.73964037858809
20
101.20239896270597
42
-0.41421356237309509
10
468.7896403774705
20
101.15239896382356
10
468.7896403774705
20
87.252398961588398
42
-0.41421356237309509
10
468.73964037858809
20
87.202398962705985
10
454.83964037635292
20
87.202398962705985
42
-0.41421356237309509
10
454.7896403774705
20
87.252398961588398
0
LWPOLYLINE
5
189
100
AcDbEntity
8
0
100
AcDbPolyline
90
8
70
1
43
0.0
10
468.7896403774705
20
120.20239896382355
10
468.7896403774705
20
106.30239896158839
42
-0.41421356237309509
10
468.73964037858809
20
106.25239896270598
10
454.83964037635292
20
106.25239896270598
42
-0.41421356237309509
10
454.7896403774705
20
106.30239896158839
10
454.7896403774705
20
120.20239896382355
42
-0.41421356237309509
10
454.83964037635292
20
120.25239896270597
10
468.73964037858809
20
120.25239896270597
42
-0.41421356237309509
0
ARC
5
190
100
AcDbEntity
8
0
100
AcDbCircle
10
319.18669325217667
20
122.53482431620304
30
0
40
0.24999999999991473
210
0
220
-0
230
1
100
AcDbArc
50
89.999999999986969
51
180
0
ARC
5
191
100
AcDbEntity
8
0
100
AcDbCircle
10
509.18669325217655
20
122.53482431620306
30
0
40
0.24999999999998579
210
0
220
0
230
1
100
AcDbArc
50
0
51
90
0
ARC
5
192
100
AcDbEntity
8
0
100
AcDbCircle
10
509.18669325217672
20
46.834824316202528
30
0
40
0.24999999999991473
210
-0
220
0
230
1
100
AcDbArc
50
-89.999999999895778
51
0
0
ARC
5
193
100
AcDbEntity
8
0
100
AcDbCircle
10
319.18669325217678
20
46.834824316203111
30
0
40
0.25000000000002132
210
0
220
0
230
1
100
AcDbArc
50
180
51
270
0
ENDSEC
0
SECTION
2
OBJECTS
0
DICTIONARY
5
C
100
AcDbDictionary
3
ACAD_GROUP
350
D
3
ACAD_MLINESTYLE
350
17
0
DICTIONARY
5
D
100
AcDbDictionary
0
DICTIONARY
5
1A
330
C
100
AcDbDictionary
0
DICTIONARY
5
17
100
AcDbDictionary
0
ENDSEC
0
EOF
