0
SECTION
2
HEADER
9
$INSUNITS
70
4
9
$ACADVER
1
AC1014
9
$HANDSEED
5
FFFF
0
ENDSEC
0
SECTION
2
TABLES
0
TABLE
2
VPORT
5
8
100
AcDbSymbolTable
0
ENDTAB
0
TABLE
2
LTYPE
5
5
100
AcDbSymbolTable
0
LTYPE
5
14
100
AcDbSymbolTableRecord
100
AcDbLinetypeTableRecord
2
BYBLOCK
70
0
0
LTYPE
5
15
100
AcDbSymbolTableRecord
100
AcDbLinetypeTableRecord
2
BYLAYER
70
0
0
ENDTAB
0
TABLE
2
LAYER
5
2
100
AcDbSymbolTable
70
2
0
LAYER
5
50
100
AcDbSymbolTableRecord
100
AcDbLayerTableRecord
2
0
70
0
6
CONTINUOUS
0
ENDTAB
0
TABLE
2
STYLE
5
3
100
AcDbSymbolTable
70
1
0
STYLE
5
11
100
AcDbSymbolTableRecord
100
AcDbTextStyleTableRecord
2
STANDARD
70
0
0
ENDTAB
0
TABLE
2
VIEW
5
6
100
AcDbSymbolTable
70
0
0
ENDTAB
0
TABLE
2
UCS
5
7
100
AcDbSymbolTable
70
0
0
ENDTAB
0
TABLE
2
APPID
5
9
100
AcDbSymbolTable
70
2
0
APPID
5
12
100
AcDbSymbolTableRecord
100
AcDbRegAppTableRecord
2
ACAD
70
0
0
ENDTAB
0
TABLE
2
DIMSTYLE
5
A
100
AcDbSymbolTable
70
1
0
ENDTAB
0
TABLE
2
BLOCK_RECORD
5
1
100
AcDbSymbolTable
70
1
0
BLOCK_RECORD
5
1F
100
AcDbSymbolTableRecord
100
AcDbBlockTableRecord
2
*MODEL_SPACE
0
BLOCK_RECORD
5
1B
100
AcDbSymbolTableRecord
100
AcDbBlockTableRecord
2
*PAPER_SPACE
0
ENDTAB
0
ENDSEC
0
SECTION
2
BLOCKS
0
BLOCK
5
20
100
AcDbEntity
100
AcDbBlockBegin
2
*MODEL_SPACE
0
ENDBLK
5
21
100
AcDbEntity
100
AcDbBlockEnd
0
BLOCK
5
1C
100
AcDbEntity
100
AcDbBlockBegin
2
*PAPER_SPACE
0
ENDBLK
5
1D
100
AcDbEntity
100
AcDbBlockEnd
0
ENDSEC
0
SECTION
2
ENTITIES
0
LINE
5
100
100
AcDbEntity
8
0
100
AcDbLine
10
107.18669325217668
20
-76.89017568379694
30
0
11
107.18669325217668
21
-76.891769941050512
31
0
0
LINE
5
101
100
AcDbEntity
8
0
100
AcDbLine
10
121.18669325217667
20
-76.891769941050512
30
0
11
121.18669325217667
21
-76.89017568379694
31
0
0
LINE
5
102
100
AcDbEntity
8
0
100
AcDbLine
10
174.71169325217662
20
-73.62756420399316
30
0
11
167.96169325217664
21
-73.62756420399316
31
0
0
LINE
5
103
100
AcDbEntity
8
0
100
AcDbLine
10
167.96169325217664
20
-91.890175683796912
30
0
11
174.71169325217662
21
-91.890175683796912
31
0
0
LINE
5
104
100
AcDbEntity
8
0
100
AcDbLine
10
174.71169325217662
20
-91.890175683796912
30
0
11
174.71169325217662
21
-73.62756420399316
31
0
0
LINE
5
105
100
AcDbEntity
8
0
100
AcDbLine
10
63.786371978394158
20
-73.624617831053655
30
0
11
53.661693252176747
21
-73.716368609822581
31
0
0
LINE
5
106
100
AcDbEntity
8
0
100
AcDbLine
10
53.661693252176747
20
-73.716368609822581
30
0
11
53.661693252176747
21
-91.890175683796969
31
0
0
LINE
5
107
100
AcDbEntity
8
0
100
AcDbLine
10
53.661693252176747
20
-91.890175683796969
30
0
11
60.411693252176747
21
-91.890175683796954
31
0
0
LINE
5
108
100
AcDbEntity
8
0
100
AcDbLine
10
60.411693252176747
20
-91.890175683796954
30
0
11
60.411693252176732
21
-76.891769941050512
31
0
0
LINE
5
109
100
AcDbEntity
8
0
100
AcDbLine
10
63.786371978394158
20
-73.624617831053655
30
0
11
167.96169325217664
21
-73.624617831053655
31
0
0
LINE
5
110
100
AcDbEntity
8
0
100
AcDbLine
10
167.96169325217664
20
-73.62756420399316
30
0
11
167.96169325217664
21
-73.624617831053655
31
0
0
LINE
5
111
100
AcDbEntity
8
0
100
AcDbLine
10
167.96169325217664
20
-76.891769941050512
30
0
11
167.96169325217664
21
-91.890175683796912
31
0
0
LINE
5
112
100
AcDbEntity
8
0
100
AcDbLine
10
167.96169325217664
20
-76.891769941050512
30
0
11
121.18669325217667
21
-76.891769941050512
31
0
0
LINE
5
113
100
AcDbEntity
8
0
100
AcDbLine
10
107.18669325217668
20
-76.891769941050512
30
0
11
60.411693252176732
21
-76.891769941050512
31
0
0
SPLINE
5
114
100
AcDbEntity
8
0
100
AcDbSpline
70
4
71
5
72
21
73
15
74
0
42
0.000000001
43
0.0000000001
44
0.0000000001
40
0
40
0
40
0
40
0
40
0
40
0
40
0.10000000000000001
40
0.20000000000000001
40
0.30000000000000004
40
0.40000000000000002
40
0.5
40
0.59999999999999998
40
0.69999999999999996
40
0.79999999999999993
40
0.89999999999999991
40
1
40
1
40
1
40
1
40
1
40
1
41
1
41
1
41
1
41
1
41
1
41
1
41
1
41
1
41
1
41
1
41
1
41
1
41
1
41
1
41
1
10
33.682523335304481
20
-13.492084577330687
30
0
10
33.696826292124527
20
-13.555274993652503
30
0
10
33.730246546138943
20
-13.682694424310302
30
0
10
33.794820539780808
20
-13.876939491943247
30
0
10
33.910276555329439
20
-14.142266180383903
30
0
10
34.106596157629461
20
-14.485142414889667
30
0
10
34.358653616768315
20
-14.840042981477623
30
0
10
34.669487813719051
20
-15.207623458169799
30
0
10
35.038197439610926
20
-15.587689405534874
30
0
10
35.460333784943586
20
-15.979281103135124
30
0
10
35.930796647969061
20
-16.381298284060975
30
0
10
36.342188333337297
20
-16.710467196989018
30
0
10
36.669098021450338
20
-16.961305963880896
30
0
10
36.895066167709459
20
-17.13026376593232
30
0
10
37.010057456742132
20
-17.215175683797014
30
0
0
SPLINE
5
115
100
AcDbEntity
8
0
100
AcDbSpline
70
4
71
5
72
21
73
15
74
0
42
0.000000001
43
0.0000000001
44
0.0000000001
40
0
40
0
40
0
40
0
40
0
40
0
40
0.10000000000000001
40
0.20000000000000001
40
0.30000000000000004
40
0.40000000000000002
40
0.5
40
0.59999999999999998
40
0.69999999999999996
40
0.79999999999999993
40
0.89999999999999991
40
1
40
1
40
1
40
1
40
1
40
1
41
1
41
1
41
1
41
1
41
1
41
1
41
1
41
1
41
1
41
1
41
1
41
1
41
1
41
1
41
1
10
186.24397040767354
20
-13.979080503429106
30
0
10
186.23578011281498
20
-14.048533694927434
30
0
10
186.21423526227142
20
-14.187007577883534
30
0
10
186.16642460978909
20
-14.393420852433621
30
0
10
186.07118567571578
20
-14.666001188787313
30
0
10
185.89631097296999
20
-15.002051252333038
30
0
10
185.66145188677649
20
-15.333077702790945
30
0
10
185.36305769208082
20
-15.658783171615198
30
0
10
185.00155877046498
20
-15.979203702695806
30
0
10
184.58153014329997
20
-16.294722448044684
30
0
10
184.10838726300054
20
-16.605792944666369
30
0
10
183.69131573059261
20
-16.851420224899314
30
0
10
183.35827806306344
20
-17.033946112703507
30
0
10
183.12740809084644
20
-17.154889292488743
30
0
10
183.00976174357322
20
-17.215175683796989
30
0
0
LINE
5
116
100
AcDbEntity
8
0
100
AcDbLine
10
37.010057456742132
20
-17.215175683797014
30
0
11
183.00976174357322
21
-17.215175683796989
31
0
0
LWPOLYLINE
5
117
100
AcDbEntity
8
0
100
AcDbPolyline
90
4
70
1
43
0.0
10
35.661693252176732
20
-19.540175683797013
10
35.66169325217674
20
-33.940175683797001
10
21.261693252176755
20
-33.940175683797008
10
21.261693252176748
20
-19.540175683797017
0
LWPOLYLINE
5
118
100
AcDbEntity
8
0
100
AcDbPolyline
90
4
70
1
43
0.0
10
78.411693252176718
20
-33.94017568379698
10
78.411693252176704
20
-19.540175683797003
10
92.811693252176681
20
-19.540175683796996
10
92.811693252176681
20
-33.94017568379698
0
LWPOLYLINE
5
119
100
AcDbEntity
8
0
100
AcDbPolyline
90
4
70
1
43
0.0
10
192.71169325217664
20
-33.940175683796944
10
192.71169325217664
20
-19.54017568379696
10
207.11169325217656
20
-19.540175683796956
10
207.11169325217656
20
-33.940175683796944
0
LWPOLYLINE
5
120
100
AcDbEntity
8
0
100
AcDbPolyline
90
4
70
1
43
0.0
10
207.11169325217656
20
-52.990175683796927
10
192.71169325217664
20
-52.990175683796927
10
192.71169325217664
20
-38.590175683796943
10
207.11169325217656
20
-38.590175683796943
0
LWPOLYLINE
5
121
100
AcDbEntity
8
0
100
AcDbPolyline
90
4
70
1
43
0.0
10
169.01169325217666
20
-52.990175683796934
10
154.61169325217665
20
-52.990175683796949
10
154.61169325217665
20
-38.590175683796964
10
169.01169325217663
20
-38.590175683796957
0
LWPOLYLINE
5
122
100
AcDbEntity
8
0
100
AcDbPolyline
90
4
70
1
43
0.0
10
135.56169325217667
20
-57.640175683796954
10
149.96169325217664
20
-57.64017568379694
10
149.96169325217664
20
-72.040175683796932
10
135.56169325217667
20
-72.040175683796946
0
LWPOLYLINE
5
123
100
AcDbEntity
8
0
100
AcDbPolyline
90
4
70
1
43
0.0
10
130.91169325217666
20
-52.990175683796956
10
116.51169325217668
20
-52.990175683796956
10
116.51169325217666
20
-38.590175683796971
10
130.91169325217663
20
-38.590175683796971
0
LWPOLYLINE
5
124
100
AcDbEntity
8
0
100
AcDbPolyline
90
4
70
1
43
0.0
10
97.461693252176715
20
-57.640175683796961
10
111.86169325217669
20
-57.640175683796961
10
111.86169325217669
20
-72.040175683796946
10
97.461693252176715
20
-72.040175683796946
0
LWPOLYLINE
5
125
100
AcDbEntity
8
0
100
AcDbPolyline
90
4
70
1
43
0.0
10
78.411693252176718
20
-52.99017568379697
10
78.411693252176718
20
-38.590175683796993
10
92.811693252176681
20
-38.590175683796978
10
92.811693252176681
20
-52.990175683796963
0
LWPOLYLINE
5
126
100
AcDbEntity
8
0
100
AcDbPolyline
90
4
70
1
43
0.0
10
40.311693252176752
20
-52.990175683796977
10
40.311693252176752
20
-38.590175683797
10
54.71169325217673
20
-38.590175683796993
10
54.71169325217673
20
-52.99017568379697
0
LWPOLYLINE
5
127
100
AcDbEntity
8
0
100
AcDbPolyline
90
4
70
1
43
0.0
10
26.024193252176765
20
-76.69017568379698
10
40.424193252176735
20
-76.690175683796966
10
40.424193252176757
20
-91.090175683796957
10
26.024193252176772
20
-91.090175683796957
0
LWPOLYLINE
5
128
100
AcDbEntity
8
0
100
AcDbPolyline
90
4
70
1
43
0.0
10
116.51169325217668
20
-57.640175683796954
10
130.91169325217666
20
-57.640175683796954
10
130.91169325217666
20
-72.040175683796946
10
116.51169325217668
20
-72.040175683796946
0
LWPOLYLINE
5
129
100
AcDbEntity
8
0
100
AcDbPolyline
90
4
70
1
43
0.0
10
149.96169325217664
20
-52.990175683796949
10
135.56169325217667
20
-52.990175683796949
10
135.56169325217664
20
-38.590175683796964
10
149.96169325217662
20
-38.590175683796964
0
LWPOLYLINE
5
130
100
AcDbEntity
8
0
100
AcDbPolyline
90
4
70
1
43
0.0
10
188.06169325217661
20
-52.990175683796927
10
173.66169325217663
20
-52.990175683796934
10
173.66169325217663
20
-38.590175683796957
10
188.06169325217661
20
-38.590175683796943
0
LWPOLYLINE
5
131
100
AcDbEntity
8
0
100
AcDbPolyline
90
4
70
1
43
0.0
10
192.71169325217664
20
-57.640175683796926
10
207.11169325217656
20
-57.640175683796926
10
207.11169325217662
20
-72.040175683796917
10
192.71169325217667
20
-72.040175683796917
0
LWPOLYLINE
5
132
100
AcDbEntity
8
0
100
AcDbPolyline
90
4
70
1
43
0.0
10
202.3491932521766
20
-76.690175683796909
10
202.3491932521766
20
-91.0901756837969
10
187.94919325217666
20
-91.0901756837969
10
187.94919325217666
20
-76.690175683796923
0
LINE
5
133
100
AcDbEntity
8
0
100
AcDbLine
10
209.18669325217718
20
-93.415175683797429
30
0
11
198.0548428425966
21
-93.415175683821431
31
0
0
LWPOLYLINE
5
134
100
AcDbEntity
8
0
100
AcDbPolyline
90
4
70
1
43
0.0
10
130.91169325217663
20
-33.940175683796966
10
116.51169325217666
20
-33.940175683796973
10
116.51169325217666
20
-19.540175683796988
10
130.91169325217663
20
-19.540175683796981
0
LINE
5
135
100
AcDbEntity
8
0
100
AcDbLine
10
183.60544060619935
20
-93.41517568378562
30
0
11
45.054842842511569
21
-93.415175683862344
31
0
0
LWPOLYLINE
5
136
100
AcDbEntity
8
0
100
AcDbPolyline
90
4
70
1
43
0.0
10
21.261693252176769
20
-72.040175683796974
10
21.261693252176762
20
-57.64017568379699
10
35.661693252176747
20
-57.640175683796983
10
35.661693252176747
20
-72.04017568379696
0
LWPOLYLINE
5
137
100
AcDbEntity
8
0
100
AcDbPolyline
90
4
70
1
43
0.0
10
169.01169325217666
20
-72.040175683796917
10
154.61169325217665
20
-72.040175683796932
10
154.61169325217665
20
-57.64017568379694
10
169.01169325217666
20
-57.640175683796933
0
LWPOLYLINE
5
138
100
AcDbEntity
8
0
100
AcDbPolyline
90
4
70
1
43
0.0
10
21.261693252176762
20
-52.990175683796991
10
21.261693252176759
20
-38.590175683797007
10
35.66169325217674
20
-38.590175683797
10
35.661693252176747
20
-52.990175683796977
0
LWPOLYLINE
5
139
100
AcDbEntity
8
0
100
AcDbPolyline
90
4
70
1
43
0.0
10
135.56169325217664
20
-33.940175683796966
10
135.56169325217664
20
-19.540175683796981
10
149.96169325217662
20
-19.540175683796978
10
149.96169325217662
20
-33.940175683796959
0
LWPOLYLINE
5
140
100
AcDbEntity
8
0
100
AcDbPolyline
90
4
70
1
43
0.0
10
59.361693252176728
20
-33.940175683796994
10
59.361693252176721
20
-19.540175683797006
10
73.761693252176713
20
-19.540175683797003
10
73.761693252176713
20
-33.940175683796987
0
LINE
5
141
100
AcDbEntity
8
0
100
AcDbLine
10
209.43669325217658
20
-17.465175683796957
30
0
11
209.43669325217658
21
-93.165175683797443
31
0
0
LWPOLYLINE
5
142
100
AcDbEntity
8
0
100
AcDbPolyline
90
4
70
1
43
0.0
10
154.61169325217665
20
-33.940175683796959
10
154.61169325217665
20
-19.540175683796974
10
169.01169325217663
20
-19.540175683796971
10
169.01169325217663
20
-33.940175683796959
0
LINE
5
143
100
AcDbEntity
8
0
100
AcDbLine
10
197.51005745674212
20
-17.215175683797014
30
0
11
209.18669325217661
21
-17.215175683796978
31
0
0
LWPOLYLINE
5
144
100
AcDbEntity
8
0
100
AcDbPolyline
90
4
70
1
43
0.0
10
173.66169325217663
20
-72.040175683796917
10
173.66169325217663
20
-57.640175683796933
10
188.06169325217661
20
-57.640175683796933
10
188.06169325217664
20
-72.040175683796917
0
SPLINE
5
145
100
AcDbEntity
8
0
100
AcDbSpline
70
4
71
5
72
21
73
15
74
0
42
0.000000001
43
0.0000000001
44
0.0000000001
40
0
40
0
40
0
40
0
40
0
40
0
40
0.10000000000000001
40
0.20000000000000001
40
0.30000000000000004
40
0.40000000000000002
40
0.5
40
0.59999999999999998
40
0.69999999999999996
40
0.79999999999999993
40
0.89999999999999991
40
1
40
1
40
1
40
1
40
1
40
1
41
1
41
1
41
1
41
1
41
1
41
1
41
1
41
1
41
1
41
1
41
1
41
1
41
1
41
1
41
1
10
25.743970407673572
20
-13.979080503429106
30
0
10
25.735780112826646
20
-14.048533694927487
30
0
10
25.714235262303244
20
-14.187007577883675
30
0
10
25.666424609842156
20
-14.393420852433849
30
0
10
25.571185675780885
20
-14.666001188787588
30
0
10
25.396310973025074
20
-15.002051252333239
30
0
10
25.161451886801501
20
-15.333077702791027
30
0
10
24.863057692059908
20
-15.658783171615125
30
0
10
24.501558770392467
20
-15.979203702695584
30
0
10
24.081530143185596
20
-16.294722448044354
30
0
10
23.608387262871734
20
-16.605792944666042
30
0
10
23.191315730487037
20
-16.85142022489908
30
0
10
22.858278063000519
20
-17.033946112703376
30
0
10
22.627408090823543
20
-17.154889292488697
30
0
10
22.509761743573236
20
-17.215175683796989
30
0
0
LWPOLYLINE
5
146
100
AcDbEntity
8
0
100
AcDbPolyline
90
4
70
1
43
0.0
10
188.06169325217661
20
-33.940175683796944
10
173.66169325217663
20
-33.940175683796959
10
173.66169325217663
20
-19.540175683796967
10
188.06169325217661
20
-19.540175683796964
0
LWPOLYLINE
5
147
100
AcDbEntity
8
0
100
AcDbPolyline
90
4
70
1
43
0.0
10
54.71169325217673
20
-72.04017568379696
10
40.311693252176752
20
-72.04017568379696
10
40.311693252176752
20
-57.640175683796983
10
54.71169325217673
20
-57.640175683796983
0
LWPOLYLINE
5
148
100
AcDbEntity
8
0
100
AcDbPolyline
90
4
70
1
43
0.0
10
40.311693252176738
20
-19.540175683797013
10
54.711693252176715
20
-19.540175683797006
10
54.711693252176723
20
-33.940175683796994
10
40.311693252176745
20
-33.940175683797001
0
LWPOLYLINE
5
149
100
AcDbEntity
8
0
100
AcDbPolyline
90
4
70
1
43
0.0
10
59.361693252176735
20
-57.640175683796969
10
73.761693252176727
20
-57.640175683796969
10
73.761693252176727
20
-72.04017568379696
10
59.361693252176735
20
-72.04017568379696
0
LINE
5
150
100
AcDbEntity
8
0
100
AcDbLine
10
30.60544060621303
20
-93.415175683796093
30
0
11
19.186693252176795
21
-93.415175683796932
31
0
0
LWPOLYLINE
5
151
100
AcDbEntity
8
0
100
AcDbPolyline
90
4
70
1
43
0.0
10
111.86169325217665
20
-33.940175683796973
10
97.461693252176701
20
-33.94017568379698
10
97.461693252176673
20
-19.540175683796996
10
111.86169325217665
20
-19.540175683796988
0
LWPOLYLINE
5
152
100
AcDbEntity
8
0
100
AcDbPolyline
90
4
70
1
43
0.0
10
78.411693252176718
20
-72.04017568379696
10
78.411693252176718
20
-57.640175683796969
10
92.811693252176696
20
-57.640175683796961
10
92.811693252176696
20
-72.040175683796946
0
LWPOLYLINE
5
153
100
AcDbEntity
8
0
100
AcDbPolyline
90
4
70
1
43
0.0
10
111.86169325217665
20
-38.590175683796971
10
111.86169325217669
20
-52.990175683796956
10
97.461693252176701
20
-52.990175683796963
10
97.461693252176701
20
-38.590175683796978
0
SPLINE
5
154
100
AcDbEntity
8
0
100
AcDbSpline
70
4
71
5
72
21
73
15
74
0
42
0.000000001
43
0.0000000001
44
0.0000000001
40
0
40
0
40
0
40
0
40
0
40
0
40
0.10000000000000001
40
0.20000000000000001
40
0.30000000000000004
40
0.40000000000000002
40
0.5
40
0.59999999999999998
40
0.69999999999999996
40
0.79999999999999993
40
0.89999999999999991
40
1
40
1
40
1
40
1
40
1
40
1
41
1
41
1
41
1
41
1
41
1
41
1
41
1
41
1
41
1
41
1
41
1
41
1
41
1
41
1
41
1
10
194.18252333530447
20
-13.492084577330687
30
0
10
194.19682629211115
20
-13.555274993652414
30
0
10
194.23024654610245
20
-13.682694424310055
30
0
10
194.29482053972023
20
-13.876939491942842
30
0
10
194.41027655525858
20
-14.142266180383441
30
0
10
194.60659615757527
20
-14.48514241488933
30
0
10
194.85865361674999
20
-14.840042981477522
30
0
10
195.16948781374276
20
-15.207623458169939
30
0
10
195.53819743967091
20
-15.587689405535173
30
0
10
195.96033378502582
20
-15.979281103135461
30
0
10
196.43079664805282
20
-16.381298284061273
30
0
10
196.84218833340165
20
-16.710467196989232
30
0
10
197.16909802148729
20
-16.961305963881017
30
0
10
197.39506616772269
20
-17.130263765932362
30
0
10
197.51005745674212
20
-17.215175683797014
30
0
0
LINE
5
155
100
AcDbEntity
8
0
100
AcDbLine
10
106.98669325217668
20
-76.89017568379694
30
0
11
106.98669325217668
21
-91.090175683796929
31
0
0
LWPOLYLINE
5
156
100
AcDbEntity
8
0
100
AcDbPolyline
90
4
70
1
43
0.0
10
73.761693252176713
20
-38.590175683796993
10
73.761693252176713
20
-52.99017568379697
10
59.361693252176728
20
-52.99017568379697
10
59.361693252176728
20
-38.590175683796993
0
LINE
5
157
100
AcDbEntity
8
0
100
AcDbLine
10
121.38669325217666
20
-91.090175683796915
30
0
11
121.38669325217666
21
-76.89017568379694
31
0
0
LINE
5
158
100
AcDbEntity
8
0
100
AcDbLine
10
18.936693252176767
20
-93.165175683796932
30
0
11
18.936693252176752
21
-17.465175683797014
31
0
0
LINE
5
159
100
AcDbEntity
8
0
100
AcDbLine
10
106.98669325217668
20
-91.090175683796929
30
0
11
121.38669325217666
21
-91.090175683796915
31
0
0
LINE
5
160
100
AcDbEntity
8
0
100
AcDbLine
10
19.186693252176749
20
-17.215175683797021
30
0
11
22.509761743573236
21
-17.215175683796989
31
0
0
LINE
5
161
100
AcDbEntity
8
0
100
AcDbLine
10
191.23962247654225
20
-14.165533029680317
30
0
11
191.23962247654225
21
-10.629999123747591
31
0
0
LINE
5
162
100
AcDbEntity
8
0
100
AcDbLine
10
189.23962247654225
20
-14.165533029680317
30
0
11
189.23962247654225
21
-10.629999123747586
31
0
0
ARC
5
163
100
AcDbEntity
8
0
100
AcDbCircle
10
190.23962247654225
20
-14.165533029680317
30
0
40
1.0000000000000142
210
0
220
0
230
1
100
AcDbArc
50
-180
51
0
0
ARC
5
164
100
AcDbEntity
8
0
100
AcDbCircle
10
190.23962247654225
20
-14.165533029680317
30
0
40
3.9999999999999902
210
0
220
-0
230
1
100
AcDbArc
50
9.6926024896669372
51
70.528779365509592
0
ARC
5
165
100
AcDbEntity
8
0
100
AcDbCircle
10
190.23962247654225
20
-14.165533029680317
30
0
40
4.0000000000000089
210
0
220
0
230
1
100
AcDbArc
50
109.47122063449041
51
177.330142166229
0
ARC
5
166
100
AcDbEntity
8
0
100
AcDbCircle
10
190.23962247654225
20
-14.165533029680317
30
0
40
1.0000000000000142
210
0
220
0
230
1
100
AcDbArc
50
-180
51
0
0
LINE
5
167
100
AcDbEntity
8
0
100
AcDbLine
10
30.739622476542255
20
-14.165533029680407
30
0
11
30.739622476542259
21
-10.629999123747583
31
0
0
LINE
5
168
100
AcDbEntity
8
0
100
AcDbLine
10
28.739622476542259
20
-14.165533029680224
30
0
11
28.739622476541285
21
-10.629993088157192
31
0
0
ARC
5
169
100
AcDbEntity
8
0
100
AcDbCircle
10
29.739619031591236
20
-14.165532869036856
30
0
40
4.0000033687288763
210
0
220
-0
230
1
100
AcDbArc
50
9.692591913597683
51
70.528732075320832
0
ARC
5
170
100
AcDbEntity
8
0
100
AcDbCircle
10
29.739619031591236
20
-14.165532869036856
30
0
40
4.0000043906398695
210
0
220
0
230
1
100
AcDbArc
50
109.47114413941441
51
177.330142166229
0
ARC
5
171
100
AcDbEntity
8
0
100
AcDbCircle
10
29.739619031591236
20
-14.165532869036856
30
0
40
0.99999655504899154
210
0
220
0
230
1
100
AcDbArc
50
180.00000919542356
51
359.99999080457644
0
ARC
5
172
100
AcDbEntity
8
0
100
AcDbCircle
10
29.739622476542252
20
-14.165533029680317
30
0
40
0.99999999999999645
210
0
220
0
230
1
100
AcDbArc
50
180
51
360
0
LINE
5
173
100
AcDbEntity
8
0
100
AcDbLine
10
38.855009621513176
20
-96.849396629813626
30
0
11
38.855009621513162
21
-100.38493053574635
31
0
0
LINE
5
174
100
AcDbEntity
8
0
100
AcDbLine
10
36.8550096216686
20
-96.849414260492381
30
0
11
36.855009621668593
21
-100.38493053580129
31
0
0
ARC
5
175
100
AcDbEntity
8
0
100
AcDbCircle
10
37.855009621513183
20
-96.849396629813626
30
0
40
3.9999999999999902
210
0
220
0
230
1
100
AcDbArc
50
189.69466595070205
51
250.52877936802764
0
ARC
5
176
100
AcDbEntity
8
0
100
AcDbCircle
10
37.855009621513183
20
-96.849396629813626
30
0
40
3.9999999999999818
210
0
220
0
230
1
100
AcDbArc
50
289.47122063449052
51
357.32805109560451
0
ARC
5
177
100
AcDbEntity
8
0
100
AcDbCircle
10
37.855009621513183
20
-96.849396629813626
30
0
40
0.99999999999999645
210
0
220
0
230
1
100
AcDbArc
50
0
51
180.00101016324402
0
ARC
5
178
100
AcDbEntity
8
0
100
AcDbCircle
10
37.8550096216686
20
-96.849414260492381
30
0
40
0.99999999999999889
210
0
220
-0
230
1
100
AcDbArc
50
0.0010101632440297191
51
180
0
LINE
5
179
100
AcDbEntity
8
0
100
AcDbLine
10
191.85500962151332
20
-96.849396629813583
30
0
11
191.85500962151332
21
-100.38493657133701
31
0
0
LINE
5
180
100
AcDbEntity
8
0
100
AcDbLine
10
189.85500962680035
20
-96.849499461033531
30
0
11
189.85500962680035
21
-100.38493053762016
31
0
0
ARC
5
181
100
AcDbEntity
8
0
100
AcDbCircle
10
190.85500962151332
20
-96.849396629813583
30
0
40
4.0000000000000231
210
0
220
0
230
1
100
AcDbArc
50
189.69309423497245
51
250.52877945121327
0
ARC
5
182
100
AcDbEntity
8
0
100
AcDbCircle
10
190.85500962151332
20
-96.849396629813583
30
0
40
4.000005690409953
210
0
220
0
230
1
100
AcDbArc
50
289.47118989552558
51
357.32964384092423
0
ARC
5
183
100
AcDbEntity
8
0
100
AcDbCircle
10
190.8550096268003
20
-96.849499461033517
30
0
40
1.0000000000001377
210
0
220
-0
230
1
100
AcDbArc
50
0.0058917948782933388
51
180
0
ARC
5
184
100
AcDbEntity
8
0
100
AcDbCircle
10
190.85500962151332
20
-96.849396629813583
30
0
40
0.99999999999997868
210
0
220
0
230
1
100
AcDbArc
50
0
51
180.00589179487829
0
ARC
5
185
100
AcDbEntity
8
0
100
AcDbCircle
10
30.989622476542252
20
-10.629999123747577
30
0
40
0.24999999999999536
210
0
220
-0
230
1
100
AcDbArc
50
70.528779365507532
51
180
0
ARC
5
186
100
AcDbEntity
8
0
100
AcDbCircle
10
28.489622476541282
20
-10.629993088157262
30
0
40
0.25000000000000355
210
0
220
-0
230
1
100
AcDbArc
50
0
51
109.47118989554251
0
ARC
5
187
100
AcDbEntity
8
0
100
AcDbCircle
10
39.105009621513162
20
-100.38493053574635
30
0
40
0.24999999999999911
210
0
220
0
230
1
100
AcDbArc
50
180
51
289.47122063449143
0
ARC
5
188
100
AcDbEntity
8
0
100
AcDbCircle
10
36.605009621668586
20
-100.38493053580127
30
0
40
0.25000000000002531
210
0
220
0
230
1
100
AcDbArc
50
250.52877936802935
51
360
0
ARC
5
189
100
AcDbEntity
8
0
100
AcDbCircle
10
192.10500962151326
20
-100.38493657133701
30
0
40
0.24999999999995026
210
0
220
0
230
1
100
AcDbArc
50
180
51
289.47118989552621
0
ARC
5
190
100
AcDbEntity
8
0
100
AcDbCircle
10
189.60500962680044
20
-100.38493053762016
30
0
40
0.2499999999978359
210
0
220
0
230
1
100
AcDbArc
50
-109.47122054879767
51
0
0
ARC
5
191
100
AcDbEntity
8
0
100
AcDbCircle
10
191.48962247654225
20
-10.629999123747556
30
0
40
0.24999999999998193
210
0
220
-0
230
1
100
AcDbArc
50
70.528779365512094
51
180
0
ARC
5
192
100
AcDbEntity
8
0
100
AcDbCircle
10
188.98962247654225
20
-10.629999123747551
30
0
40
0.24999999999998579
210
0
220
0
230
1
100
AcDbArc
50
0
51
109.47122063448803
0
SPLINE
5
193
100
AcDbEntity
8
0
100
AcDbSpline
70
4
71
5
72
21
73
15
74
0
42
0.000000001
43
0.0000000001
44
0.0000000001
40
0
40
0
40
0
40
0
40
0
40
0
40
0.10000000000000001
40
0.20000000000000001
40
0.30000000000000004
40
0.40000000000000002
40
0.5
40
0.59999999999999998
40
0.69999999999999996
40
0.79999999999999993
40
0.89999999999999991
40
1
40
1
40
1
40
1
40
1
40
1
41
1
41
1
41
1
41
1
41
1
41
1
41
1
41
1
41
1
41
1
41
1
41
1
41
1
41
1
41
1
10
186.9121145428179
20
-97.522878922379419
30
0
10
186.90090232891379
20
-97.403097126894181
30
0
10
186.87365432982998
20
-97.166838267561104
30
0
10
186.81831191949112
20
-96.822363966489618
30
0
10
186.71510247485293
20
-96.38322086975684
30
0
10
186.53375416942202
20
-95.870148851793218
30
0
10
186.29548573688311
20
-95.396074027756868
30
0
10
185.99579773740095
20
-94.96407905987526
30
0
10
185.63250262525597
20
-94.575662682380411
30
0
10
185.20843062550384
20
-94.228885847665111
30
0
10
184.72829894871728
20
-93.920516694078145
30
0
10
184.30309106296977
20
-93.701981601497209
30
0
10
183.96254419580731
20
-93.552906960699715
30
0
10
183.7260520203136
20
-93.460005752375224
30
0
10
183.60544060619935
20
-93.41517568378562
30
0
0
SPLINE
5
194
100
AcDbEntity
8
0
100
AcDbSpline
70
4
71
5
72
21
73
15
74
0
42
0.000000001
43
0.0000000001
44
0.0000000001
40
0
40
0
40
0
40
0
40
0
40
0
40
0.10000000000000001
40
0.20000000000000001
40
0.30000000000000004
40
0.40000000000000002
40
0.5
40
0.59999999999999998
40
0.69999999999999996
40
0.79999999999999993
40
0.89999999999999991
40
1
40
1
40
1
40
1
40
1
40
1
41
1
41
1
41
1
41
1
41
1
41
1
41
1
41
1
41
1
41
1
41
1
41
1
41
1
41
1
41
1
10
194.85067175904931
20
-97.035755439568533
30
0
10
194.88240515763195
20
-96.943643824388786
30
0
10
194.94872095257151
20
-96.761155532927347
30
0
10
195.05674150169281
20
-96.49262782923843
30
0
10
195.21814501683173
20
-96.145172331361678
30
0
10
195.45080417801071
20
-95.729672869400488
30
0
10
195.71704774577026
20
-95.334625123399803
30
0
10
196.0194887627971
20
-94.961620343937255
30
0
10
196.35931703903441
20
-94.611383083182702
30
0
10
196.73478340755543
20
-94.282848160329365
30
0
10
197.14308492779128
20
-93.974308683690026
30
0
10
197.49378241719259
20
-93.742126522038831
30
0
10
197.76946865655913
20
-93.57570129447133
30
0
10
197.95879541788238
20
-93.468122331449649
30
0
10
198.0548428425966
20
-93.415175683821431
30
0
0
SPLINE
5
195
100
AcDbEntity
8
0
100
AcDbSpline
70
4
71
5
72
21
73
15
74
0
42
0.000000001
43
0.0000000001
44
0.0000000001
40
0
40
0
40
0
40
0
40
0
40
0
40
0.10000000000000001
40
0.20000000000000001
40
0.30000000000000004
40
0.40000000000000002
40
0.5
40
0.59999999999999998
40
0.69999999999999996
40
0.79999999999999993
40
0.89999999999999991
40
1
40
1
40
1
40
1
40
1
40
1
41
1
41
1
41
1
41
1
41
1
41
1
41
1
41
1
41
1
41
1
41
1
41
1
41
1
41
1
41
1
10
41.850660892758555
20
-97.035866248237582
30
0
10
41.847306031369378
20
-96.936155158924976
30
0
10
41.846647605164506
20
-96.739182381220672
30
0
10
41.863814161959581
20
-96.451071541441934
30
0
10
41.923605976454866
20
-96.081861118937852
30
0
10
42.063878703636888
20
-95.646874057323728
30
0
10
42.274966862128281
20
-95.240551163889052
30
0
10
42.561755691566873
20
-94.864869851299844
30
0
10
42.925252902783186
20
-94.520238013603986
30
0
10
43.36078738736888
20
-94.204764912662256
30
0
10
43.862189901780084
20
-93.915953405816822
30
0
10
44.311334870817028
20
-93.704342592590962
30
0
10
44.673434357757174
20
-93.555851258610346
30
0
10
44.925867630369794
20
-93.46132314426626
30
0
10
45.054842842511569
20
-93.415175683862344
30
0
0
SPLINE
5
196
100
AcDbEntity
8
0
100
AcDbSpline
70
4
71
5
72
21
73
15
74
0
42
0.000000001
43
0.0000000001
44
0.0000000001
40
0
40
0
40
0
40
0
40
0
40
0
40
0.10000000000000001
40
0.20000000000000001
40
0.30000000000000004
40
0.40000000000000002
40
0.5
40
0.59999999999999998
40
0.69999999999999996
40
0.79999999999999993
40
0.89999999999999991
40
1
40
1
40
1
40
1
40
1
40
1
41
1
41
1
41
1
41
1
41
1
41
1
41
1
41
1
41
1
41
1
41
1
41
1
41
1
41
1
41
1
10
33.912133019007854
20
-97.522987082103413
30
0
10
33.901902151469152
20
-97.40175159770385
30
0
10
33.876533582823015
20
-97.162710775294258
30
0
10
33.823760552144655
20
-96.8144397550561
30
0
10
33.723469016073004
20
-96.370999358949121
30
0
10
33.544861926251521
20
-95.853918416648355
30
0
10
33.308338987059912
20
-95.37732383661519
30
0
10
33.009306256014128
20
-94.944427037158704
30
0
10
32.645499879759846
20
-94.55681057620555
30
0
10
32.219768834311736
20
-94.212482862909553
30
0
10
31.736905266470337
20
-93.908093923232315
30
0
10
31.308718222797232
20
-93.693870510828162
30
0
10
30.965518060173849
20
-93.548624020136202
30
0
10
30.727073838607147
20
-93.458534791549482
30
0
10
30.60544060621303
20
-93.415175683796093
30
0
0
ARC
5
197
100
AcDbEntity
8
0
100
AcDbCircle
10
209.18669325217667
20
-17.465175683796893
30
0
40
0.24999999999991473
210
0
220
0
230
1
100
AcDbArc
50
0
51
90.000000000013031
0
ARC
5
198
100
AcDbEntity
8
0
100
AcDbCircle
10
19.186693252176745
20
-17.465175683797014
30
0
40
0.24999999999999467
210
0
220
-0
230
1
100
AcDbArc
50
89.99999999999919
51
180
0
ARC
5
199
100
AcDbEntity
8
0
100
AcDbCircle
10
19.186693252176774
20
-93.165175683796932
30
0
40
0.25000000000000355
210
0
220
0
230
1
100
AcDbArc
50
180
51
270.00000000000489
0
ARC
5
200
100
AcDbEntity
8
0
100
AcDbCircle
10
209.18669325217664
20
-93.165175683797486
30
0
40
0.24999999999995026
210
0
220
0
230
1
100
AcDbArc
50
-89.999999999876238
51
0
0
ENDSEC
0
SECTION
2
OBJECTS
0
DICTIONARY
5
C
100
AcDbDictionary
3
ACAD_GROUP
350
D
3
ACAD_MLINESTYLE
350
17
0
DICTIONARY
5
D
100
AcDbDictionary
0
DICTIONARY
5
1A
330
C
100
AcDbDictionary
0
DICTIONARY
5
17
100
AcDbDictionary
0
ENDSEC
0
EOF
