0
SECTION
2
HEADER
9
$INSUNITS
70
4
9
$ACADVER
1
AC1014
9
$HANDSEED
5
FFFF
0
ENDSEC
0
SECTION
2
TABLES
0
TABLE
2
VPORT
5
8
100
AcDbSymbolTable
0
ENDTAB
0
TABLE
2
LTYPE
5
5
100
AcDbSymbolTable
0
LTYPE
5
14
100
AcDbSymbolTableRecord
100
AcDbLinetypeTableRecord
2
BYBLOCK
70
0
0
LTYPE
5
15
100
AcDbSymbolTableRecord
100
AcDbLinetypeTableRecord
2
BYLAYER
70
0
0
ENDTAB
0
TABLE
2
LAYER
5
2
100
AcDbSymbolTable
70
2
0
LAYER
5
50
100
AcDbSymbolTableRecord
100
AcDbLayerTableRecord
2
0
70
0
6
CONTINUOUS
0
ENDTAB
0
TABLE
2
STYLE
5
3
100
AcDbSymbolTable
70
1
0
STYLE
5
11
100
AcDbSymbolTableRecord
100
AcDbTextStyleTableRecord
2
STANDARD
70
0
0
ENDTAB
0
TABLE
2
VIEW
5
6
100
AcDbSymbolTable
70
0
0
ENDTAB
0
TABLE
2
UCS
5
7
100
AcDbSymbolTable
70
0
0
ENDTAB
0
TABLE
2
APPID
5
9
100
AcDbSymbolTable
70
2
0
APPID
5
12
100
AcDbSymbolTableRecord
100
AcDbRegAppTableRecord
2
ACAD
70
0
0
ENDTAB
0
TABLE
2
DIMSTYLE
5
A
100
AcDbSymbolTable
70
1
0
ENDTAB
0
TABLE
2
BLOCK_RECORD
5
1
100
AcDbSymbolTable
70
1
0
BLOCK_RECORD
5
1F
100
AcDbSymbolTableRecord
100
AcDbBlockTableRecord
2
*MODEL_SPACE
0
BLOCK_RECORD
5
1B
100
AcDbSymbolTableRecord
100
AcDbBlockTableRecord
2
*PAPER_SPACE
0
ENDTAB
0
ENDSEC
0
SECTION
2
BLOCKS
0
BLOCK
5
20
100
AcDbEntity
100
AcDbBlockBegin
2
*MODEL_SPACE
0
ENDBLK
5
21
100
AcDbEntity
100
AcDbBlockEnd
0
BLOCK
5
1C
100
AcDbEntity
100
AcDbBlockBegin
2
*PAPER_SPACE
0
ENDBLK
5
1D
100
AcDbEntity
100
AcDbBlockEnd
0
ENDSEC
0
SECTION
2
ENTITIES
0
LWPOLYLINE
5
100
100
AcDbEntity
8
0
100
AcDbPolyline
90
8
70
1
43
0.0
10
-478.42516002472144
20
-19.765633981376375
10
-464.52516002248626
20
-19.765633981376375
42
-0.41421356237308204
10
-464.47516002360385
20
-19.815633980258788
10
-464.47516002360385
20
-33.71563398249392
42
-0.41421356237309509
10
-464.52516002248626
20
-33.765633981376332
10
-478.42516002472144
20
-33.765633981376332
42
-0.41421356237309509
10
-478.47516002360385
20
-33.71563398249392
10
-478.47516002360385
20
-19.815633980258788
42
-0.41421356237309509
0
LWPOLYLINE
5
101
100
AcDbEntity
8
0
100
AcDbPolyline
90
8
70
1
43
0.0
10
-459.37516002472148
20
-19.765633981376375
10
-445.47516002248642
20
-19.765633981376375
42
-0.41421356237308204
10
-445.42516002360401
20
-19.815633980258788
10
-445.42516002360401
20
-33.71563398249392
42
-0.41421356237309509
10
-445.47516002248642
20
-33.765633981376332
10
-459.37516002472148
20
-33.765633981376332
42
-0.41421356237309509
10
-459.42516002360389
20
-33.71563398249392
10
-459.42516002360389
20
-19.815633980258788
42
-0.41421356237309509
0
LWPOLYLINE
5
102
100
AcDbEntity
8
0
100
AcDbPolyline
90
8
70
1
43
0.0
10
-440.32516002472158
20
-19.765633981376375
10
-426.42516002248647
20
-19.765633981376375
42
-0.41421356237308204
10
-426.37516002360405
20
-19.815633980258788
10
-426.37516002360405
20
-33.71563398249392
42
-0.41421356237309509
10
-426.42516002248647
20
-33.765633981376332
10
-440.32516002472158
20
-33.765633981376332
42
-0.41421356237309509
10
-440.375160023604
20
-33.71563398249392
10
-440.375160023604
20
-19.815633980258788
42
-0.41421356237309509
0
LWPOLYLINE
5
103
100
AcDbEntity
8
0
100
AcDbPolyline
90
8
70
1
43
0.0
10
-421.27516002472163
20
-19.765633981376375
10
-407.37516002248651
20
-19.765633981376375
42
-0.41421356237308204
10
-407.3251600236041
20
-19.815633980258788
10
-407.3251600236041
20
-33.71563398249392
42
-0.41421356237309509
10
-407.37516002248651
20
-33.765633981376332
10
-421.27516002472163
20
-33.765633981376332
42
-0.41421356237309509
10
-421.32516002360404
20
-33.71563398249392
10
-421.32516002360404
20
-19.815633980258788
42
-0.41421356237309509
0
LWPOLYLINE
5
104
100
AcDbEntity
8
0
100
AcDbPolyline
90
8
70
1
43
0.0
10
-402.22516002472167
20
-19.765633981376375
10
-388.32516002248656
20
-19.765633981376375
42
-0.41421356237308204
10
-388.27516002360414
20
-19.815633980258788
10
-388.27516002360414
20
-33.71563398249392
42
-0.41421356237309509
10
-388.32516002248656
20
-33.765633981376332
10
-402.22516002472167
20
-33.765633981376332
42
-0.41421356237309509
10
-402.27516002360409
20
-33.71563398249392
10
-402.27516002360409
20
-19.815633980258788
42
-0.41421356237309509
0
LWPOLYLINE
5
105
100
AcDbEntity
8
0
100
AcDbPolyline
90
8
70
1
43
0.0
10
-383.17516002472178
20
-19.765633981376375
10
-369.27516002248666
20
-19.765633981376375
42
-0.41421356237308204
10
-369.22516002360425
20
-19.815633980258788
10
-369.22516002360425
20
-33.71563398249392
42
-0.41421356237309509
10
-369.27516002248666
20
-33.765633981376332
10
-383.17516002472178
20
-33.765633981376332
42
-0.41421356237309509
10
-383.22516002360419
20
-33.71563398249392
10
-383.22516002360419
20
-19.815633980258788
42
-0.41421356237309509
0
LWPOLYLINE
5
106
100
AcDbEntity
8
0
100
AcDbPolyline
90
8
70
1
43
0.0
10
-364.12516002472182
20
-19.765633981376375
10
-350.2251600224867
20
-19.765633981376375
42
-0.41421356237308204
10
-350.17516002360429
20
-19.815633980258788
10
-350.17516002360429
20
-33.71563398249392
42
-0.41421356237309509
10
-350.2251600224867
20
-33.765633981376332
10
-364.12516002472182
20
-33.765633981376332
42
-0.41421356237309509
10
-364.17516002360423
20
-33.71563398249392
10
-364.17516002360423
20
-19.815633980258788
42
-0.41421356237309509
0
LWPOLYLINE
5
107
100
AcDbEntity
8
0
100
AcDbPolyline
90
8
70
1
43
0.0
10
-345.07516002472187
20
-19.765633981376375
10
-331.17516002248681
20
-19.765633981376375
42
-0.41421356237308204
10
-331.12516002360439
20
-19.815633980258788
10
-331.12516002360439
20
-33.71563398249392
42
-0.41421356237309509
10
-331.17516002248681
20
-33.765633981376332
10
-345.07516002472187
20
-33.765633981376332
42
-0.41421356237309509
10
-345.12516002360428
20
-33.71563398249392
10
-345.12516002360428
20
-19.815633980258788
42
-0.41421356237309509
0
LWPOLYLINE
5
108
100
AcDbEntity
8
0
100
AcDbPolyline
90
8
70
1
43
0.0
10
-326.02516002472191
20
-19.765633981376375
10
-312.12516002248685
20
-19.765633981376375
42
-0.41421356237308204
10
-312.07516002360444
20
-19.815633980258788
10
-312.07516002360444
20
-33.71563398249392
42
-0.41421356237309509
10
-312.12516002248685
20
-33.765633981376332
10
-326.02516002472191
20
-33.765633981376332
42
-0.41421356237309509
10
-326.07516002360433
20
-33.71563398249392
10
-326.07516002360433
20
-19.815633980258788
42
-0.41421356237309509
0
LWPOLYLINE
5
109
100
AcDbEntity
8
0
100
AcDbPolyline
90
8
70
1
43
0.0
10
-306.97516002472196
20
-19.765633981376375
10
-293.0751600224869
20
-19.765633981376375
42
-0.41421356237308204
10
-293.02516002360449
20
-19.815633980258788
10
-293.02516002360449
20
-33.71563398249392
42
-0.41421356237309509
10
-293.0751600224869
20
-33.765633981376332
10
-306.97516002472196
20
-33.765633981376332
42
-0.41421356237309509
10
-307.02516002360437
20
-33.71563398249392
10
-307.02516002360437
20
-19.815633980258788
42
-0.41421356237309509
0
LWPOLYLINE
5
110
100
AcDbEntity
8
0
100
AcDbPolyline
90
8
70
1
43
0.0
10
-478.42516002472144
20
-38.815633981376308
10
-464.52516002248626
20
-38.815633981376308
42
-0.41421356237309509
10
-464.47516002360385
20
-38.865633980258721
10
-464.47516002360385
20
-52.76563398249386
42
-0.41421356237309509
10
-464.52516002248626
20
-52.815633981376273
10
-478.42516002472144
20
-52.815633981376273
42
-0.41421356237309509
10
-478.47516002360385
20
-52.76563398249386
10
-478.47516002360385
20
-38.865633980258721
42
-0.41421356237309509
0
LWPOLYLINE
5
111
100
AcDbEntity
8
0
100
AcDbPolyline
90
8
70
1
43
0.0
10
-459.37516002472148
20
-38.815633981376308
10
-445.47516002248642
20
-38.815633981376308
42
-0.41421356237309509
10
-445.42516002360401
20
-38.865633980258721
10
-445.42516002360401
20
-52.76563398249386
42
-0.41421356237309509
10
-445.47516002248642
20
-52.815633981376273
10
-459.37516002472148
20
-52.815633981376273
42
-0.41421356237309509
10
-459.42516002360389
20
-52.76563398249386
10
-459.42516002360389
20
-38.865633980258721
42
-0.41421356237309509
0
LWPOLYLINE
5
112
100
AcDbEntity
8
0
100
AcDbPolyline
90
8
70
1
43
0.0
10
-440.32516002472158
20
-38.815633981376308
10
-426.42516002248647
20
-38.815633981376308
42
-0.41421356237309509
10
-426.37516002360405
20
-38.865633980258721
10
-426.37516002360405
20
-52.76563398249386
42
-0.41421356237309509
10
-426.42516002248647
20
-52.815633981376273
10
-440.32516002472158
20
-52.815633981376273
42
-0.41421356237309509
10
-440.375160023604
20
-52.76563398249386
10
-440.375160023604
20
-38.865633980258721
42
-0.41421356237309509
0
LWPOLYLINE
5
113
100
AcDbEntity
8
0
100
AcDbPolyline
90
8
70
1
43
0.0
10
-421.27516002472163
20
-38.815633981376308
10
-407.37516002248651
20
-38.815633981376308
42
-0.41421356237309509
10
-407.3251600236041
20
-38.865633980258721
10
-407.3251600236041
20
-52.76563398249386
42
-0.41421356237309509
10
-407.37516002248651
20
-52.815633981376273
10
-421.27516002472163
20
-52.815633981376273
42
-0.41421356237309509
10
-421.32516002360404
20
-52.76563398249386
10
-421.32516002360404
20
-38.865633980258721
42
-0.41421356237309509
0
LWPOLYLINE
5
114
100
AcDbEntity
8
0
100
AcDbPolyline
90
8
70
1
43
0.0
10
-402.22516002472167
20
-38.815633981376308
10
-388.32516002248656
20
-38.815633981376308
42
-0.41421356237309509
10
-388.27516002360414
20
-38.865633980258721
10
-388.27516002360414
20
-52.76563398249386
42
-0.41421356237309509
10
-388.32516002248656
20
-52.815633981376273
10
-402.22516002472167
20
-52.815633981376273
42
-0.41421356237309509
10
-402.27516002360409
20
-52.76563398249386
10
-402.27516002360409
20
-38.865633980258721
42
-0.41421356237309509
0
LWPOLYLINE
5
115
100
AcDbEntity
8
0
100
AcDbPolyline
90
8
70
1
43
0.0
10
-383.17516002472178
20
-38.815633981376308
10
-369.27516002248666
20
-38.815633981376308
42
-0.41421356237309509
10
-369.22516002360425
20
-38.865633980258721
10
-369.22516002360425
20
-52.76563398249386
42
-0.41421356237309509
10
-369.27516002248666
20
-52.815633981376273
10
-383.17516002472178
20
-52.815633981376273
42
-0.41421356237309509
10
-383.22516002360419
20
-52.76563398249386
10
-383.22516002360419
20
-38.865633980258721
42
-0.41421356237309509
0
LWPOLYLINE
5
116
100
AcDbEntity
8
0
100
AcDbPolyline
90
8
70
1
43
0.0
10
-364.12516002472182
20
-38.815633981376308
10
-350.2251600224867
20
-38.815633981376308
42
-0.41421356237309509
10
-350.17516002360429
20
-38.865633980258721
10
-350.17516002360429
20
-52.76563398249386
42
-0.41421356237309509
10
-350.2251600224867
20
-52.815633981376273
10
-364.12516002472182
20
-52.815633981376273
42
-0.41421356237309509
10
-364.17516002360423
20
-52.76563398249386
10
-364.17516002360423
20
-38.865633980258721
42
-0.41421356237309509
0
LWPOLYLINE
5
117
100
AcDbEntity
8
0
100
AcDbPolyline
90
8
70
1
43
0.0
10
-345.07516002472187
20
-38.815633981376308
10
-331.17516002248681
20
-38.815633981376308
42
-0.41421356237309509
10
-331.12516002360439
20
-38.865633980258721
10
-331.12516002360439
20
-52.76563398249386
42
-0.41421356237309509
10
-331.17516002248681
20
-52.815633981376273
10
-345.07516002472187
20
-52.815633981376273
42
-0.41421356237309509
10
-345.12516002360428
20
-52.76563398249386
10
-345.12516002360428
20
-38.865633980258721
42
-0.41421356237309509
0
LWPOLYLINE
5
118
100
AcDbEntity
8
0
100
AcDbPolyline
90
8
70
1
43
0.0
10
-326.02516002472191
20
-38.815633981376308
10
-312.12516002248685
20
-38.815633981376308
42
-0.41421356237309509
10
-312.07516002360444
20
-38.865633980258721
10
-312.07516002360444
20
-52.76563398249386
42
-0.41421356237309509
10
-312.12516002248685
20
-52.815633981376273
10
-326.02516002472191
20
-52.815633981376273
42
-0.41421356237309509
10
-326.07516002360433
20
-52.76563398249386
10
-326.07516002360433
20
-38.865633980258721
42
-0.41421356237309509
0
LWPOLYLINE
5
119
100
AcDbEntity
8
0
100
AcDbPolyline
90
8
70
1
43
0.0
10
-306.97516002472196
20
-38.815633981376308
10
-293.0751600224869
20
-38.815633981376308
42
-0.41421356237309509
10
-293.02516002360449
20
-38.865633980258721
10
-293.02516002360449
20
-52.76563398249386
42
-0.41421356237309509
10
-293.0751600224869
20
-52.815633981376273
10
-306.97516002472196
20
-52.815633981376273
42
-0.41421356237309509
10
-307.02516002360437
20
-52.76563398249386
10
-307.02516002360437
20
-38.865633980258721
42
-0.41421356237309509
0
LWPOLYLINE
5
120
100
AcDbEntity
8
0
100
AcDbPolyline
90
8
70
1
43
0.0
10
-478.42516002472144
20
-57.865633981376249
10
-464.52516002248626
20
-57.865633981376249
42
-0.41421356237309509
10
-464.47516002360385
20
-57.915633980258661
10
-464.47516002360385
20
-71.815633982493793
42
-0.41421356237309509
10
-464.52516002248626
20
-71.865633981376206
10
-478.42516002472144
20
-71.865633981376206
42
-0.41421356237309509
10
-478.47516002360385
20
-71.815633982493793
10
-478.47516002360385
20
-57.915633980258661
42
-0.41421356237309509
0
LWPOLYLINE
5
121
100
AcDbEntity
8
0
100
AcDbPolyline
90
8
70
1
43
0.0
10
-459.37516002472148
20
-57.865633981376249
10
-445.47516002248642
20
-57.865633981376249
42
-0.41421356237309509
10
-445.42516002360401
20
-57.915633980258661
10
-445.42516002360401
20
-71.815633982493793
42
-0.41421356237309509
10
-445.47516002248642
20
-71.865633981376206
10
-459.37516002472148
20
-71.865633981376206
42
-0.41421356237309509
10
-459.42516002360389
20
-71.815633982493793
10
-459.42516002360389
20
-57.915633980258661
42
-0.41421356237309509
0
LWPOLYLINE
5
122
100
AcDbEntity
8
0
100
AcDbPolyline
90
8
70
1
43
0.0
10
-440.32516002472158
20
-57.865633981376249
10
-426.42516002248647
20
-57.865633981376249
42
-0.41421356237309509
10
-426.37516002360405
20
-57.915633980258661
10
-426.37516002360405
20
-71.815633982493793
42
-0.41421356237309509
10
-426.42516002248647
20
-71.865633981376206
10
-440.32516002472158
20
-71.865633981376206
42
-0.41421356237309509
10
-440.375160023604
20
-71.815633982493793
10
-440.375160023604
20
-57.915633980258661
42
-0.41421356237309509
0
LWPOLYLINE
5
123
100
AcDbEntity
8
0
100
AcDbPolyline
90
8
70
1
43
0.0
10
-421.27516002472163
20
-57.865633981376249
10
-407.37516002248651
20
-57.865633981376249
42
-0.41421356237309509
10
-407.3251600236041
20
-57.915633980258661
10
-407.3251600236041
20
-71.815633982493793
42
-0.41421356237309509
10
-407.37516002248651
20
-71.865633981376206
10
-421.27516002472163
20
-71.865633981376206
42
-0.41421356237309509
10
-421.32516002360404
20
-71.815633982493793
10
-421.32516002360404
20
-57.915633980258661
42
-0.41421356237309509
0
LWPOLYLINE
5
124
100
AcDbEntity
8
0
100
AcDbPolyline
90
8
70
1
43
0.0
10
-402.22516002472167
20
-57.865633981376249
10
-388.32516002248656
20
-57.865633981376249
42
-0.41421356237309509
10
-388.27516002360414
20
-57.915633980258661
10
-388.27516002360414
20
-71.815633982493793
42
-0.41421356237309509
10
-388.32516002248656
20
-71.865633981376206
10
-402.22516002472167
20
-71.865633981376206
42
-0.41421356237309509
10
-402.27516002360409
20
-71.815633982493793
10
-402.27516002360409
20
-57.915633980258661
42
-0.41421356237309509
0
LWPOLYLINE
5
125
100
AcDbEntity
8
0
100
AcDbPolyline
90
8
70
1
43
0.0
10
-383.17516002472178
20
-57.865633981376249
10
-369.27516002248666
20
-57.865633981376249
42
-0.41421356237309509
10
-369.22516002360425
20
-57.915633980258661
10
-369.22516002360425
20
-71.815633982493793
42
-0.41421356237309509
10
-369.27516002248666
20
-71.865633981376206
10
-383.17516002472178
20
-71.865633981376206
42
-0.41421356237309509
10
-383.22516002360419
20
-71.815633982493793
10
-383.22516002360419
20
-57.915633980258661
42
-0.41421356237309509
0
LWPOLYLINE
5
126
100
AcDbEntity
8
0
100
AcDbPolyline
90
8
70
1
43
0.0
10
-364.12516002472182
20
-57.865633981376249
10
-350.2251600224867
20
-57.865633981376249
42
-0.41421356237309509
10
-350.17516002360429
20
-57.915633980258661
10
-350.17516002360429
20
-71.815633982493793
42
-0.41421356237309509
10
-350.2251600224867
20
-71.865633981376206
10
-364.12516002472182
20
-71.865633981376206
42
-0.41421356237309509
10
-364.17516002360423
20
-71.815633982493793
10
-364.17516002360423
20
-57.915633980258661
42
-0.41421356237309509
0
LWPOLYLINE
5
127
100
AcDbEntity
8
0
100
AcDbPolyline
90
8
70
1
43
0.0
10
-345.07516002472187
20
-57.865633981376249
10
-331.17516002248681
20
-57.865633981376249
42
-0.41421356237309509
10
-331.12516002360439
20
-57.915633980258661
10
-331.12516002360439
20
-71.815633982493793
42
-0.41421356237309509
10
-331.17516002248681
20
-71.865633981376206
10
-345.07516002472187
20
-71.865633981376206
42
-0.41421356237309509
10
-345.12516002360428
20
-71.815633982493793
10
-345.12516002360428
20
-57.915633980258661
42
-0.41421356237309509
0
LWPOLYLINE
5
128
100
AcDbEntity
8
0
100
AcDbPolyline
90
8
70
1
43
0.0
10
-326.02516002472191
20
-57.865633981376249
10
-312.12516002248685
20
-57.865633981376249
42
-0.41421356237309509
10
-312.07516002360444
20
-57.915633980258661
10
-312.07516002360444
20
-71.815633982493793
42
-0.41421356237309509
10
-312.12516002248685
20
-71.865633981376206
10
-326.02516002472191
20
-71.865633981376206
42
-0.41421356237309509
10
-326.07516002360433
20
-71.815633982493793
10
-326.07516002360433
20
-57.915633980258661
42
-0.41421356237309509
0
LWPOLYLINE
5
129
100
AcDbEntity
8
0
100
AcDbPolyline
90
8
70
1
43
0.0
10
-306.97516002472196
20
-57.865633981376249
10
-293.0751600224869
20
-57.865633981376249
42
-0.41421356237309509
10
-293.02516002360449
20
-57.915633980258661
10
-293.02516002360449
20
-71.815633982493793
42
-0.41421356237309509
10
-293.0751600224869
20
-71.865633981376206
10
-306.97516002472196
20
-71.865633981376206
42
-0.41421356237309509
10
-307.02516002360437
20
-71.815633982493793
10
-307.02516002360437
20
-57.915633980258661
42
-0.41421356237309509
0
LWPOLYLINE
5
130
100
AcDbEntity
8
0
100
AcDbPolyline
90
8
70
1
43
0.0
10
-473.66266002472145
20
-76.915633981376189
10
-459.76266002248633
20
-76.915633981376189
42
-0.41421356237304296
10
-459.71266002360392
20
-76.965633980258602
10
-459.71266002360392
20
-90.865633982493733
42
-0.41421356237309509
10
-459.76266002248633
20
-90.915633981376146
10
-473.66266002472145
20
-90.915633981376146
42
-0.41421356237309509
10
-473.71266002360386
20
-90.865633982493733
10
-473.71266002360386
20
-76.965633980258602
42
-0.41421356237309509
0
LWPOLYLINE
5
131
100
AcDbEntity
8
0
100
AcDbPolyline
90
8
70
1
43
0.0
10
-392.70016002472175
20
-76.915633981376189
10
-378.80016002248658
20
-76.915633981376189
42
-0.41421356237304296
10
-378.75016002360417
20
-76.965633980258602
10
-378.75016002360417
20
-90.865633982493733
42
-0.41421356237309509
10
-378.80016002248658
20
-90.915633981376146
10
-392.70016002472175
20
-90.915633981376146
42
-0.41421356237309509
10
-392.75016002360417
20
-90.865633982493733
10
-392.75016002360417
20
-76.965633980258602
42
-0.41421356237309509
0
LWPOLYLINE
5
132
100
AcDbEntity
8
0
100
AcDbPolyline
90
8
70
1
43
0.0
10
-331.92516002472189
20
-77.915633981376203
10
-325.27516002248672
20
-77.915633981376203
42
-0.41421356237309509
10
-325.2251600236043
20
-77.965633980258616
10
-325.2251600236043
20
-91.865633982493748
42
-0.41421356237309509
10
-325.27516002248672
20
-91.91563398137616
10
-331.92516002472189
20
-91.91563398137616
42
-0.41421356237309509
10
-331.9751600236043
20
-91.865633982493748
10
-331.9751600236043
20
-77.965633980258616
42
-0.41421356237309509
0
LWPOLYLINE
5
133
100
AcDbEntity
8
0
100
AcDbPolyline
90
8
70
1
43
0.0
10
-446.2251600247215
20
-77.915633981376203
10
-439.57516002248639
20
-77.915633981376203
42
-0.41421356237309509
10
-439.52516002360397
20
-77.965633980258616
10
-439.52516002360397
20
-91.865633982493748
42
-0.41421356237309509
10
-439.57516002248639
20
-91.91563398137616
10
-446.2251600247215
20
-91.91563398137616
42
-0.41421356237309509
10
-446.27516002360392
20
-91.865633982493748
10
-446.27516002360392
20
-77.965633980258616
42
-0.41421356237309509
0
LWPOLYLINE
5
134
100
AcDbEntity
8
0
100
AcDbPolyline
90
8
70
1
43
0.0
10
-311.737660024722
20
-76.915633981376189
10
-297.83766002248689
20
-76.915633981376189
42
-0.41421356237304296
10
-297.78766002360447
20
-76.965633980258602
10
-297.78766002360447
20
-90.865633982493733
42
-0.41421356237309509
10
-297.83766002248689
20
-90.915633981376146
10
-311.737660024722
20
-90.915633981376146
42
-0.41421356237309509
10
-311.78766002360442
20
-90.865633982493733
10
-311.78766002360442
20
-76.965633980258602
42
-0.41421356237309509
0
LINE
5
135
100
AcDbEntity
8
0
100
AcDbLine
10
-316.39455939380065
20
-93.41517568378562
30
0
11
-454.94515715748844
21
-93.415175683862344
31
0
0
ARC
5
136
100
AcDbEntity
8
0
100
AcDbCircle
10
-470.26037752345769
20
-14.165533029680317
30
0
40
1.0000000000000142
210
0
220
0
230
1
100
AcDbArc
50
180
51
360
0
LINE
5
137
100
AcDbEntity
8
0
100
AcDbLine
10
-462.98994254325783
20
-17.215175683797014
30
0
11
-316.99023825642678
21
-17.215175683796989
31
0
0
ARC
5
138
100
AcDbEntity
8
0
100
AcDbCircle
10
-307.89499037848674
20
-100.38493657133701
30
0
40
0.24999999999995026
210
0
220
0
230
1
100
AcDbArc
50
180
51
289.47118989552621
0
SPLINE
5
139
100
AcDbEntity
8
0
100
AcDbSpline
70
4
71
5
72
21
73
15
74
0
42
0.000000001
43
0.0000000001
44
0.0000000001
40
0
40
0
40
0
40
0
40
0
40
0
40
0.10000000000000001
40
0.20000000000000001
40
0.30000000000000004
40
0.40000000000000002
40
0.5
40
0.59999999999999998
40
0.69999999999999996
40
0.79999999999999993
40
0.89999999999999991
40
1
40
1
40
1
40
1
40
1
40
1
41
1
41
1
41
1
41
1
41
1
41
1
41
1
41
1
41
1
41
1
41
1
41
1
41
1
41
1
41
1
10
-305.8174766646955
20
-13.492084577330687
30
0
10
-305.80317370780529
20
-13.555274993652414
30
0
10
-305.769753453671
20
-13.682694424310055
30
0
10
-305.70517945991207
20
-13.876939491942842
30
0
10
-305.58972344432607
20
-14.142266180383441
30
0
10
-305.39340384212301
20
-14.48514241488933
30
0
10
-305.14134638315659
20
-14.840042981477522
30
0
10
-304.830512186384
20
-15.207623458169939
30
0
10
-304.46180256062837
20
-15.587689405535173
30
0
10
-304.03966621536478
20
-15.979281103135461
30
0
10
-303.56920335232854
20
-16.381298284061273
30
0
10
-303.1578116668839
20
-16.710467196989232
30
0
10
-302.83090197867483
20
-16.961305963881017
30
0
10
-302.60493383233506
20
-17.130263765932362
30
0
10
-302.48994254325788
20
-17.215175683797014
30
0
0
ARC
5
140
100
AcDbEntity
8
0
100
AcDbCircle
10
-460.8949903784868
20
-100.38493053574635
30
0
40
0.24999999999998579
210
0
220
0
230
1
100
AcDbArc
50
180
51
289.47122063448683
0
ARC
5
141
100
AcDbEntity
8
0
100
AcDbCircle
10
-469.01037752345769
20
-10.629999123747577
30
0
40
0.24999999999999239
210
0
220
-0
230
1
100
AcDbArc
50
70.528779365512918
51
180
0
ARC
5
142
100
AcDbEntity
8
0
100
AcDbCircle
10
-309.14499037848668
20
-96.849396629813583
30
0
40
4.0000000000000231
210
0
220
0
230
1
100
AcDbArc
50
189.69309423497245
51
250.52877945121327
0
SPLINE
5
143
100
AcDbEntity
8
0
100
AcDbSpline
70
4
71
5
72
21
73
15
74
0
42
0.000000001
43
0.0000000001
44
0.0000000001
40
0
40
0
40
0
40
0
40
0
40
0
40
0.10000000000000001
40
0.20000000000000001
40
0.30000000000000004
40
0.40000000000000002
40
0.5
40
0.59999999999999998
40
0.69999999999999996
40
0.79999999999999993
40
0.89999999999999991
40
1
40
1
40
1
40
1
40
1
40
1
41
1
41
1
41
1
41
1
41
1
41
1
41
1
41
1
41
1
41
1
41
1
41
1
41
1
41
1
41
1
10
-466.3174766646955
20
-13.492084577330687
30
0
10
-466.30317370779886
20
-13.555274993652414
30
0
10
-466.26975345365349
20
-13.682694424310055
30
0
10
-466.20517945988342
20
-13.876939491942842
30
0
10
-466.08972344429537
20
-14.142266180383441
30
0
10
-465.8934038421051
20
-14.48514241488933
30
0
10
-465.64134638315403
20
-14.840042981477522
30
0
10
-465.33051218638968
20
-15.207623458169939
30
0
10
-464.96180256063093
20
-15.587689405535173
30
0
10
-464.53966621535653
20
-15.979281103135461
30
0
10
-464.06920335231018
20
-16.381298284061273
30
0
10
-463.65781166686446
20
-16.710467196989232
30
0
10
-463.33090197866176
20
-16.961305963881017
30
0
10
-463.10493383233018
20
-17.130263765932362
30
0
10
-462.98994254325783
20
-17.215175683797014
30
0
0
ARC
5
144
100
AcDbEntity
8
0
100
AcDbCircle
10
-470.26038096840875
20
-14.165532869036856
30
0
40
0.9999965550489649
210
0
220
0
230
1
100
AcDbArc
50
180.00000919542356
51
359.99999080457644
0
SPLINE
5
145
100
AcDbEntity
8
0
100
AcDbSpline
70
4
71
5
72
21
73
15
74
0
42
0.000000001
43
0.0000000001
44
0.0000000001
40
0
40
0
40
0
40
0
40
0
40
0
40
0.10000000000000001
40
0.20000000000000001
40
0.30000000000000004
40
0.40000000000000002
40
0.5
40
0.59999999999999998
40
0.69999999999999996
40
0.79999999999999993
40
0.89999999999999991
40
1
40
1
40
1
40
1
40
1
40
1
41
1
41
1
41
1
41
1
41
1
41
1
41
1
41
1
41
1
41
1
41
1
41
1
41
1
41
1
41
1
10
-313.0878854571821
20
-97.522878922379419
30
0
10
-313.09909767101288
20
-97.403097126894181
30
0
10
-313.12634566997042
20
-97.166838267561104
30
0
10
-313.18168808018174
20
-96.822363966489618
30
0
10
-313.28489752476207
20
-96.38322086975684
30
0
10
-313.46624583026511
20
-95.870148851793218
30
0
10
-313.70451426295716
20
-95.396074027756868
30
0
10
-314.00420226261542
20
-94.96407905987526
30
0
10
-314.36749737490908
20
-94.575662682380411
30
0
10
-314.7915693747517
20
-94.228885847665111
30
0
10
-315.27170105155204
20
-93.920516694078145
30
0
10
-315.69690893723964
20
-93.701981601497209
30
0
10
-316.03745580431433
20
-93.552906960699715
30
0
10
-316.27394797973011
20
-93.460005752375224
30
0
10
-316.39455939380065
20
-93.41517568378562
30
0
0
SPLINE
5
146
100
AcDbEntity
8
0
100
AcDbSpline
70
4
71
5
72
21
73
15
74
0
42
0.000000001
43
0.0000000001
44
0.0000000001
40
0
40
0
40
0
40
0
40
0
40
0
40
0.10000000000000001
40
0.20000000000000001
40
0.30000000000000004
40
0.40000000000000002
40
0.5
40
0.59999999999999998
40
0.69999999999999996
40
0.79999999999999993
40
0.89999999999999991
40
1
40
1
40
1
40
1
40
1
40
1
41
1
41
1
41
1
41
1
41
1
41
1
41
1
41
1
41
1
41
1
41
1
41
1
41
1
41
1
41
1
10
-458.14933910724142
20
-97.035866248237582
30
0
10
-458.15269396852892
20
-96.93615515892543
30
0
10
-458.15335239455965
20
-96.739182381221866
30
0
10
-458.13618583759251
20
-96.451071541444065
30
0
10
-458.07639402302863
20
-96.081861118940708
30
0
10
-457.93612129596022
20
-95.64687405732667
30
0
10
-457.72503313769289
20
-95.240551163890629
30
0
10
-457.43824430851078
20
-94.864869851299289
30
0
10
-457.07474709751409
20
-94.520238013600959
30
0
10
-456.63921261306547
20
-94.204764912657296
30
0
10
-456.13781009867324
20
-93.915953405811308
30
0
10
-455.68866512953633
20
-93.704342592586457
30
0
10
-455.32656564244854
20
-93.555851258607689
30
0
10
-455.07413236970416
20
-93.461323144265279
30
0
10
-454.94515715748844
20
-93.415175683862344
30
0
0
SPLINE
5
147
100
AcDbEntity
8
0
100
AcDbSpline
70
4
71
5
72
21
73
15
74
0
42
0.000000001
43
0.0000000001
44
0.0000000001
40
0
40
0
40
0
40
0
40
0
40
0
40
0.10000000000000001
40
0.20000000000000001
40
0.30000000000000004
40
0.40000000000000002
40
0.5
40
0.59999999999999998
40
0.69999999999999996
40
0.79999999999999993
40
0.89999999999999991
40
1
40
1
40
1
40
1
40
1
40
1
41
1
41
1
41
1
41
1
41
1
41
1
41
1
41
1
41
1
41
1
41
1
41
1
41
1
41
1
41
1
10
-474.2560295923264
20
-13.979080503429106
30
0
10
-474.26421988713963
20
-14.048533694927434
30
0
10
-474.28576473760467
20
-14.187007577883534
30
0
10
-474.33357539000724
20
-14.393420852433621
30
0
10
-474.42881432404135
20
-14.666001188787313
30
0
10
-474.60368902683291
20
-15.002051252333038
30
0
10
-474.83854811313932
20
-15.333077702790945
30
0
10
-475.13694230799206
20
-15.658783171615198
30
0
10
-475.49844122977424
20
-15.979203702695806
30
0
10
-475.91846985706798
20
-16.294722448044684
30
0
10
-476.39161273740729
20
-16.605792944666369
30
0
10
-476.80868426973888
20
-16.851420224899314
30
0
10
-477.14172193713364
20
-17.033946112703507
30
0
10
-477.37259190922521
20
-17.154889292488743
30
0
10
-477.49023825642672
20
-17.215175683796989
30
0
0
LINE
5
148
100
AcDbEntity
8
0
100
AcDbLine
10
-310.14499037319968
20
-96.849499461033531
30
0
11
-310.14499037319968
21
-100.38493053762016
31
0
0
ARC
5
149
100
AcDbEntity
8
0
100
AcDbCircle
10
-309.76037752345775
20
-14.165533029680317
30
0
40
4.0000000000000089
210
0
220
0
230
1
100
AcDbArc
50
109.47122063449041
51
177.330142166229
0
LINE
5
150
100
AcDbEntity
8
0
100
AcDbLine
10
-290.81330674782282
20
-93.415175683797429
30
0
11
-301.9451571574034
21
-93.415175683821431
31
0
0
ARC
5
151
100
AcDbEntity
8
0
100
AcDbCircle
10
-309.14499037319968
20
-96.849499461033517
30
0
40
1.0000000000001377
210
0
220
-0
230
1
100
AcDbArc
50
0.0058917948782933388
51
180
0
ARC
5
152
100
AcDbEntity
8
0
100
AcDbCircle
10
-309.14499037848668
20
-96.849396629813583
30
0
40
4.000005690409953
210
0
220
0
230
1
100
AcDbArc
50
289.47118989552558
51
357.32964384092423
0
ARC
5
153
100
AcDbEntity
8
0
100
AcDbCircle
10
-462.1449903784868
20
-96.849396629813626
30
0
40
3.9999999999999858
210
0
220
0
230
1
100
AcDbArc
50
289.47122063449052
51
357.32805109560451
0
LINE
5
154
100
AcDbEntity
8
0
100
AcDbLine
10
-469.26037752345781
20
-14.165533029680407
30
0
11
-469.26037752345781
21
-10.629999123747583
31
0
0
ARC
5
155
100
AcDbEntity
8
0
100
AcDbCircle
10
-309.76037752345775
20
-14.165533029680317
30
0
40
3.9999999999999902
210
0
220
-0
230
1
100
AcDbArc
50
9.6926024896668981
51
70.528779365509592
0
LINE
5
156
100
AcDbEntity
8
0
100
AcDbLine
10
-471.26037752345775
20
-14.165533029680224
30
0
11
-471.26037752345871
21
-10.629993088157192
31
0
0
LINE
5
157
100
AcDbEntity
8
0
100
AcDbLine
10
-308.14499037848668
20
-96.849396629813583
30
0
11
-308.14499037848668
21
-100.38493657133701
31
0
0
LINE
5
158
100
AcDbEntity
8
0
100
AcDbLine
10
-461.1449903784868
20
-96.849396629813626
30
0
11
-461.1449903784868
21
-100.38493053574635
31
0
0
ARC
5
159
100
AcDbEntity
8
0
100
AcDbCircle
10
-309.76037752345775
20
-14.165533029680317
30
0
40
1.0000000000000142
210
0
220
0
230
1
100
AcDbArc
50
-180
51
0
0
LINE
5
160
100
AcDbEntity
8
0
100
AcDbLine
10
-308.76037752345775
20
-14.165533029680317
30
0
11
-308.76037752345775
21
-10.629999123747591
31
0
0
LINE
5
161
100
AcDbEntity
8
0
100
AcDbLine
10
-302.48994254325788
20
-17.215175683797014
30
0
11
-290.81330674782339
21
-17.215175683796961
31
0
0
LINE
5
162
100
AcDbEntity
8
0
100
AcDbLine
10
-480.81330674782328
20
-17.215175683797021
30
0
11
-477.49023825642672
21
-17.215175683796989
31
0
0
ARC
5
163
100
AcDbEntity
8
0
100
AcDbCircle
10
-309.76037752345775
20
-14.165533029680317
30
0
40
1.0000000000000142
210
0
220
0
230
1
100
AcDbArc
50
-180
51
0
0
ARC
5
164
100
AcDbEntity
8
0
100
AcDbCircle
10
-310.39499037319956
20
-100.38493053762016
30
0
40
0.2499999999978359
210
0
220
0
230
1
100
AcDbArc
50
-109.47122054879767
51
0
0
SPLINE
5
165
100
AcDbEntity
8
0
100
AcDbSpline
70
4
71
5
72
21
73
15
74
0
42
0.000000001
43
0.0000000001
44
0.0000000001
40
0
40
0
40
0
40
0
40
0
40
0
40
0.10000000000000001
40
0.20000000000000001
40
0.30000000000000004
40
0.40000000000000002
40
0.5
40
0.59999999999999998
40
0.69999999999999996
40
0.79999999999999993
40
0.89999999999999991
40
1
40
1
40
1
40
1
40
1
40
1
41
1
41
1
41
1
41
1
41
1
41
1
41
1
41
1
41
1
41
1
41
1
41
1
41
1
41
1
41
1
10
-313.75602959232646
20
-13.979080503429106
30
0
10
-313.76421988711365
20
-14.048533694927434
30
0
10
-313.78576473753452
20
-14.187007577883534
30
0
10
-313.83357538989355
20
-14.393420852433621
30
0
10
-313.92881432391198
20
-14.666001188787313
30
0
10
-314.10368902673565
20
-15.002051252333038
30
0
10
-314.33854811310448
20
-15.333077702790945
30
0
10
-314.63694230802577
20
-15.658783171615198
30
0
10
-314.998441229864
20
-15.979203702695806
30
0
10
-315.41846985718917
20
-16.294722448044684
30
0
10
-315.89161273752848
20
-16.605792944666369
30
0
10
-316.30868426983125
20
-16.851420224899314
30
0
10
-316.64172193718684
20
-17.033946112703507
30
0
10
-316.87259190924419
20
-17.154889292488743
30
0
10
-316.99023825642678
20
-17.215175683796989
30
0
0
ARC
5
166
100
AcDbEntity
8
0
100
AcDbCircle
10
-308.51037752345775
20
-10.629999123747556
30
0
40
0.24999999999998193
210
0
220
-0
230
1
100
AcDbArc
50
70.528779365512094
51
180
0
LINE
5
167
100
AcDbEntity
8
0
100
AcDbLine
10
-310.76037752345775
20
-14.165533029680317
30
0
11
-310.76037752345775
21
-10.629999123747586
31
0
0
ARC
5
168
100
AcDbEntity
8
0
100
AcDbCircle
10
-311.01037752345775
20
-10.629999123747551
30
0
40
0.24999999999998579
210
0
220
0
230
1
100
AcDbArc
50
0
51
109.47122063448803
0
ARC
5
169
100
AcDbEntity
8
0
100
AcDbCircle
10
-470.26038096840875
20
-14.165532869036856
30
0
40
4.0000043906398588
210
0
220
0
230
1
100
AcDbArc
50
109.47114413941415
51
177.330142166229
0
LINE
5
170
100
AcDbEntity
8
0
100
AcDbLine
10
-463.14499037833139
20
-96.849414260492381
30
0
11
-463.14499037833144
21
-100.38493053580129
31
0
0
SPLINE
5
171
100
AcDbEntity
8
0
100
AcDbSpline
70
4
71
5
72
21
73
15
74
0
42
0.000000001
43
0.0000000001
44
0.0000000001
40
0
40
0
40
0
40
0
40
0
40
0
40
0.10000000000000001
40
0.20000000000000001
40
0.30000000000000004
40
0.40000000000000002
40
0.5
40
0.59999999999999998
40
0.69999999999999996
40
0.79999999999999993
40
0.89999999999999991
40
1
40
1
40
1
40
1
40
1
40
1
41
1
41
1
41
1
41
1
41
1
41
1
41
1
41
1
41
1
41
1
41
1
41
1
41
1
41
1
41
1
10
-305.14932824095069
20
-97.035755439568533
30
0
10
-305.11759484232618
20
-96.943643824388786
30
0
10
-305.05127904731455
20
-96.761155532927347
30
0
10
-304.94325849812151
20
-96.49262782923843
30
0
10
-304.78185498295142
20
-96.145172331361678
30
0
10
-304.54919582181344
20
-95.729672869400488
30
0
10
-304.28295225413899
20
-95.334625123399803
30
0
10
-303.98051123721382
20
-94.961620343937255
30
0
10
-303.64068296106893
20
-94.611383083182702
30
0
10
-303.26521659261164
20
-94.282848160329365
30
0
10
-302.85691507239227
20
-93.974308683690026
30
0
10
-302.50621758295438
20
-93.742126522038831
30
0
10
-302.23053134352756
20
-93.57570129447133
30
0
10
-302.04120458214896
20
-93.468122331449649
30
0
10
-301.9451571574034
20
-93.415175683821431
30
0
0
ARC
5
172
100
AcDbEntity
8
0
100
AcDbCircle
10
-463.39499037833144
20
-100.38493053580127
30
0
40
0.25000000000001793
210
0
220
0
230
1
100
AcDbArc
50
250.52877936803085
51
360
0
LINE
5
173
100
AcDbEntity
8
0
100
AcDbLine
10
-290.56330674782339
20
-17.465175683796957
30
0
11
-290.56330674782339
21
-93.165175683797443
31
0
0
ARC
5
174
100
AcDbEntity
8
0
100
AcDbCircle
10
-462.14499037833144
20
-96.849414260492381
30
0
40
1.0000000000000389
210
0
220
-0
230
1
100
AcDbArc
50
0.0010101632440297191
51
180
0
ARC
5
175
100
AcDbEntity
8
0
100
AcDbCircle
10
-471.51037752345871
20
-10.629993088157262
30
0
40
0.24999999999998579
210
0
220
-0
230
1
100
AcDbArc
50
0
51
109.47118989553711
0
ARC
5
176
100
AcDbEntity
8
0
100
AcDbCircle
10
-309.14499037848668
20
-96.849396629813583
30
0
40
0.99999999999997868
210
0
220
0
230
1
100
AcDbArc
50
0
51
180.00589179487829
0
SPLINE
5
177
100
AcDbEntity
8
0
100
AcDbSpline
70
4
71
5
72
21
73
15
74
0
42
0.000000001
43
0.0000000001
44
0.0000000001
40
0
40
0
40
0
40
0
40
0
40
0
40
0.10000000000000001
40
0.20000000000000001
40
0.30000000000000004
40
0.40000000000000002
40
0.5
40
0.59999999999999998
40
0.69999999999999996
40
0.79999999999999993
40
0.89999999999999991
40
1
40
1
40
1
40
1
40
1
40
1
41
1
41
1
41
1
41
1
41
1
41
1
41
1
41
1
41
1
41
1
41
1
41
1
41
1
41
1
41
1
10
-466.08786698099215
20
-97.522987082103413
30
0
10
-466.09809784846817
20
-97.401751597704234
30
0
10
-466.12346641700492
20
-97.162710775295338
30
0
10
-466.17623944756872
20
-96.814439755058032
30
0
10
-466.27653098357433
20
-96.370999358951664
30
0
10
-466.45513807342923
20
-95.853918416650842
30
0
10
-466.6916610127484
20
-95.377323836616739
30
0
10
-466.99069374398965
20
-94.944427037158619
30
0
10
-467.35450012047033
20
-94.556810576203816
30
0
10
-467.78023116611104
20
-94.212482862906541
30
0
10
-468.26309473403569
20
-93.908093923229018
30
0
10
-468.69128177762866
20
-93.693870510825604
30
0
10
-469.03448194008354
20
-93.548624020134682
30
0
10
-469.27292616148696
20
-93.458534791548942
30
0
10
-469.39455939378695
20
-93.415175683796093
30
0
0
LINE
5
178
100
AcDbEntity
8
0
100
AcDbLine
10
-481.06330674782322
20
-93.165175683796932
30
0
11
-481.06330674782328
21
-17.465175683797014
31
0
0
ARC
5
179
100
AcDbEntity
8
0
100
AcDbCircle
10
-462.1449903784868
20
-96.849396629813626
30
0
40
1.0000000000000142
210
0
220
0
230
1
100
AcDbArc
50
0
51
180.00101016324402
0
LINE
5
180
100
AcDbEntity
8
0
100
AcDbLine
10
-469.39455939378695
20
-93.415175683796093
30
0
11
-480.81330674782322
21
-93.415175683796889
31
0
0
ARC
5
181
100
AcDbEntity
8
0
100
AcDbCircle
10
-462.1449903784868
20
-96.849396629813626
30
0
40
3.9999999999999991
210
0
220
0
230
1
100
AcDbArc
50
189.69466595070193
51
250.5287793680271
0
ARC
5
182
100
AcDbEntity
8
0
100
AcDbCircle
10
-470.26038096840875
20
-14.165532869036856
30
0
40
4.0000033687289118
210
0
220
-0
230
1
100
AcDbArc
50
9.692591913597683
51
70.528732075320562
0
ARC
5
183
100
AcDbEntity
8
0
100
AcDbCircle
10
-290.81330674782333
20
-17.465175683796893
30
0
40
0.24999999999995026
210
-0
220
0
230
1
100
AcDbArc
50
0
51
90.000000000013031
0
ARC
5
184
100
AcDbEntity
8
0
100
AcDbCircle
10
-480.81330674782328
20
-17.465175683797014
30
0
40
0.24999999999999467
210
0
220
-0
230
1
100
AcDbArc
50
90
51
180
0
ARC
5
185
100
AcDbEntity
8
0
100
AcDbCircle
10
-480.81330674782322
20
-93.165175683796917
30
0
40
0.24999999999998579
210
0
220
0
230
1
100
AcDbArc
50
180
51
270
0
ARC
5
186
100
AcDbEntity
8
0
100
AcDbCircle
10
-290.81330674782339
20
-93.165175683797486
30
0
40
0.24999999999995026
210
0
220
0
230
1
100
AcDbArc
50
-89.999999999869729
51
0
0
ENDSEC
0
SECTION
2
OBJECTS
0
DICTIONARY
5
C
100
AcDbDictionary
3
ACAD_GROUP
350
D
3
ACAD_MLINESTYLE
350
17
0
DICTIONARY
5
D
100
AcDbDictionary
0
DICTIONARY
5
1A
330
C
100
AcDbDictionary
0
DICTIONARY
5
17
100
AcDbDictionary
0
ENDSEC
0
EOF
