0
SECTION
2
HEADER
9
$INSUNITS
70
4
9
$ACADVER
1
AC1014
9
$HANDSEED
5
FFFF
0
ENDSEC
0
SECTION
2
TABLES
0
TABLE
2
VPORT
5
8
100
AcDbSymbolTable
0
ENDTAB
0
TABLE
2
LTYPE
5
5
100
AcDbSymbolTable
0
LTYPE
5
14
100
AcDbSymbolTableRecord
100
AcDbLinetypeTableRecord
2
BYBLOCK
70
0
0
LTYPE
5
15
100
AcDbSymbolTableRecord
100
AcDbLinetypeTableRecord
2
BYLAYER
70
0
0
ENDTAB
0
TABLE
2
LAYER
5
2
100
AcDbSymbolTable
70
2
0
LAYER
5
50
100
AcDbSymbolTableRecord
100
AcDbLayerTableRecord
2
0
70
0
6
CONTINUOUS
0
ENDTAB
0
TABLE
2
STYLE
5
3
100
AcDbSymbolTable
70
1
0
STYLE
5
11
100
AcDbSymbolTableRecord
100
AcDbTextStyleTableRecord
2
STANDARD
70
0
0
ENDTAB
0
TABLE
2
VIEW
5
6
100
AcDbSymbolTable
70
0
0
ENDTAB
0
TABLE
2
UCS
5
7
100
AcDbSymbolTable
70
0
0
ENDTAB
0
TABLE
2
APPID
5
9
100
AcDbSymbolTable
70
2
0
APPID
5
12
100
AcDbSymbolTableRecord
100
AcDbRegAppTableRecord
2
ACAD
70
0
0
ENDTAB
0
TABLE
2
DIMSTYLE
5
A
100
AcDbSymbolTable
70
1
0
ENDTAB
0
TABLE
2
BLOCK_RECORD
5
1
100
AcDbSymbolTable
70
1
0
BLOCK_RECORD
5
1F
100
AcDbSymbolTableRecord
100
AcDbBlockTableRecord
2
*MODEL_SPACE
0
BLOCK_RECORD
5
1B
100
AcDbSymbolTableRecord
100
AcDbBlockTableRecord
2
*PAPER_SPACE
0
ENDTAB
0
ENDSEC
0
SECTION
2
BLOCKS
0
BLOCK
5
20
100
AcDbEntity
100
AcDbBlockBegin
2
*MODEL_SPACE
0
ENDBLK
5
21
100
AcDbEntity
100
AcDbBlockEnd
0
BLOCK
5
1C
100
AcDbEntity
100
AcDbBlockBegin
2
*PAPER_SPACE
0
ENDBLK
5
1D
100
AcDbEntity
100
AcDbBlockEnd
0
ENDSEC
0
SECTION
2
ENTITIES
0
ARC
5
100
100
AcDbEntity
8
0
100
AcDbCircle
10
30.989622476542252
20
129.37000087625245
30
0
40
0.2499999999999786
210
0
220
-0
230
1
100
AcDbArc
50
70.528779365504562
51
180
0
ARC
5
101
100
AcDbEntity
8
0
100
AcDbCircle
10
29.739619031591236
20
125.83446713096315
30
0
40
4.0000033687288736
210
0
220
-0
230
1
100
AcDbArc
50
9.6925919135974556
51
70.528732075320761
0
ARC
5
102
100
AcDbEntity
8
0
100
AcDbCircle
10
188.98962247654225
20
129.37000087625245
30
0
40
0.24999999999998579
210
0
220
0
230
1
100
AcDbArc
50
0
51
109.47122063448791
0
LINE
5
103
100
AcDbEntity
8
0
100
AcDbLine
10
191.23962247654225
20
125.83446697031967
30
0
11
191.23962247654225
21
129.37000087625239
31
0
0
LINE
5
104
100
AcDbEntity
8
0
100
AcDbLine
10
209.43669325217661
20
46.584824316203104
30
0
11
198.0548428425966
21
46.584824316178555
31
0
0
LINE
5
105
100
AcDbEntity
8
0
100
AcDbLine
10
30.739622476542255
20
125.8344669703196
30
0
11
30.739622476542259
21
129.37000087625245
31
0
0
ARC
5
106
100
AcDbEntity
8
0
100
AcDbCircle
10
29.739622476542252
20
125.83446697031967
30
0
40
0.99999999999999645
210
0
220
0
230
1
100
AcDbArc
50
180
51
360
0
LWPOLYLINE
5
107
100
AcDbEntity
8
0
100
AcDbPolyline
90
5
43
0.0
10
194.8506717590493
20
42.96424456043148
10
195.33850534485708
20
44.06012281691007
10
196.02881108612615
20
45.03270269083015
10
196.94286598831903
20
45.86902723833511
10
198.05484284259657
20
46.58482431617856
0
ARC
5
108
100
AcDbEntity
8
0
100
AcDbCircle
10
36.605009621668586
20
39.61506946419874
30
0
40
0.25000000000004208
210
0
220
0
230
1
100
AcDbArc
50
-109.4712206319696
51
0
0
ARC
5
109
100
AcDbEntity
8
0
100
AcDbCircle
10
192.10500962151326
20
39.615063428663007
30
0
40
0.24999999999995026
210
0
220
0
230
1
100
AcDbArc
50
180
51
289.47118989552729
0
LINE
5
110
100
AcDbEntity
8
0
100
AcDbLine
10
36.8550096216686
20
43.150585739507612
30
0
11
36.855009621668593
21
39.61506946419874
31
0
0
ARC
5
111
100
AcDbEntity
8
0
100
AcDbCircle
10
189.60500962680044
20
39.615069462379822
30
0
40
0.24999999999781919
210
0
220
0
230
1
100
AcDbArc
50
-109.47122054879877
51
0
0
ARC
5
112
100
AcDbEntity
8
0
100
AcDbCircle
10
190.8550096268003
20
43.150500538966483
30
0
40
1.0000000000001377
210
0
220
-0
230
1
100
AcDbArc
50
0.0058917948782933388
51
180
0
LWPOLYLINE
5
113
100
AcDbEntity
8
0
100
AcDbPolyline
90
5
43
0.0
10
33.912133019007854
20
42.4770129178966
10
33.62721774329548
20
43.88268426845408
10
32.993155451623345
20
45.0442826627903
10
31.97149275193566
20
45.934927066154295
10
30.60544060621302
20
46.58482431620391
0
LINE
5
114
100
AcDbEntity
8
0
100
AcDbLine
10
191.85500962151332
20
43.150603370186431
30
0
11
191.85500962151332
21
39.615063428663007
31
0
0
LWPOLYLINE
5
115
100
AcDbEntity
8
0
100
AcDbPolyline
90
5
43
0.0
10
41.85066089275855
20
42.96413375176243
10
42.00226433772547
20
44.132182938085975
10
42.580885463517646
20
45.12738693524356
10
43.619357771015686
20
45.93645563154926
10
45.054842842511576
20
46.58482431613766
0
ARC
5
116
100
AcDbEntity
8
0
100
AcDbCircle
10
37.8550096216686
20
43.150585739507612
30
0
40
0.99999999999999889
210
0
220
-0
230
1
100
AcDbArc
50
0.0010101632440297191
51
180
0
ARC
5
117
100
AcDbEntity
8
0
100
AcDbCircle
10
37.855009621513183
20
43.15060337018636
30
0
40
0.99999999999999645
210
0
220
0
230
1
100
AcDbArc
50
0
51
180.00101016324402
0
ARC
5
118
100
AcDbEntity
8
0
100
AcDbCircle
10
37.855009621513183
20
43.15060337018636
30
0
40
3.999999999999964
210
0
220
0
230
1
100
AcDbArc
50
289.47122063449058
51
357.32805109560513
0
ARC
5
119
100
AcDbEntity
8
0
100
AcDbCircle
10
190.85500962151332
20
43.150603370186431
30
0
40
4.000005690409937
210
0
220
0
230
1
100
AcDbArc
50
289.4711898955257
51
357.32964384092423
0
ARC
5
120
100
AcDbEntity
8
0
100
AcDbCircle
10
39.105009621513162
20
39.615069464253665
30
0
40
0.24999999999999911
210
0
220
0
230
1
100
AcDbArc
50
180
51
289.47122063449029
0
LINE
5
121
100
AcDbEntity
8
0
100
AcDbLine
10
18.936693252176774
20
46.584824316203068
30
0
11
18.936693252176752
21
122.78482431620297
31
0
0
LWPOLYLINE
5
122
100
AcDbEntity
8
0
100
AcDbPolyline
90
5
43
0.0
10
186.9121145428179
20
42.47712107762059
10
186.6175994716271
20
43.868636547882694
10
185.9799377739916
20
45.02505494071337
10
184.96164954861302
20
45.92069797601966
10
183.60544060619932
20
46.584824316214366
0
LINE
5
123
100
AcDbEntity
8
0
100
AcDbLine
10
30.60544060621303
20
46.584824316203921
30
0
11
18.936693252176774
21
46.584824316203068
31
0
0
ARC
5
124
100
AcDbEntity
8
0
100
AcDbCircle
10
37.855009621513183
20
43.15060337018636
30
0
40
3.9999999999999849
210
0
220
0
230
1
100
AcDbArc
50
189.69466595070156
51
250.52877936802759
0
LINE
5
125
100
AcDbEntity
8
0
100
AcDbLine
10
38.855009621513176
20
43.15060337018636
30
0
11
38.855009621513162
21
39.615069464253665
31
0
0
ARC
5
126
100
AcDbEntity
8
0
100
AcDbCircle
10
190.23962247654225
20
125.83446697031967
30
0
40
3.9999999999999907
210
0
220
-0
230
1
100
AcDbArc
50
9.6926024896670118
51
70.528779365509678
0
LWPOLYLINE
5
127
100
AcDbEntity
8
0
100
AcDbPolyline
90
5
43
0.0
10
186.24397040767354
20
126.0209194965709
10
185.97651011838474
20
125.16657996958142
10
185.3473160490211
20
124.34253517027813
10
184.33862621030644
20
123.5502726417022
10
183.00976174357325
20
122.784824316203
0
ARC
5
128
100
AcDbEntity
8
0
100
AcDbCircle
10
29.739619031591236
20
125.83446713096315
30
0
40
4.0000043906398668
210
0
220
0
230
1
100
AcDbArc
50
109.47114413941438
51
177.33014216622871
0
LINE
5
129
100
AcDbEntity
8
0
100
AcDbLine
10
209.43669325217658
20
122.78482431620304
30
0
11
209.43669325217661
21
46.584824316203104
31
0
0
LINE
5
130
100
AcDbEntity
8
0
100
AcDbLine
10
197.51005745674212
20
122.78482431620297
30
0
11
209.43669325217658
21
122.78482431620304
31
0
0
LINE
5
131
100
AcDbEntity
8
0
100
AcDbLine
10
18.936693252176752
20
122.78482431620297
30
0
11
22.509761743573236
21
122.78482431620301
31
0
0
ARC
5
132
100
AcDbEntity
8
0
100
AcDbCircle
10
190.85500962151332
20
43.150603370186431
30
0
40
0.99999999999997868
210
0
220
0
230
1
100
AcDbArc
50
0
51
180.00589179487829
0
ARC
5
133
100
AcDbEntity
8
0
100
AcDbCircle
10
190.85500962151332
20
43.150603370186431
30
0
40
4.0000000000000266
210
0
220
0
230
1
100
AcDbArc
50
189.69309423497253
51
250.52877945121335
0
LINE
5
134
100
AcDbEntity
8
0
100
AcDbLine
10
189.85500962680035
20
43.150500538966483
30
0
11
189.85500962680035
21
39.615069462379822
31
0
0
LWPOLYLINE
5
135
100
AcDbEntity
8
0
100
AcDbPolyline
90
5
43
0.0
10
25.743970407673572
20
126.0209194965709
10
25.476510118457963
20
125.16657996958573
10
24.84731604899353
20
124.34253517027639
10
23.83862621016779
20
123.55027264169395
10
22.50976174357324
20
122.784824316203
0
LWPOLYLINE
5
136
100
AcDbEntity
8
0
100
AcDbPolyline
90
5
43
0.0
10
194.18252333530447
20
126.5079154226693
10
194.51516993813593
20
125.6848430662136
10
195.18392710930104
20
124.7892615515237
10
196.2013222267722
20
123.81846834621278
10
197.51005745674212
20
122.78482431620297
0
LINE
5
137
100
AcDbEntity
8
0
100
AcDbLine
10
189.23962247654225
20
125.83446697031967
30
0
11
189.23962247654225
21
129.37000087625239
31
0
0
LINE
5
138
100
AcDbEntity
8
0
100
AcDbLine
10
37.010057456742132
20
122.78482431620297
30
0
11
183.00976174357322
21
122.78482431620301
31
0
0
LINE
5
139
100
AcDbEntity
8
0
100
AcDbLine
10
183.60544060619935
20
46.584824316214366
30
0
11
45.054842842511569
21
46.584824316137663
31
0
0
LINE
5
140
100
AcDbEntity
8
0
100
AcDbLine
10
28.739622476542259
20
125.83446697031977
30
0
11
28.739622476541285
21
129.37000691184281
31
0
0
ARC
5
141
100
AcDbEntity
8
0
100
AcDbCircle
10
28.489622476541282
20
129.37000691184272
30
0
40
0.25000000000000355
210
0
220
-0
230
1
100
AcDbArc
50
0
51
109.47118989554059
0
ARC
5
142
100
AcDbEntity
8
0
100
AcDbCircle
10
190.23962247654225
20
125.83446697031967
30
0
40
4.0000000000000364
210
0
220
0
230
1
100
AcDbArc
50
109.47122063449031
51
177.33014216622843
0
ARC
5
143
100
AcDbEntity
8
0
100
AcDbCircle
10
190.23962247654225
20
125.83446697031967
30
0
40
1.0000000000000142
210
0
220
0
230
1
100
AcDbArc
50
-180
51
0
0
ARC
5
144
100
AcDbEntity
8
0
100
AcDbCircle
10
29.739619031591236
20
125.83446713096315
30
0
40
0.99999655504899154
210
0
220
0
230
1
100
AcDbArc
50
180.00000919542356
51
359.99999080457644
0
LWPOLYLINE
5
145
100
AcDbEntity
8
0
100
AcDbPolyline
90
5
43
0.0
10
33.682523335304474
20
126.5079154226693
10
34.0151699381895
20
125.6848430662121
10
34.683927109281484
20
124.78926155152439
10
35.70132222670187
20
123.81846834621506
10
37.01005745674213
20
122.78482431620297
0
ARC
5
146
100
AcDbEntity
8
0
100
AcDbCircle
10
191.48962247654225
20
129.37000087625245
30
0
40
0.25000000000000916
210
0
220
-0
230
1
100
AcDbArc
50
70.528779365512094
51
180
0
ARC
5
147
100
AcDbEntity
8
0
100
AcDbCircle
10
190.23962247654225
20
125.83446697031967
30
0
40
1.0000000000000142
210
0
220
0
230
1
100
AcDbArc
50
-180
51
0
0
LWPOLYLINE
5
148
100
AcDbEntity
8
0
100
AcDbPolyline
90
4
70
1
43
0.0
10
135.56169325217667
20
82.359824316203031
10
149.96169325217664
20
82.359824316203074
10
149.96169325217664
20
67.959824316203054
10
135.56169325217667
20
67.959824316203054
0
LWPOLYLINE
5
149
100
AcDbEntity
8
0
100
AcDbPolyline
90
4
70
1
43
0.0
10
192.71169325217664
20
82.359824316203074
10
207.11169325217656
20
82.359824316203074
10
207.11169325217662
20
67.959824316203097
10
192.71169325217667
20
67.959824316203097
0
LWPOLYLINE
5
150
100
AcDbEntity
8
0
100
AcDbPolyline
90
4
70
1
43
0.0
10
188.06169325217661
20
120.45982431620303
10
188.06169325217661
20
106.05982431620305
10
173.66169325217663
20
106.05982431620305
10
173.66169325217663
20
120.45982431620303
0
LWPOLYLINE
5
151
100
AcDbEntity
8
0
100
AcDbPolyline
90
4
70
1
43
0.0
10
59.361693252176728
20
101.40982431620301
10
73.761693252176713
20
101.40982431620301
10
73.761693252176713
20
87.009824316203037
10
59.361693252176728
20
87.009824316203037
0
LWPOLYLINE
5
152
100
AcDbEntity
8
0
100
AcDbPolyline
90
4
70
1
43
0.0
10
116.51169325217666
20
106.05982431620305
10
116.51169325217666
20
120.45982431620303
10
130.91169325217663
20
120.45982431620303
10
130.91169325217663
20
106.05982431620305
0
LWPOLYLINE
5
153
100
AcDbEntity
8
0
100
AcDbPolyline
90
4
70
1
43
0.0
10
149.96169325217664
20
87.009824316203037
10
135.56169325217667
20
87.009824316203037
10
135.56169325217664
20
101.40982431620301
10
149.96169325217662
20
101.40982431620301
0
LWPOLYLINE
5
154
100
AcDbEntity
8
0
100
AcDbPolyline
90
4
70
1
43
0.0
10
169.01169325217666
20
67.959824316203097
10
154.61169325217665
20
67.959824316203054
10
154.61169325217665
20
82.359824316203074
10
169.01169325217666
20
82.359824316203074
0
LWPOLYLINE
5
155
100
AcDbEntity
8
0
100
AcDbPolyline
90
12
70
1
43
0.0
10
53.661693252176747
20
66.283631390177433
10
63.786371978394158
20
66.375382168946331
10
167.96169325217664
20
66.375382168946331
10
167.96169325217664
20
66.372435796006855
10
174.71169325217662
20
66.372435796006855
10
207.11169325217662
20
66.372435796006855
10
207.11169325217662
20
48.109824316203088
10
174.71169325217662
20
48.109824316203088
10
60.411693252176747
20
48.109824316203046
10
53.661693252176747
20
48.109824316203031
10
21.261693252176755
20
48.109824316203031
10
21.261693252176755
20
66.283631390177433
0
LWPOLYLINE
5
156
100
AcDbEntity
8
0
100
AcDbPolyline
90
4
70
1
43
0.0
10
154.61169325217665
20
120.45982431620303
10
169.01169325217663
20
120.45982431620303
10
169.01169325217663
20
106.05982431620305
10
154.61169325217665
20
106.05982431620305
0
LWPOLYLINE
5
157
100
AcDbEntity
8
0
100
AcDbPolyline
90
4
70
1
43
0.0
10
116.51169325217666
20
101.40982431620301
10
130.91169325217663
20
101.40982431620301
10
130.91169325217666
20
87.009824316203037
10
116.51169325217668
20
87.009824316203037
0
LWPOLYLINE
5
158
100
AcDbEntity
8
0
100
AcDbPolyline
90
4
70
1
43
0.0
10
111.86169325217665
20
106.05982431620305
10
97.461693252176701
20
106.05982431620302
10
97.461693252176673
20
120.45982431620303
10
111.86169325217665
20
120.45982431620303
0
LWPOLYLINE
5
159
100
AcDbEntity
8
0
100
AcDbPolyline
90
4
70
1
43
0.0
10
154.61169325217665
20
101.40982431620301
10
169.01169325217663
20
101.40982431620304
10
169.01169325217666
20
87.009824316203066
10
154.61169325217665
20
87.009824316203037
0
LWPOLYLINE
5
160
100
AcDbEntity
8
0
100
AcDbPolyline
90
4
70
1
43
0.0
10
188.06169325217661
20
87.009824316203066
10
173.66169325217663
20
87.009824316203066
10
173.66169325217663
20
101.40982431620304
10
188.06169325217661
20
101.40982431620304
0
LWPOLYLINE
5
161
100
AcDbEntity
8
0
100
AcDbPolyline
90
4
70
1
43
0.0
10
149.96169325217662
20
106.05982431620305
10
135.56169325217664
20
106.05982431620305
10
135.56169325217664
20
120.45982431620303
10
149.96169325217662
20
120.45982431620303
0
LWPOLYLINE
5
162
100
AcDbEntity
8
0
100
AcDbPolyline
90
4
70
1
43
0.0
10
207.11169325217656
20
120.45982431620303
10
207.11169325217656
20
106.05982431620305
10
192.71169325217664
20
106.05982431620305
10
192.71169325217664
20
120.45982431620303
0
LWPOLYLINE
5
163
100
AcDbEntity
8
0
100
AcDbPolyline
90
4
70
1
43
0.0
10
188.06169325217664
20
67.959824316203097
10
173.66169325217663
20
67.959824316203097
10
173.66169325217663
20
82.359824316203074
10
188.06169325217661
20
82.359824316203074
0
LWPOLYLINE
5
164
100
AcDbEntity
8
0
100
AcDbPolyline
90
4
70
1
43
0.0
10
116.51169325217668
20
67.959824316203054
10
116.51169325217668
20
82.359824316203031
10
130.91169325217666
20
82.359824316203031
10
130.91169325217666
20
67.959824316203054
0
LWPOLYLINE
5
165
100
AcDbEntity
8
0
100
AcDbPolyline
90
4
70
1
43
0.0
10
73.761693252176727
20
67.959824316203026
10
59.361693252176735
20
67.959824316203026
10
59.361693252176735
20
82.359824316203031
10
73.761693252176727
20
82.359824316203031
0
LWPOLYLINE
5
166
100
AcDbEntity
8
0
100
AcDbPolyline
90
4
70
1
43
0.0
10
111.86169325217669
20
87.009824316203037
10
97.461693252176701
20
87.009824316203037
10
97.461693252176701
20
101.40982431620301
10
111.86169325217665
20
101.40982431620301
0
LWPOLYLINE
5
167
100
AcDbEntity
8
0
100
AcDbPolyline
90
4
70
1
43
0.0
10
192.71169325217664
20
101.40982431620304
10
207.11169325217656
20
101.40982431620304
10
207.11169325217656
20
87.009824316203066
10
192.71169325217664
20
87.009824316203066
0
LWPOLYLINE
5
168
100
AcDbEntity
8
0
100
AcDbPolyline
90
4
70
1
43
0.0
10
92.811693252176681
20
87.009824316203037
10
78.411693252176718
20
87.009824316203037
10
78.411693252176718
20
101.40982431620301
10
92.811693252176681
20
101.40982431620301
0
LWPOLYLINE
5
169
100
AcDbEntity
8
0
100
AcDbPolyline
90
4
70
1
43
0.0
10
97.461693252176715
20
67.959824316203054
10
97.461693252176715
20
82.359824316203031
10
111.86169325217669
20
82.359824316203031
10
111.86169325217669
20
67.959824316203054
0
LWPOLYLINE
5
170
100
AcDbEntity
8
0
100
AcDbPolyline
90
4
70
1
43
0.0
10
59.361693252176721
20
120.459824316203
10
73.761693252176713
20
120.459824316203
10
73.761693252176713
20
106.05982431620302
10
59.361693252176728
20
106.05982431620302
0
LWPOLYLINE
5
171
100
AcDbEntity
8
0
100
AcDbPolyline
90
4
70
1
43
0.0
10
54.71169325217673
20
87.009824316203037
10
40.311693252176752
20
87.009824316203037
10
40.311693252176752
20
101.40982431620301
10
54.71169325217673
20
101.40982431620301
0
LWPOLYLINE
5
172
100
AcDbEntity
8
0
100
AcDbPolyline
90
4
70
1
43
0.0
10
78.411693252176704
20
120.459824316203
10
92.811693252176681
20
120.45982431620303
10
92.811693252176681
20
106.05982431620302
10
78.411693252176718
20
106.05982431620302
0
LWPOLYLINE
5
173
100
AcDbEntity
8
0
100
AcDbPolyline
90
4
70
1
43
0.0
10
92.811693252176696
20
82.359824316203031
10
92.811693252176696
20
67.959824316203054
10
78.411693252176718
20
67.959824316203026
10
78.411693252176718
20
82.359824316203031
0
LWPOLYLINE
5
174
100
AcDbEntity
8
0
100
AcDbPolyline
90
4
70
1
43
0.0
10
35.661693252176747
20
82.359824316203003
10
35.661693252176747
20
67.959824316203026
10
21.261693252176769
20
67.959824316203026
10
21.261693252176762
20
82.359824316203003
0
LWPOLYLINE
5
175
100
AcDbEntity
8
0
100
AcDbPolyline
90
4
70
1
43
0.0
10
21.261693252176755
20
106.05982431620298
10
21.261693252176748
20
120.459824316203
10
35.661693252176732
20
120.459824316203
10
35.66169325217674
20
106.05982431620298
0
LWPOLYLINE
5
176
100
AcDbEntity
8
0
100
AcDbPolyline
90
4
70
1
43
0.0
10
40.311693252176738
20
120.459824316203
10
54.711693252176715
20
120.459824316203
10
54.711693252176723
20
106.05982431620302
10
40.311693252176745
20
106.05982431620298
0
LWPOLYLINE
5
177
100
AcDbEntity
8
0
100
AcDbPolyline
90
4
70
1
43
0.0
10
21.261693252176759
20
101.40982431620301
10
35.66169325217674
20
101.40982431620301
10
35.661693252176747
20
87.009824316203037
10
21.261693252176762
20
87.009824316203009
0
LWPOLYLINE
5
178
100
AcDbEntity
8
0
100
AcDbPolyline
90
4
70
1
43
0.0
10
54.71169325217673
20
82.359824316203003
10
54.71169325217673
20
67.959824316203026
10
40.311693252176752
20
67.959824316203026
10
40.311693252176752
20
82.359824316203003
0
ENDSEC
0
SECTION
2
OBJECTS
0
DICTIONARY
5
C
100
AcDbDictionary
3
ACAD_GROUP
350
D
3
ACAD_MLINESTYLE
350
17
0
DICTIONARY
5
D
100
AcDbDictionary
0
DICTIONARY
5
1A
330
C
100
AcDbDictionary
0
DICTIONARY
5
17
100
AcDbDictionary
0
ENDSEC
0
EOF
