0
SECTION
2
HEADER
9
$INSUNITS
70
4
9
$ACADVER
1
AC1014
9
$HANDSEED
5
FFFF
0
ENDSEC
0
SECTION
2
TABLES
0
TABLE
2
VPORT
5
8
100
AcDbSymbolTable
0
ENDTAB
0
TABLE
2
LTYPE
5
5
100
AcDbSymbolTable
0
LTYPE
5
14
100
AcDbSymbolTableRecord
100
AcDbLinetypeTableRecord
2
BYBLOCK
70
0
0
LTYPE
5
15
100
AcDbSymbolTableRecord
100
AcDbLinetypeTableRecord
2
BYLAYER
70
0
0
ENDTAB
0
TABLE
2
LAYER
5
2
100
AcDbSymbolTable
70
2
0
LAYER
5
50
100
AcDbSymbolTableRecord
100
AcDbLayerTableRecord
2
0
70
0
6
CONTINUOUS
0
ENDTAB
0
TABLE
2
STYLE
5
3
100
AcDbSymbolTable
70
1
0
STYLE
5
11
100
AcDbSymbolTableRecord
100
AcDbTextStyleTableRecord
2
STANDARD
70
0
0
ENDTAB
0
TABLE
2
VIEW
5
6
100
AcDbSymbolTable
70
0
0
ENDTAB
0
TABLE
2
UCS
5
7
100
AcDbSymbolTable
70
0
0
ENDTAB
0
TABLE
2
APPID
5
9
100
AcDbSymbolTable
70
2
0
APPID
5
12
100
AcDbSymbolTableRecord
100
AcDbRegAppTableRecord
2
ACAD
70
0
0
ENDTAB
0
TABLE
2
DIMSTYLE
5
A
100
AcDbSymbolTable
70
1
0
ENDTAB
0
TABLE
2
BLOCK_RECORD
5
1
100
AcDbSymbolTable
70
1
0
BLOCK_RECORD
5
1F
100
AcDbSymbolTableRecord
100
AcDbBlockTableRecord
2
*MODEL_SPACE
0
BLOCK_RECORD
5
1B
100
AcDbSymbolTableRecord
100
AcDbBlockTableRecord
2
*PAPER_SPACE
0
ENDTAB
0
ENDSEC
0
SECTION
2
BLOCKS
0
BLOCK
5
20
100
AcDbEntity
100
AcDbBlockBegin
2
*MODEL_SPACE
0
ENDBLK
5
21
100
AcDbEntity
100
AcDbBlockEnd
0
BLOCK
5
1C
100
AcDbEntity
100
AcDbBlockBegin
2
*PAPER_SPACE
0
ENDBLK
5
1D
100
AcDbEntity
100
AcDbBlockEnd
0
ENDSEC
0
SECTION
2
ENTITIES
0
LWPOLYLINE
5
100
100
AcDbEntity
8
0
100
AcDbPolyline
90
2
43
0.0
10
268.33334056138995
20
-141.08728650808334
10
268.266806435585
20
-141.25427204370496
0
LWPOLYLINE
5
101
100
AcDbEntity
8
0
100
AcDbPolyline
90
2
43
0.0
10
268.266806435585
20
-141.25427204370496
10
268.03459268808365
20
-141.3429829955101
0
LINE
5
102
100
AcDbEntity
8
0
100
AcDbLine
10
268.03459268808365
20
-141.34298299551011
30
0
11
267.83629804849625
21
-141.34559117555619
31
0
0
LINE
5
103
100
AcDbEntity
8
0
100
AcDbLine
10
267.83629804849625
20
-141.34559117555619
30
0
11
267.76715574264529
21
-141.14599244594575
31
0
0
LINE
5
104
100
AcDbEntity
8
0
100
AcDbLine
10
267.76715574264529
20
-141.14599244594575
30
0
11
267.98371493816376
21
-141.15382063388824
31
0
0
LWPOLYLINE
5
105
100
AcDbEntity
8
0
100
AcDbPolyline
90
2
43
0.0
10
267.98371493816376
20
-141.15382063388822
10
268.13113182783127
20
-141.04684512615202
0
LINE
5
106
100
AcDbEntity
8
0
100
AcDbLine
10
268.13113182783127
20
-141.04684512615205
30
0
11
268.13113182783127
21
-139.31828930377958
31
0
0
LINE
5
107
100
AcDbEntity
8
0
100
AcDbLine
10
268.13113182783127
20
-139.31828930377958
30
0
11
267.27794141769408
21
-139.31828930377958
31
0
0
LINE
5
108
100
AcDbEntity
8
0
100
AcDbLine
10
267.27794141769408
20
-139.31828930377958
30
0
11
267.27794141769408
21
-139.12260466814041
31
0
0
LINE
5
109
100
AcDbEntity
8
0
100
AcDbLine
10
267.27794141769408
20
-139.12260466814041
30
0
11
268.33334056138995
21
-139.12260466814041
31
0
0
LINE
5
110
100
AcDbEntity
8
0
100
AcDbLine
10
268.33334056138995
20
-139.12260466814041
30
0
11
268.33334056138995
21
-141.08728650808334
31
0
0
LWPOLYLINE
5
111
100
AcDbEntity
8
0
100
AcDbPolyline
90
2
43
0.0
10
269.4161328911781
20
-141.08206832408902
10
269.34438240528107
20
-141.26470841169356
0
LWPOLYLINE
5
112
100
AcDbEntity
8
0
100
AcDbPolyline
90
2
43
0.0
10
269.34438240528107
20
-141.26470841169356
10
269.10825456380843
20
-141.35341936349866
0
LINE
5
113
100
AcDbEntity
8
0
100
AcDbLine
10
269.10825456380843
20
-141.35341936349869
30
0
11
268.91126401424407
21
-141.35341936349869
31
0
0
LINE
5
114
100
AcDbEntity
8
0
100
AcDbLine
10
268.91126401424407
20
-141.35341936349869
30
0
11
268.84473171234129
21
-141.15382063388824
31
0
0
LINE
5
115
100
AcDbEntity
8
0
100
AcDbLine
10
268.84473171234129
20
-141.15382063388824
30
0
11
269.04954862594604
21
-141.16164699792861
31
0
0
LWPOLYLINE
5
116
100
AcDbEntity
8
0
100
AcDbPolyline
90
2
43
0.0
10
269.04954862594604
20
-141.1616469979286
10
269.21262006759645
20
-141.08467832803726
0
LINE
5
117
100
AcDbEntity
8
0
100
AcDbLine
10
269.21262006759645
20
-141.08467832803726
30
0
11
269.21262006759645
21
-139.3261174917221
31
0
0
LINE
5
118
100
AcDbEntity
8
0
100
AcDbLine
10
269.21262006759645
20
-139.3261174917221
30
0
11
268.39465467929836
21
-139.3261174917221
31
0
0
LINE
5
119
100
AcDbEntity
8
0
100
AcDbLine
10
268.39465467929836
20
-139.3261174917221
30
0
11
268.39465467929836
21
-139.13043103218078
31
0
0
LINE
5
120
100
AcDbEntity
8
0
100
AcDbLine
10
268.39465467929836
20
-139.13043103218078
30
0
11
269.41613289117817
21
-139.13043103218078
31
0
0
LINE
5
121
100
AcDbEntity
8
0
100
AcDbLine
10
269.41613289117817
20
-139.13043103218078
30
0
11
269.41613289117817
21
-141.08206832408905
31
0
0
LWPOLYLINE
5
122
100
AcDbEntity
8
0
100
AcDbPolyline
90
2
43
0.0
10
269.02084770202634
20
-140.04754374027252
10
268.83559943437575
20
-140.13234059810637
0
LWPOLYLINE
5
123
100
AcDbEntity
8
0
100
AcDbPolyline
90
2
43
0.0
10
268.83559943437575
20
-140.13234059810637
10
268.40639513731
20
-139.53484849929808
0
LINE
5
124
100
AcDbEntity
8
0
100
AcDbLine
10
268.40639513730997
20
-139.53484849929811
30
0
11
268.57468476295475
21
-139.43309117555617
31
0
0
LWPOLYLINE
5
125
100
AcDbEntity
8
0
100
AcDbPolyline
90
2
43
0.0
10
268.5746847629547
20
-139.43309117555617
10
269.02084770202634
20
-140.04754374027252
0
LINE
5
126
100
AcDbEntity
8
0
100
AcDbLine
10
267.93544536828995
20
-140.03971737623215
30
0
11
267.75932937860489
21
-140.13886469602585
31
0
0
LWPOLYLINE
5
127
100
AcDbEntity
8
0
100
AcDbPolyline
90
2
43
0.0
10
267.7593293786049
20
-140.13886469602582
10
267.28055142164226
20
-139.56354942321775
0
LINE
5
128
100
AcDbEntity
8
0
100
AcDbLine
10
267.28055142164231
20
-139.56354942321775
30
0
11
267.45275514125819
21
-139.44874572753906
31
0
0
LWPOLYLINE
5
129
100
AcDbEntity
8
0
100
AcDbPolyline
90
2
43
0.0
10
267.4527551412582
20
-139.44874572753903
10
267.93544536828995
20
-140.03971737623212
0
LWPOLYLINE
5
130
100
AcDbEntity
8
0
100
AcDbPolyline
90
3
43
0.0
10
269.17217868566513
20
-140.3762966275215
10
268.72699381411076
20
-140.6280776530504
10
268.52119700908656
20
-140.74157497882842
0
LINE
5
131
100
AcDbEntity
8
0
100
AcDbLine
10
268.52119700908656
20
-140.74157497882845
30
0
11
268.35812739133837
21
-140.59807218313216
31
0
0
LWPOLYLINE
5
132
100
AcDbEntity
8
0
100
AcDbPolyline
90
3
43
0.0
10
268.3581273913383
20
-140.59807218313216
10
268.87995491027834
20
-140.316285687685
10
269.17217868566513
20
-140.1519092440605
0
LINE
5
133
100
AcDbEntity
8
0
100
AcDbLine
10
269.17217868566519
20
-140.15190924406053
30
0
11
269.17217868566513
21
-140.3762966275215
31
0
0
LINE
5
134
100
AcDbEntity
8
0
100
AcDbLine
10
268.08547043800354
20
-140.37368662357329
30
0
11
267.39013510942459
21
-140.79506273269652
31
0
0
LINE
5
135
100
AcDbEntity
8
0
100
AcDbLine
10
267.39013510942459
20
-140.79506273269652
30
0
11
267.22836958169933
21
-140.63199129104612
31
0
0
LWPOLYLINE
5
136
100
AcDbEntity
8
0
100
AcDbPolyline
90
2
43
0.0
10
267.2283695816993
20
-140.63199129104612
10
268.0854704380035
20
-140.1519092440605
0
LINE
5
137
100
AcDbEntity
8
0
100
AcDbLine
10
268.08547043800354
20
-140.1519092440605
30
0
11
268.08547043800354
21
-140.37368662357329
31
0
0
LWPOLYLINE
5
138
100
AcDbEntity
8
0
100
AcDbPolyline
90
2
43
0.0
10
272.72617695331576
20
-140.69461132287978
10
272.5957205295563
20
-141.13294607400894
0
LWPOLYLINE
5
139
100
AcDbEntity
8
0
100
AcDbPolyline
90
2
43
0.0
10
272.5957205295563
20
-141.13294607400894
10
272.3100208520889
20
-141.28166705369946
0
LINE
5
140
100
AcDbEntity
8
0
100
AcDbLine
10
272.31002085208894
20
-141.28166705369946
30
0
11
271.59120278358455
21
-141.28166705369946
31
0
0
LWPOLYLINE
5
141
100
AcDbEntity
8
0
100
AcDbPolyline
90
2
43
0.0
10
271.59120278358455
20
-141.28166705369946
10
271.3159358263016
20
-141.0142301082611
0
LINE
5
142
100
AcDbEntity
8
0
100
AcDbLine
10
271.3159358263016
20
-141.0142301082611
30
0
11
271.3159358263016
21
-140.62155492305754
31
0
0
LINE
5
143
100
AcDbEntity
8
0
100
AcDbLine
10
271.3159358263016
20
-140.62155492305754
30
0
11
270.46144497394562
21
-140.72331224679948
31
0
0
LINE
5
144
100
AcDbEntity
8
0
100
AcDbLine
10
270.46144497394562
20
-140.72331224679948
30
0
11
270.43665814399719
21
-140.51979942321776
31
0
0
LINE
5
145
100
AcDbEntity
8
0
100
AcDbLine
10
270.43665814399719
20
-140.51979942321776
30
0
11
271.3159358263016
21
-140.41673800945281
31
0
0
LINE
5
146
100
AcDbEntity
8
0
100
AcDbLine
10
271.3159358263016
20
-140.41673800945281
30
0
11
271.3159358263016
21
-140.02014873027801
31
0
0
LINE
5
147
100
AcDbEntity
8
0
100
AcDbLine
10
271.3159358263016
20
-140.02014873027801
30
0
11
270.5788532018662
21
-140.10624967813493
31
0
0
LINE
5
148
100
AcDbEntity
8
0
100
AcDbLine
10
270.5788532018662
20
-140.10624967813493
30
0
11
270.56189455986026
21
-139.90534685850145
31
0
0
LINE
5
149
100
AcDbEntity
8
0
100
AcDbLine
10
270.56189455986026
20
-139.90534685850145
30
0
11
271.3159358263016
21
-139.81793999671933
31
0
0
LINE
5
150
100
AcDbEntity
8
0
100
AcDbLine
10
271.3159358263016
20
-139.81793999671933
30
0
11
271.3159358263016
21
-139.44352754354475
31
0
0
LWPOLYLINE
5
151
100
AcDbEntity
8
0
100
AcDbPolyline
90
2
43
0.0
10
271.3159358263016
20
-139.44352754354475
10
270.54102182388306
20
-139.50745166540145
0
LINE
5
152
100
AcDbEntity
8
0
100
AcDbLine
10
270.54102182388306
20
-139.50745166540145
30
0
11
270.41578176021579
21
-139.30524475574492
31
0
0
LWPOLYLINE
5
153
100
AcDbEntity
8
0
100
AcDbPolyline
90
2
43
0.0
10
270.41578176021574
20
-139.30524475574492
10
272.2943644762039
20
-139.02476143836972
0
LINE
5
154
100
AcDbEntity
8
0
100
AcDbLine
10
272.29436447620395
20
-139.02476143836975
30
0
11
272.44308545589445
21
-139.17609059810638
31
0
0
LWPOLYLINE
5
155
100
AcDbEntity
8
0
100
AcDbPolyline
90
2
43
0.0
10
272.44308545589445
20
-139.17609059810636
10
271.51945047378535
20
-139.41743662357328
0
LINE
5
156
100
AcDbEntity
8
0
100
AcDbLine
10
271.51945047378541
20
-139.41743662357328
30
0
11
271.51945047378541
21
-139.79837135076522
31
0
0
LINE
5
157
100
AcDbEntity
8
0
100
AcDbLine
10
271.51945047378541
20
-139.79837135076522
30
0
11
272.3504604101181
21
-139.70574630498885
31
0
0
LINE
5
158
100
AcDbEntity
8
0
100
AcDbLine
10
272.3504604101181
20
-139.70574630498885
30
0
11
272.3504604101181
21
-139.90534685850145
31
0
0
LINE
5
159
100
AcDbEntity
8
0
100
AcDbLine
10
272.3504604101181
20
-139.90534685850145
30
0
11
271.51945047378541
21
-139.99927599430083
31
0
0
LINE
5
160
100
AcDbEntity
8
0
100
AcDbLine
10
271.51945047378541
20
-139.99927599430083
30
0
11
271.51945047378541
21
-140.39195117950439
31
0
0
LINE
5
161
100
AcDbEntity
8
0
100
AcDbLine
10
271.51945047378541
20
-140.39195117950439
30
0
11
272.58789234161378
21
-140.27714930772783
31
0
0
LINE
5
162
100
AcDbEntity
8
0
100
AcDbLine
10
272.58789234161378
20
-140.27714930772783
30
0
11
272.60615689754491
21
-140.48066213130949
31
0
0
LINE
5
163
100
AcDbEntity
8
0
100
AcDbLine
10
272.60615689754491
20
-140.48066213130949
30
0
11
271.51945047378541
21
-140.61633673906326
31
0
0
LINE
5
164
100
AcDbEntity
8
0
100
AcDbLine
10
271.51945047378541
20
-140.61633673906326
30
0
11
271.51945047378541
21
-140.98292100429535
31
0
0
LWPOLYLINE
5
165
100
AcDbEntity
8
0
100
AcDbPolyline
90
2
43
0.0
10
271.51945047378535
20
-140.98292100429532
10
271.63164234161377
20
-141.08728650808334
0
LINE
5
166
100
AcDbEntity
8
0
100
AcDbLine
10
271.63164234161377
20
-141.08728650808334
30
0
11
272.32567358016968
21
-141.08728650808334
31
0
0
LWPOLYLINE
5
167
100
AcDbEntity
8
0
100
AcDbPolyline
90
2
43
0.0
10
272.3256735801697
20
-141.08728650808334
10
272.466570019722
20
-140.9868350982666
0
LWPOLYLINE
5
168
100
AcDbEntity
8
0
100
AcDbPolyline
90
2
43
0.0
10
272.466570019722
20
-140.9868350982666
10
272.5291882276535
20
-140.61111855506894
0
LINE
5
169
100
AcDbEntity
8
0
100
AcDbLine
10
272.52918822765355
20
-140.61111855506897
30
0
11
272.72617695331576
21
-140.69461132287978
31
0
0
ENDSEC
0
SECTION
2
OBJECTS
0
DICTIONARY
5
C
100
AcDbDictionary
3
ACAD_GROUP
350
D
3
ACAD_MLINESTYLE
350
17
0
DICTIONARY
5
D
100
AcDbDictionary
0
DICTIONARY
5
1A
330
C
100
AcDbDictionary
0
DICTIONARY
5
17
100
AcDbDictionary
0
ENDSEC
0
EOF
