0
SECTION
2
HEADER
9
$INSUNITS
70
4
9
$ACADVER
1
AC1014
9
$HANDSEED
5
FFFF
0
ENDSEC
0
SECTION
2
TABLES
0
TABLE
2
VPORT
5
8
100
AcDbSymbolTable
0
ENDTAB
0
TABLE
2
LTYPE
5
5
100
AcDbSymbolTable
0
LTYPE
5
14
100
AcDbSymbolTableRecord
100
AcDbLinetypeTableRecord
2
BYBLOCK
70
0
0
LTYPE
5
15
100
AcDbSymbolTableRecord
100
AcDbLinetypeTableRecord
2
BYLAYER
70
0
0
ENDTAB
0
TABLE
2
LAYER
5
2
100
AcDbSymbolTable
70
2
0
LAYER
5
50
100
AcDbSymbolTableRecord
100
AcDbLayerTableRecord
2
0
70
0
6
CONTINUOUS
0
ENDTAB
0
TABLE
2
STYLE
5
3
100
AcDbSymbolTable
70
1
0
STYLE
5
11
100
AcDbSymbolTableRecord
100
AcDbTextStyleTableRecord
2
STANDARD
70
0
0
ENDTAB
0
TABLE
2
VIEW
5
6
100
AcDbSymbolTable
70
0
0
ENDTAB
0
TABLE
2
UCS
5
7
100
AcDbSymbolTable
70
0
0
ENDTAB
0
TABLE
2
APPID
5
9
100
AcDbSymbolTable
70
2
0
APPID
5
12
100
AcDbSymbolTableRecord
100
AcDbRegAppTableRecord
2
ACAD
70
0
0
ENDTAB
0
TABLE
2
DIMSTYLE
5
A
100
AcDbSymbolTable
70
1
0
ENDTAB
0
TABLE
2
BLOCK_RECORD
5
1
100
AcDbSymbolTable
70
1
0
BLOCK_RECORD
5
1F
100
AcDbSymbolTableRecord
100
AcDbBlockTableRecord
2
*MODEL_SPACE
0
BLOCK_RECORD
5
1B
100
AcDbSymbolTableRecord
100
AcDbBlockTableRecord
2
*PAPER_SPACE
0
ENDTAB
0
ENDSEC
0
SECTION
2
BLOCKS
0
BLOCK
5
20
100
AcDbEntity
100
AcDbBlockBegin
2
*MODEL_SPACE
0
ENDBLK
5
21
100
AcDbEntity
100
AcDbBlockEnd
0
BLOCK
5
1C
100
AcDbEntity
100
AcDbBlockBegin
2
*PAPER_SPACE
0
ENDBLK
5
1D
100
AcDbEntity
100
AcDbBlockEnd
0
ENDSEC
0
SECTION
2
ENTITIES
0
LWPOLYLINE
5
100
100
AcDbEntity
8
0
100
AcDbPolyline
90
8
70
1
43
0.0
10
338.48333200779763
20
-207.6986130037925
10
352.3833320100328
20
-207.6986130037925
42
-0.41421356237309509
10
352.43333200891522
20
-207.74861300267492
10
352.43333200891522
20
-221.64861300491009
42
-0.41421356237309509
10
352.3833320100328
20
-221.6986130037925
10
338.48333200779763
20
-221.6986130037925
42
-0.41421356237309509
10
338.43333200891522
20
-221.64861300491009
10
338.43333200891522
20
-207.74861300267492
42
-0.41421356237309509
0
LWPOLYLINE
5
101
100
AcDbEntity
8
0
100
AcDbPolyline
90
8
70
1
43
0.0
10
357.53333200779764
20
-207.6986130037925
10
371.43333201003281
20
-207.6986130037925
42
-0.41421356237309509
10
371.48333200891523
20
-207.74861300267492
10
371.48333200891523
20
-221.64861300491009
42
-0.41421356237309509
10
371.43333201003281
20
-221.6986130037925
10
357.53333200779764
20
-221.6986130037925
42
-0.41421356237309509
10
357.48333200891523
20
-221.64861300491009
10
357.48333200891523
20
-207.74861300267492
42
-0.41421356237309509
0
LWPOLYLINE
5
102
100
AcDbEntity
8
0
100
AcDbPolyline
90
8
70
1
43
0.0
10
376.58333200779765
20
-207.6986130037925
10
390.48333201003283
20
-207.6986130037925
42
-0.41421356237309509
10
390.53333200891524
20
-207.74861300267492
10
390.53333200891524
20
-221.64861300491009
42
-0.41421356237309509
10
390.48333201003283
20
-221.6986130037925
10
376.58333200779765
20
-221.6986130037925
42
-0.41421356237309509
10
376.53333200891524
20
-221.64861300491009
10
376.53333200891524
20
-207.74861300267492
42
-0.41421356237309509
0
LWPOLYLINE
5
103
100
AcDbEntity
8
0
100
AcDbPolyline
90
8
70
1
43
0.0
10
395.63333200779766
20
-207.6986130037925
10
409.53333201003284
20
-207.6986130037925
42
-0.41421356237309509
10
409.58333200891525
20
-207.74861300267492
10
409.58333200891525
20
-221.64861300491009
42
-0.41421356237309509
10
409.53333201003284
20
-221.6986130037925
10
395.63333200779766
20
-221.6986130037925
42
-0.41421356237309509
10
395.58333200891525
20
-221.64861300491009
10
395.58333200891525
20
-207.74861300267492
42
-0.41421356237309509
0
LWPOLYLINE
5
104
100
AcDbEntity
8
0
100
AcDbPolyline
90
8
70
1
43
0.0
10
414.68333200779767
20
-207.6986130037925
10
428.58333201003285
20
-207.6986130037925
42
-0.41421356237309509
10
428.63333200891526
20
-207.74861300267492
10
428.63333200891526
20
-221.64861300491009
42
-0.41421356237309509
10
428.58333201003285
20
-221.6986130037925
10
414.68333200779767
20
-221.6986130037925
42
-0.41421356237309509
10
414.63333200891526
20
-221.64861300491009
10
414.63333200891526
20
-207.74861300267492
42
-0.41421356237309509
0
LWPOLYLINE
5
105
100
AcDbEntity
8
0
100
AcDbPolyline
90
8
70
1
43
0.0
10
433.73333200779763
20
-207.6986130037925
10
447.63333201003275
20
-207.6986130037925
42
-0.41421356237309509
10
447.68333200891516
20
-207.74861300267492
10
447.68333200891516
20
-221.64861300491009
42
-0.41421356237309509
10
447.63333201003275
20
-221.6986130037925
10
433.73333200779763
20
-221.6986130037925
42
-0.41421356237309509
10
433.68333200891522
20
-221.64861300491009
10
433.68333200891522
20
-207.74861300267492
42
-0.41421356237309509
0
LWPOLYLINE
5
106
100
AcDbEntity
8
0
100
AcDbPolyline
90
8
70
1
43
0.0
10
452.78333200779764
20
-207.6986130037925
10
466.68333201003281
20
-207.6986130037925
42
-0.41421356237309509
10
466.73333200891523
20
-207.74861300267492
10
466.73333200891523
20
-221.64861300491009
42
-0.41421356237309509
10
466.68333201003281
20
-221.6986130037925
10
452.78333200779764
20
-221.6986130037925
42
-0.41421356237309509
10
452.73333200891523
20
-221.64861300491009
10
452.73333200891523
20
-207.74861300267492
42
-0.41421356237309509
0
LWPOLYLINE
5
107
100
AcDbEntity
8
0
100
AcDbPolyline
90
8
70
1
43
0.0
10
471.83333200779765
20
-207.6986130037925
10
485.73333201003277
20
-207.6986130037925
42
-0.41421356237309509
10
485.78333200891518
20
-207.74861300267492
10
485.78333200891518
20
-221.64861300491009
42
-0.41421356237309509
10
485.73333201003277
20
-221.6986130037925
10
471.83333200779765
20
-221.6986130037925
42
-0.41421356237309509
10
471.78333200891524
20
-221.64861300491009
10
471.78333200891524
20
-207.74861300267492
42
-0.41421356237309509
0
LWPOLYLINE
5
108
100
AcDbEntity
8
0
100
AcDbPolyline
90
8
70
1
43
0.0
10
490.88333200779766
20
-207.6986130037925
10
504.78333201003284
20
-207.6986130037925
42
-0.41421356237309509
10
504.83333200891525
20
-207.74861300267492
10
504.83333200891525
20
-221.64861300491009
42
-0.41421356237309509
10
504.78333201003284
20
-221.6986130037925
10
490.88333200779766
20
-221.6986130037925
42
-0.41421356237309509
10
490.83333200891525
20
-221.64861300491009
10
490.83333200891525
20
-207.74861300267492
42
-0.41421356237309509
0
LWPOLYLINE
5
109
100
AcDbEntity
8
0
100
AcDbPolyline
90
8
70
1
43
0.0
10
319.43333200779767
20
-226.74861300379249
10
333.33333201003285
20
-226.74861300379249
42
-0.41421356237309509
10
333.38333200891526
20
-226.7986130026749
10
333.38333200891526
20
-240.6986130049101
42
-0.41421356237309509
10
333.33333201003285
20
-240.74861300379251
10
319.43333200779767
20
-240.74861300379251
42
-0.41421356237309509
10
319.38333200891526
20
-240.6986130049101
10
319.38333200891526
20
-226.7986130026749
42
-0.41421356237309509
0
LWPOLYLINE
5
110
100
AcDbEntity
8
0
100
AcDbPolyline
90
8
70
1
43
0.0
10
338.48333200779763
20
-226.74861300379249
10
352.3833320100328
20
-226.74861300379249
42
-0.41421356237309509
10
352.43333200891522
20
-226.7986130026749
10
352.43333200891522
20
-240.6986130049101
42
-0.41421356237309509
10
352.3833320100328
20
-240.74861300379251
10
338.48333200779763
20
-240.74861300379251
42
-0.41421356237309509
10
338.43333200891522
20
-240.6986130049101
10
338.43333200891522
20
-226.7986130026749
42
-0.41421356237309509
0
LWPOLYLINE
5
111
100
AcDbEntity
8
0
100
AcDbPolyline
90
8
70
1
43
0.0
10
357.53333200779764
20
-226.74861300379249
10
371.43333201003281
20
-226.74861300379249
42
-0.41421356237309509
10
371.48333200891523
20
-226.7986130026749
10
371.48333200891523
20
-240.6986130049101
42
-0.41421356237309509
10
371.43333201003281
20
-240.74861300379251
10
357.53333200779764
20
-240.74861300379251
42
-0.41421356237309509
10
357.48333200891523
20
-240.6986130049101
10
357.48333200891523
20
-226.7986130026749
42
-0.41421356237309509
0
LWPOLYLINE
5
112
100
AcDbEntity
8
0
100
AcDbPolyline
90
8
70
1
43
0.0
10
376.58333200779765
20
-226.74861300379249
10
390.48333201003283
20
-226.74861300379249
42
-0.41421356237309509
10
390.53333200891524
20
-226.7986130026749
10
390.53333200891524
20
-240.6986130049101
42
-0.41421356237309509
10
390.48333201003283
20
-240.74861300379251
10
376.58333200779765
20
-240.74861300379251
42
-0.41421356237309509
10
376.53333200891524
20
-240.6986130049101
10
376.53333200891524
20
-226.7986130026749
42
-0.41421356237309509
0
LWPOLYLINE
5
113
100
AcDbEntity
8
0
100
AcDbPolyline
90
8
70
1
43
0.0
10
395.63333200779766
20
-226.74861300379249
10
409.53333201003284
20
-226.74861300379249
42
-0.41421356237309509
10
409.58333200891525
20
-226.7986130026749
10
409.58333200891525
20
-240.6986130049101
42
-0.41421356237309509
10
409.53333201003284
20
-240.74861300379251
10
395.63333200779766
20
-240.74861300379251
42
-0.41421356237309509
10
395.58333200891525
20
-240.6986130049101
10
395.58333200891525
20
-226.7986130026749
42
-0.41421356237309509
0
LWPOLYLINE
5
114
100
AcDbEntity
8
0
100
AcDbPolyline
90
8
70
1
43
0.0
10
414.68333200779767
20
-226.74861300379249
10
428.58333201003285
20
-226.74861300379249
42
-0.41421356237309509
10
428.63333200891526
20
-226.7986130026749
10
428.63333200891526
20
-240.6986130049101
42
-0.41421356237309509
10
428.58333201003285
20
-240.74861300379251
10
414.68333200779767
20
-240.74861300379251
42
-0.41421356237309509
10
414.63333200891526
20
-240.6986130049101
10
414.63333200891526
20
-226.7986130026749
42
-0.41421356237309509
0
LWPOLYLINE
5
115
100
AcDbEntity
8
0
100
AcDbPolyline
90
8
70
1
43
0.0
10
433.73333200779763
20
-226.74861300379249
10
447.63333201003275
20
-226.74861300379249
42
-0.41421356237309509
10
447.68333200891516
20
-226.7986130026749
10
447.68333200891516
20
-240.6986130049101
42
-0.41421356237309509
10
447.63333201003275
20
-240.74861300379251
10
433.73333200779763
20
-240.74861300379251
42
-0.41421356237309509
10
433.68333200891522
20
-240.6986130049101
10
433.68333200891522
20
-226.7986130026749
42
-0.41421356237309509
0
LWPOLYLINE
5
116
100
AcDbEntity
8
0
100
AcDbPolyline
90
8
70
1
43
0.0
10
452.78333200779764
20
-226.74861300379249
10
466.68333201003281
20
-226.74861300379249
42
-0.41421356237309509
10
466.73333200891523
20
-226.7986130026749
10
466.73333200891523
20
-240.6986130049101
42
-0.41421356237309509
10
466.68333201003281
20
-240.74861300379251
10
452.78333200779764
20
-240.74861300379251
42
-0.41421356237309509
10
452.73333200891523
20
-240.6986130049101
10
452.73333200891523
20
-226.7986130026749
42
-0.41421356237309509
0
LWPOLYLINE
5
117
100
AcDbEntity
8
0
100
AcDbPolyline
90
8
70
1
43
0.0
10
471.83333200779765
20
-226.74861300379249
10
485.73333201003277
20
-226.74861300379249
42
-0.41421356237309509
10
485.78333200891518
20
-226.7986130026749
10
485.78333200891518
20
-240.6986130049101
42
-0.41421356237309509
10
485.73333201003277
20
-240.74861300379251
10
471.83333200779765
20
-240.74861300379251
42
-0.41421356237309509
10
471.78333200891524
20
-240.6986130049101
10
471.78333200891524
20
-226.7986130026749
42
-0.41421356237309509
0
LWPOLYLINE
5
118
100
AcDbEntity
8
0
100
AcDbPolyline
90
8
70
1
43
0.0
10
490.88333200779766
20
-226.74861300379249
10
504.78333201003284
20
-226.74861300379249
42
-0.41421356237309509
10
504.83333200891525
20
-226.7986130026749
10
504.83333200891525
20
-240.6986130049101
42
-0.41421356237309509
10
504.78333201003284
20
-240.74861300379251
10
490.88333200779766
20
-240.74861300379251
42
-0.41421356237309509
10
490.83333200891525
20
-240.6986130049101
10
490.83333200891525
20
-226.7986130026749
42
-0.41421356237309509
0
LWPOLYLINE
5
119
100
AcDbEntity
8
0
100
AcDbPolyline
90
8
70
1
43
0.0
10
319.43333200779767
20
-245.7986130037925
10
333.33333201003285
20
-245.7986130037925
42
-0.41421356237309509
10
333.38333200891526
20
-245.84861300267491
10
333.38333200891526
20
-259.74861300491006
42
-0.41421356237309509
10
333.33333201003285
20
-259.79861300379247
10
319.43333200779767
20
-259.79861300379247
42
-0.41421356237309509
10
319.38333200891526
20
-259.74861300491006
10
319.38333200891526
20
-245.84861300267491
42
-0.41421356237309509
0
LWPOLYLINE
5
120
100
AcDbEntity
8
0
100
AcDbPolyline
90
8
70
1
43
0.0
10
338.48333200779763
20
-245.7986130037925
10
352.3833320100328
20
-245.7986130037925
42
-0.41421356237309509
10
352.43333200891522
20
-245.84861300267491
10
352.43333200891522
20
-259.74861300491006
42
-0.41421356237309509
10
352.3833320100328
20
-259.79861300379247
10
338.48333200779763
20
-259.79861300379247
42
-0.41421356237309509
10
338.43333200891522
20
-259.74861300491006
10
338.43333200891522
20
-245.84861300267491
42
-0.41421356237309509
0
LWPOLYLINE
5
121
100
AcDbEntity
8
0
100
AcDbPolyline
90
8
70
1
43
0.0
10
357.53333200779764
20
-245.7986130037925
10
371.43333201003281
20
-245.7986130037925
42
-0.41421356237309509
10
371.48333200891523
20
-245.84861300267491
10
371.48333200891523
20
-259.74861300491006
42
-0.41421356237309509
10
371.43333201003281
20
-259.79861300379247
10
357.53333200779764
20
-259.79861300379247
42
-0.41421356237309509
10
357.48333200891523
20
-259.74861300491006
10
357.48333200891523
20
-245.84861300267491
42
-0.41421356237309509
0
LWPOLYLINE
5
122
100
AcDbEntity
8
0
100
AcDbPolyline
90
8
70
1
43
0.0
10
376.58333200779765
20
-245.7986130037925
10
390.48333201003283
20
-245.7986130037925
42
-0.41421356237309509
10
390.53333200891524
20
-245.84861300267491
10
390.53333200891524
20
-259.74861300491006
42
-0.41421356237309509
10
390.48333201003283
20
-259.79861300379247
10
376.58333200779765
20
-259.79861300379247
42
-0.41421356237309509
10
376.53333200891524
20
-259.74861300491006
10
376.53333200891524
20
-245.84861300267491
42
-0.41421356237309509
0
LWPOLYLINE
5
123
100
AcDbEntity
8
0
100
AcDbPolyline
90
8
70
1
43
0.0
10
395.63333200779766
20
-245.7986130037925
10
409.53333201003284
20
-245.7986130037925
42
-0.41421356237309509
10
409.58333200891525
20
-245.84861300267491
10
409.58333200891525
20
-259.74861300491006
42
-0.41421356237309509
10
409.53333201003284
20
-259.79861300379247
10
395.63333200779766
20
-259.79861300379247
42
-0.41421356237309509
10
395.58333200891525
20
-259.74861300491006
10
395.58333200891525
20
-245.84861300267491
42
-0.41421356237309509
0
LWPOLYLINE
5
124
100
AcDbEntity
8
0
100
AcDbPolyline
90
8
70
1
43
0.0
10
414.68333200779767
20
-245.7986130037925
10
428.58333201003285
20
-245.7986130037925
42
-0.41421356237309509
10
428.63333200891526
20
-245.84861300267491
10
428.63333200891526
20
-259.74861300491006
42
-0.41421356237309509
10
428.58333201003285
20
-259.79861300379247
10
414.68333200779767
20
-259.79861300379247
42
-0.41421356237309509
10
414.63333200891526
20
-259.74861300491006
10
414.63333200891526
20
-245.84861300267491
42
-0.41421356237309509
0
LWPOLYLINE
5
125
100
AcDbEntity
8
0
100
AcDbPolyline
90
8
70
1
43
0.0
10
433.73333200779763
20
-245.7986130037925
10
447.63333201003275
20
-245.7986130037925
42
-0.41421356237309509
10
447.68333200891516
20
-245.84861300267491
10
447.68333200891516
20
-259.74861300491006
42
-0.41421356237309509
10
447.63333201003275
20
-259.79861300379247
10
433.73333200779763
20
-259.79861300379247
42
-0.41421356237309509
10
433.68333200891522
20
-259.74861300491006
10
433.68333200891522
20
-245.84861300267491
42
-0.41421356237309509
0
LWPOLYLINE
5
126
100
AcDbEntity
8
0
100
AcDbPolyline
90
8
70
1
43
0.0
10
452.78333200779764
20
-245.7986130037925
10
466.68333201003281
20
-245.7986130037925
42
-0.41421356237309509
10
466.73333200891523
20
-245.84861300267491
10
466.73333200891523
20
-259.74861300491006
42
-0.41421356237309509
10
466.68333201003281
20
-259.79861300379247
10
452.78333200779764
20
-259.79861300379247
42
-0.41421356237309509
10
452.73333200891523
20
-259.74861300491006
10
452.73333200891523
20
-245.84861300267491
42
-0.41421356237309509
0
LWPOLYLINE
5
127
100
AcDbEntity
8
0
100
AcDbPolyline
90
8
70
1
43
0.0
10
471.83333200779765
20
-245.7986130037925
10
485.73333201003277
20
-245.7986130037925
42
-0.41421356237309509
10
485.78333200891518
20
-245.84861300267491
10
485.78333200891518
20
-259.74861300491006
42
-0.41421356237309509
10
485.73333201003277
20
-259.79861300379247
10
471.83333200779765
20
-259.79861300379247
42
-0.41421356237309509
10
471.78333200891524
20
-259.74861300491006
10
471.78333200891524
20
-245.84861300267491
42
-0.41421356237309509
0
LWPOLYLINE
5
128
100
AcDbEntity
8
0
100
AcDbPolyline
90
8
70
1
43
0.0
10
490.88333200779766
20
-245.7986130037925
10
504.78333201003284
20
-245.7986130037925
42
-0.41421356237309509
10
504.83333200891525
20
-245.84861300267491
10
504.83333200891525
20
-259.74861300491006
42
-0.41421356237309509
10
504.78333201003284
20
-259.79861300379247
10
490.88333200779766
20
-259.79861300379247
42
-0.41421356237309509
10
490.83333200891525
20
-259.74861300491006
10
490.83333200891525
20
-245.84861300267491
42
-0.41421356237309509
0
LWPOLYLINE
5
129
100
AcDbEntity
8
0
100
AcDbPolyline
90
3
43
0.0
10
339.7710607959065
20
-284.979943856521
10
340.50128536669706
20
-282.81669067308854
10
342.97524274565944
20
-281.35925329214575
0
ARC
5
130
100
AcDbEntity
8
0
100
AcDbCircle
10
334.52540952481655
20
-288.3290081440847
30
0
40
0.2500000000000584
210
0
220
0
230
1
100
AcDbArc
50
-109.47122063197814
51
0
0
ARC
5
131
100
AcDbEntity
8
0
100
AcDbCircle
10
335.77540952466109
20
-284.79347423809708
30
0
40
1.0000000000000853
210
0
220
0
230
1
100
AcDbArc
50
0
51
180.00101016324402
0
LWPOLYLINE
5
132
100
AcDbEntity
8
0
100
AcDbPolyline
90
3
43
0.0
10
331.8325329221558
20
-285.46706469038685
10
330.91355535477066
20
-282.89979494549283
10
328.525840509361
20
-281.35925329207953
0
LWPOLYLINE
5
133
100
AcDbEntity
8
0
100
AcDbPolyline
90
3
43
0.0
10
484.8325144459659
20
-285.46695653066286
10
483.9003376771362
20
-282.919022667575
10
481.52584050934735
20
-281.359253292069
0
LWPOLYLINE
5
134
100
AcDbEntity
8
0
100
AcDbPolyline
90
8
70
1
43
0.0
10
333.36004028061848
20
-221.64167864669503
42
-0.41421356237309509
10
333.31004028173606
20
-221.69167864557744
10
319.41004027950095
20
-221.69167864557744
42
-0.41421356237309509
10
319.36004028061853
20
-221.64167864669503
10
319.36004028061853
20
-207.74167864445985
42
-0.41421356237309509
10
319.41004027950095
20
-207.69167864557744
10
333.31004028173606
20
-207.69167864557744
42
-0.41421356237309509
10
333.36004028061848
20
-207.74167864445985
0
ARC
5
135
100
AcDbEntity
8
0
100
AcDbCircle
10
317.10709315532472
20
-281.10925329208038
30
0
40
0.25000000000002132
210
0
220
0
230
1
100
AcDbArc
50
180
51
270
0
LINE
5
136
100
AcDbEntity
8
0
100
AcDbLine
10
334.77540952481661
20
-284.79349186877585
30
0
11
334.7754095248165
21
-288.3290081440847
31
0
0
ARC
5
137
100
AcDbEntity
8
0
100
AcDbCircle
10
335.77540952466109
20
-284.79347423809708
30
0
40
3.9999999999999929
210
0
220
0
230
1
100
AcDbArc
50
289.47122063449115
51
357.32805109560513
0
ARC
5
138
100
AcDbEntity
8
0
100
AcDbCircle
10
335.77540952466109
20
-284.79347423809708
30
0
40
3.9999999999999236
210
0
220
0
230
1
100
AcDbArc
50
189.69466595070185
51
250.52877936802793
0
LINE
5
139
100
AcDbEntity
8
0
100
AcDbLine
10
507.35709315532449
20
-205.40925329208045
30
0
11
507.35709315532461
21
-281.10925329208089
31
0
0
LINE
5
140
100
AcDbEntity
8
0
100
AcDbLine
10
481.52584050934735
20
-281.35925329206907
30
0
11
342.97524274565944
21
-281.35925329214581
31
0
0
ARC
5
141
100
AcDbEntity
8
0
100
AcDbCircle
10
337.02540952466109
20
-288.32900814402979
30
0
40
0.24999999999991473
210
0
220
0
230
1
100
AcDbArc
50
180
51
289.47122063449581
0
LINE
5
142
100
AcDbEntity
8
0
100
AcDbLine
10
334.93045735989017
20
-205.15925329208048
30
0
11
480.93016164672122
21
-205.15925329208045
31
0
0
LINE
5
143
100
AcDbEntity
8
0
100
AcDbLine
10
336.7754095246612
20
-284.79347423809708
30
0
11
336.7754095246612
21
-288.32900814402979
31
0
0
LINE
5
144
100
AcDbEntity
8
0
100
AcDbLine
10
328.52584050936105
20
-281.35925329207953
30
0
11
317.10709315532472
21
-281.35925329208038
31
0
0
LWPOLYLINE
5
145
100
AcDbEntity
8
0
100
AcDbPolyline
90
3
43
0.0
10
323.66437031082154
20
-201.92315811171255
10
322.76771595220805
20
-203.601542438058
10
320.43016164672116
20
-205.15925329208045
0
ARC
5
146
100
AcDbEntity
8
0
100
AcDbCircle
10
335.77540952481655
20
-284.79349186877585
30
0
40
1.0000000000000389
210
0
220
-0
230
1
100
AcDbArc
50
0.0010101632440297191
51
180
0
ARC
5
147
100
AcDbEntity
8
0
100
AcDbCircle
10
327.66001893473913
20
-202.1096104773203
30
0
40
4.000004390639833
210
0
220
0
230
1
100
AcDbArc
50
109.47114413941343
51
177.330142166229
0
ARC
5
148
100
AcDbEntity
8
0
100
AcDbCircle
10
507.10709315532472
20
-281.10925329208095
30
0
40
0.24999999999991473
210
-0
220
0
230
1
100
AcDbArc
50
-89.999999999908809
51
0
0
LINE
5
149
100
AcDbEntity
8
0
100
AcDbLine
10
316.85709315532472
20
-281.10925329208038
30
0
11
316.85709315532472
21
-205.40925329208051
31
0
0
ARC
5
150
100
AcDbEntity
8
0
100
AcDbCircle
10
488.77540952994821
20
-284.793577069317
30
0
40
1.0000000000002087
210
0
220
-0
230
1
100
AcDbArc
50
0.0058917948782933388
51
180
0
LWPOLYLINE
5
151
100
AcDbEntity
8
0
100
AcDbPolyline
90
3
43
0.0
10
484.16437031082154
20
-201.92315811171255
10
483.2677159522126
20
-203.601542438058
10
480.9301616467211
20
-205.15925329208045
0
LINE
5
152
100
AcDbEntity
8
0
100
AcDbLine
10
495.43045735989011
20
-205.15925329208048
30
0
11
507.10709315532455
21
-205.15925329208042
31
0
0
LWPOLYLINE
5
153
100
AcDbEntity
8
0
100
AcDbPolyline
90
3
43
0.0
10
331.6029232384524
20
-201.43616218561414
10
332.60432701251494
20
-203.1548160568432
10
334.9304573598901
20
-205.15925329208045
0
ARC
5
154
100
AcDbEntity
8
0
100
AcDbCircle
10
487.52540952994832
20
-288.32900814590363
30
0
40
0.24999999999783101
210
0
220
0
230
1
100
AcDbArc
50
-109.47122054879767
51
0
0
ARC
5
155
100
AcDbEntity
8
0
100
AcDbCircle
10
327.66001893473913
20
-202.1096104773203
30
0
40
0.99999655504889384
210
0
220
0
230
1
100
AcDbArc
50
180.00000919542356
51
359.99999080457644
0
LINE
5
156
100
AcDbEntity
8
0
100
AcDbLine
10
317.10709315532472
20
-205.15925329208051
30
0
11
320.43016164672122
21
-205.15925329208045
31
0
0
ARC
5
157
100
AcDbEntity
8
0
100
AcDbCircle
10
488.7754095246612
20
-284.79347423809702
30
0
40
4.000005690409961
210
0
220
0
230
1
100
AcDbArc
50
289.47118989552649
51
357.32964384092423
0
ARC
5
158
100
AcDbEntity
8
0
100
AcDbCircle
10
327.66001893473913
20
-202.1096104773203
30
0
40
4.0000033687289083
210
0
220
-0
230
1
100
AcDbArc
50
9.6925919135972283
51
70.528732075319766
0
ARC
5
159
100
AcDbEntity
8
0
100
AcDbCircle
10
489.41002237969019
20
-198.57407673203102
30
0
40
0.25000000000003286
210
0
220
-0
230
1
100
AcDbArc
50
70.52877936550199
51
180
0
ARC
5
160
100
AcDbEntity
8
0
100
AcDbCircle
10
488.7754095246612
20
-284.79347423809702
30
0
40
1.0000000000000853
210
0
220
0
230
1
100
AcDbArc
50
0
51
180.00589179487829
0
ARC
5
161
100
AcDbEntity
8
0
100
AcDbCircle
10
488.16002237969019
20
-202.10961063796378
30
0
40
3.9999999999999907
210
0
220
-0
230
1
100
AcDbArc
50
9.6926024896668235
51
70.528779365508981
0
ARC
5
162
100
AcDbEntity
8
0
100
AcDbCircle
10
488.16002237969019
20
-202.10961063796378
30
0
40
0.99999999999994316
210
0
220
0
230
1
100
AcDbArc
50
-180
51
0
0
ARC
5
163
100
AcDbEntity
8
0
100
AcDbCircle
10
486.91002237969019
20
-198.57407673203102
30
0
40
0.25000000000005684
210
0
220
0
230
1
100
AcDbArc
50
0
51
109.47122063447345
0
ARC
5
164
100
AcDbEntity
8
0
100
AcDbCircle
10
490.0254095246612
20
-288.32901417962046
30
0
40
0.24999999999991473
210
0
220
0
230
1
100
AcDbArc
50
180
51
289.47118989552945
0
LINE
5
165
100
AcDbEntity
8
0
100
AcDbLine
10
487.16002237969019
20
-202.10961063796378
30
0
11
487.16002237969019
21
-198.57407673203107
31
0
0
LINE
5
166
100
AcDbEntity
8
0
100
AcDbLine
10
326.66002237969025
20
-202.10961063796367
30
0
11
326.66002237968928
21
-198.57407069644066
31
0
0
LINE
5
167
100
AcDbEntity
8
0
100
AcDbLine
10
489.16002237969025
20
-202.10961063796378
30
0
11
489.16002237969025
21
-198.57407673203107
31
0
0
ARC
5
168
100
AcDbEntity
8
0
100
AcDbCircle
10
488.16002237969019
20
-202.10961063796378
30
0
40
0.99999999999994316
210
0
220
0
230
1
100
AcDbArc
50
-180
51
0
0
LWPOLYLINE
5
169
100
AcDbEntity
8
0
100
AcDbPolyline
90
3
43
0.0
10
492.1029232384524
20
-201.43616218561414
10
493.10432701250477
20
-203.1548160568432
10
495.4304573598901
20
-205.15925329208045
0
LWPOLYLINE
5
170
100
AcDbEntity
8
0
100
AcDbPolyline
90
2
43
0.0
10
492.7710716621972
20
-284.97983304785197
10
495.97524274574454
20
-281.3592532921048
0
ARC
5
171
100
AcDbEntity
8
0
100
AcDbCircle
10
317.10709315532461
20
-205.40925329208045
30
0
40
0.24999999999991473
210
0
220
-0
230
1
100
AcDbArc
50
89.999999999973952
51
180
0
LINE
5
172
100
AcDbEntity
8
0
100
AcDbLine
10
489.77540952466131
20
-284.79347423809702
30
0
11
489.77540952466131
21
-288.32901417962046
31
0
0
ARC
5
173
100
AcDbEntity
8
0
100
AcDbCircle
10
327.66002237969019
20
-202.10961063796378
30
0
40
0.99999999999994316
210
0
220
0
230
1
100
AcDbArc
50
180
51
360
0
LINE
5
174
100
AcDbEntity
8
0
100
AcDbLine
10
328.66002237969013
20
-202.10961063796387
30
0
11
328.66002237969013
21
-198.57407673203102
31
0
0
ARC
5
175
100
AcDbEntity
8
0
100
AcDbCircle
10
326.41002237968917
20
-198.57407069644071
30
0
40
0.25000000000005684
210
0
220
-0
230
1
100
AcDbArc
50
0
51
109.47118989552511
0
ARC
5
176
100
AcDbEntity
8
0
100
AcDbCircle
10
488.16002237969019
20
-202.10961063796378
30
0
40
4.0000000000000124
210
0
220
0
230
1
100
AcDbArc
50
109.47122063448948
51
177.33014216622871
0
ARC
5
177
100
AcDbEntity
8
0
100
AcDbCircle
10
507.10709315532455
20
-205.40925329208039
30
0
40
0.24999999999991473
210
0
220
0
230
1
100
AcDbArc
50
0
51
90
0
LINE
5
178
100
AcDbEntity
8
0
100
AcDbLine
10
507.10709315532512
20
-281.35925329208084
30
0
11
495.97524274574454
21
-281.35925329210488
31
0
0
LINE
5
179
100
AcDbEntity
8
0
100
AcDbLine
10
487.77540952994826
20
-284.793577069317
30
0
11
487.77540952994826
21
-288.32900814590363
31
0
0
ARC
5
180
100
AcDbEntity
8
0
100
AcDbCircle
10
328.91002237969019
20
-198.57407673203102
30
0
40
0.24999999999999933
210
0
220
-0
230
1
100
AcDbArc
50
70.52877936549983
51
180
0
ARC
5
181
100
AcDbEntity
8
0
100
AcDbCircle
10
488.7754095246612
20
-284.79347423809702
30
0
40
3.9999999999999214
210
0
220
0
230
1
100
AcDbArc
50
189.69309423497268
51
250.52877945121341
0
LWPOLYLINE
5
182
100
AcDbEntity
8
0
100
AcDbPolyline
90
4
70
1
43
0.0
10
504.83333200891525
20
-278.84861300379248
10
319.38333200891526
20
-278.84861300379248
10
319.38333200891526
20
-263.77003988576485
10
504.83333200891525
20
-263.77003988576485
0
ENDSEC
0
SECTION
2
OBJECTS
0
DICTIONARY
5
C
100
AcDbDictionary
3
ACAD_GROUP
350
D
3
ACAD_MLINESTYLE
350
17
0
DICTIONARY
5
D
100
AcDbDictionary
0
DICTIONARY
5
1A
330
C
100
AcDbDictionary
0
DICTIONARY
5
17
100
AcDbDictionary
0
ENDSEC
0
EOF
